<svg viewBox="0 0 114 95" xmlns="http://www.w3.org/2000/svg">
<style>
.cls-1{fill:#ea5566;}.cls-2{fill:#97c772;}.cls-3{fill:#fece56;}.cls-4{fill:#4fc1ea;}.cls-5{fill:#aadadf;}.cls-6{fill:#fff;}.cls-7{fill:#202121;}
</style>
<polygon class="cls-1" points="57.23 18.9 28.9 28.97 1.85 16.3 57.23 1.73 112.3 16.45 85.87 28.81 57.23 18.9"/>
<polygon class="cls-2" points="67.6 39.58 88.52 29.73 109.26 36.91 88.69 48.63 67.6 39.58"/>
<polyline class="cls-2" points="6.14 37.09 26.36 29.89 47 39.58 26.13 48.63"/>
<polygon class="cls-3" points="85.87 28.81 65.15 38.54 57.23 35.16 49.33 38.57 28.9 28.97 57.23 18.9 85.87 28.81"/>
<polygon class="cls-4" points="90.85 49.55 107.15 56.51 57.23 93.13 7.18 56.82 23.98 49.55 57.2 68.68 90.85 49.55"/>
<polygon class="cls-5" points="67.6 39.58 88.69 48.63 57.23 66.53 26.13 48.63 47 39.58 57.31 44.42 67.6 39.58"/>
<polygon class="cls-6" points="65.15 38.54 57.23 42.27 49.33 38.57 57.23 35.16 65.15 38.54"/>
<path class="cls-7" d="M1.31,15.18h0c8-3.94,17-4.72,25.59-6.94C36.69,5.68,46.41,2.9,56.11.05a1,1,0,0,1,1.24.64q27.85,8,56,15.12a1.08,1.08,0,0,1,.6,1.4,1.06,1.06,0,0,1-1.16.66h-.16l-.16.08A124.35,124.35,0,0,0,100,24.35c-2.63,1.44-5.33,2.76-8,4a118.77,118.77,0,0,1,18.3,7.58,1.07,1.07,0,0,1,.93,1.92L92.34,48.41A157.82,157.82,0,0,0,108,55.7a1.08,1.08,0,0,1,.67.74.91.91,0,0,1,.08,1.28.81.81,0,0,1-.34.24c-9.39,4-17,10.48-24.87,16.81l-25,20a1.11,1.11,0,0,1-1.12.17.87.87,0,0,1-.71-.37c-3.16-4-8-6.16-12.23-8.77q-6.84-4.22-13.43-8.84A276.4,276.4,0,0,1,6.34,57.35a1.23,1.23,0,0,1-.23-.28,1.13,1.13,0,0,1,.18-1.59.92.92,0,0,1,.32-.18q9-3.13,17.81-7C17.52,44.44,10.4,41,3.3,37.48H3.23c-1-.22-.89-2,.34-2.13a80.11,80.11,0,0,0,22.72-5.88c-3.72-1.6-7.4-3.29-10.94-5.2-4.76-2.56-9.38-5.4-14.57-7C-.57,16.84,0,14.77,1.31,15.18ZM26.09,49.92q-8.47,3.73-17.2,6.85A272.15,272.15,0,0,0,33.57,76.09Q40,80.55,46.69,84.62c3.89,2.38,8.17,4.46,11.17,8L82.73,72.7C90,66.85,97,60.93,105.46,57a160.68,160.68,0,0,1-15.28-7.29h0L57.35,68.12a1,1,0,0,1-.24.1,1,1,0,0,1-1.19.11c-8.85-5-16.85-11.21-25.51-16.5-1.26-.77-2.55-1.52-3.83-2.26A.87.87,0,0,1,26.09,49.92Zm5.36,0c8.49,5.18,16.33,11.26,25,16.18l51.5-28.91a95.71,95.71,0,0,0-19-7.41h-.12l-2.17.94c-4.22,1.79-8.49,3.47-12.72,5.24-2.44,1-4.89,2.08-7.3,3.2-1.18.54-2.35,1.11-3.52,1.7-.59.29-3.38,1.33-3.49,2a.85.85,0,0,1-.93.78h-.06a1,1,0,0,1-.79-.11c-9.19-5.29-19.15-8.86-28.91-12.9a1.27,1.27,0,0,1-.27.18A83.5,83.5,0,0,1,7.18,37.06c8.24,4,16.43,8.1,24.26,12.88ZM15,21.58a151.68,151.68,0,0,0,15,7.1c9.49,3.92,19.17,7.42,28.13,12.46,1-1.06,2.84-1.66,4-2.2,2.33-1.17,4.69-2.26,7.08-3.3,4.81-2.12,9.75-4.05,14.65-6.11a154.53,154.53,0,0,0,15.06-7c3.45-1.9,6.85-3.84,10.42-5.49Q82.46,10.21,55.88,2.56l-.21-.08c-9.08,2.67-18.18,5.25-27.33,7.67-8,2.11-16.5,2.88-24.12,6.13A97.14,97.14,0,0,1,14.94,21.6Z"/>
</svg>
