<?xml version="1.0" encoding="utf-8"?>
<!-- Generator: Adobe Illustrator 18.1.1, SVG Export Plug-In . SVG Version: 6.00 Build 0)  -->
<svg version="1.1" id="Calque_1" xmlns="http://www.w3.org/2000/svg" xmlns:xlink="http://www.w3.org/1999/xlink" x="0px" y="0px"
	 viewBox="0 0 395.5 322.6" enable-background="new 0 0 395.5 322.6" xml:space="preserve">
<path fill="#212121" d="M388,49.7l-188-49.4c-1.7-0.4-3.5-0.4-5.1,0L7.4,50.7C3,51.8,0,55.8,0,60.3l0,3.2c0,3.9,2.3,7.5,5.9,9.1
	l61.6,28.1l0,0l-49.6,16.7c-4.1,1.4-6.8,5.2-6.8,9.5v4.2c0,3.7,2,7,5.2,8.8l47.3,25.9l-39.1,15.5c-3.8,1.5-6.3,5.2-6.3,9.3v5.2
	c0,3.3,1.6,6.4,4.3,8.2l169.4,116.9c3.4,2.3,7.9,2.4,11.3,0l170.1-116c2.7-1.9,4.4-5,4.4-8.3v-5.2c0-4.1-2.5-7.8-6.3-9.3l-41.7-16.5
	l46.9-25.9c3.2-1.8,5.2-5.1,5.2-8.8v-4.1c0-4.3-2.8-8.2-6.9-9.5l-49.1-15.8l64.3-30c3.5-1.6,5.8-5.2,5.8-9.1v-3.2
	C395.5,54.8,392.4,50.8,388,49.7z"/>
<path fill="none" stroke="#19FF00" stroke-miterlimit="10" d="M80.5,100.6"/>
<path fill="none" stroke="#19FF00" stroke-miterlimit="10" d="M90.5,100.7"/>
<polygon fill="#6A9A44" points="311.6,165.6 372.9,132.1 372.8,125 304.2,162.6 "/>
<polygon fill="#BC4052" points="8.5,57.7 8.5,64.7 90.4,101 99.1,98 "/>
<polygon fill="#3DA3BF" points="26.2,188.3 26,195.3 197.4,314.7 369.1,196.5 369.2,189.3 197.5,307.7 "/>
<polygon fill="#BC4052" points="387.5,57.2 294.7,98.5 303.4,101.5 387,64.2 "/>
<polygon fill="#6A9A44" points="18.9,124.4 19,131.4 82.1,165.6 89.5,162.6 "/>
<polygon fill="#ED5565" points="197.5,65.7 294.7,98.5 387.5,57.2 197.5,9.7 8.5,57.7 99.2,98 "/>
<polygon fill="#E2B042" points="170.3,129.7 99.2,98 90.1,101 161.9,133.1 "/>
<polygon fill="#97C671" points="161.9,133.1 90.1,101 18.9,124.4 89.5,162.6 "/>
<polygon fill="#97C671" points="304.2,162.6 372.8,125 303.4,101.5 232.6,133.1 "/>
<polygon fill="#E2B042" points="224.6,129.8 232.6,133.1 303.4,101.5 294.7,98.5 "/>
<polygon fill="#FFCE54" points="99.2,98 170.3,129.7 197.5,118.7 224.6,129.8 294.7,98.5 197.5,65.7 "/>
<polygon fill="#85C9C7" points="197.5,221 89.5,162.6 82.1,165.6 197.6,228 311.6,165.6 304.2,162.6 "/>
<polygon fill="#4FC1E9" points="82.1,165.6 26.2,188.3 197.5,307.7 369.2,189.3 311.6,165.6 197.6,228 "/>
<polygon fill="#A4E9E9" points="161.9,133.1 89.5,162.6 197.5,221 304.2,162.6 232.6,133.1 197.2,148.9 "/>
<polygon fill="#D8D7D1" points="170.3,129.7 161.9,133.1 197.2,148.9 232.6,133.1 224.6,129.8 197.5,141.9 "/>
<polygon fill="#FFFFFF" points="170.3,129.7 197.5,141.9 224.6,129.8 197.5,118.7 "/>
<g>
</g>
<g>
</g>
<g>
</g>
<g>
</g>
<g>
</g>
<g>
</g>
<g>
</g>
<g>
</g>
<g>
</g>
<g>
</g>
<g>
</g>
<g>
</g>
<g>
</g>
<g>
</g>
<g>
</g>
</svg>
