<svg xmlns="http://www.w3.org/2000/svg" viewBox="0 0 227.62 227.62"><defs><style>.cls-1{fill:none;}.cls-2{fill:#fff;}</style></defs><g id="Calque_2" data-name="Calque 2"><g id="courbe_net" data-name="courbe net"><g id="monochrome"><g id="finalk_forme_fusion" data-name="finalk forme fusion"><rect class="cls-1" width="227.62" height="227.62"/></g><g id="final_contour" data-name="final contour"><path class="cls-2" d="M184,81.7a4,4,0,0,0-5.57-1.16l-.18.15c-6,4.71-11.7,8.83-17,12.26-8.95-25.11-32.44-43-60-43-35.28,0-63.88,29.36-63.88,65.57a69.78,69.78,0,0,0,.43,7.56c-14.21,10.27-21.89,19.34-19.62,24.72s14.39,6.05,31.94,2.59c2.19-.43,4.45-.92,6.8-1.48h0c15.4-3.64,34.08-9.92,53.69-18.4,11-4.75,21.23-9.75,30.47-14.78,7.09-3.85,13.57-7.71,19.29-11.47l.89-.6c7-4.76,14.3-10.21,21.67-16.28v0A4.09,4.09,0,0,0,184,81.7ZM32.4,138c-.76-1.81,1.58-4.84,6.32-8.65a67.69,67.69,0,0,0,3,10.17C36.43,140.13,33.12,139.68,32.4,138Z"/><path class="cls-2" d="M164.66,110l-6.48,3c-39.12,18.61-66,35-76.37,48.52-1.88,2.75-2.7,5.16-2.17,7.12h0c2,9.13,14,9.11,21.15,9.11,35.28,0,63.88-29.36,63.88-65.57C164.66,111.6,164.67,110.54,164.66,110Z"/><path class="cls-2" d="M187.51,76.22a13.12,13.12,0,0,0-6.29-2.66,12,12,0,0,0-4.79.49c-2.26.36-4.26.51-4.67-.62-.88-1.41-.69-2.83.87-4.26,7.72-6.42,26.78-12.71,37-10,.06,0,.1.07.1.12,1.07,10.46-8.1,28.33-15.63,35-1.66,1.32-3.09,1.29-4.35.19-1-.57-.59-2.53.12-4.7A12.14,12.14,0,0,0,191,85a13,13,0,0,0-1.66-6.63A9.38,9.38,0,0,0,187.51,76.22Z"/></g></g></g></g></svg>