<svg role="img" xmlns="http://www.w3.org/2000/svg" xmlns:xlink="http://www.w3.org/1999/xlink">
	<title>Pierre TL - logo responsive</title>
	<defs>
		<style>
			.logo-0{fill:#212121}
			.logo-1{fill:#ed5565}
			.logo-2{fill:#ffce54}
			.logo-3{fill:#97c671}
			.logo-4{fill:#fff}
			.logo-5{fill:#a4e9e9}
			.logo-6{fill:#4fc1e9}

			/*Fond foncé*/
			.fond{fill:#332f35}
			.texte{fill:#fff}

			/*Fond blanc
			.fond{fill:transparent}
			.texte{fill:#212121}
			*/

			#medium,
			#large {
		        display: none;
		    }
		
			@media all and (min-width: 241px) {
				#small {
			        display: none;
			      }
				#medium {
					display: inherit
				}
			}

			@media all and (min-width: 990px) {
				#small,
				#medium {
			        display: none;
			      }
				#large {
					display: inherit
				}
			}

		</style>
	</defs>
	<symbol id="fond">
		<rect class="fond" width="960" height="128"/>
	</symbol>
	<symbol id="logo" viewBox="0 0 170 128">
		<polygon class="logo-1" points="84.97 35.36 113.45 45.44 140.64 32.75 84.97 18.17 29.6 32.91 56.17 45.28 84.97 35.36"/>
		<polygon class="logo-3" points="74.54 56.06 53.51 46.2 32.65 53.39 53.33 65.12 74.54 56.06"/>
		<polyline class="logo-3" points="136.33 53.57 116 46.36 95.25 56.06 116.23 65.12"/>
		<polygon class="logo-2" points="56.17 45.28 77 55.02 84.97 51.64 92.91 55.05 113.45 45.44 84.97 35.36 56.17 45.28"/>
		<polygon class="logo-6" points="51.16 66.04 34.78 73.01 84.97 109.68 135.28 73.32 118.4 66.04 85 85.2 51.16 66.04"/>
		<polygon class="logo-5" points="74.54 56.06 53.33 65.12 84.97 83.05 116.23 65.12 95.25 56.06 84.88 60.91 74.54 56.06"/>
		<polygon class="logo-4" points="77 55.02 84.97 58.76 92.91 55.05 84.97 51.64 77 55.02"/>
		<path class="logo-0" d="M141.19,31.63h0c-8-3.94-17.14-4.72-25.73-6.95-9.84-2.56-19.62-5.34-29.37-8.2a1,1,0,0,0-1.25.65q-28,8-56.27,15.13a1.08,1.08,0,0,0,.57,2.07l.16,0,.16.08A125.54,125.54,0,0,1,42,40.81c2.65,1.45,5.36,2.77,8.1,4A120,120,0,0,0,31.7,52.4a1.07,1.07,0,0,0-.94,1.92L49.67,64.9a158.12,158.12,0,0,1-15.75,7.3,1.1,1.1,0,0,0-.67.74.91.91,0,0,0,.26,1.53c9.44,4,17.09,10.49,25,16.83l25.1,20a1.11,1.11,0,0,0,1.12.17.88.88,0,0,0,.72-.37c3.17-4,8-6.17,12.29-8.78q6.88-4.22,13.51-8.85a277.65,277.65,0,0,0,24.88-19.62,1.07,1.07,0,0,0,.23-.28,1.13,1.13,0,0,0-.5-1.77q-9.09-3.14-17.91-7c6.94-3.87,14.1-7.36,21.24-10.84l.07,0c1-.22.89-2-.35-2.13a80.89,80.89,0,0,1-22.84-5.89c3.74-1.6,7.44-3.29,11-5.21,4.79-2.56,9.43-5.4,14.65-7C143.08,33.3,142.52,31.22,141.19,31.63ZM116.27,66.42q8.52,3.74,17.3,6.85a272.25,272.25,0,0,1-24.82,19.35q-6.47,4.46-13.19,8.54c-3.91,2.38-8.21,4.46-11.23,8l-25-19.94C52,83.37,44.94,77.44,36.47,73.47a162.64,162.64,0,0,0,15.37-7.29l0,0,33,18.46a1.18,1.18,0,0,0,.25.1,1,1,0,0,0,1.19.11c8.9-5,16.94-11.23,25.65-16.52,1.27-.77,2.56-1.52,3.85-2.26A.93.93,0,0,0,116.27,66.42Zm-5.39,0c-8.53,5.18-16.41,11.27-25.1,16.2L34,53.67c6.17-3,12.4-5.78,19.07-7.42l.12,0,2.19.94c4.24,1.79,8.53,3.48,12.78,5.25,2.46,1,4.92,2.08,7.34,3.2q1.78.82,3.54,1.7c.6.3,3.4,1.34,3.51,2a.86.86,0,0,0,1,.77,1,1,0,0,0,.79-.11c9.24-5.3,19.26-8.87,29.07-12.92a1.06,1.06,0,0,0,.27.18,84.16,84.16,0,0,0,21.61,6.28C127,57.54,118.77,61.65,110.89,66.44Zm16.59-28.38a150.77,150.77,0,0,1-15.12,7.11c-9.54,3.92-19.27,7.43-28.28,12.48-.95-1.07-2.86-1.67-4-2.21-2.34-1.17-4.72-2.26-7.12-3.3C68.11,50,63.15,48.06,58.22,46A155.6,155.6,0,0,1,43.08,39c-3.47-1.9-6.89-3.84-10.48-5.49q27-6.85,53.72-14.51l.21-.08c9.13,2.67,18.28,5.25,27.48,7.68,8,2.11,16.59,2.88,24.25,6.13A97.89,97.89,0,0,0,127.48,38.06Z"/>
	</symbol>
	<symbol id="nom" viewBox="0 0 960 128">
		
		<path class="texte" d="M416.4,81.52c-3.19-2.46-2.83-8.24-1.88-12.81a9.75,9.75,0,0,0,1.19-4.81,2,2,0,0,0-.55-1.35c-.51-3.48-.43-7.09-3.53-9.45-2.81-2.13-6.79-2.66-10.19-2.2a17.68,17.68,0,0,0-15.13,16c-.56,7.4,4.74,16.66,13.13,16.09,4.54-.31,7.42-4.33,10.07-7.55l.44-.53c.14,4,1.32,7.7,4.42,10.09C416.42,86.54,418.41,83.07,416.4,81.52Zm-5.68-14.18a36.63,36.63,0,0,1-4,5.25c-1.66,2-4,5.51-6.6,6.25-7.59,2.12-10.77-9-9.32-14.26A13.55,13.55,0,0,1,402,54.89c2.84-.38,5.86,0,7.69,2.29,1.54,1.94,1.37,4.8,1.79,7.27C411.19,65.36,410.94,66.33,410.73,67.33Z"/>
		<path class="texte" d="M460.43,54.17a10.42,10.42,0,0,0-7.34.64c-2.54,1.22-3,3.75-3.71,6.3-.12.45-.23.91-.35,1.36-1.63-3.87-4.26-8.33-8.2-8.9-5.14-.75-9.53,3.24-11.26,7.64-.33.83-.62,1.68-.89,2.53-.57-3.59-1.21-7.18-2-10.74-.53-2.52-4.39-1.45-3.86,1.06,2,9.52,3.22,19.17,4.37,28.83.31,2.52,4.3,2.56,4,0-.74-6-1.15-26.78,8.88-24.51,4.26,1,6.23,7.34,7.07,11.31.08.38.14.77.21,1.15a82.56,82.56,0,0,0-.74,12.82,2,2,0,0,0,3.93.53,33,33,0,0,0,.84-13.48c0-.26.06-.52.11-.79.34-2.09.78-4.17,1.3-6.23a21.26,21.26,0,0,1,.85-3.07c1.18-2.76,2.22-2.81,5-2,4.62,1.28,7,6.56,7.71,11.09A19.22,19.22,0,0,1,463,83.54c-1.43,2.15,2,4.15,3.45,2a23.1,23.1,0,0,0,3.59-18C469,62.73,465.49,55.92,460.43,54.17Z"/>
		<path class="texte" d="M491,52.09a15.55,15.55,0,0,0-10.75,5.08c0-1.39-.11-2.79-.21-4.18-.18-2.55-4.18-2.57-4,0,1,14.79-.84,29.67,2,44.33.49,2.52,4.35,1.46,3.86-1.06a105.88,105.88,0,0,1-1.61-19.86C485.67,81,492,85.68,499.2,82.59c6.93-3,9.61-10.92,7.93-17.91C505.25,56.83,499.24,51.58,491,52.09Zm4.86,27.32c-6,1.22-11.27-4.58-15.35-8.15a2.18,2.18,0,0,0-.19-.14q0-1.63,0-3.26a1.67,1.67,0,0,0,.87-1.68c-.4-6.37,5.2-10.27,11.14-10.14,6.6.14,10.92,5.7,11.26,12.07C503.9,73.19,501.12,78.36,495.88,79.42Z"/>
		<path class="texte" d="M530.18,50a2,2,0,0,0-.94.28c-7.59.83-13.66,8-14.66,15.6-1.2,9.12,5,18.13,14.32,19.31,5,.64,9.41-1.54,13.18-4.79C546,77,546.83,72,546.87,67,546.93,57.38,540.17,49.47,530.18,50Zm0,31.32c-6.65-.24-11.74-6.4-11.8-12.83-.06-6.71,5.74-15.47,13.34-14.27a2.08,2.08,0,0,0,1.08-.11C547.28,56.14,545.89,81.93,530.21,81.36Z"/>
		<path class="texte" d="M580.4,52.55c-5-1.8-11.22-1.46-15.33,2.09a15.34,15.34,0,0,0-3.75,4.92,23.83,23.83,0,0,0-4.26-9.13c-1.59-2-4.4.82-2.83,2.83,3.64,4.64,4.41,11.3,4.41,17.83,0,.53-.1,1.06-.14,1.59a1.91,1.91,0,0,0,.11.87c-.08,3.23-.28,6.36-.34,9.12-.06,2.57,3.94,2.57,4,0,.08-3.34.27-6.94.28-10.58.38-4.56.86-9.74,4-13.31s9-4.3,13.09-2.16,5.3,7.86,5.26,12.19c0,4.9-1.94,9-4.58,13-1.41,2.16,2,4.17,3.45,2,3.71-5.67,5.81-11.73,4.89-18.58C588,60,585.68,54.46,580.4,52.55Z"/>
		<path class="texte" d="M612.15,66.2q-7.22.22-14.42-.17c-2.57-.14-2.56,3.86,0,4q7.21.39,14.42.17C614.72,70.12,614.73,66.12,612.15,66.2Z"/>
		<path class="texte" d="M396.61,32.88,379.53,34v-.15c.1-2.57-3.9-2.57-4,0l0,.4L353.4,35.63a2.09,2.09,0,0,0-1.85,2.67,1.35,1.35,0,0,0,.16.53,1.27,1.27,0,0,0,.55.55A74.07,74.07,0,0,1,363.41,53.1a103.22,103.22,0,0,1,6.08,13.41.34.34,0,0,0,.09.14c1.68,5.07,2.91,9.5,4,14.22-.09,1.9-.16,3.8-.25,5.7a1.79,1.79,0,0,0,2,1.92.36.36,0,0,0,.3,0,2,2,0,0,0,1.73-1.9q1.13-24.29,2.05-48.6l17.24-1.1C399.17,36.71,399.19,32.71,396.61,32.88ZM373.75,76.8c-.5-1.75-1.05-3.54-1.66-5.52l-.11-.38q-.41-1.31-.85-2.61c-.58-1.9-1.21-3.78-1.92-5.64a73.27,73.27,0,0,0-5.05-10.43c-.75-1.4-1.54-2.78-2.35-4.15q-2.48-4.36-5.26-8.65l18.83-1.2Q374.62,57.52,373.75,76.8Z"/>
		<path class="texte" d="M650.67,78.89a170.34,170.34,0,0,0-26,4.45L635,35.41c.54-2.51-3.32-3.58-3.86-1.06l-11,51.18A2,2,0,0,0,622.59,88a169,169,0,0,1,28.08-5.1C653.21,82.66,653.23,78.66,650.67,78.89Z"/>
		<path class="texte" d="M681.64,83.47c1,2.36,4.47.32,3.45-2A21.26,21.26,0,0,1,683.89,68c2.29-5.15,2.1-11.62-2.74-15.16-7.1-5.2-16.85-.25-20.38,6.59-3.34,6.48-4.69,17.26,2,22.28,5.8,4.33,12.29-1.93,16.6-7.2A27.27,27.27,0,0,0,681.64,83.47ZM677,71.12c-3.08,3.82-8.34,9.51-11.69,7.35-4.58-3-3.69-10.65-2-15,2.09-5.48,6.24-9.31,12.52-8.36,4.79.73,6,4.7,5.18,8.59l0,0a26.18,26.18,0,0,0-.86,2.72,11.53,11.53,0,0,1-2.54,3.7A1.87,1.87,0,0,0,677,71.12Z"/>
		<path class="texte" d="M689.87,43.78l.22.24h0l0,0c.12.18.22.36.33.55l0,.05c0,.12.08.24.12.36A2,2,0,1,0,694.45,44a7,7,0,0,0-2.29-3.48,2.05,2.05,0,0,0-2.83,0,2,2,0,0,0,0,2.83A5.58,5.58,0,0,1,689.87,43.78Z"/>
		<path class="texte" d="M690.73,53.64A239.89,239.89,0,0,1,693.55,81c.17,3.74,1,8.81-.28,12.45-2.2,6.26-9.48,5.63-14.5,4-2.45-.8-3.5,3.06-1.06,3.86,8.85,2.9,19.18.42,20-10.26,1-12.6-1.13-26-3.12-38.45C694.18,50,690.33,51.11,690.73,53.64Z"/>
		<path class="texte" d="M732.79,66.08a2.08,2.08,0,0,0-.2-1.43c1.42-7.07-2.44-13.37-10.92-13.24S706.28,58.63,705,66.81c-1.07,6.72,1.18,17.86,10.07,17.24,4.21-.29,7.61-3.8,10.42-6.62q1.16-1.17,2.2-2.41a22.36,22.36,0,0,0,1.45,8.57c.93,2.37,4.8,1.34,3.86-1.06C730.84,77.09,731.71,71.65,732.79,66.08Zm-5,.67a1.71,1.71,0,0,0-.1,1.16,32.87,32.87,0,0,1-8.13,9.58c-2.8,2.38-6.2,3.72-8.87.42-1.75-2.16-2.11-6-1.94-8.67.39-5.87,3.79-11.39,9.6-13.23,2.54-.81,6.14-1,8.44.7C730.26,59.27,729.16,63.39,727.76,66.75Z"/>
		<path class="texte" d="M758.28,51.34c-4.83,1.83-9.25,4-11.83,8.68a32,32,0,0,0-1.53,3.28,33.94,33.94,0,0,0-1.32-10.72c-.81-2.43-4.67-1.39-3.86,1.06,1.49,4.5,1.2,9.39,1.17,14.07s-.19,9.6-.45,14.4c-.14,2.57,3.86,2.56,4,0q.1-1.87.18-3.75c1.17-4.29,2.29-8.64,3.79-12.83,2-5.66,5.45-8.26,10.92-10.34C761.73,54.29,760.69,50.42,758.28,51.34Z"/>
		<path class="texte" d="M784.44,51.65C780,53.73,775.8,56,773.2,60.33a27.17,27.17,0,0,0-1.28,2.43q-.18-4.75-.58-9.49c-.22-2.54-4.22-2.57-4,0A189.47,189.47,0,0,1,768,75.92l0,.19a2.07,2.07,0,0,0,0,.9c-.07,1.79-.15,3.59-.27,5.38-.17,2.57,3.83,2.56,4,0,.13-2,.22-4,.29-6a57.62,57.62,0,0,1,3.82-12.31c2.22-4.7,6.19-6.88,10.7-9C788.79,54,786.76,50.55,784.44,51.65Z"/>
		<path class="texte" d="M797.41,47.59a2,2,0,0,0,1.4-2.46l-1.34-3.2a2.06,2.06,0,0,0-2.46-1.4,2,2,0,0,0-1.4,2.46l1.34,3.2A2.06,2.06,0,0,0,797.41,47.59Z"/>
		<path class="texte" d="M795.14,52.61l-.57,29.64c0,2.57,4,2.57,4,0l.57-29.64C799.19,50,795.19,50,795.14,52.61Z"/>
		<path class="texte" d="M836.79,76.44c-5.85,2.89-13.4,5.94-19.5,1.91A8.59,8.59,0,0,1,813.73,73c8.91.58,21.59-1.75,25.09-10.45,4.66-11.57-12.27-11.69-19-9.11-8.64,3.33-13.61,16.23-8.62,24.37,6.09,9.94,19.23,6.19,27.56,2.07C841.12,78.75,839.1,75.3,836.79,76.44ZM819.18,58.22c2.82-1.79,6.21-2.15,9.47-2.15,2.83,0,4-.32,5.53,2.31q2.49,2.25-.27,4.52a11,11,0,0,1-2.33,1.89A27.45,27.45,0,0,1,813.44,69C813.75,64.7,815.94,60.27,819.18,58.22Z"/>
		<path class="texte" d="M922.43,76.52c-4.59,3.28-14.16,4.46-19.5,2.08a7.76,7.76,0,0,1-4.36-6.1c5.58-.82,11.31-.53,16.56-3,3.77-1.75,8.26-4.78,8.93-9.24,1.74-11.6-15.76-7.83-21.35-5.25-5,2.31-8,8.33-8.3,14.24-1.57.7-1.22,3,.17,3.61a13.56,13.56,0,0,0,2.56,6.32c2.91,3.77,7.53,4.09,11.94,4.22,5.42.17,10.82-.21,15.37-3.45C926.53,78.5,924.53,75,922.43,76.52ZM905,58.39a31.13,31.13,0,0,1,9.8-2.25c2.44-.08,6.72.47,4.89,4.86-.63,1.5-2.48,2.74-3.8,3.59-5.28,3.38-11.4,3.17-17.37,3.93C899,64.15,901.47,59.81,905,58.39Z"/>
		<path class="texte" d="M880.74,59.21a126.81,126.81,0,0,0-.3-20.39,2.08,2.08,0,0,0-.37-1c7.68-.53,15.35-1,23-1.38,2.56-.12,2.58-4.12,0-4-21.77,1-43.49,3.07-65.27,4.1-2.56.12-2.58,4.12,0,4,5.84-.28,11.68-.63,17.52-1q.05,11,.11,22c0,6.69,0,13.35,2,19.81.75,2.46,4.61,1.41,3.86-1.06-2-6.65-1.79-13.56-1.82-20.44s-.07-13.72-.1-20.57L876.5,38.1a1.92,1.92,0,0,0-.05.73c.85,7.36.56,14.71.22,22.1-.31,6.66-1.31,14.19.62,20.67.73,2.46,4.59,1.41,3.86-1.06C879.19,74,880.43,66,880.74,59.21Z"/>
	</symbol>
	<symbol id="prenom" viewBox="0 0 335 128">
		<path class="texte" d="M210.7,42.94l-.11-.38,0-.08s0,0,0-.08a6.63,6.63,0,0,1,0-.69,2,2,0,0,0-2-2,2.05,2.05,0,0,0-2,2,6.15,6.15,0,0,0,.86,3.68,2,2,0,1,0,3.45-2C210.87,43.28,210.68,42.84,210.7,42.94Z"/>
		<path class="texte" d="M191.54,40.84c-4.1-2.48-9.4-3.54-14.2-4-1.11-1.16-3.56-.74-3.46,1.28.76,15.89-3.48,31.58-1.08,47.44.38,2.54,4.24,1.46,3.86-1.06a86.81,86.81,0,0,1-.26-19.83h.19c7.34-.59,23-2,21.19-12.84C197.07,47.62,195.32,43.14,191.54,40.84ZM186.87,59a54.5,54.5,0,0,1-10.14,1.64A193.94,193.94,0,0,0,178,40.88c6.46.7,13.57,2.59,15.34,9.52C194.69,55.85,191.63,57.68,186.87,59Z"/>
		<path class="texte" d="M207.2,51.59a119.78,119.78,0,0,0-1.85,31.9c.2,2.55,4.2,2.57,4,0a115.7,115.7,0,0,1,1.71-30.83C211.54,50.14,207.69,49.06,207.2,51.59Z"/>
		<path class="texte" d="M248.69,77.08c-5.27,4.16-14.23,6.2-20.09,1.87a8.61,8.61,0,0,1-3.47-6.51c5,.08,10.13.4,14.8-1.73a18.22,18.22,0,0,0,9.56-10.45c3.87-11.32-12.3-10.43-18.51-6.62-4.79,2.93-8.71,8.94-9.66,15a2.1,2.1,0,0,0-.21,3.47A13.27,13.27,0,0,0,223.94,80c6.71,8.39,20.27,5.69,27.58-.08C253.54,78.31,250.69,75.5,248.69,77.08ZM232.12,57.72c2.79-2,7.48-3.75,11-2.67,4.86,1.5,1.87,6.45-.57,9-4.63,4.81-10.95,4.52-17.09,4.42A19,19,0,0,1,232.12,57.72Z"/>
		<path class="texte" d="M276.61,50.66c-5.54,2.41-10.75,5.17-13.22,11-.16.38-.29.77-.44,1.15-.27-3.47-.57-6.93-.95-10.4-.28-2.53-4.28-2.56-4,0q1.44,13.05,1.76,26.17c-.12,1.66-.19,3.31-.23,4.93,0,2,2.3,2.43,3.42,1.37a1.79,1.79,0,0,0,.92-1.67c0-1.48-.07-3-.11-4.43a58.29,58.29,0,0,1,2.59-13.62c2-6.09,6.74-8.61,12.27-11C281,53.09,278.94,49.64,276.61,50.66Z"/>
		<path class="texte" d="M304.52,54.47c2.53-.45,1.46-4.3-1.06-3.86-6.81,1.2-11.09,6-13.86,12-.15-3.7-.46-7.4-1-11.11-.34-2.54-4.2-1.46-3.86,1.06a110.91,110.91,0,0,1,.37,26.56c-.16,1.1-.31,2.17-.43,3.19a2.06,2.06,0,0,0,0,.5c-.17,2.41,3.52,3.4,3.86.91q.28-2,.5-4.09C290.48,69.8,293.62,56.39,304.52,54.47Z"/>
		<path class="texte" d="M331.9,75.55c-4.8,4-15.44,5.83-20,.67a14.79,14.79,0,0,1-2.46-3.87c8.93-.85,21.64-3.11,24-12.69,2.45-9.77-15.35-8.71-20.24-6-4,2.22-6.87,7-8.24,11.23a11.1,11.1,0,0,0-.42,5,2,2,0,0,0,.58,2.43,20.5,20.5,0,0,0,3,5.55c6,8.11,19.48,6.29,26.51.5C336.72,76.74,333.88,73.93,331.9,75.55Zm-23.3-7.11a8,8,0,0,1,.31-2.46c.87-2.93,3.25-6.85,5.82-8.52,2.77-1.79,6.35-1.76,9.51-1.48.77.07,3.72.07,4.23.72l-.41,4.59a16.27,16.27,0,0,1-2.53,2.3C320.68,67.16,314.5,68,308.6,68.44Z"/>
	</symbol>
	<symbol id="initiale" viewBox="0 0 449 128">
		<path class="texte" d="M415.11,78.89a170.34,170.34,0,0,0-26,4.45l10.3-47.93a2.75,2.75,0,0,0-2.82-2.53L379.53,34v-.15c.1-2.57-3.9-2.57-4,0l0,.4L353.4,35.63a2.09,2.09,0,0,0-1.85,2.67,1.35,1.35,0,0,0,.16.53,1.27,1.27,0,0,0,.55.55A74.07,74.07,0,0,1,363.41,53.1a103.22,103.22,0,0,1,6.08,13.41.34.34,0,0,0,.09.14c1.68,5.07,2.91,9.5,4,14.22-.09,1.9-.16,3.8-.25,5.7a1.79,1.79,0,0,0,2,1.92.36.36,0,0,0,.3,0,2,2,0,0,0,1.73-1.9q1.13-24.29,2.05-48.6L395,37,384.57,85.53A2,2,0,0,0,387,88a169,169,0,0,1,28.08-5.1C417.65,82.66,417.68,78.66,415.11,78.89ZM373.75,76.8c-.5-1.75-1.05-3.54-1.66-5.52l-.11-.38q-.41-1.31-.85-2.61c-.58-1.9-1.21-3.78-1.92-5.64a73.27,73.27,0,0,0-5.05-10.43c-.75-1.4-1.54-2.78-2.35-4.15q-2.48-4.36-5.26-8.65l18.83-1.2Q374.62,57.52,373.75,76.8Z"/>
	</symbol>


	<svg id="small" viewBox="0 0 170 128">
		<use xlink:href="#fond" width="170" height="128"/>
		<use xlink:href="#logo" width="170" height="128"/>
	</svg>

	<svg id="medium" viewBox="0 0 449 128">
		<use xlink:href="#fond" width="490" height="128"/>
		<use xlink:href="#logo" width="170" height="128"/>
		<use xlink:href="#prenom" width="335" height="128"/>
		<use xlink:href="#initiale" width="449" height="128"/>
	</svg>

	<svg id="large" viewBox="0 0 960 128">
		<use xlink:href="#fond" width="960" height="128"/>
		<use xlink:href="#logo" width="170" height="128"/>
		<use xlink:href="#prenom" width="335" height="128"/>
		<use xlink:href="#nom" width="960" height="128"/>
	</svg>
	
</svg>