<svg viewBox="0 0 227.62 227.62" xmlns="http://www.w3.org/2000/svg">
    <rect fill="#01873e" width="227.62" height="227.62" rx="113.81"/>
    <path fill="#d5b664" d="M154.3,96.76c-7.58-23.18-28.92-39.88-54.06-39.88-31.48,0-57,26.19-57,58.51a59.57,59.57,0,0,0,4.61,23.08A383.48,383.48,0,0,0,154.3,96.76Z"/>
    <path fill="#fff" d="M78.68,168.51c6.55,2.7,13.61,2.05,21.11,2.05,31,0,56.25-25.42,57-57.07,0-.12.45-.5.45-.61l6.48-3c0,.54,0,1.6,0,2.14,0,36.21-28.6,65.56-63.88,65.56C92.67,177.61,80.65,177.64,78.68,168.51Z"/>
    <path fill="#e41d20" d="M49.34,137.88q-3.53.8-6.44,1.25c-6.53,1-10.64.68-11.45-1.23s2.06-5.45,7.78-9.79c-.47-2-.86-4-1.15-6.11-15,10.66-23.28,20.12-20.94,25.67s14.39,6.05,31.94,2.59c2.18-.43,4.45-.93,6.79-1.48h0c15.4-3.64,34.09-9.92,53.7-18.41,11-4.74,21.23-9.75,30.47-14.77,7.09-3.85,13.56-7.71,19.29-11.47l.89-.6c7-4.76,14.29-10.21,21.67-16.29h0A4.09,4.09,0,0,0,183,81.61a4,4,0,0,0-5.57-1.16,1.3,1.3,0,0,0-.18.15A210.3,210.3,0,0,1,158,94.26v0l-.93.58c-6.05,3.7-12.89,7.49-20.38,11.26-9.76,4.92-20.59,9.8-32.14,14.41a362.59,362.59,0,0,1-55.21,17.4"/>
    <path fill="#fff" d="M184.27,80.79a5.5,5.5,0,0,0-3.51-2.4,5.44,5.44,0,0,0-4.14.8l-.29.23c-5.8,4.58-11.39,8.6-16.65,12-9.33-24.36-32.43-41.6-59.47-41.6-35.28,0-63.88,29.36-63.88,65.57,0,2,.09,3.91.26,5.84-11.46,8.18-24.08,19.35-20.83,27,1.78,4.23,7.64,5.67,14.79,5.67a101.82,101.82,0,0,0,18.82-2.19c2.19-.43,4.5-.93,6.85-1.49C72.39,146.42,91,140,110.16,131.75c10.74-4.65,21-9.63,30.59-14.83,7.05-3.83,13.58-7.71,19.42-11.55l.89-.6c7.14-4.84,14.47-10.34,21.78-16.37l.11-.09c.17-.13.34-.27.5-.42l.23-.2v0A5.62,5.62,0,0,0,184.27,80.79Zm-84-23.91c24.53,0,45.42,15.89,53.47,38.18-5.41,3.22-11.35,6.46-17.7,9.66-10,5-20.78,9.87-32,14.35A358.85,358.85,0,0,1,49,136.4l.22,1-.22-1-1.81.39a59.58,59.58,0,0,1-4-21.42C43.24,83.07,68.76,56.88,100.24,56.88ZM40.23,138c-5.51.59-7.22-.23-7.4-.65,0,0-.55-1.61,5.3-6.42A67,67,0,0,0,40.23,138ZM181,86l-1,.7.05.1c-7,5.7-13.92,10.91-20.71,15.5l-.87.6c-5.76,3.78-12.21,7.61-19.19,11.4-9.48,5.16-19.69,10.11-30.35,14.72-19,8.2-37.44,14.54-53.44,18.32-2.32.55-4.58,1-6.74,1.47-17.08,3.36-28.4,2.73-30.27-1.7-1.42-3.36,2.76-11,18.44-22.44.14,1,.3,2,.48,2.95-6.13,4.8-8.48,8.27-7.37,10.88s5.27,3.33,13,2.13c2-.3,4.16-.72,6.55-1.26v0c16.7-3.63,35.87-9.67,55.43-17.47,11.33-4.51,22.19-9.38,32.27-14.46,7.16-3.61,13.81-7.27,19.8-10.91l0,.05,1.61-1A213.6,213.6,0,0,0,178.16,81.8c.06,0,.12-.1.11-.11a2.51,2.51,0,0,1,3.48.73A2.6,2.6,0,0,1,181,86Z"/>
    <path fill="#d5b664" d="M157.23,112.88c.16,27-16.75,48.3-39.36,57q-17.9,6.24-33.74,2.91c-6.62-1.95-6.94-6-3.27-11.38C91.19,147.85,118.11,131.49,157.23,112.88Z"/>
    <path fill="#e41d20" d="M186.56,76.13a13.06,13.06,0,0,0-6.29-2.66,12,12,0,0,0-4.79.49c-2.26.35-4.26.51-4.67-.62-.88-1.41-.69-2.83.87-4.27,7.72-6.41,26.78-12.71,36.95-10a.15.15,0,0,1,.1.12c1.07,10.46-8.1,28.32-15.63,35-1.66,1.31-3.1,1.28-4.35.19-1.05-.57-.59-2.53.11-4.71A11.91,11.91,0,0,0,190.08,85a12.93,12.93,0,0,0-1.65-6.63A9.38,9.38,0,0,0,186.56,76.13Z"/>
    <path fill="#fff" d="M190.69,96.61a4.38,4.38,0,0,1-2.81-1.07c-2.08-1.31-1.06-4.49-.44-6.4l.05-.14a10.73,10.73,0,0,0,1.09-4,11.52,11.52,0,0,0-1.42-5.83,8,8,0,0,0-1.58-1.86h0A11.58,11.58,0,0,0,180,74.94a10.65,10.65,0,0,0-4.12.47l-.16,0c-2,.31-5.27.83-6.24-1.43-.75-1.25-1.47-3.59,1.19-6,8.28-6.88,28-13.12,38.35-10.38l.16,0a1.61,1.61,0,0,1,1.05,1.41c1.09,10.65-8.11,29.13-16.13,36.19A5.43,5.43,0,0,1,190.69,96.61Zm-1.06-3.52.1.09c.52.45,1.13.8,2.44-.24,7.14-6.29,15.49-22.88,15.13-32.66-9.6-1.86-27.29,3.82-34.66,10-1.17,1.08-.92,1.74-.56,2.31l.07.12a8.58,8.58,0,0,0,3-.17,13.19,13.19,0,0,1,5.33-.5,14.33,14.33,0,0,1,7.05,3,11.08,11.08,0,0,1,2.16,2.54,14.21,14.21,0,0,1,1.87,7.37,13.29,13.29,0,0,1-1.31,5.23A8.59,8.59,0,0,0,189.63,93.09Zm17.61-33.78v0Z"/>
</svg>
