<svg xmlns="http://www.w3.org/2000/svg" viewBox="0 0 272.56 126.93">
    <path d="M131.56,30.07s.36-.12.36-.24c-.24-.12-.36,0-.59.12,0,.12.12.24.24,0v.12ZM109.34,44.57c0-.12,0-.24-.12-.36-.24,0,0,.59.12.36ZM105.42,61.44s0-.24-.12-.24c0-.24,0-.59-.24-.71,0-.24,0-.36-.12-.59,0-.36-.12-.48-.48-.59h.36c.12-.12,0-.48-.24-.48,0,0,.24-.24.24-.36-.12-.48-.71-.24-.71-.59.12.12.36,0,.48,0,0,0,0-.24-.12-.24h-.36l.36-.36c0-.24-.24-.36-.24-.48q.24,0,.12-.36c-.12-.24-.36-.48-.59-.59,0,0-.24.12-.24.36v-.24c0,.24,0,.36-.12.48.12.12.36.24.36.36-.24.36,0,.59.12.83,0,.24-.36.59,0,.83.24,0,.36,0,.48.12,0,.24-.24.24,0,.48,0,0,0,.12-.12.24v.83s.12.24.24.24c0,.12,0,.24-.36.24v.24c.12.24-.12.36-.12.71h.24c0,.36.24.59.24.95h-.24s.12.12.12.24l-.24.24c.24.12.36.36.59.48.12,0,.24-.24.24-.48-.12,0-.24,0-.24-.12.48,0,.36-.36.24-.71,0,0,0-.24.12-.24v-.36l.36-.12ZM104.94,63.82c.24-.24-.24-.36-.36-.24,0,.12.24.24.36.24ZM104.58,64.06v.36h-.36c0,.12.24.36.36.36.24,0,.36-.36.48-.48,0-.36-.36-.24-.59-.24h.12ZM104.94,65.13c0-.12-.24-.24-.48-.12v.48c.12,0,.36-.12.48-.36ZM103.51,55.14s-.12,0-.24.24h.24l-.24.24c0,.24.48.24.59,0,.24,0,0-.36.24-.59-.12-.24-.36-.36-.48-.48v-.59c0-.12-.24-.24-.24-.36,0-.36-.48-.36-.36-.71-.24-.24-.48-.36-.71-.59.24,0,.59,0,.59-.36-.24-.24-.48-.59-.59-.95-.24,0-.48-.12-.59-.36v-.48c-.12-.24-.36-.36-.48-.71,0-.48-.59-.71-.83-.95.24-.36-.24-.36,0-.71-.36-.36-.83-.71-1.19-1.07,0,0,0-.12.12-.24-.12-.24-.36-.12-.48-.24-.24-.24-.48-.48-.36-.83,0-.12-.12-.24-.24-.48-.36-.24-.59-.59-.95-.83-.36-.12-.59-.24-.83-.48v-.36c-.48,0-.95-.59-1.07-.95-.24,0-.59-.24-.59-.59-.12-.12-.36-.12-.48-.24-.48-.24-.71-.59-1.07-.95-.24,0-.36-.24-.71-.48-.36,0-.71,0-.95-.24,0-.12,0-.24-.12-.36-.59,0-.95-.48-1.54-.48-.12,0-.24-.12-.36-.24v-.24c-.24-.36-.59-.48-.95-.36h-.71c-.36-.12-.36-.36-.59-.59-.36,0-.71,0-1.07-.24-.59,0-1.07-.24-1.66-.36-.24,0-.48-.48-.71-.48-.36,0-.48-.36-.83-.36h-.59c-.24,0-.59-.24-.83-.36-.48,0-.83,0-1.31-.12-.59-.24-1.19,0-1.9-.12-.71,0-1.43.12-2.02.12-.48.36-1.31-.12-1.78.24h-.59s-.12,0-.24.12h-1.31c-.24.12.24.59.36.36h.59q-.12.24.12.36c.24-.24.24-.12.48,0,.24,0,.36,0,.59.24h.59c.24-.12.48,0,.83,0h1.66c.12,0,.24.12.36.12,0,0,.12.24.24.24,0,0,.12,0,.24-.12.24.36.24,0,.48.12h.24c.36.36.83,0,1.31.24h.24l.24.24h.24c.24.12.59,0,.71.36h.24c.24.24,0,.24.36,0,.24.24.48.48.83.36l.24.24h.24c.12,0,.24.12.48.12,0,.24.24.24.48.36v-.24c.24-.12.59.48.71.59l.24-.24s0-.12-.12-.24c.24,0,.36,0,.36-.24l.12.12c-.36.36,0,.59.36.83.24,0,.48.24.71.24.36-.24.59,0,.71.36.36,0,.12.24.24.48.48,0,1.07.36,1.43.71h.59c0-.24.24-.36.48-.36,0,.12-.24.12-.36.24,0,.12,0,.24-.12.36h.36c.24,0,.24.12.36.24.24.12.36.36.59.48.24,0,.36.12.71.12,0,0,0,.24.12.24v.24c.24.12.24.48.59.24,0,.48.48,0,.71.36.12.24.36.24.59.36v-.24c.12.12.24.24.36.24,0,.12,0,.36.24.48.24,0,.36,0,.59.24v.12c.12.12.36,0,.59,0v.48h.48v.59h-.24c.24.12.48,0,.59.12v.48c.36,0,0-.36.36-.36,0,.24,0,.36.12.48.12,0,.24-.12.36,0,0,.12,0,.24-.24.36.12,0,.24,0,.36-.24.12,0,.24.24.36.36,0,.36-.24,0-.48,0,.12,0,.24.24.24.36,0,0,0-.24.24-.24s.59.48.24.71c.24,0,.36,0,.48-.12.36,0,.24.48.59.48v.24c.48,0,.59.12.48.59.24.24.36.36.48.71h.48c0,.24.12.48.36.48,0,0-.24.12-.36.24,0,.36.24.71.48,1.07h.24v.48c.12,0,.24.24.36.24-.36.36,0,.48,0,.83h.24v.59c0,.24.36.36.48.36,0,0,0,.24.12.24-.12,0-.24,0-.36.24.24.24.48.24.48.71l.24.24.36-.48ZM103.04,54.67c0-.24-.36-.12-.48,0,.24.12.36.12.48,0ZM102.56,86.28h.24q0-.12-.24,0ZM102.21,52.89q.12,0,0,0ZM101.14,87.71c-.12,0-.24,0-.24.24h-.36q0,.24-.24.12c0,.24,0,.36-.24.48v.36c-.24.24-.48,0-.59.12v.71h-.24s0,.12-.24.24h-.24c0,.12,0,.24.24.24,0,.36-.24,0-.48,0,0,.24-.24.24-.48.36-.36.24,0,.83.36.59v-.59c.12,0,0,.36.36.24,0,0,0-.24.12-.36.12,0,.36,0,.48-.24,0-.24.36-.36.48-.59l.24-.24v-.36c.12,0,.24-.24.24-.36.24.12.59,0,.71-.24h.24v-.59l-.12-.12ZM97.45,49.08c.24,0,.71.48.83.12-.36,0-.48-.36-.83-.24v.12ZM97.93,91.04c-.12,0-.12-.48-.36-.36v.24c-.48,0-.48.48-.95.36v.36c-.36,0-.12-.36-.48-.24,0,0,0,.12.12.24,0,.12-.12.59,0,.48v-.36.36c.48,0,.36-.24.71-.36.12-.36.36-.48.59-.71h.36ZM96.62,92.22c-.24-.24-.36.12-.36.36.12,0,.48-.12.36-.36ZM96.15,91.63c-.24,0-.36.12-.48.24-.24,0-.59,0-.59.36h-.36v.24c-.24.24-.71.36-1.07.24-.24,0-.36.36-.71.36-.36.24-.48.36-.59.71h-.24c-.12,0-.24,0-.36.12,0,0-.12,0-.24-.12-.24.24-.48.12-.48.59-.48-.12-.48,0-.71.24-.36,0-.48,0-.71.36,0,0-.12,0-.24-.24-.12.24-.24.59-.59.36v.36c.24,0,.24-.24.48,0,.24,0,.24-.24.48-.24,0,0,0,.24-.24.24,0,.12.24.36.36.24,0-.12.24-.24.24-.48,0,.24.24.48.48.24,0-.24,0-.71.36-.83,0,.12,0,.24-.12.36.24.48.59.24.83,0h.36c.12-.24.24-.48.48-.59,0,0,.12,0,.24.12,0-.24,0-.48.24-.36,0,.12.12.36.24.48.24-.24,0-.24,0-.48.36-.36,1.07-.24,1.43-.71.12-.24.36-.36.59-.36-.24,0-.83.24-.71-.12h.36s0-.12.12-.24c0,0,.24,0,.24-.12,0,.24-.24.24-.24.48h.59c0-.24.12-.36.24-.48v-.36c.36,0,.36-.48,0-.48l.36-.12ZM90.44,95.91v.24-.24ZM89.85,96.15c-.24-.24-.48-.24-.71-.36-.12,0-.24,0-.24.24h-.12v-.36c-.24,0-.36,0-.36.24s-.12,0-.12,0c-.12.12,0,.24,0,.48h-.36c0,.24-.12.36-.24.24,0-.12.12-.36.24-.48,0-.24-.24,0-.24.12-.36,0-.71.24-1.07.48-.12,0-.24,0-.24.24,0,0-.36,0-.36.24.24,0,.36,0,.36.12s-.48.24-.36.48c.24,0,.48-.36.83,0,.12.12.24.12.36,0,.24,0,0-.36,0-.59,0,0-.24-.12-.36-.12v.36h-.48s.12-.12.36-.12v-.36h.59v.36c.24,0,.48-.36.71,0,0,.12,0,.24-.24.24,0,.24.24.12.36,0,0-.24.12-.36,0-.48.12-.36.59-.24.83-.36.24,0,.36-.24.59-.24l.24-.36ZM86.04,93.77h-.36c-.24.36.48.24.36,0ZM85.93,94.24c0-.12-.48,0-.59-.24-.24,0-.36.24-.59,0-.24.24-.48,0-.71.24-.36,0-.48.24-.71.36-.24.24-.48.12-.71.24,0,.24.71.12.83,0,.24-.24.36,0,.59,0,0,0,0-.12-.24-.24h.36s.12-.36.36-.24c.24.12.12-.12.36,0h.36v.24h.24c0-.24.24-.24.48-.36h0ZM85.81,97.69c0-.24-.36-.12-.48-.48.12,0,.48,0,.36-.36-.24,0-.83.12-.95.36.12.24,0,.12,0,.36.12.24.24.36.48.12v-.24c.24-.12.36,0,.48,0l.12.24ZM84.62,94.72h-.12c0,.24.36.36.24,0h-.12ZM81.77,81.53v.36c.12-.12.24-.36.36-.59-.12-.12-.36,0-.48.12l.12.12ZM86.4,90.8c0,.24.24.24,0,0ZM86.64,93.77v.36h.36v-.59h-.59c0,.12-.24.36-.12.59.36,0,0-.59.48-.36h-.12ZM86.76,89.97q-.24,0-.48.12c-.12.24-.12.36-.24.59-.12,0-.24,0-.24-.24h-.48c-.12.12-.36.12-.59.24s-.48.24-.83.24c-.24.12-.24,0-.48.12,0,.48-.36,0-.48.48,0,.12,0,.24-.24.24,0,.36.36.24.36,0q.24,0,.24.24s.12-.24.24-.24c0-.24,0-.59.36-.36v.36c.24,0,.36-.24.71-.24,0-.24,0-.36.24-.36,0,0,.12.12.24.12.12-.12.36-.48.48-.59.12.12.36,0,.48.24.12-.24.36-.48.48-.71,0,0,.12,0,.24.24.12,0,.24-.12.48,0,.12-.12.48-.48.36-.71-.24.12-.48.12-.71.24h-.12ZM90.32,43.02c-.48,0-.36-.36-.71-.48-.48,0-.71-.24-1.19-.24-.36-.24-.59-.59-1.07-.36.36.24.71.24,1.07.48.24,0,.36.36.59.36v.24c.36,0,.59,0,.95.24,0,.12,0,.24.12.36.24,0,.59-.24.36-.59h-.12ZM91.27,91.04v-.24.24ZM87.59,89.61c0,.12.24.36.24.12s0-.24-.24-.12ZM88.3,86.16h-.36c-.12.24-.48.24-.24.59.12-.12.24-.24.48-.24v-.12l.12-.24ZM88.42,89.37v-.36s-.24.24-.24.36h.36-.12ZM88.18,89.61c0,.24.12.24.24.12.24-.24-.12-.24-.24-.12ZM89.61,89.02c0-.36.36-.12.24-.36-.12,0-.24-.12-.36-.24h-.71c.24,0,.36-.24.48,0l-.24.24c0,.12.36.36.59.24v.12ZM89.02,89.25c.24-.24-.12-.24-.24-.48h-.12v.59q.36,0,.36.36c.24-.12,0-.24,0-.48ZM88.54,81.29c-.24.24.48.24.36,0,0-.36.24,0,.36-.36h.24v-.24h-.36l-.24.24h-.24v.36h-.12ZM87.23,93.29h.36c0-.24-.48-.24-.36,0ZM91.04,91.99c0-.36.59,0,.48-.36-.24,0-.48-.12-.71,0,0,.12,0,.36-.24.36s-.24.24-.48.12c-.12-.12-.12-.59,0-.59.36-.12.24,0,.36.24v-.24c0-.24.36,0,.24-.36-.36.24-.48.24-.83.24,0,.36-.12.48-.24.83h-.71v.36c-.24,0-.36,0-.36.24h-.36v.36h-.36c0-.24.24-.36.36-.59-.24,0-.36.12-.59.12-.12,0-.24,0-.12.24.36,0,0,.24.36.48-.36.24-.59,0-.83,0v.48-.24c.36-.24.71,0,.95,0,.24-.24.24-.48.71-.48,0-.24.24-.24.36-.24.12-.36.36-.24.71-.24,0-.36.59,0,.71-.36.12-.12.36-.12.48-.36,0,0,0-.12-.12-.24l.24.24ZM92.58,90.68h.36c.12-.12.48-.48.36-.71-.12,0-.36.24-.24.36,0,.24-.36.12-.48.36h-.12v-.36c-.12,0-.36,0-.48.12.12,0,.24,0,.36.12,0,.24-.24.48-.36.71-.24.12-.36,0-.36-.36h-.12v.24c-.12.12-.48,0-.59,0,.36,0,.36.12.71.36.24,0,.36-.24.59-.36,0,0,.36-.12.36-.36v-.24.12ZM91.39,87.47h-.59c0,.36-.24.12-.36.48-.59,0-.36.48-.36.83,0,0,.12,0,.24-.12,0-.24-.12-.48.24-.48,0-.36.36-.36.59-.12,0-.24-.24-.24-.24-.48.24-.24.24.24.48.12.24,0,.24-.24.36-.48.24-.12.36.12.48-.24,0-.12,0-.48.24-.36l.24.24c0-.24,0-.36.24-.24-.12,0-.36-.24-.12-.36.24-.24.24.12.48,0,0-.36-.36,0-.48,0v.36c-.24,0-.36.24-.59.36h-.36c.12,0,.24,0,.24.24,0,.12-.24.24-.48.24,0,0-.12,0-.24-.12v.36-.24ZM86.76,86.99c.36,0,.36-.24.71-.24v-.48c-.12,0-.24.24-.48,0-.12-.12-.12-.24,0-.36h.24c0-.24-.36,0-.48-.12v.59c.24.24,0,.24,0,.48v.12ZM85.93,83.43v.24c.12,0,.24,0,0-.24ZM85.93,86.99c0,.36-.36.24-.59.24.36,0,.24.48.48.48.36,0,.71-.59.59-.95,0,0-.24-.36-.36-.36v.24c-.24,0-.48-.12-.48.24.12,0,.36-.24.36,0v.12ZM84.74,87.35c-.36,0,0,.24-.48.24,0,.24.36.36.36.48-.48-.12-.48,0-.48.36.36,0,.48-.24.83-.12,0-.12.24-.48.36-.48v.36c0-.24.48-.48,0-.71-.24,0-.24.36-.48.36,0-.24.12-.36,0-.48h-.12ZM82.12,38.74v-.24s-.24,0-.24.12c.12.36.48,0,.48.48h.59c-.24.36,0,.36.24.24.24.24.48,0,.48.36,0,0,0-.12.12-.12l.24.24q.24,0,.48.12c0-.24-.24-.36-.12-.59h-.48c-.12-.12-.24,0-.36,0-.24,0-.36-.36-.48-.48-.36,0-.48-.12-.83,0h-.12v-.12ZM82.24,95.08c-.48.24-.83.48-1.43.48.36.24.71-.12.95,0,.24-.24.48,0,.71,0,0-.12,0-.24-.24-.36v-.12ZM81.88,98.52h-.12s0,.12.12,0ZM81.65,82s0-.12-.24,0c0-.12,0-.24-.12-.24,0,.12,0,.36-.12.48h.59l-.12-.24ZM80.34,82.48s-.59,0-.48.12c.24,0,.71.12.59-.24,0,0,.24,0,.24.24h.48c-.24,0-.36-.24-.59-.36h-.24s-.12,0-.24-.24c-.12.12-.36,0-.24.24h.24s.12.12.12.24h.12ZM81.17,99.12c-.12,0-.24,0-.36-.24,0-.12-.24,0-.36,0h-.71c.24.36.71.48,1.07.12h.24s.24,0,.24-.12l-.12.24ZM78.56,58.47h-.59v-.24c-.24,0-.24-.12-.36-.24-.48,0-.59-.24-.95,0,0,0-.12,0-.24-.24,0,.36-.24.12-.48,0l-.24.24h-.24c-.12.12-.24.24-.48.24h.71c0,.12,0,.24.12.36.36,0,.71,0,.83-.24.24,0,.48,0,.48.24q0-.24.24-.24c.36,0,.12.24.36.48.24,0,.48,0,.71-.12l.12-.24ZM73.09,98.76s-.48-.24-.48,0c0,.36.36.12.48,0ZM75.35,33.51h.36c.12.12.24,0,.48,0h.59c.24.12.59,0,.83,0,0-.24-.24-.24-.36-.24-.36.12-.71,0-1.07.24-.36,0-.48-.24-.71,0h-.12ZM77.96,33.63c.24,0,.36-.12.48-.12h.48v-.24c.24,0,.24.24.48.36v-.36c.24-.12.48,0,.48.24.12,0,.59.12.59-.12h-.36c-.24,0-.24-.24-.48-.36,0,0-.12,0-.24.12q-.24-.24-.48,0h-.95v.48ZM80.46,33.87v.24c.12-.24.59-.24.36.12h1.54v-.36c-.12-.24-.36,0-.59,0s-.36,0-.59.12h-.36q-.24-.12-.48-.12h.12ZM82.72,34.35h.83v-.24c-.36,0-.48-.24-.83-.24,0,.12-.24.24-.24.48h.24ZM83.9,34.23c.36.36.83.24,1.31.36,0-.12-.36-.24-.48-.36-.24,0-.48.12-.71,0h-.12ZM85.69,34.58c0,.12,0,.24-.12.36h.36c0,.24.24.24.36.12h.59c-.36,0-.36-.12-.48-.48,0,0-.24,0-.36.12-.24-.12-.24-.36-.59-.48,0,0,0,.24.12.36h.12ZM88.18,30.31c.36,0,.24-.36.59,0,0,0,0,.12-.12.24.24,0,.36.12.59.24h.71v-.24c-.36,0-.59,0-.83-.24-.12-.24-.95-.12-.95.12v-.12ZM88.9,29.12v-.24.24ZM91.15,31.14c.24.24.36.24.48.36v.24h.83c0,.12,0,.24.12.24.24,0,.24-.12.48,0-.12,0-.24.12-.24.24.12,0,.36,0,.48.12h.36c-.36-.24-.48-.36-.71-.71-.36-.12-.71,0-1.07-.24-.24,0-.59-.24-.83,0l.12-.24ZM94.84,39.1c-.24,0-.48-.24-.71-.24h-.59c.12.24.48.12.71.36.12.12.36.48.59.36,0,0,0-.48,0-.48ZM93.89,32.56c.24,0,.36.12.59.12,0,0,.24.24.36.24.24-.24.59,0,.59-.36,0-.24-.48-.36-.71-.48h-.83v.48ZM95.2,32.92s-.12,0-.24.12c0,.24.24.48.48.48.24.12.36.24.59.24,0,.12,0,.24.12.24.24-.24.36-.24.48,0v.24c.24,0,.36.36.48.36,0,0,0-.12.12-.24,0-.12-.12-.24-.24-.36v-.24c-.36-.12-.48-.24-.83-.24-.24-.24-.59-.24-.71-.59q0,.24-.24.36s-.24-.24-.24-.36h.24ZM100.54,45.52c.24.36.59,0,.71.48h.24v-.24c-.24-.12-.59-.36-.83-.48,0-.24.12-.71,0-.95-.48,0-.36-.71-.83-.59-.24-.24-.12-.36-.24-.71-.24,0-.36-.12-.59-.24,0-.24-.12-.24-.24-.36v-.36c-.24-.24-.24-.48-.48-.59-.12,0-.24-.24-.36-.36-.12-.12-.36-.12-.59-.24-.12,0-.12-.24-.24-.36v.24c-.36,0-.36-.48-.59-.48-.12,0-.36,0-.59-.12-.24-.24-.48,0-.71-.12l.12.24c.48,0,.48.48.95.71.36.12.48.24.59.59.36,0,.59.24.83.48v.24c.24.24.59.24.83.36v.36c.24,0,.59,0,.59.36,0,.12-.24.24-.24.36.24,0,.48,0,.59.24,0,.36.12.36.36.59v.36c.12.12.36.12.36.24v.36h.36ZM97.33,34.58c.12.12.36.12.48.36.12,0,.36-.24.48-.24,0,0,.12.12.12.24-.24,0-.48,0-.36.24,0,0,.24,0,.36.12.24,0,.24-.24.48-.12,0,.24-.24,0-.24.36.12.12.48,0,.71.12v.24h.48c0,.12.12.24.24.36,0,0-.12.24-.12.36h.24c.24-.24.36,0,.48.24h.12c0,.24.12.24.24.36v.24c.24,0,.36-.12.48,0,0,.36.36.48.48.59.24.12.36,0,.59.12v.36c.24.24.71,0,.71.36,0,0-.12.24-.12.36.24.12.48.12.71.24,0-.24-.24-.12-.24-.36,0-.48-.71-.48-.71-1.07h-.36c-.24-.24-.48-.24-.71-.48v-.24c0-.12-.36,0-.48-.12s-.36-.36-.48-.59v-.36c-.36,0-.59,0-.59-.48-.12-.12-.24-.24-.48-.36-.24.24-.36.12-.48,0-.24-.24-.59-.48-.71-.83-.24,0-.48,0-.59-.36h-.59c-.12,0-.12.36-.36.48l.24-.12ZM104.94,40.65h-.24s0,.12.24,0ZM71.43,28.64s0-.24-.12-.24c-.24.24-.71-.12-.83.36-.48-.12-.83,0-1.43,0,0,.48-.48,0-.59.36.12.24.24.24.48.12.24.12.36,0,.59,0,.24.12.36.24.36,0,0,0,.12,0,.24.24,0-.36.48-.24.71-.48.24-.12.36,0,.59,0v-.36ZM70.48,35.18c-.36,0-.24,0-.48.24-.24,0-.83-.24-.83.24.36-.12.48,0,.83,0,.12-.24.48-.24.59-.36l-.12-.12ZM70.12,90.68h-.48c-.12,0-.36.36,0,.36,0-.12.59,0,.48-.24v-.12ZM70,92.46c-.12-.12-.24-.24-.48-.24,0,.12,0,.24.12.48.12,0,.36,0,.36-.12v-.12ZM69.41,99v-.24h-.24c-.12.24-.71.48-.71,0h-.24c-.48,0-.95-.12-1.43,0-.24,0-.24-.24-.36-.48-.12-.12-.24,0-.24.12-.24,0-.36-.12-.59,0-.24,0-.48-.24-.59-.36h-.59c.12.24.36.24.48.24s.24.24.36.36c.48,0,.83,0,1.31.24.36,0,.71,0,1.07.24h.71c.36-.12.59,0,.83-.24,0,0,.12,0,.24.24v-.12ZM64.41,48.37c.12,0,.36,0,.48-.12.24-.24-.36-.24-.48-.24v.36ZM63.82,41.36c-.12.24-.24.36-.48.36.36,0,.59.24.71-.24h.36c0-.24-.48-.36-.59-.24v.12ZM63.7,49.08h-.36v-.24c-.24,0-.12.24-.36.36-.12.12-.24.24-.24.48h-.36c-.12.12-.24.24-.36.24l.12.12h.36v-.36h.36c0-.48.71-.24.71-.71l.12.12ZM61.92,42.67c.12,0,.12-.12.36,0,0-.24.36-.36.59-.24,0-.24-.12-.36-.12-.59h-.24c0,.48-.36.24-.59.59-.24,0-.36,0-.48.24-.24,0-.24.12-.48.12v.24c-.24.12-.36,0-.59,0v.36h-.36c.24.36-.24.36-.48.12v.36c.48,0,.71,0,1.07-.36v-.24h.59v-.36c.36,0,.48-.24.71-.24ZM59.19,39.58c.36,0,.36-.24.83-.12,0,0,.12-.12.24-.12v-.24c.24,0,.48-.24.71-.24.24-.24.36-.36.71-.36-.24-.12-.71,0-.71.36h-.48s-.12,0-.24-.12c-.12.12,0,.36-.36.36v-.24c-.24.12-.36.24-.36.48-.12,0-.24,0-.24-.24-.36,0-.24.12-.12.36-.24,0-.36.24-.59.24-.36,0-.59.36-.83.24v.24c-.12.12-.24,0-.48,0,0,.24.24,0,.24.36,0,.24-.59.12-.71.24-.36,0-.24.24-.48.36v.48h-.24c0,.24.12.36.24.24.24-.12.36-.12.59-.12-.36-.24-.24-.48-.36-.83.48-.24.24.24.48.36v-.36c.36,0,.48-.12.71-.36v-.36c.36,0,.12-.12.24-.48.24,0,.36.12.36.36h.36c0-.36.24-.36.36-.59l.12.12ZM57.64,93.17c0-.12-.24-.24-.24-.48-.12.24-.48-.24-.71-.24h-.12c-.36-.24-.36-.36-.83-.36,0-.12-.12-.24-.24-.24l-.36-.36c-.36,0-.48-.48-.83-.24,0,0,.24,0,.36.12,0,0,0,.12.12.24.24,0,.48.12.71.12,0,0,.12,0,.24.24.36,0,.48.24.71.36,0,.36.83.36,1.07.48h.24l-.12.36ZM57.28,96.86c-.12-.24-.48-.24-.59-.48-.12-.24-.36-.12-.59-.36-.12-.12-.36,0-.48,0,.48.48.95.48,1.43.71h.24v.12ZM55.5,95.91c0-.24-.24-.36-.36-.59-.36-.12-.71-.12-1.07-.36-.12-.24-.36-.24-.36-.59,0,0-.24,0-.24-.12h-.12c0-.36-.48-.12-.59-.48-.24,0-.24-.24-.36-.36-.24,0-.36-.24-.59-.24-.12-.12-.12-.24-.24-.48-.24,0-.36-.24-.48-.36h-.24v-.36c-.24,0-.24-.24-.36-.48-.24-.12-.48,0-.48-.36h-.24v-.24c0-.36-.36-.12-.59-.24v-.24h-.36v-.36c-.24-.12-.59-.36-.83-.36,0-.48-.24-.24-.36-.59-.36,0-.12-.36-.48-.48-.12,0-.24-.12-.24-.36-.36,0-.36-.36-.71-.36v-.24h-.36v-.71h-.24c0-.24-.36-.36-.59-.48-.24,0-.12-.36-.12-.59-.36-.12-.59-.36-.95-.48-.36,0-.12-.36-.24-.59-.24,0-.36-.12-.59-.24v-.59c-.24,0-.36.24-.36-.12-.36,0-.12-.12-.24-.48-.48,0-.36-.12-.59-.36,0,0-.24,0-.24.12.48.36.48.95,1.07,1.07,0,0,0,.24-.24.36.24.36.59,0,.83.48,0,0,0,.24-.12.24,0,0,.12.12.36.12,0,.12-.12.24,0,.36.24.36.83.48.95.83,0,0-.12.12-.12.24,0,0,.24.12.36.24-.12.59.59.24.48.83q.24,0,.36.24c.24,0,.36,0,.48.36.12.24.48.12.59.48-.48,0,0,.36.12.59.48.12.71.24,1.07.48.24,0,0,.24,0,.36.12.12.36.36.59.48.12,0,.59,0,.48.24h-.24c.12.24.24.24.24.48.36,0,.83.12.83.59h.36c.36,0,.36.36.59.48.48,0,.95.24,1.31.59,0,0-.24.24-.24.36.36.24.83.24,1.19.36.24,0,.36,0,.48.24v.24c.24,0,.48,0,.48.36.24,0,.48.12.71.24.24,0,.48.36.71.24l.12.59ZM53.36,96.5h.24s0-.12-.24,0ZM41.95,83.55c.24,0,0-.36,0-.24v.24ZM43.97,40.76c0-.24.12-.36,0-.48-.36,0-.24.48,0,.48ZM44.21,40.05c.24.36.24-.24.59-.24,0-.24,0-.59.36-.59.12-.12,0-.36,0-.59v-.24c-.12,0-.36,0-.48.24-.24.24-.48.48-.48.83h.36v.36c-.12,0-.36.12-.48.36l.12-.12ZM45.64,38.27c0-.12.12-.48,0-.48v.48ZM52.77,90.68c.36,0,.71.24.95.36,0,0,.24,0,.24-.12,0-.24-.12-.12-.36-.12-.12-.24-.36-.24-.59-.24-.12,0-.36,0-.36.12h.12ZM53.01,86.76h.24q0-.12-.24,0ZM53.84,43.74c.12-.24.24-.12.48,0,.12-.36-.48-.24-.48,0ZM56.1,65.96c-.24,0,0,.36,0,.48h.24c0-.12-.24-.24-.36-.36l.12-.12ZM55.38,63.58c0,.12,0,.36.12.48.24.24.24.48.36.71,0,.36-.48.48-.12.71.36,0,0,.36.36.36.24-.12,0-.36.12-.59-.12-.24,0-.48,0-.71,0,0,0-.12-.12-.24h.36v-.36c-.12-.24-.12-.36,0-.59v-.59c-.12-.12-.12-.48,0-.59,0-.24,0-.36.12-.59-.12,0-.12-.24-.12-.36h-.24v.24h-.24c0,.24.24.36.24.59,0,.12-.36.24-.24.36.24.12.24.36,0,.36v.71s-.12.12-.36,0l-.24.12ZM56.69,81.29h-.12c0,.24.48.24.59.48,0,.12,0,.24.36.24,0-.12-.12-.24-.12-.36,0-.24-.36-.24-.48-.48l-.24.12ZM56.33,60.25h-.24c0,.24.24.36.48.48,0,0,.12-.24.24-.24,0,0,0-.12-.12-.24v-.48h-.36v.48ZM55.62,34.23h.83c-.24-.24-.48,0-.59-.24.24-.48.59-.12.71-.48,0-.48-.48-.12-.71,0,0,0,0,.24-.12.24v.24q-.24,0-.24.36l.12-.12ZM56.69,33.99c.24,0,.59,0,.83-.36.12-.12.36,0,.48-.24-.36,0-.59.12-.95,0v-.36c-.48,0,0,.48,0,.71-.12,0-.24,0-.24.24h-.12ZM58.23,33.04s-.36-.24-.36,0c.12.24.36.36.59.12,0,0,0-.12-.24-.12ZM57.05,32.92c0,.24.48.36.59,0,.12-.24.48-.24.83-.48,0-.12,0-.24.12-.36-.36-.36,0,.24-.48.12q0,.24-.12.24s-.24,0-.24-.12c-.12,0-.24,0-.36.24v.24h-.36v.12ZM58.95,32.56c-.24,0-.24.36,0,.24v-.24ZM60.85,34.82c-.12,0-.71,0-.48.24.12,0,.59,0,.48-.24ZM62.99,33.75v.24c.24,0,.12-.36,0-.24ZM59.3,32.56v-.48s.12,0,.24.24c.24,0,.71-.36.83-.24,0,.36-.36.24-.36.36.24,0,.48,0,.59-.24q.36,0,.48-.36h.24v-.48c-.12.24,0,.24-.48.24-.24.48-.59,0-.59-.36.12,0,.24.12.36.24-.12-.36.48-.59.71-.36.24.12.36,0,.59,0,0,0,0-.12-.12-.24,0-.12.59-.24.71-.36.48.24,0,.36-.24.36,0,.12.24.12.24.12l.24-.24h.36s0-.24.12-.24h-.36c-.24,0-.36-.48-.48-.59,0,0-.12,0-.12.24-.36,0-.59.12-1.07.12-.12,0-.24.12-.36.12-.24,0-.24.36-.59.36,0,0-.12,0-.24-.12,0,.12-.24.12-.36.12v.36c-.36,0-.48.12-.95.12-.24.36.36.71.59.71v.59ZM63.11,30.54c.36,0,.71.12.59.48l.12-.12c-.24-.36,0-.48,0-.83-.12,0-.24,0-.48-.12-.24.12-.24.48-.71.36,0,.24.24.59.36.24h.12ZM63.58,36.84c.36,0,.71,0,1.07-.24,0-.24.12-.36.36-.24.24,0,0,.36.36.24.12-.12.24-.36.48-.48h.36-.24c0-.36.36-.12.48,0h.36v-.24c.24,0,.59-.24.95-.24.24.24-.24.24-.36.48q.24,0,.48-.12c.12,0,.48,0,.36-.24-.24,0-.36,0-.48-.12-.24-.12-.36.12-.71,0-.36,0-.59.12-.95.36-.24,0-.48,0-.71.12-.48-.12-1.07.24-1.43.48-.24,0-.36,0-.36.24ZM64.41,33.87c.24,0,.12-.24.24-.48,0-.24-.36,0-.48,0,.36,0,.36.12.24.48ZM68.93,90.8h-.36c.24.12.36,0,.36,0ZM68.22,90.44v-.24c-.24,0-.24.36,0,.24ZM65.84,91.63c0,.24.48.24.59.48.12.12.36,0,.59,0s.48.24.71.24h1.66c0-.24-.48-.24-.59,0h-.36c-.24,0-.48-.24-.59-.36,0,.12-.24.24-.36.24,0,0-.12-.12-.12-.36-.36,0-.59,0-.95-.24h-.59ZM65.6,47.78c.12,0,.83,0,.59-.36h-.59c0,.24-.36.36-.59.24v.48c.24,0,.48,0,.59-.12v-.24ZM68.69,35.65c.24,0,.24-.36,0-.36v.36ZM68.34,37.44h.83c.24,0,.36-.12.59,0,.12,0,.48,0,.36-.24h-.71c-.24.12-.83.24-1.07.36v-.12ZM64.06,30.54v.36c.24,0,.36,0,.59-.12v-.59c.24-.12.71.24.59.48l.12-.12q-.12-.24,0-.36c.12,0,.24.12.36.24,0-.24,0-.36.36-.24.24,0,.12-.36.36-.36v.36c0-.24,0-.48.36-.59.24,0,.36.36.59.12v-.36c.24,0,.36,0,.36.24h.36v-.36c.24,0,.24.36.36,0-.24-.71-.48.24-.83-.12-.12,0-.48,0-.59.12s-.24,0-.36,0c-.12.12-.36.36-.36,0-.12.12-.24.12-.36.12s-.36.24-.48.24h-.48c0-.24-.24-.24-.24,0-.24,0-.36.24-.59.36h.36c.12.24-.24.24-.36.36l-.12.24ZM41.6,82.72c-.24,0-.36-.12-.48-.36,0-.24-.48,0-.36.12,0,.12.24.24.36.36-.12.24,0,.48.36.48,0-.12,0-.36.12-.59ZM39.22,47.66c-.12,0,0,.59.24.48,0,0,0-.48-.24-.48ZM111.71,71.43c-.24.36.24.59-.24.59,0,0,0,.24.24.24v.59c-.12.24-.24,0-.36,0v.48c-.12.24,0,.48-.36.59,0,.12,0,.24.12.36-.24.48-.48.71-.36,1.19.12,0,.12.12.12.24-.24.24,0,.36,0,.48-.24,0-.59.24-.48.59,0,.12.12.36,0,.48h-.71c.12.12.36,0,.48.36,0,.36-.36.48-.24.83-.24,0-.24.24-.48,0,0,.24.24.24.24.48-.36,0-.24.36-.59.48,0,.24.48.24.36.48-.48,0-.36.36-.71.48v.36c-.12,0-.36,0-.48.24,0,.24.36.24.36.48-.24.12-.48,0-.59.12,0,.24-.12.59-.48.59v.83c-.24,0-.36.12-.48.12-.24,0,0,.36-.12.59h-.24c0,.24.24.12.12.36-.24,0-.59.12-.59.48-.24,0-.36.24-.36.48,0,.12.24.12.24.36-.24,0-.36.12-.59.24,0,.36-.24.36-.48.59,0,.24-.36.12-.48.12v.24h-.24c0,.36.24.24.24.48h-.48c0,.24,0,.36-.24.36s0,.24,0,.36c-.24.12-.36.36-.59.48,0,.36,0,.24-.36.36v.36h-.24c0,.12.12.24,0,.48-.24.12-.48,0-.59.24v.36c-.36,0-.24.36-.71.48-.36.24-.24.24-.24.59h-.24v.36c-.12,0-.24,0-.24-.24-.12.12-.12.24-.36.24,0,.36-.71.24-.83.59,0,0,.24.24.24.36-.24.24-.71.36-.95.48v.36c-.24,0-.48.24-.59.36-.36,0-.48.24-.83.36v.36h-.59c0,.24-.36.24-.59.36v.36c-.24,0-.48.12-.71.24-.48,0-.95.36-1.43.48v.36c-.24,0-.36,0-.59.24h-.71c0,.24-.12.24-.36.24-.24.24-.59.36-.83.48-.12.12-.36.12-.48.24-.12.24-.48.24-.71.24-.24.24-.36.12-.71.12q0,.24-.24.24c-.48,0-.59.36-1.07.24-.36.12-.59,0-.59.36-.36.12-.59.24-.95.36-.71,0-1.43.48-2.26.71h-1.07c0,.24-.36.24-.48.24-.36.24-.83,0-1.19.36-.48,0-.95-.12-1.31.12-.48,0-.95,0-1.54.12-.24.12-.36.12-.71.12-.12.24-.59,0-.83.24-.36.12-.95-.24-1.31,0-.71,0-1.31-.36-1.9,0-.59-.24-1.07,0-1.66,0-.24,0-.48-.12-.71-.12-.24-.12-.71-.36-.83,0,0,.12.24.24.48.24-.12.12-.24.12-.48.12v-.36c-.24,0-.83-.36-.95,0,0,.12.12.24.36.24h-.24c0-.59-.71,0-.95-.36-.24-.24-.24.12-.59,0-.24,0-.71,0-.71-.36h-.36c-.12-.12-.36-.24-.59-.36h-.48c-.48.12-.95,0-1.31,0-.83,0-1.43,0-2.26-.24-.24-.24-.59-.24-.83-.36-.24-.24-.48,0-.71,0-.48,0-.71-.24-1.07-.48h-.95c-.24,0-.36-.24-.59-.24h-.71c-.24-.12-.36-.24-.59-.36-.36,0-.48-.36-.83-.36s-.71,0-1.07-.24c-.24,0-.48-.12-.48-.48-.48,0-.83-.12-1.19-.59-.24,0-.48.12-.59,0q-.36,0-.48-.36c-.36-.24-.83-.36-1.19-.59-.24-.24-.59-.59-.95-.59-.24-.12-.59-.36-.71-.71-.48-.12-.95-.24-1.31-.59-.12-.24-.36-.24-.59-.36-.24-.24-.71-.36-.95-.83-.36-.24-.83-.36-1.07-.83-.24,0-.59-.12-.71-.36.12,0,.12-.24,0-.36-.24-.36-.59-.48-.83-.83v-.36c-.36-.36-1.07-.24-1.19-.83-.24-.12-.36-.36-.59-.59v-.24c-.24-.24-.48-.36-.59-.59-.24-.12-.48-.36-.59-.59-.24,0-.48-.24-.59-.36v-.36s-.24-.24-.36-.24v-.24c-.24-.24-.48-.36-.71-.48.12-.24.12-.36.12-.59-.24-.36-.59-.24-.83-.59v-.24c-.24-.36-.95-.83-.83-1.31,0-.24.36,0,.24-.36-.36-.12-.71-.36-.95-.71.36-.36,0-.59,0-1.07-.24-.12-.48-.24-.59-.48.12-.48,0-.71-.36-.95.12-.24,0-.36-.24-.36,0,0,0-.24-.12-.24.12,0,.24-.12.48-.24,0-.24-.59-.36-.59-.59,0-.12.24-.24.24-.36,0-.24-.48-.48-.24-.71,0-.24-.24-.36-.36-.59,0-.24.12-.59,0-.83,0-.24-.24-.36-.24-.59,0-.12-.12-.24-.24-.36.24,0,.36-.24,0-.36-.36-.12-.36.12-.36.36-.12-.36.36-1.07.24-1.43-.12-.24-.24-.36,0-.59.12-.36,0-.59-.36-.71,0-.36,0-.48-.24-.71,0-.12.12-.24.24-.36q.24,0,.36.24c0-.24-.24-.36-.12-.71,0-.24.24-.36.12-.48-.24-.24,0-.48-.12-.83-.12-.12-.36-.24-.24-.48v-.59c0-.48,0-.83.12-1.19.12-.48-.36-.59,0-.95-.12-.24,0-.36-.24-.59v-.83h.12c0-.36-.24-.48-.12-.71,0-.24.24-.36.24-.59,0,0-.12-.24-.24-.24v-1.55c.36-.12.12-.36,0-.59,0-.12.12-.36.24-.48-.12-.24-.24-.59,0-.83.12-.12,0-.36,0-.48.12-.24.24-.59.36-.83,0-.12-.12-.36-.36-.36l.24-.24c-.24-.36.36-.36.48-.59-.24,0-.24-.24-.36-.48.12-.24.48-.48.48-.71s-.12-.24,0-.48c0-.24.12-.36.24-.59,0,0,0-.12-.12-.24.24-.36-.12-.48.24-.71,0-.12-.12-.36,0-.48h.36c0-.24-.12-.24,0-.48,0-.24.48-.12.36-.36h-.12v-.71c0-.24.24-.36.36-.59v-.24s.24-.12.36-.24c0-.24-.24-.24-.24-.48.12,0,.36-.12.48-.24,0-.24,0-.83.24-.95,0,0,.12,0,.24.12,0-.36,0-.48.36-.36,0-.24-.24,0-.24-.36-.12-.24,0-.48.12-.71,0-.36.24-.48.24-.83.12,0,.24,0,.24-.24s0-.48.12-.71c.36,0,.59-.24.59-.71.12-.24.59-.48.24-.83.12-.24.36-.24.59-.36v-.59c.36-.12.48-.24.36-.71.36-.12.36-.36.36-.71.36,0,.24-.24.24-.48.36,0,.24-.48.48-.71.36,0,.48-.12.71,0-.12-.24-.36-.12-.48-.36v-.36c.36.12.24-.12.48-.24h.24c0-.24.24-.71.59-.71,0-.24-.12-.36-.24-.59.24-.24.59-.24.83-.36v-.36q.36-.24.36-.59c.36-.24.71-.48.95-.83v-.24c.24-.24.36-.36.71-.48.24,0,.12-.36.48-.36,0-.24,0-.48.36-.36v-.36c.36-.24.59,0,.59-.59h.24v-.36h.24c.24,0,.36-.24.48-.24,0-.24.24-.36.36-.59.48,0,.59-.48,1.07-.24-.12,0-.24-.12-.24-.24h.24v-.24h.24v-.36c.36-.12.83.12.95.48-.24,0-.24.24-.48.24s-.24.24-.36.36h-.24c0,.36-.24.36-.48.36.12,0,.36.12.24.36-.12,0-.59,0-.24.24.24,0,.36,0,.59.24.12.12.36,0,.36.24-.36-.12-.71-.24-.95-.36,0,.36-.24.12-.48.24,0,.24-.24.36-.24.48h-.59c.12,0,.24.12.24.24h-.36v.36h-.36c0,.24-.36.48-.24.71,0,.24.24,0,.36,0,0,.12.24.36.24.48-.48.24-.48-.71-1.07-.36.12,0,.24.12.24.24-.24,0-.48,0-.59.12,0,.24.12.59-.12.71-.24,0-.36-.24-.59-.24,0,.24-.12.48-.36.71.12.24,0,.59.36.71,0-.12.12-.48.36-.48.24.24-.24.59-.24.95-.24,0-.12-.48-.36-.24v.24c-.12,0-.24.24-.24.36.36,0,.71-.12.95-.59h.24v-.36h.36c-.12,0-.24,0-.24-.24.12-.24.59-.12.83-.48v-.36c-.24,0-.24.12-.36.36h-.24c0-.24.24,0,.24-.36,0,0,0-.24.24-.24v-.36c.24,0,.59.36.83.24v-.24c.36,0,.59-.36.48-.59,0,0-.24-.12-.36-.24v.36c-.36,0-.24-.24-.24-.36s-.12-.36-.24-.48c.24,0,.24.24.36.24v-.36c0,.24.24.36,0,.59,0,.24.24.36.36.24v-.36h.36s.12-.24.12-.48c0,.24.12.24.36.12q0-.24.24-.24v-.24h.24c0-.48.48-.36.59-.59,0-.36-.12-.36-.48-.24v-.24c.12-.12,0-.48,0-.59.24,0,.48,0,.71.12-.12,0-.48,0-.36.36,0,.24.12.36.24.48.48,0,.12-.59.71-.36.24-.24.59-.12.59-.59h.36c0,.36,0,.12.36.24,0,0,0-.12-.12-.24,0-.24.36-.36.59-.36,0,0,.12-.12.24-.12v-.36h.48c0-.24,0-.36.36-.36.24,0,.12-.24.24-.48h.36c.12,0,.36-.12.48-.24,0-.24.24-.36.36-.59h.24q0-.24.24-.12c.24.24.36,0,.36-.36.36,0,.59,0,.95-.24.12.24.24.12.36.12v-.36c.36,0,.59.12.59-.24h.48c0-.48.59,0,.59-.48.24.12.36,0,.59-.12.12-.24.48-.24.71-.36.12-.24.36-.24.59-.36.24,0,.24.24.48.12v-.24h.36c.12,0,.24,0,.36.12,0-.36.36-.48.48-.12l.24-.12s-.24-.12-.24-.36c.24-.24.48,0,.71.12,0,0,.24,0,.24-.12.24,0,.48.24.71.24.12,0,.36.24.24.36h-.48c0,.24,0,.59-.24.36v-.36c.24.36-.24.48-.48.59,0-.24.24-.24,0-.48h-.48c-.12.24,0,.48-.48.59h1.19q.36,0,.59-.24c.36-.12.71-.36,1.07-.24.24-.24.59-.24.83-.24.36,0,.83-.24,1.19,0,.24,0,.48-.36.71-.36.24.24.48.24.71,0h1.07c.24.36.36.12.59,0,0-.12.36-.24.48-.24.24.36.83,0,1.19,0h.59c.12,0,.24.12.36.24,0,0,.24-.24.36-.24h.24v.12c0-.36.48,0,.71,0h.36c.48,0,.83.48,1.31.12.36-.12.36,0,.59,0,0-.24.59-.24.71,0,.24,0,.48.24.71.12.24.12.48,0,.71,0,.36,0,.48.36.83.24.24-.12.36,0,.59,0s.36.12.71,0h.83l.24.24c0-.12.36-.12.48-.24.12,0,.24.12.36.24.12-.12.36-.24.59,0,.12.12.48.12.59,0,.36,0,.48.48.83.48v-.36c.36,0,0,.24.36.36h1.54c.24,0,.36,0,.48.12.24-.24.48,0,.71.12v.24c.24.24.48,0,.83.12.24.12.48,0,.59.24.24.24.48,0,.83.12,0,0,0,.24.12.24.36.24.71,0,.95.36.24,0,.48,0,.59.12s.24,0,.36,0c.12.24.36.24.48.48h.36c.24,0,.36.12.36-.12,0,0,.12,0,.24.12v.24c.12.12.36.24.48.36,0-.36.36-.12.48,0h.36v.59h.36v-.36c.24,0,.24.48.36.59.24,0,.48,0,.71.24.24,0,.36,0,.48.12v.24c.12.24.48.24.59,0,.24,0,0,.24.36.24s.48.12.71.36c0,0,0,.12-.12.24,0,.12.24.24.48.24v-.24c0,.36.12.48.59.36v.48h.24c.12.12.24.36.36.48.24,0,.36.12.48.36.36,0,.48.36.36.71.12,0,.36-.24.59-.12.24.24.12.59.48.71.24.24.48,0,.71.24,0,.24,0,.59.24.48.24-.24.24,0,.48,0v.24c-.12,0-.24,0-.24.24.24.12.48,0,.48.24s.24.36.48.48v.48h.36c0,.24,0,.71.48.71.24,0,.36.24.48.36.24,0,.36-.12.48,0,0,.36-.24.71.24.83v.12c.12.12.48.24.24.48h-.24s0,.24.12.24h.24c.24.24.36.59.59.83,0,0,0,.12-.12.24,0,0,.24.24.36.24h.24c.12-.24.24,0,.24.12-.12,0-.24,0-.24.24.12.24.12.12,0,.36.24,0,.48.24.71.36v.36c.12,0,0,.36,0,.48.12.12.12.36.36.48,0,.36.36.59,0,.95.24.24.48.24.48.71.24.48.48.95.36,1.43h.24s.12.24.24.24h-.24c0,.36,0,.59.12.83.36.24.24.59.48.83,0,.12-.24.24-.24.48h.36s0,.24.12.24h-.48c0,.24.24.36.12.71.12,0,.36,0,.48.12v.24c-.12,0-.36,0-.36.36,0,0,0,.12.24.24,0,.12,0,.24.12.36v.36q-.24,0,0,.24c.24.24.12.59.24.83.24,0,.24.24.36.36,0,.36,0,.59.12.95-.36,0-.12.24,0,.36v.24h-.36c0,.24.12.48.24.71,0,.24.12.36.36.59v.24c0,.24.24.48.24.71q-.24,0-.24.24c.12.12.24.36.24.48h-.36v.48c.12,0,.24,0,.48.12,0,0,0,.24-.12.36l.24.24h-.48c.12,0,.24,0,.36.24-.12.24-.24.12,0,.36-.36.24-.12.83-.24,1.19h-.24c0,.24.36.24.48.36,0,.24-.24.24-.24.48v.59c0,.24.36.24.36.36h-.36c0,.24,0,.36-.24.48,0,0,0,.12.12.24,0,.24-.12.36-.36.36.24.24.59,0,.71.48h-.71c.24,0,.36.12.48.36,0,0,0,.12-.12.24.12,0,.24,0,.12.12-.36,0-.36.24-.24.59.12,0,.24.12.24.24h-.36v.36c0,.24-.36.48-.36.71,0,0,.12.12.24.12v.48h-.36c0,.24.24.48-.12.59v.48c0,.12-.24.36-.24.48l.24.24c0,.24-.12.24-.36.24l1.07,1.07ZM50.39,34.11c.24.12.12-.24.12-.36-.12,0-.36.24-.12.36ZM49.68,34.47c.12,0,.36-.24.48-.24,0,0,0-.24-.12-.36-.12,0-.24.48-.36.59ZM49.56,34.82c-.12-.12,0-.48-.24-.59-.12,0,0,.24,0,.36,0,.24.24.36.24.12v.12ZM98.76,108.62v.12c.12.12.12,0,0-.12ZM113.97,96.03v.24-.24ZM100.54,116.71c-.24-.24-.36-.36-.36-.71h-.24v.71c.36.24.24.59.59.71.24-.12-.12-.48,0-.71ZM100.19,111.71v-.48c-.24,0-.36,0-.24-.24h-.24c-.12,0,0-.24,0-.36-.48,0,0-.36-.48-.48-.24,0-.24-.59-.48-.36v.36c.12.12.24.24.48.36,0,.24.24.36.36.59h.24c0,.36,0,.48.12.83,0-.12.12-.24.24-.24ZM100.66,112.31c.24,0,0-.36-.12-.24,0,0,0,.12.12.24ZM97.93,112.19v.12c.12.12.12,0,0-.12ZM97.45,111.71v.24c.24,0,0-.36,0-.24ZM96.98,109.34h-.36v-.36c-.24,0,0,.36,0,.48,0,.24.36,0,.48,0l-.12-.12ZM94.72,114.57s0,.48.24.36c0,0,0-.36-.24-.36ZM93.65,108.51c0,.12,0,0,0,0ZM92.46,108.86h-.24s-.36-.48-.24-.12c.24.12.12.48.48.36v-.36.12ZM104.7,120.27c.24.24,0,.36.12.59-.24-.12-.48-.59-.71-.59s-.36-.24-.59,0c0,0,0-.12.12-.24,0-.36-.36,0-.59-.36,0,0,.36-.24,0-.36-.24,0-.24-.24-.24-.48-.24,0-.36-.12-.59-.24v-.36c0-.24-.36-.24-.59-.36-.24,0-.36-.24-.48-.12v-.48h-.48c0,.36-.36.24-.24.71.24.12.59.48.36.83.36,0,0,.12.12.36,0,0,.24,0,.24.12v.12s.24.12.24.36v.24c.12,0,.48,0,.59.24l-.24.24c.12.24.24.59.48.59-.24.12-.24.36-.36.36v-.36s-.12,0-.24.12c-.24,0-.24-.48-.36-.59-.24-.12-.36,0-.48-.36-.36.12-.36-.12-.48-.36,0,0-.36,0-.48.12v.36c-.36,0-.48-.12-.59-.48-.12,0-.24-.24-.48-.24s-.24-.24-.24-.48c-.36,0-.36-.24-.36-.48-.24,0-.36-.12-.36-.36,0-.36-.36-.24-.48-.59h-.24q0-.24-.24-.24c0,.12,0,.24-.12.24,0-.24-.24-.48-.36-.71-.12,0-.12-.36-.24-.36,0,.36-.71.24-.36-.12h.24c-.36-.36,0-.71-.48-.71,0,0-.12,0-.24.12,0-.24-.36-.36-.48-.59,0,0-.36-.36-.48-.24v.71h.36v.59q-.24,0-.36-.24c-.24,0-.36-.36-.48,0,0,.12.24.24.36.24,0,.36,0,.48.36.48,0,.24-.12.36,0,.48.12,0,.12.36.24.36v-.24c0,.36-.12.48,0,.71,0,0,.12,0,.12-.24,0,.12.12.36.24.48l.24-.24v.36s.12.24.24.36v.59c0,.24.12.24.12.48h-.48c.12-.24-.12-.59,0-.83-.12,0-.24,0-.36-.24-.24.12-.24,0-.59-.12,0-.12-.12-.36-.36-.36-.24-.24-.24-.36-.12-.59-.12,0-.24,0-.36-.12v-.24c0-.12-.24-.24-.48-.24v-.12s-.24-.12-.36-.24v-.24c-.36,0,0-.12-.12-.36-.36,0-.24-.36-.48-.48l.24-.24v-.48c-.12-.24-.36-.24-.36-.48,0-.48-.48-.24-.24-.83-.36-.12-.48-.36-.83-.48-.12-.24-.12-.36-.12-.71,0,.12.12.36.24,0,0-.36-.48-.48-.24-.83-.12,0-.24,0-.36-.24,0-.24.24-.36.24-.59v.59h.24c.12.24,0,.71.36.71v.24c0,.12.36.12.48.36,0,0,0,.12-.12.24.36.24.12.48.59.48v.36c.12.24,0,.48.12.59h.36c0,.24,0,.48.24.71.24,0,.24.36.24.59.24,0,.12-.48.36-.59.12-.12.12-.24,0-.24.36-.36,0-.59,0-1.07h-.24c-.24,0-.24-.24-.36-.36-.12-.24,0-.59-.48-.59,0-.24,0-.36-.36-.36v-.36s.24-.24.36-.24c-.12-.12-.24-.36-.24-.59-.24-.24-.36-.59-.36-.95l-.36-.71c-.12,0,0-.48-.36-.36,0,.24.24.36.36.59,0,.24-.36,0-.48,0-.12-.24.12-.48,0-.71v-.24c0-.12-.24-.24-.48-.36v-.48c-.24,0-.36-.12-.36-.36.12,0,.24.24.36.24v-.36c.12,0,.24-.12.12-.36-.12-.12-.24,0-.48,0v-.48c0-.24-.36-.12-.36-.36s.24-.48.24-.71c.12,0,.24,0,.36.12v.24h.36c0,.48.48.36.59.71,0,.24.24.36.36.48,0,.48.24.36.36.71.12.12.48.24.59.24v-.36h-.24c-.12-.12-.24-.36-.36-.48h.24c0-.36-.12-.12,0-.48-.24-.24-.24-.48-.59-.48-.24-.12.24-.36.36-.24v-.24h-.24v-.36c-.12,0-.24-.24-.36-.24v-.24s-.24,0-.36-.24c.36,0,.12-.48,0-.48,0,0-.12,0,0-.24h.36c0,.36.36.48.71.83h.36c.12-.24,0-.48-.24-.59.24,0,.36.48.24.71-.24.36,0,.71,0,1.07.36.12.83.36.59.83.12.12.24.24.24.36,0,.24.48.36.59,0,0-.12-.12-.12-.24,0,0-.24,0-.36.12-.59,0,.36.36.48.71.59-.12,0-.36.24-.48.24,0,.24,0,.59.36.48v-.36h.48v.71h-.24c0,.24,0,.48.36.48v-.48c.24,0,.12.24.48,0v-.24s0-.12.12-.24c0-.12-.12-.24-.24-.36-.24,0-.36,0-.36-.12.12,0,.24,0,.24-.12,0-.24-.36-.24-.48-.48,0-.12.24-.24.24-.36-.12-.12-.24-.24-.48-.24v-.24h.59c.24.12.59.48.95.48l-.24.24c0,.24.48,0,.48.36s.24.48.36.71l-.24.24c.12.12.24.24.48.36,0,.36.48.48.48.83.12.24.48,0,.48.24h-.24c0,.59.36.24.59,0v-.48c-.36-.12-.24-.24-.24-.59-.24,0-.36-.36-.36-.59,0-.36-.24-.36-.36-.59,0,0-.12,0-.24.12-.12,0-.59-.48-.24-.59,0,0,.12,0,.24.12,0-.48-.48-.48-.48-.95,0-.24-.24-.36-.24-.59s-.12-.36-.24-.48v-.36c.12,0,.24.24.36.36h.24c.24.12.36.48.71.59v.24c.24.24.36.48.48.83.12,0,.24,0,.12.24h-.36c.36,0,.59,0,.71.36,0,0-.12.24-.36.24.36.12.59.12.83.48v.36c.12,0,.24.24.24.36.24,0,.36,0,.48.24v.36s.24,0,.24.12c0,.24.24.24,0,.48.12.12.12.36,0,.48,0,.36.36.12.48.48,0,.24.24.36.36.36v.36c.24,0,.36.24.36.48h-.36c0,.36.48.24.59.48.24.24,0,.59.36.83,0,.12,0,.48.24.48s.24.12.12.36h-.24v.36h-.36c-.12,0-.24-.12-.36-.12v-.36s.12-.12.24-.12c-.12-.24-.24-.48-.48-.71v.24c-.36,0-.24-.36-.24-.48h-.24v-.24c-.12,0-.24,0-.36.12,0,.24.24.48.24.83h-.24c.12.24.36.36.36.48,0,.24.36.24.24.59.12,0,.24.12.24.24.36,0,.24.24.24.59.12.24.36,0,.48.36,0,.36.24.36.48.59,0,.36,0,.48.24.71.24,0,.24.36.48.48-.12.36.36.83.71.83.24.24,0,.71.48.71v.24c-.12.36.24.48.12.71h.71ZM94.84,107.08c0-.24.12-.59,0-.59-.12.12-.24.59,0,.59ZM138.45,29.47v-.24.24ZM96.62,104.35c0,.12,0,.24.12.36h.48c0-.36-.48-.24-.59-.24v-.12ZM138.81,33.63c.12,0,.48,0,.24-.24-.12-.24-.36.12-.24.24ZM136.67,34.47c.12,0,.24,0,.24-.24q-.24,0-.24.24ZM135.96,35.18v-.12.12ZM136.43,34.47v-.36c-.12-.24-.48-.12-.59,0,0,.12,0,.24-.12.24h.48v-.24c.24,0,.24.12.36.24l-.12.12ZM112.43,90.56h-.59v.48c.36,0,.24,0,.48.24.24,0,0-.48,0-.71h.12ZM123.96,69.17s-.48.12-.36.24c.12,0,.36,0,.36-.24ZM123.01,68.81c-.12,0-.24.24-.36.36-.12,0-.24-.24-.36-.36-.12,0-.36.24-.24.36s.48.12.59.12.36.48.48.12c-.24-.24,0-.36,0-.59h-.12ZM123.36,69.29c.12,0,.24-.24.24-.36-.12,0-.24-.24-.36-.24,0,.24-.24.48,0,.71l.12-.12ZM115.87,96.86c.12-.12-.12-.24-.24-.36-.12-.12-.24,0-.36,0,0-.12,0-.24-.24-.12,0-.24-.12-.24-.36,0h-.36q0,.24-.12.48.36,0,.48.24,0-.24.24-.12s.24-.12.36-.12c0,0,0,.24.12.24,0,0,.12,0,.24-.12,0,0,.24.36.24,0v-.12ZM134.41,63.58h-1.78c-.12,0-.24.12-.24.24,0,0,.12,0,.24-.12h.24c.48.12.95.12,1.43.12.24-.24.36-.12.59,0,0-.24-.24-.36-.48-.24ZM126.81,69.17s0,.12.24,0c0,0,0-.12-.24,0ZM132.27,63.46h-.83c-.24,0-.59-.24-.59,0h.24c.24.24.24.12.59,0,.12,0,.24.12.36.12s.24-.24.24-.36v.24ZM131.09,66.91s-.12,0,0,.36v-.36ZM126.45,64.65c.12.12.12,0,0,0ZM142.26,66.43c0,.12-.36.36-.48.36,0,0-.12-.12-.24-.12,0,.24.24.48-.12.48,0-.24-.12-.36-.12-.59-.12,0,0,.48-.12.59-.24.12-.36,0-.48.36,0-.24,0-.36-.36-.24v.24c-.24,0-.36-.24-.59-.24,0,0-.12.12-.12.24v.24s0,.24-.12.24h-.12c-.24.24-.24.48-.59.48l-.71.36s-.12-.12-.24-.12c-.36.12-.95,0-1.19.24.12.12.36.24.36.48h.71l.24.24c.24,0,.36,0,.59-.12.59.24,1.07-.24,1.66,0,.24,0,.36.12.48,0,0,0,.12.24,0,.48.24.12.59,0,.59.48,0,.24-.48.24-.59.36l-.24.24h-.48c0,.36-.48.36-.71.12h-.95c-.36,0-.71-.24-1.07,0h-1.66c-.36-.12-.59,0-1.07-.12,0,.12,0,.24-.24.24,0-.24,0-.36-.36-.36-.48.12-.83.24-1.19,0-.36.24-.95.12-1.31,0-.24.24-.71,0-.95,0-.36,0-.24-.36-.59-.36h-.71s0,.36-.24.36c0,0-.12-.24-.24-.36-.36-.12-.48-.36-.83,0q-.24-.12-.48-.12c-.24,0-.24-.12-.48,0,0-.12-.36-.36-.59-.48,0,.48-.36.24-.59.12-.36-.12,0-.36-.36-.48l-.24.24h-.71c-.36,0-.24-.24-.36-.36h-.48s.12-.12.12-.24c-.12,0-.24,0-.24-.24,0-.12.24,0,.36,0,0,.24.24.12.36.36,0,0,0,.12.24,0v-.24c.24,0,.48-.24.83-.24.12,0,.24.24.36.24.36,0,.48-.36.83-.24.24,0,.48,0,.71-.12,0,0,.36.24.36,0s.48,0,.48,0c.24,0,.36-.12.59-.36.36.48,1.07,0,1.31.36h.48v-.24h.48c.24,0,.36.24.48.24,0-.36.48-.36.59,0h.95c.24-.24.59-.24.83,0l.12-.12c-.36,0-.36-.24-.71,0-.24,0-.48,0-.71-.12h-.71c-.24-.12-.59,0-.83-.24-.24,0-.36.24-.48.24-.24-.24-.59,0-.59-.36-.24.12-.36.24-.59.24,0,0-.24-.12-.24-.24h-.24c-.12-.12-.59-.48-.36-.71h.59c.12,0,.24-.24.36-.12,0,.12.12.36.24.48,0,0,.12,0,.24-.12.24,0,.71,0,.83-.24,0,0,.12.24.24.24v-.59c-.36,0-.24-.24-.59,0-.24,0-.48-.24-.71-.24-.36,0-.59,0-.95-.12-.48.24-.71-.12-1.07.24-.36-.12-.48.12-.83-.12-.36.36-.59,0-1.07,0-.12-.12-.24-.36-.48-.24-.48,0-.71-.12-.95.24,0-.12-.12-.36-.36-.36s-.36,0-.59-.12c-.12,0-.24,0-.24.24-.24-.12,0-.24-.24-.48-.24,0-.36-.24-.59-.24,0-.36-.36-.36-.36,0,0-.36-.36-.12-.24-.48,0,0,.12,0,.24.12.24,0,.59-.59.71,0,0-.48.36,0,.59,0,.12-.12.36-.24.36-.48s0-.24.12-.24v.36s.24.12.36.24h.36c0-.12,0-.24.12-.24s.24.24.36.24c0-.36,0-.71.36-.59v-.36c.48,0,.24.48.59.59,0-.24-.12-.36,0-.59.12,0,.24.24.36.36,0,0,.12,0,.24-.12,0-.12-.24,0-.12-.24s.36.12.48.24h.24v-.36c.36,0,.48-.12.83-.12,0,0,.24.12.36.24.24-.12.36,0,.59-.24.12,0,.24.12.48.12v-.36s.12,0,.24.12c.12,0,.36-.12.48-.24.24,0,.36.24.59.12.12,0,.24,0,.24-.24-.12-.12-.95,0-.95-.48,0,0,0,.12-.24.12h-1.19c0-.24.59-.36.83-.59l.24.24c.12,0,.24-.24.36-.36,0,0,.12,0,.24.12,0-.24.12-.24.24-.12.24.36.71,0,1.07.12,0,0,.12,0,.24-.12.36,0,.95,0,1.19-.12s0,.24,0,.24c.36-.24.71,0,1.07-.24.24.12.36.24.59,0,.24.12.36.36.48,0,.24,0,.24.24.36,0,.12,0,.24.12.36.36.36,0,.48.24.83.48h.36c.24-.24.36-.24.59-.24,0,.24.12.36.36.24v-.24c.24,0,.36,0,.48.12.36,0,.71-.12,1.07-.24.24.24.48.12.59-.12.12,0,.48.24.59,0v-.24c.12,0,.24.36.36.48h.36c.12.59.71,0,.95.48l-.12.24c-.24-.36-.36,0-.48-.36-.12,0-.24.24-.24.36,0,0-.24,0-.24.12h-.48l-.24.24c-.12,0-.36-.24-.48-.24h-.36c-.12,0-.36.12-.36.36l.48.48h.24c.36,0,.59.12.95.12l.12.12s-.24,0-.24.12c-.24-.24-.48-.24-.71-.36-.24,0-.24.12-.24.36-.24,0-.36-.12-.59,0v.36h-.36v.48s.12,0,.24-.12c.36,0,.71.12.95,0,.24,0,.71,0,.48.36,0,0,.24,0,.36-.12.24,0,.36,0,.59.12.24,0,.36-.24.59-.12,0,.12,0,.59.36.36v-.24h.12c0,.36.24.36.24.59l-.48-.48ZM6.77,73.8c.24.24.36-.12,0,0ZM1.19,81.65c0,.24-.12.36-.24,0h-.12c-.36-.12-.24.24,0,.48-.12,0-.24,0-.36.12h-.24l-.24.24c0,.24.24,0,.36.36.24-.12.36-.12.59-.24v-.24c0-.12.36-.12.48-.24.12.12.48.24.59,0-.12-.24-.36-.48-.71-.48h-.12ZM5.35,74.04q0-.12-.24,0l.12.12h.12v-.12ZM5.11,74.28q0-.12-.24,0,0,.12.24,0ZM113.62,90.68s-.24-.12-.36-.24c-.12,0-.24.24-.24.48.12,0,.36.12.48.12v-.36h.12ZM6.89,72.97s0-.12-.24,0h.24ZM133.94,26.86h-.12.12ZM131.09,36.72c.12,0,.24,0,.24-.12,0-.24-.36,0-.24.12ZM131.44,36.13v.24c.12,0,.48-.12.59-.12h.59c.12.12.24.12.48.12-.12-.24-.24-.12-.48-.24-.12,0-.24-.36-.36-.24,0,0,0,.12-.12.24h-.71ZM133.34,35.65s0,.48.24.36c.24-.24,0-.59-.36-.59l.12.12v.12ZM133.94,35.65q.24,0,.36.24c.12,0,.36-.24.24-.36v-.36c-.24,0-.36,0-.24.24-.12,0-.24,0-.24.24h-.12ZM116.11,35.53c.48,0,0-.36.24-.48.36,0,.48.48.59.12,0-.24-.12-.59.24-.71.24,0,.48.24.71.24,0,0,0-.12-.12-.24,0-.24.59-.24.71-.48.12,0,.24.24.48.12-.12-.24-.24-.24,0-.48.12,0,.36.12.48.24h.48s0-.12-.12-.24v-.59h.24c.24-.24.48,0,.83,0v-.24c.24-.24.24.12.36-.24.24-.24.71,0,1.07-.24,0-.12.12-.24.24-.24,0-.36.24-.48.48-.36s.59-.24.83-.24c0,0,0-.24.12-.24.24-.24.71,0,.71-.59h.59c0-.36.24-.36.59-.36.24-.24.48-.24.71-.24,0-.36.48-.48.71-.48.12-.24.48-.24.71,0,.12,0,.24,0,.24-.24.36.12.71.24,1.07,0v-.48c.12-.12.48,0,.71,0v-.36c.36,0,.48-.24.71-.36.36.24.59-.12.83-.36.24-.24.59-.12.83-.36,0-.12.12-.36.24-.48h1.07v-.48c0,.24.36.36.59.59.36,0,.59.12.83.24,0,0,0,.24.12.24-.36,0-.36.36-.71.24-.24,0-.36,0-.59.12-.12,0-.24.24-.36.36-.24,0,0,.36-.36.48-.24-.12-.48,0-.71-.12v.36c-.24,0-.83.24-.83.59h-.36v.24h-.36c0,.12,0,.24-.36.24v.24c-.24,0-.36,0-.36.36,0,.24-.36.36-.48.24-.12,0-.48,0-.48.24-.36,0-.59.24-.12.36.36,0,.59-.24.95-.24.24.12.48,0,.59-.24,0,0,.12.24.36.12v-.36c.24,0,.36-.24.71-.24.24-.12.36-.24.59-.24.36-.36.83-.24,1.19-.48.12-.12.36-.24.59-.24.36,0,.36-.48.59-.59.36,0,.59-.24.83-.12.36,0,.71,0,.59-.48.24,0,.36.24.59.24.12,0,.36,0,.48-.12-.12-.12,0-.59.36-.48.36,0,.71-.24,1.07,0h1.07c.24.36-.12.59-.36.71-.36,0-.59.24-.83.36-.12,0-.24,0-.24.24-.24.24-.59.12-.83.36-.24.24-.59.24-.83.36v.36c-.24,0-.59,0-.83.12-.24,0-.24.36-.12.48h.24c0,.24-.24.36-.36.36v-.36h-.12c0,.48-.24.24-.59.48-.24,0-.36,0-.59.24,0,0,0,.24.12.24,0,.24-.36.36-.36.59-.12-.24,0-.59-.48-.48.12.12.12.24,0,.36h-.24c0,.24,0,.36-.24.36,0,.24-.24.24-.48,0-.12,0-.24.24-.12.36.24,0,.48.24.71,0s.59-.24.83-.36c0-.12.12-.36.24-.48.48-.12.95-.12,1.43-.36v-.24h.24c.12,0,.24,0,.48-.24,0,0,.12,0,.24.12,0-.12,0-.24.24-.24s.48-.24.71-.24h.48c0-.36.12-.36.24-.59.24,0,.36,0,.59.12v.24-.36c.24,0,.48,0,.71.12,0,.24.24.24.36.36-.12,0-.36,0-.48.24v.48c-.36.24-1.19.36-1.31.83-.24.12-.48.24-.71.24-.24.24-.48.24-.71.36-.24,0-.24.36-.24.48,0,.24.36.24.36.48,0,0-.24.12-.36.24-.24,0-.48-.12-.59-.36,0,0,.24,0,.36.12.24,0,.24-.36.12-.59-.36-.12-.71.24-1.07.36-.36.24-.48.71-.95.48-.12.12-.24.24-.48.24-.36.24,0,.36.24.59.24,0,.24-.36.36-.36,0,0,0,.24.12.36-.12,0-.24,0-.36.24-.12,0-.24,0-.24.24.12.24.59.24.71,0-.12-.36.12-.24.12-.59,0,0,0-.12-.12-.24.12,0,.48,0,.48.12s-.36.59,0,.59c0-.12,0-.36.12-.36,0,.12,0,.24.24.36.12-.12.24-.24.48-.24v-.24c0-.24-.48,0-.24-.36,0,0,.24.12.24.24.24,0,.36-.24.71-.12,0-.36.48-.71.83-.83h.24q0-.24.24-.24c0,.12,0,.36.24.48.24-.12.24.12.48,0,.36,0,.24.36.24.59-.24,0-.36.12-.59.24-.24,0-.36,0-.48.24-.24.12-.48.24-.59.48h-.36c0,.12,0,.24-.24.36h-.24c-.24.24-.48.24-.48.59-.24,0-.24-.24-.36.12h-.24c0,.12-.24.24-.24.24v-.24c0,.24-.36.36-.36.71-.24.24-.59.24-.83.48h-.59c0,.12.24.36,0,.36,0,0-.12,0-.24.24-.12,0-.24-.24-.36-.24q0,.36-.36.36v.24c-.36,0-.48-.12-.48.24-.36.12-.48,0-.71.36h-.59v.36c-.24,0-.48-.12-.48.24,0,.24-.48.24-.71.36-.24.24-.48.48-.83.59h-.48c0,.36-.24.12-.48.12,0,0-.12,0-.24.12,0-.12,0-.48-.24-.24v.24c-.12-.48-.48-.36-.83-.48v-.36h-.36.24q-.36.12-.36.48c-.24,0-.24-.36-.48-.36v.24c-.24,0-.59.24-.59,0,.12-.24.12-.12,0-.36.12-.24.36,0,.48-.36.12,0,.24,0,.24-.24q0,.24.24.24v-.59s.24,0,.24.12v.12c.24,0,.36,0,.36-.24.12-.24.36,0,.59-.12v-.36l.24-.24h.24s.12,0,.24-.24c.12,0,.24.24.36.24.24-.12,0-.36.36-.36.24,0,0-.36,0-.48.48-.24.36.24.59.24v-.24c.12,0,.24-.12.36-.24.12,0,.24.12.24.36v-.48c.12,0,.36,0,.48-.12l.24.24q0-.24.12-.48l-.24-.24c-.24,0-.36.24-.48.36-.12,0-.24,0-.24.24-.24,0-.36-.12-.71,0-.12.12-.36.36-.59.36,0,.24.12.24.12.48-.12.24,0-.24-.36-.24-.12.24-.36.24-.59.24s-.36,0-.36.24c0,0-.12,0-.24-.12-.24,0-.36.36-.71.36-.48.24-.95.59-1.43.71-.24.24-.48.48-.83.59h-1.19c-.12-.24-.36-.24-.59-.48,0,0-.24.12-.48,0v.24c-.24,0-.48,0-.59.24-.24,0-.48,0-.71.12,0,.24-.36.12-.36.48,0,0-.12,0-.24-.12q-.24.12-.59.12c-.12,0-.36.12-.48.36-.12,0-.36-.12-.48-.12-.24-.12,0-.59,0-.71h-.24c.24,0,.36-.24.59-.48v.59c0-.36.24-.24.48-.24-.12-.12-.36,0-.24-.36,0,0,.12-.48.36-.36q.12.36.48.36v-.24h.24c0-.24,0-.48.24-.59.24,0,.36,0,.36-.36,0,0,.12,0,.24.12.12,0,.24,0,.24-.24q.24.12.48,0v-.59c.24.12.36,0,.59-.12.24.24.48,0,.83.12v-.48c.24-.24.59,0,.83-.36.24.24.48,0,.48-.24h.36c-.24,0-.48-.24-.71,0-.24.12-.48-.12-.71,0-.24-.12-.24,0-.36.12,0-.24,0-.36-.12-.59v.24c-.24,0-.48,0-.48-.24l.24-.24c-.24.12-.36,0-.59.12,0,0,.12.12.12.24-.12.36-.48.48-.83.36-.24,0-.24.36-.36.48-.24.12-.48,0-.48-.24h-.24c-.12.12,0,.48-.36.36-.24,0-.24.24-.36.24,0-.36-.48,0-.71-.24-.12-.24.24-.24.36-.24v-.24.24h-.12c-.36-.36.59-.95.59-.36h.24v-.71h.36c.24-.36.36,0,.48-.36.24,0,.12.12.36,0,.12-.12.48-.36.71-.24,0,0,.24-.24.36-.24h.36c0-.48.36,0,.36-.48.36,0,.71,0,.83-.48.12-.12.24-.12.48,0,.24-.12.59,0,.71-.24-.24-.24-.24,0-.48,0-.36.12-.59,0-.95,0-.36.24-.71-.24-.95-.24s-.24-.12-.48-.12c0,.12.24.36,0,.48,0,0-.24,0-.36-.12h-.59c0,.12.24.36,0,.48h-.24v.24c-.24.36-.59-.24-.95.24v.24c-.24,0-.24-.24-.48,0v.24h-.24c-.12,0-.24.24-.48.12-.24,0-.48,0-.48.36h-.59c-.12-.12-.24,0-.36,0v.24h-.36v.24h-.59c0,.24,0,.59-.24.36v-.24c-.12,0-.24,0-.24-.24l.59-.95ZM7.37,73.45c.24,0,.12-.36,0-.24v.24ZM5.59,73.68h.24c0-.48.48-.24.71-.24.24-.12.12-.24.36,0,.12,0,.24-.24.36-.36h.36c.12,0,.59-.24.48,0h-.36c0,.24.36.12.48,0v-.48c.36.36-.24.95-.59.71,0,.36-.24.24-.48.36-.36-.24-.71,0-.95-.24h-.12v.36c-.12.24-.36.59-.59.36l.24-.12c0-.12-.24-.24-.36-.36h.24ZM59.78,108.51h-.24s0,.12.24,0ZM96.98,120.63v.24-.24ZM127.4,102.92c0,.36.24,0,0,0ZM114.57,91.75c0,.36-.36.24-.48.48,0,0,0,.24.12.24h.36v.24-.95ZM113.26,91.63c-.12,0,0,.36,0,.48.24,0,.12-.36,0-.48ZM132.99,99.47c-.12-.12-.24-.12-.36-.12s-.36-.24-.59,0c0-.36-.24-.24-.48-.48-.48,0-.24-.36-.71-.48,0-.36-.24-.48-.59-.48-.12-.12-.24-.24-.48-.36l-.48-.48c-.12,0-.48,0-.48-.24s-.24,0-.36,0c-.48,0-.71-.59-1.19-.36-.24-.24-.48-.36-.59-.71-.24,0-.24.24-.48,0v-.24h-.24c-.36.12-.36,0-.36-.36-.24,0-.48,0-.48-.24h-.36l-.71-.36c-.12.36-.24,0-.36.24,0,0,.36.48.48.36,0-.24,0-.36.24-.24,0,.36.24.48.12.83,0-.24.36-.36.59-.24v.48h.12v-.24c0-.12.36-.24.36,0v.48c.24.24.59.24.83.48.24,0,.48,0,.48.48.24-.12.12,0,.36,0,0,.24,0,.48.36.59,0,.24.12.36.12.48h-.24c-.24.36.59.59.48.12,0,.24.12.24,0,.48.48,0,.36.48.24.71.12,0,.24-.24.36-.36.24.12.24.36.24.59,0,0,0,.12.12.12,0-.24,0-.36.24-.48.24.12,0,.36.24.48,0,0,.12-.12.24-.12,0,.24.24.36.36.48,0,.36-.24.24-.24.71-.24.12-.48,0-.71-.12,0-.24-.24-.48-.48-.48s-.48-.12-.48-.36h-.59c-.12,0-.24-.48-.48-.59,0,0,0,.24-.12.24-.36-.36-.36.12-.71,0,.12-.36,0-.36-.24-.59h-.24c-.24-.12-.24-.24-.24-.48l-.24.24c-.36,0,0-.36-.48-.36,0-.12-.12-.24-.36-.24.36.24.24.48.48.59.24.48,0,.48,0,.71.12,0,.24,0,.36-.12.24,0,.24.24.36.48.24.12.36.48.59.59h.59c0,.12,0,.24.24.24.36.36.59.71,1.07.95.48.12.59.48.95.71.12,0,.24.24.36.36.24.48.95.59,1.31.95q0,.24.12.36-.36,0-.48-.36c-.24,0-.36,0-.48.24,0,0-.12-.24-.12-.36h-.36c0-.36-.48-.59-.71-.59-.24-.24-.48-.59-.59-.95-.24,0-.36-.24-.59-.12v.24c.24,0,.59.24.59.59.12,0,.48,0,.24.24h-.36c0,.36.59,0,.59.36,0,.12,0,.24-.24,0,0,0-.12.12-.12.24-.24,0-.36-.12-.48-.36h-.48c0-.48-.59-.36-.83-.24,0-.36-.36-.12-.48-.59-.12,0-.36.12-.48,0-.24-.24-.48,0-.48-.59-.36,0-.36-.36-.71-.36-.24,0-.36-.24-.71-.36-.36,0-.48-.48-.83-.71v-.24h-.24c-.48-.24-.71-.95-1.19-1.07-.24,0-.48-.36-.83-.48-.12,0-.24-.12-.36-.36,0-.24-.36-.24-.48-.48-.24-.12-.24-.36-.48-.36s-.12-.36-.36-.48c-.24-.12-.36-.36-.59-.48v-.36h-.24q0-.24-.24-.24c0-.36-.36-.24-.59-.24v-.24c0-.12-.24-.24-.36-.24-.24,0,0-.36-.36-.36v-.36c-.24,0-.36-.24-.71-.24,0-.24-.12-.24-.24-.36,0-.24,0-.36-.12-.48-.12.12-.36,0-.48,0-.24-.12-.12-.36-.48-.48-.24,0-.48,0-.59-.12-.12-.36-.71-.59-.71-.95,0,0,0-.12.12-.24h-.12c-.24.12-.71-.12-.95-.36v-.24c0-.24-.48,0-.36-.48l.24-.24s0-.12.12-.12c0,.36.36.12.59.12,0,.12.12.36.24.48h.24s0-.12-.12-.24c0-.24,0-.48.24-.59.12,0,.24,0,.36-.24,0,0,.36.24.36.36-.24,0-.24.12-.48,0v.24c.24,0,.24.36.48.59v-.48c.36,0,0,.24.36.24,0,0-.12-.24,0-.36.24,0,.48.24.48.48s0,.36.24.36l.24-.24c.24,0,.36.24.48.48.12.24.48.48.59.71.24.12.36,0,.36-.24l-.24-.24c0-.12-.12-.24-.24-.24v-.48c-.24,0-.36-.36-.59-.24v-.24c-.24-.24-.59-.36-.83-.48v-.24c-.12,0-.24,0-.24-.24-.12,0-.36-.24-.48,0,0-.24-.36-.36-.48-.71-.24-.24-.36-.36-.71-.48v-.24c-.36-.24-.71-.24-1.07-.24v-.24c-.36,0-.36-.59-.71-.59v-.24h.48v.24h.36c.12.12.24.36.36.48.24,0,.24-.24.36.12.36,0,.48-.12.71.12,0,0-.12.24-.12.36,0,0,.24,0,.24.12.48,0,.36.24.71.36.24-.24.48-.12.71-.12,0,.24.24.24.48.24l1.07.71-.24.24h.36v.24-.24c.48,0,.71.24.95.48.24-.12.36,0,.36.12.48,0,.59.24.83.59,0,0,.12-.24.36-.12.24.12.59.12.59.48s.24.36.36.59c.24,0,.36-.24.36.12h.24c.12.12.24.24.48.12,0,0,.24.24.24.36.24,0,.59,0,.24.24h-.24c.24,0,.59,0,.59.12.24.36.59,0,.71.36,0,.24.24.48.36.12,0,0,0-.12-.12-.24h.36c0-.24-.36-.36-.48-.48-.24-.36-.83-.12-.71-.59q-.24,0-.36-.36c-.12,0-.36-.12-.48-.24v-.48c-.12-.24,0-.48-.24-.59-.24,0-.48-.12-.59-.24,0-.12,0-.36.24-.36s.24.12.48.12c0-.12-.24-.24-.36-.48h-.48c0-.24-.36-.36-.48-.24-.12,0-.24-.24-.36-.36.12,0,.24-.12.24-.24-.12,0-.36-.12-.59-.24-.12-.12-.24-.36-.36-.48-.24,0-.48.12-.48-.12h-.24v-.24c-.24,0-.24-.36-.36-.36v.24-.24c-.24,0-.36.12-.36.36,0,0,0-.24-.12-.24q.24,0,.12-.24v-.48c-.12-.24,0-.36.24-.24,0,.12.12.36.24.48s.36.24.48.36c0,.36.48.71.83.59.24,0,.48,0,.59.24,0,0,0,.12-.12.24.24.24.36.36.71.48.36.36.83.48,1.31.48q0,.24-.36.24c.48.24.95.59,1.31.83.24.48.71.36,1.07.71.24.24.48,0,.71.24s.48,0,.59.36c0,0,0,.12-.12.24.24.36.48.36.71.59.36,0,.71.36,1.07.48.24,0,0,.24,0,.36.12,0,.36.12.48.36v.59h.48v.36c.24.12.48.12.36.48.12,0,.36,0,.48.12h.48l.36.36c.12,0,.24,0,.24.24.24.12.36,0,.48.24.36,0,.12.12.24.48.36,0,.59.12.71.59.24,0,.36.24.59.36,0,.36.36.24.36.59h.36c.12.12.48,0,.48.36l.24,1.31ZM60.37,125.86s0,.12.12.24c.12,0,0-.36-.12-.24ZM59.42,120.15c-.12-.24-.24-.12-.36,0h-.24v.48h-.24c-.12.36.36.24.59.24.36-.24,0-.48.24-.71ZM59.19,120.03c.24,0,.12-.36,0-.24-.24.12-.24.36,0,.24ZM59.54,110.29h-.24q0,.24.24,0ZM55.62,122.41h-.24q0,.12.24,0ZM55.03,123.96c0,.24.24.24,0,0ZM64.89,109.69c.12.36.36.36.36.83-.12.24,0,.48,0,.71-.36,0,0,.48-.12.71v.24l-.24.24c.12.36,0,.59.24.83,0,0,0,.12-.12.24.12.12.12.24,0,.24-.24.12.12.24,0,.48-.24.24,0,.36-.24.59,0,.24-.12.36-.12.59-.24.24-.24.59-.36.95v1.43c0,.24-.36.36-.36.59,0,.36,0,.59-.24.83,0,.24,0,.36-.24.59,0,.48-.24.83,0,1.31,0,.36-.24.24-.48.24,0,.24.24.48-.12.59-.36,0-.36.36-.59.59-.36,0,0-.24-.36-.24,0,0,0,.24.12.36,0,.24-.24.36-.24.59v.59c-.12,0-.24,0-.48.12,0,0,0,.12.12.24,0,.24-.24.36-.12.71-.12.24-.24.24-.24.48,0,0-.24,0-.24.24.24.24,0,.71-.24.83-.24,0-.24.24-.36.36q-.24,0-.48-.12c-.12,0-.24,0-.24.24-.24,0-.24-.24-.48-.12-.12,0-.24-.24-.36-.24-.12-.12-.24-.24-.24-.36h.24c0,.12.24.24.36.24,0-.24,0-.48-.24-.59.12-.12.48-.59.71-.36,0-.24,0-.48-.36-.48,0-.12.12-.24.12-.48.12,0,.36-.24.48-.48v-.24h.24c.24-.12-.12-.48-.36-.36h-.59v.24c-.12.12-.36,0-.59,0l.12.12c0,.24-.24.24-.36.36,0,.12,0,.24-.12.12,0-.24,0-.59-.24-.71-.24-.36.48-.48.48-.83v-.71c.24,0,0,.24.24.36v-.71c-.24-.12-.48,0-.83-.12,0,0-.24.12-.36.12,0,.24.24.12.36.24.12-.12.24-.24.36-.12,0,0,0,.24-.12.24-.24,0-.24.24-.36.36-.12,0-.36-.24-.48,0,0,.36.36,0,.48.24h-.71c-.24.24,0,.48,0,.71-.36.24-.59,0-.95.24.12,0,.24.12.48.24,0,.24-.71.24-.59.48h.48c0,.24-.36,0-.36.24v.24c-.12,0-.24,0-.24.24.12.36,0,.59,0,.83h-.36c0,.36-.36.24-.59.24,0,0,0-.24-.12-.24-.24-.12-.24,0-.36.12,0,0-.12,0-.24-.12,0-.12.24-.24.24-.48q-.24-.24,0-.59c.24-.12.36-.36.12-.59,0-.24,0-.48.24-.71-.12-.36.24-.48,0-.71-.24,0-.12.24-.48,0-.36,0-.48-.59-.12-.71.24,0,0-.24,0-.36,0-.24,0-.36.24-.48,0-.12,0-.24.24-.24q0-.24-.12-.48c0-.36,0-.48.36-.71,0,0,0-.12-.12-.24,0-.24.36-.36.48-.59-.12-.36-.12-.48-.12-.83.24.12.24.24.48,0-.24-.24-.12-.36.12-.36,0-.24,0-.71.12-.95v-.71h.24v-.48c.12-.24.24,0,.24-.36.12-.24.24-.24,0-.36.12-.12.24-.24.12-.36,0-.12-.36,0-.24-.24q.24,0,.36-.36h.36c-.36-.12-.36-.36-.24-.71h.36c-.12-.24.12-.48.12-.71v-.36h.59c0-.24,0-.59.24-.36.12-.36,0-.59.12-.95l.36-.71c0-.12.24-.24.36,0,0,0,0,.12-.12.24q.36,0,.71-.12c0-.24-.48,0-.48-.36.24-.12.36,0,.36-.24.36,0,.36-.24.59-.24v.24c.24,0,.24.24.48.36,0,0-.24,0-.24.12,0-.12,0-.24-.24-.24-.12.12.12.59.36.59.12.36-.24.59-.48.83.24.24,0,.36.24.59-.12.36-.48.24-.48.71h.48c0,.12.12.48,0,.59.24.24.48,0,.36-.24,0-.12.24-.24.36-.36-.24,0-.36,0-.36-.12h.36c.12-.36-.59-.59,0-.59v-.24h.24c0-.24-.12-.36-.36-.36.24,0,.36-.24.48-.36-.12-.24,0-.24,0-.48.12-.12.24-.12.48-.24,0-.12-.24-.12-.24-.36h.59c-.24.24-.36.36,0,.59q-.24.24-.24.59h-.36l.12.12h.24c.12.24,0,.71,0,.95,0,0,.12,0,.24.12,0,.36.71.24.95.12v-.59l.24-.24c0-.36-.12-.59.12-.83v-.48c.36.12.36.59.71.59,0-.12.24-.36.36-.48v-.36c.12,0,.24,0,.24.24h.12l.36-.59ZM124.55,103.28h-.12v.24h.12v-.24ZM124.19,103.16v-.24h-.12c0,.12.12.12.12.12v.12ZM124.91,103.51q-.36,0-.59.12c-.24-.12-.48-.12-.48-.48-.24,0-.36-.24-.59-.12s0,.24.12.36v.24h.24-.36s-.12-.24-.12-.36c-.24,0-.48-.36-.24-.59-.36-.24-.24.36-.48.24,0-.24,0-.48-.24-.59-.24,0-.36.36-.48.48,0-.24-.12-.48.12-.48v-.48c-.24,0-.24.36-.48.48,0-.24,0-.36-.36-.48-.12,0-.24.24-.36.36,0-.36,0-.59-.36-.24,0-.24,0-.48-.12-.71,0,0-.12.24-.24.36,0-.24,0-.48-.36-.48,0,0-.12,0-.12.24,0,0-.24-.12-.36-.12v-.36q-.24-.24-.36,0s-.24-.24-.36-.24v-.36h.24-.83c0-.24-.48-.59-.48-.24,0,0-.12-.24-.24-.24v-.24c-.24,0-.24-.36-.24-.59,0,.12,0,.24-.12.24v-.83s0-.12.12-.24v-.24c0-.24-.24,0-.36,0v.24c-.24.24-.36-.24-.36-.36-.12,0-.36,0-.48.24,0,0,0-.24-.12-.24v-.36c.12-.12.24-.12.36,0,0,.24-.24.24,0,.36l.24-.24c.12.12.24.24.48.24.12.12.36.36.48.59.36,0,.48,0,.71.24h.24v.36c0-.24.24-.36.48-.24,0,0,.24.24.36.24s.24.24.36.36h.48-.36c-.24.24,0,.48.24.59h.24c0,.24,0,.12.24.12,0,0,0,.12.12.24.24-.12.24,0,.48,0,0,.48.36.12.48.48h-.12c0,.24.24.24.36.36v.12c.48,0,0,.36-.12.48,0,0,0,.24.24.36.24-.36.48,0,.48.24.24.24.48.24.71.48h.48v.24l.24.24c.36-.36.12,0,.59,0,0,.12.12.24.24.24,0,.24.12.36.48.36l.24-.36ZM116.23,96.74q0-.12-.24,0c0,.12,0,.24.24,0ZM55.74,28.76v-.36c-.24,0-.36-.24-.48-.12.12.24.36.36.59.59l-.12-.12ZM57.4,122.53h-.12.12ZM36.96,104.58h.24s0-.12-.24,0ZM58.12,123.72c-.24,0-.24.24,0,.24v-.24ZM51.58,33.04v.24c.12-.12.12-.24,0-.24ZM39.81,18.3v.24h-.24.24c0-.12,0-.24.24-.24h-.36.12ZM41.36,5.35h.36c0-.24.24-.48,0-.71-.12-.12-.36-.36-.59-.12,0,.12.12.24.12.48.24.24,0,.24-.24.36,0,0,0,.24-.12.36.12.12.36,0,.36-.12l.12-.24ZM50.75,17.59c0,.24.12.24,0,0ZM40.53,4.87h.24s0-.12-.24,0ZM40.65,4.52c.36-.12,0-.24-.24,0h.24ZM4.52,80.1s0-.24-.12-.36c-.24,0-.36.24-.24.48v-.24h.36v.12ZM50.03,26.03c.24,0,.36-.12,0-.24-.24-.36-.24.12,0,.24ZM37.2,12.84v-.24c0-.12.36,0,.36-.24h-.36c-.12-.24,0-.48-.12-.71h-.48v-.36c-.48.12-.48-.24-.71-.24.12.12.24.24.24.48,0,.12,0,.24.12.24v.24c.24.24.71.12.71.59-.12.24.36.48.48.24h-.24ZM44.8,23.65c-.24.12,0,.36.12.36.24,0,0-.36-.12-.36ZM44.21,20.56c.24,0,0-.36-.12-.24,0,.12,0,.24.12.24ZM44.33,20.08v.12-.12ZM45.16,7.96s0-.12-.24,0c0,0,0,.12.24,0ZM49.32,15.33h.12-.12ZM49.56,16.04c0,.36.24.24,0,0ZM38.27,14.26s-.12,0-.12.24c-.12.12-.24.24-.24.36h.36v-.59ZM38.03,14.26s0-.12-.24,0h.24ZM35.3,4.04l.24-.24c.24,0,.36.36.59.48,0,.24,0,.36.36.48v.12c.36,0,.36.24.48.48.12,0,.36,0,.48.24,0,0,.24-.24.36-.24.24.24.36,0,.48.24,0,.24-.24,0-.36.36h-.36c-.24.36.24.48,0,.83.12,0,.24,0,.36-.12,0-.36,0-.48.12-.83.24,0,.24.36.36.48h.71c.24,0,.36,0,.48.24h.48v.24c.12.12.48.36,0,.48v.24c.12.24.24,0,.48.24.36.24.71-.24.83.24h.24c0,.12,0,.24.24.24,0-.12.12-.24.12-.36-.12,0-.36,0-.36-.24s0-.59-.24-.59c.24-.12.24-.36.36-.59-.12.12-.59.24-.36-.12-.12,0-.24,0-.24-.24,0-.12.36,0,.36-.24,0-.36.24,0,.36,0,.12-.12,0-.48.12-.48.12.12.24.36.36.59,0,0,.24,0,.24.12h.24c0,.36.36.71.36,1.07,0,0,0,.12.12.24.24,0,.24-.12.48,0,.36.12.71-.24,1.07-.24.24.12.24.24.59,0,0,.24,0,.48.24.59,0,.24-.12.36,0,.59s.48.12.59.36c0,.24.36,0,.24.24-.24-.12-.36,0-.24.24.24,0,.36.12.48.24,0,.36.12.71.59.83v.59h.12s0,.24.12.24v.24q.24.24.24.48h.24s.12.12.24.12v.95c.12,0,.36,0,.48.24v.59c.24.24.36.36.24.71.36,0,.36.24.24.48-.24.24-.36-.24-.59,0v.59c.12,0,.24,0,.36.12v.24s.24,0,.36-.24h.24v.48c-.24.12-.24.24-.12.48h.24v.71c0,.12.24.36.12.48,0,.24-.12.48,0,.59.48.24,0,.71.59,1.07,0,.24,0,.48.24.71.12.12.36.12.36.36,0,.12,0,.36.24.48.24,0,.48.24.71.36,0,.36.12.59.36.83v.59c.12.24.36.48.48.83,0,.12,0,.24-.12.36h-.36c0-.36-.12-.48-.48-.59,0-.36-.48-.71-.36-.95l-.24-.24h-.59s.24,0,.24.12h.24c.12.36-.36.48,0,.95-.24,0-.12.36-.24.59-.12-.36-.36-.48-.24-.83-.24-.24-.24-.48-.48-.71v.36s-.12,0-.12-.12c0-.24-.24-.36-.36-.59v-.59c-.36,0-.71-.48-.71-.71h.36c-.12,0-.36-.12-.48-.12v-.48h-.36c0-.36-.12-.48-.48-.36,0,.24.24.36.36.48s.24.24.36.24c0,.12,0,.24-.24.24v.24c.12.24.48.24.48.59.12.12.24.24.24.48s-.36.36-.36.59q.24.24.59.36c.24.24,0,.36-.24.48.12.12.24.36.48.24.36,0,.24.36.24.59.24.24.36.48.48.71-.12.12-.12.24,0,.36h.24c.24.12,0,.36.24.59h-.12c0,.24.24.24.12.36-.12.12-.36.12-.36.48-.12,0-.24-.24-.36-.24-.12-.24-.36-.24-.71-.48-.24-.24-.12-.59-.12-.83-.12-.36-.36-.24-.59-.59h-.24c-.24-.12,0-.71-.36-.71v.24c-.36,0-.36-.24-.36-.36h-.36c-.12-.12-.24-.36-.24-.59h-.48c0,.24.24.24,0,.48-.24,0-.48-.24-.59-.48,0-.24,0-.36-.12-.48.12-.36-.12-.24,0-.59h-.59v-.36q-.24,0-.36.12c-.12,0-.36-.12-.48-.24-.36.24.24.36.36.59,0,.36.24.59.12.83.12.48.59.48.36.95-.36,0-.48-.48-.48-.71,0,.12.12.59-.24.48,0-.24-.12-.24,0-.48-.12-.24-.24,0-.48,0,0,0-.24-.36,0-.36,0,0,.12,0,0-.24h-.24c-.24-.12-.24-.24-.36-.48h-.36s-.12-.12-.12-.24h.36c0-.12-.12-.48-.24-.59-.24.12-.48,0-.59-.24h-.36v-.36c0-.24-.12-.24-.24-.36,0-.12-.24-.36-.36-.24,0-.24-.24-.48-.36-.59v-.24c-.24,0,0,.36-.36.36.12-.24.24-.36,0-.36h.24v-.48c-.24-.24-.24-.36-.59-.36q0-.12-.12-.12c0-.24-.12-.24-.12-.48s-.12-.12,0-.36c-.36,0-.24-.24-.48-.36,0-.12,0-.24-.24-.36,0-.12.24-.24,0-.36-.24-.12-.59,0-.71,0,0-.24,0-.48-.24-.48,0-.36-.12-.71-.36-.95v-.48h-.36c-.12-.12,0-.36.24-.36s0,.24.36.24v-.24h.83c0-.24,0-.36.24-.36v-.24q-.24,0-.36-.24h-.48c-.12-.48.48-.24.71-.24,0-.24-.24,0-.24-.36v-.59l-.24-.24c-.36,0,0,.36-.36.48-.12,0-.36-.12-.36-.36s-.36-.48,0-.59c.24,0,.48,0,.36-.24h-.36c.12,0,.24,0,.36-.12v-.71c-.24,0-.36-.12-.59-.36v-.24c-.12-.24,0-.36,0-.48-.12-.24,0-.24,0-.48-.24,0-.24-.36-.48-.36-.24-.12.12,0,0-.24-.36,0-.12-.24,0-.48-.24-.24-.36-.24-.36-.59h-.24c0-.24,0-.48-.24-.48.12-.36,0-.36,0-.71-.36,0,0-.24-.36-.36l-1.19-1.54ZM56.81,123.24c.12,0,.48.12.48,0h-.48ZM36.13,104.82c.24,0,.12-.36,0-.24v.24ZM37.56,100.78c.12,0,.36-.24.24-.36,0-.12,0-.48-.24-.36v.71ZM36.72,103.75c0,.12.36,0,.36-.24-.12,0-.48,0-.36.24ZM35.77,97.22c0-.12-.12-.24-.24,0,0,.12.24.36.24,0ZM33.28,106.01c0-.12,0-.24-.24-.24s-.48.24-.71.36v.59c.12-.24,0-.24.48-.24,0-.12.12-.36.24-.48h.36-.12ZM31.97,106.72c0,.12-.24.12-.36.12,0,.24.36.12.36.48.24-.12.24-.36,0-.59ZM31.49,107.32c-.24,0-.48,0-.59.24v.36h-.59c0-.24.48,0,.24-.48-.24,0-.48,0-.71.12-.24.24.12.71.48.59,0,0-.12.24-.12.36-.24.12-.36.48,0,.36.36,0,0-.48.36-.48v.24c.12,0,.24-.24.36-.24.24,0,.36-.36.36-.59.24,0,.24-.12.12-.36l.12-.12ZM29.95,108.27v.24h.12v-.12l-.12-.12ZM27.81,108.98l-.24.24h-.24c0,.36.24.12.48.36.24,0,.48-.36,0-.48v-.12ZM25.55,105.77h-.24v.12-.24l.24.12ZM40.41,96.15c-.24,0-.24-.24-.48-.36,0,0-.24.12-.24.24v.24c-.12,0-.24.24-.24.48h-.36c0,.12.24.48,0,.48,0,0-.24,0-.24-.24l-.24.12c0,.24.24.24.24.48s-.36,0-.48.12v.36h-.71q0,.24.12.48h-.48c-.12,0-.59.36-.48.59v.24c-.24,0-.48,0-.59.24,0,.24-.24.48-.48.59l.12.12h.71l.59-.59h.24c.12,0,.36-.48.36-.59,0,0,.36.24.24.36h-.24c-.12.24.12.36.12.59h.12c.24.24.48.12.59-.12l.12.12c-.12.24-.36,0-.59.24-.12.12,0,.36,0,.59,0-.24,0-.59-.24-.36.24.24,0,.24,0,.59-.24,0-.36.24-.48.48-.24,0-.36.24-.48.48,0,.24.24.36.48.36v.24c0,.24.36,0,.24.24h-.59c-.24,0-.24.24-.48.36.36.36.59-.24.83.12,0,.24-.24.59-.24.83h-.24s-.24.12-.24.24v.24h-.36v.36h-.36c.12.24.24.36,0,.48,0,0-.12,0-.24-.12v.36c-.12,0-.24,0-.36.12,0,.12,0,.59-.24.36-.24.24-.24.36-.59.24l.24.24c0,.12-.12.24-.24.24q0,.24-.24.24v.24c-.12,0-.24.24-.48.24v.36s-.24,0-.24.12v.36c-.24,0-.48.24-.48.48,0,0-.12,0-.24-.12-.24,0-.36.36-.59.36v.24c-.12,0-.24.24-.12.36-.24,0-.36-.24-.59-.12,0,0-.24.12-.36.12-.24-.12-.12-.12-.36,0v-.24c0,.24.12.48-.24.59,0,0-.12-.12-.24-.12,0,.12,0,.24.12.36,0,.24-.24.36-.24.48-.12,0,0-.59-.36-.48,0,0,.24.24,0,.36-.12,0-.36-.24-.36-.36q0-.24-.12-.48.24,0,.24-.24c-.36-.36,0-.36.12-.71-.12-.24-.24,0-.48,0,0-.12,0-.24-.24-.24,0,0-.12.12-.12.36-.12.12-.24,0-.48,0,0,.12,0,.24.12.36-.12.24-.24.24-.24.48,0-.12-.12-.24-.24-.24v.24s-.12,0-.12-.24c0,0-.12,0-.12.24-.24,0-.24-.12-.36,0,0,0,0,.12.12.24h-.24c0-.24,0-.48-.36-.48-.24,0-.12-.48-.36-.36-.12.12-.24,0-.48,0h-.36c-.12,0-.24.24-.36.36,0,.24,0,.48-.12.59-.36,0-.59.36-.95.36v.59c-.12,0-.36,0-.48-.24v-.36c.24,0,.12-.12.12-.36.12-.12.36-.24.48-.48,0-.24,0-.36.12-.59,0-.12-.12-.36,0-.48.12-.24.36-.36.59-.36s.24-.24.24-.36c.24-.24.48-.12.71-.24,0-.24.24-.24.48-.36,0-.24-.12-.36,0-.59-.12-.12-.12-.36-.24-.48,0-.12-.36,0-.48,0,.12.36,0,.36-.24.48-.24-.12-.24,0-.48,0,.24-.36,0-.24,0-.48h-.36c-.24,0-.12-.24-.24-.48v-.24c.24-.24,0-.36.12-.59s.48-.24.71-.12q0-.36.36-.36c.36-.48.95-.48.95-1.07.12,0,.24,0,.36-.24.12-.12.48-.24.59-.36,0-.12-.12-.24-.24-.24-.24,0-.48-.12-.59,0v.12c-.24,0-.48-.24-.71,0-.24,0-.12.24-.36.36,0-.36-.12-.36-.36-.48,0,.12,0,.24-.12.48-.24,0-.24.24-.36,0,0,0,.24-.24.24-.36,0,0,0-.12-.24-.24,0-.36.59-.36.71-.59,0-.36.36,0,.36-.48v.24c.36,0,.48-.36.71-.48.12-.24.48-.12.48-.48h.36v-.36c.36-.24.59-.48.95-.83v-.24h.48v-.24c.24,0,.36-.24.48-.36,0,0,0-.12-.12-.24.24-.24,0,0,.36,0,0-.36.36-.59.59-.71h.48c.12,0,.36-.24.48-.24,0,.12,0,.24.24.24v-.48c0,.12,0,.71.36.71,0-.24,0-.59.24-.71,0,.36-.36.71,0,1.07,0,.12.36,0,.36.12-.36,0-.48,0-.71.24v.24c-.12,0-.36.12-.36.24v.24c-.24,0-.36-.12-.59,0,0,0-.24-.12-.24-.24v.36h.59c0,.36-.24.12-.36.24v.24c-.36,0-.12.36,0,.36.36,0,.36-.36.71-.36.24-.36.59-.36.48-.83l.24.12c.24,0,.36-.12.36-.36,0,0,.12,0,.24.12.12,0,.36,0,.48-.12.12-.48.59-.48.95-.83.24-.12.48-.12.59-.36.24,0,.36.12.48.24,0-.24-.12-.24-.36-.36v-.36c.24,0,.24-.12.24-.36.24,0,.36-.12.59-.12,0,.24-.48.12-.48.48.48.24.36-.24.71,0,0-.24,0-.36.24-.48.24.24.48.36.48.71,0,0,.48.36.59.24,0-.12-.24-.12-.36-.24,0-.12,0-.24.12-.36-.24-.24-.12-.36,0-.59q0,.24.24.36v.48c.36,0,.48,0,.71.12v-.36c.24,0,.24.12.48,0,0-.24-.24-.36.12-.59.12.12.24.24.36.24v-.24c-.24-.24,0-.36.24-.24v-.24c.12-.12.36-.12.36-.36.24,0,.24.24.36,0,0-.12-.24-.36,0-.36,0,.12,0,.24.36.24v.36c0,.12.24.24.24.36l-.24-.24ZM29.83,43.85c-.12,0-.24,0-.36.12,0,.36.59.12.36-.12ZM28.05,43.62l-.24-.12c-.36.24.24.36.36.59q0-.24.24-.12c.12,0,.24-.24.48-.12.12.24.36.48.48,0-.24-.12-.48-.36-.71-.48-.24,0-.59,0-.59.24ZM28.88,40.17c.36.24.59.24.83.48.24,0,.36,0,.59.24.24,0,.48,0,.59.24.24,0,.36.48.24.59q.24,0,.36.12,0-.24-.24-.24c-.12-.24,0-.36,0-.59,0,0-.24,0-.24-.12-.36,0-.48,0-.36-.48q-.24,0-.48-.12h-.48c-.12-.48-.59-.59-1.07-.59v-.36s-.24,0-.24-.12c-.12,0,.12.48.12.59.12.12.24.24.48.24l-.12.12ZM56.1,28.52c.24,0,0-.36,0-.24v.24ZM100.78,19.61s-.12,0-.24.12c.12.12,0,.36.24.48.12,0,.24,0,.36-.12h-.36c0-.12.24-.24,0-.36v-.12ZM77.84,15.57q0-.12-.24,0h.24ZM78.08,15.21c.24,0,0-.36,0-.24v.24ZM78.32,14.62s0,.12.24,0c0,0,0-.12-.24,0ZM71.66,8.79c0-.24-.36-.59,0-.83v-.71c.12-.24.36-.59,0-.83-.12-.36,0-.48.24-.83s-.36-.59-.12-.95-.24-.71.12-1.07c0-.59.36-.71.71-1.07h-.24c0-.12-.24-.24-.12-.36.24,0,.24-.36,0-.48v-.36h.36c0-.24-.12-.24-.24-.36,0-.36.12-.48.36-.59.24-.24.36-.36.71-.36v.36c.12,0,.24.24.36.36,0,.12-.12.24-.36.36,0,0,0,.24.12.24h.24c.24.24-.24.36-.24.71h-.24v.12c.36,0,.24.36.24.48.24.12.24.71,0,.83.12,0,.24.36.12.59.36.24.24.48.24.83h.12c0-.36-.12-.59-.24-.95q.24,0,.24-.36c-.24-.36-.24-.48,0-.71-.12-.48.36-.83.59-1.07.12-.12.48,0,.71.12.12,0,.36-.24.48-.24.36,0,.36.24.59.36,0,.48.36.48,0,.83,0,.12,0,.24.24.36,0,.24-.24.48-.24.71s0,.48.12.71v.48c.12.24.36.24.48.59h.12c-.12-.24,0-.24-.12-.48,0-.12,0-.24.24-.24-.12-.24-.12-.48-.24-.71h-.24c.12,0,.24,0,.36-.12-.36-.48,0-.59,0-.95-.36,0,0-.36-.48-.36h.24c.24-.48-.12-.48,0-.95h.36c0-.24-.24-.24-.24-.36.24,0,.12-.24.36-.36.12,0,.24-.24.36-.24s.24.24.36.24c.24-.12.59-.24.83-.36.12.12.12.48.36.59,0,.24-.36.24-.36.59h.36c0,.36-.36.59-.12,1.07,0,.24,0,.59.24.71v.24s0,.12.12.24c0,0,0,.12-.12.24,0,.36-.12.59.24.59h-.12c0,.36-.24.36,0,.83,0,0,0,.12-.12.24.48.36-.24.95.24,1.31v.24l.24.24c-.24.24.12.24-.12.48,0,.36-.12.83.12,1.07,0,0,0,.12-.12.24,0,.24-.24.83,0,.95,0,.24,0,.48-.12.71s0,.36.24.48c-.12.24,0,.48-.12.71.36.48-.36,1.19,0,1.78h-.24c0,.36,0,.48-.36.71v.24h-.24v.36h-.48s0,.24.24.24c0,0,0,.24-.24.36v.71h-.24c0,.12,0,.36-.12.48,0,.12.24.24,0,.48h-.24v.48c-.24,0-.36.12-.48.24v.24h.24c.12.36.24.48-.24.59,0,.36-.36.36,0,.59.12.12.48.36,0,.48.36.36,0,.48-.36.36,0-.12.24-.36.12-.59,0-.24-.36,0-.36-.48.36-.48-.48-.71,0-1.19h.36-.12c-.24-.24,0-.83-.48-.83,0-.24.36,0,.12-.24-.12-.12-.59,0-.83.12,0,.24.12.24.24.36-.24,0-.24-.24-.48-.24s-.24.36-.24.48v.24s-.12.24-.24.24c0,0-.36-.24-.36-.36h.24c.24-.36-.12-.36-.36-.36,0-.12.12-.24.24-.24l-.24-.24h.24c-.24,0-.48-.59-.36-.83.12,0,.24,0,.36.24v-.59c-.24-.24-.59-.24-.71-.59.24-.24.12-.36.12-.59-.12-.12-.36-.24-.24-.48,0-.24,0-.36-.24-.36v.71h.24c0,.24-.12.36-.12.48.12.24,0,.59-.24.59,0,.24.36,0,.48.36-.24.36-.48.95-.12,1.31,0,.24-.48,0-.71.12v.36c.12.24.12.36,0,.48s-.24.48-.48.59c0,0-.12,0-.24-.12,0,.24.12.24.36.36.24.36.24.83-.12,1.07v.36c-.24,0-.24-.24-.48-.12q0-.24.12-.48c0-.24.12-.48,0-.71-.36-.12-.36-.48-.24-.83,0-.24-.36-.59-.24-.71.12,0,.24,0,.24-.12-.36-.24-.24-.83-.24-1.19,0-.48-.24-.83,0-1.19,0-.24-.12-.59,0-.95v-2.5c0-.24-.24-.48,0-.83,0-.24,0-.36-.12-.48-.12-.36.24-.59.24-.95l-.48-1.19ZM26.26,45.64c0,.24.12.36.12.59.12-.24.36-.59-.12-.59ZM17.95,38.62c0,.12,0,.59.36.48,0-.12-.12-.71-.36-.48ZM18.54,39.22c0,.24.24,0,.48,0,0-.12-.59-.48-.48,0ZM23.53,42.07q0-.12-.24,0,0,.12.24,0ZM24.72,42.9c.24,0,.12-.36,0-.36v.36ZM26.03,43.38c0-.12,0,0,0,0ZM26.62,43.85c.12.12.71-.36.36-.48-.12,0-.36.24-.36.48ZM26.74,45.28c0,.24.24.24,0,0ZM28.64,45.76c.24,0,0-.36,0-.24v.24ZM11.77,34.47c0-.12,0-.24-.12-.24,0,0,.24-.12.36-.12.24-.12.36-.24.71-.12,0,0,.12-.12.24-.12,0,.24.48.36.71.24,0,0,.12.24.24.36.12,0,.36-.12.12-.24,0-.24.24-.24.36-.12v.36c.24.12.24-.24.48,0,0,.48.48.59.95.59.24.24.24.36.59.24.24,0,.36,0,.36.36.24.24.48.36.71.48,0,0,.12,0,.24-.12.12.12.24.36.48.48.24-.24.36-.12.59-.12v.36l.36.36h.71c0,.24.12.36.36.36,0-.12,0-.24.24-.24-.36-.24-.95-.48-1.31-.59,0-.24-.12-.48-.36-.48-.36,0-.83-.36-.83-.71.24-.12.48,0,.48-.36h-.12c-.12.24-.36,0-.24-.24.24,0,.48-.12.71-.24,0,0,.24.12.36.24.24-.12.48-.24.71,0,0,.12.24.24.36.24.12.24.24.36.48.48.36,0,.48,0,.71.24.48,0,.71,0,.83.48.12,0,.36,0,.48.12h.48c.12.12.24.36.48.48q.24,0,.36.36c.36,0,.59.24.95.24.24,0,.24.24.36.36v.12q.24,0,.36.24c.24,0,.48,0,.71.24.12.24.59,0,.83.12,0,.24,0,.48.24.59.36.12.59,0,.95.24.36.12.12.48.12.83.12.24.36.36.48.59h-.48c-.24,0,0-.36-.36-.36-.24.24-.36,0-.59.24,0,0-.12,0-.24-.12h-1.07c-.12-.24-.24-.36-.48-.24,0-.24-.12-.36-.36-.48-.24-.12-.36-.36-.71-.24-.24-.36-.48-.12-.71-.48h-.24c-.24-.36-.48-.83-.95-.71-.24-.24-.59-.36-.83-.59h-.24s-.24,0-.24-.12q.24,0,.24-.24c-.24,0-.36-.12-.59-.24h-.48c0-.12-.24-.24-.36-.24v.59c.24.12.36,0,.59,0v.36c0,.24.36,0,.48,0,.24,0,.24.24.48.12,0,.24.24.24.36.24,0,.48.24.24.48.48,0,0,.12,0,.12-.12v.48c.36,0,.59.12.95.36v.36h.24c.24.24.59,0,.83.24.12,0,.12.24.36,0,0,.24.24.36.24.59.24-.12.12,0,.36,0v-.24s.36,0,.36.12c-.24,0-.48.24,0,.36h.24c0,.24.36.36.48.24,0,.12.24.24.36.48h.24c0,.59.83.48.95,1.07,0,.24.36.36.48.59-.12.36-.59-.24-.59.24-.36,0-.24.24-.59.48,0,.12,0,.24-.24.24,0,.24.24.24.36.36,0,.24.36.48.36,0,.12.24.36.24.48.48.48,0,.24.59.71.59.36,0,.71.48,1.07.36l.36.36h.24v.36c.36-.24.48.59,0,.48v-.24c-.12,0-.24,0-.24.24,0-.36-.24-.48-.48-.71-.36,0,0,.12-.36,0v.36c-.24,0-.24-.59-.48-.48,0,0-.24,0-.24.24-.12,0-.12-.36-.24-.59-.12,0-.24-.12-.36-.24h-.24s-.12-.24-.24-.36c-.24.12,0,.24-.24.48-.12,0-.24.12-.24.24-.24,0-.36,0-.48-.24v-.48h-.12v.36c-.24,0-.36,0-.36.24-.12,0-.24-.36-.48-.36v.24c.24.24.59.36.71.59,0,.36.24.48,0,.71-.24.12-.48-.12-.71,0-.24,0-.59-.24-.59-.48-.24-.24-.48-.24-.71-.36v-.24h-.48c-.24,0-.48,0-.59-.36v-.24c-.24-.24-.48-.36-.71-.12-.24-.24-.59-.36-.71-.59-.12,0-.24,0-.36.12,0,0-.12,0-.24-.12,0,0-.48,0-.36.24.36,0,.36.36.59.36s0,.36.36.36c.24-.12.48-.36.36,0h-.36c0,.12.24.12.36.24v.12c-.36,0-.48.24-.83.12-.36.24-.48,0-.83,0,0,0-.12,0-.24.12,0-.24,0-.48-.36-.48-.12,0-.24-.24-.48-.36h-.36v-.36h-.36c0-.12-.24-.24-.36-.48-.36,0-.36-.12-.59-.36h-.36v.24c-.24,0-.24-.36-.59-.36,0-.24-.12-.36-.48-.24,0-.12-.24-.24-.48,0,0,0-.24-.48-.24-.59h-.24c0-.48-.48,0-.48-.48-.24,0-.59-.12-.83-.48-.12,0-.24.12-.36,0-.24.24-.36-.24-.48-.48-.12,0-.24,0-.24.24-.24,0-.24-.59-.48-.71-.12,0-.24,0-.24.24-.36-.24,0-.95-.12-1.31.12-.24.36,0,.24.24h.24v-.48c.12.24.36.36.71.24v.24s0,.24.12.24c.24,0,.24-.24.36-.36v.36h.24c.12.36.48.24.83.36.24.24.48.24.48.71h.48v.36c.36.24.59,0,.71.36.24,0,.48,0,.48.24.24-.12.24,0,.48,0l.24.24h.24v.24h.36v.36c.24,0,.24.12.48.36h.36c0,.36.36.36.48.12,0,.24.36.48.59.36v-.36c-.24-.24-.59-.36-.83-.48-.24-.24-.48-.36-.71-.24-.36-.24-.71-.36-1.07-.59,0,0,.24,0,.12-.24h-.48c-.24,0-.36-.24-.59-.24q.24,0,.24-.24c-.24,0-.48,0-.48-.36-.24-.12-.12-.36-.36-.48-.36,0-.71-.24-.95-.48-.48,0-.36-.24-.59-.48h-.48v-.36c-.24,0-.59,0-.48-.48-.12-.12-.24-.12-.48,0,0-.48-.71-.36-.95-.71h.24c.24,0,0-.36,0-.36h-.24v-.36c-.12,0-.24,0-.36-.24,0-.24,0-.48.24-.71h.24c0,.24.36,0,.48,0,0-.12-.48-.12-.48-.36.12,0,.24-.12.48-.12,0,.12,0,.24.24.36h.24c0,.36.36.36.59.48v-.36c.24,0,.12.12.24.36h.36c0,.24.24.36.48.36.12,0,.24.12.48.12,0,.36.36.36.59.59l.24-.24c0,.36.36.36.59.59.12,0,.24.24.48.12,0-.24,0-.36-.24-.48h-.48v-.12c-.12-.24-.48-.36-.83-.48v-.24s-.12,0-.24.12c-.24,0-.12-.59-.48-.59v.36c-.24,0-.36-.48-.48-.59-.24,0,0,.24-.36.24,0-.24,0-.36-.12-.48v-.24c-.24,0-.12.24-.36.24,0-.24,0-.36-.24-.48-.24-.12-.48-.36-.83-.36-.12-.36.24,0,.24-.36h-.71c-.24,0-.12-.12,0-.36-.24-.24-.48-.24-.71-.36l-.36-.48ZM100.54,16.64c.36,0,.24.36.48.59h-.36c0,.12,0,.24.24.36.12-.12.48-.12.48-.36-.24-.24-.24-.36,0-.48-.24,0-.36,0-.36-.24-.12.24-.71-.36-.59,0l.12.12ZM101.97,17.23c.24-.24-.12-.24-.24-.12q0,.12.24.12ZM102.44,17.23s0-.48-.24-.48c-.12.12,0,.48.24.48ZM105.77,19.25c.36.24.36,0,.36-.24.24-.12.59,0,.48.24,0,0,.12-.24.24-.24v-.24h-.24c-.12,0-.24-.36-.36-.36v.24c-.48-.12-.83.36-.59.71l.12-.12ZM106.84,7.61c.24.24.48-.48.24-.48,0,0-.24.36-.24.48ZM99.47,15.09s.24-.12.36-.12c0-.24,0-.36.12-.59.12-.12.36-.24.48-.36.24-.12,0-.36,0-.59h.24v-.48c.48,0,.24-.36.24-.71.24,0,.24-.12.48,0q0-.36.36-.48c0-.12-.12-.24-.24-.36l.59-.59v-.36h.36c.12-.24,0-.48.36-.59,0-.24-.12-.24-.36-.12,0-.24.24-.36.48-.36s.36-.36.59-.36c0-.36,0-.59.24-.83.24,0,.24-.24.48-.36v-.59c.12-.12.36-.24.36-.48,0,0,.24,0,.24-.12.36-.24.71,0,1.19,0,.36,0,.71,0,1.07.24,0,.24-.24.36.24.48.24.24,0,.48-.24.36v.71h.36c.24.24.48.12.71.12.12-.12.24-.24.24-.48h.36c.12,0,.36.24.59.24v-.59c.24,0,.36,0,.59-.24v-.24c.83-.12,1.43-.48,2.26,0,0,0,.12.24.12.36-.12.36-.48.24-.12.71v.36c0,.36,0,.59-.36.71,0,.36-.24.24-.24.48h-.24s-.12.24-.24.24c.24,0,.48.12.71.24h.59v.24c.12,0,.24.24.24.36h.24v.24c-.24.12-.36.48-.36.71h-.24c.12.36,0,.48,0,.83-.24,0-.48.36-.12.36l-.24.24s-.24,0-.36-.12v.59c0,.36-.36,0-.36.36h.24c.12.24,0,.48-.24.48,0,.24,0,.71-.24.95v.36c.12.12.24.24.24.36h-.24c0,.36-.36,0-.36.48,0,.24.36.24.24.48,0,0-.12.24-.24.24-.24-.24-.36.24-.24.36-.24,0-.24.24-.48.24s-.24.48,0,.36c-.12,0-.24.24-.24.36,0,0,0-.12-.24-.12h-.24v.48c0,.12-.12.24-.24.36v.48l-.24-.24c-.24,0-.24.48-.12.59s0,.24,0,.36c0,0-.12-.12-.24-.12,0,0-.12,0-.24.24,0,0-.12-.36-.36-.36v.36h-.36s-.12,0-.24.12c-.24-.24-.36-.12-.59,0-.24,0-.24-.36-.48-.36,0,.24.24.36,0,.59-.24,0-.36,0-.59-.12q0-.24-.12-.48c.24-.24.36,0,.48-.48l-.24-.24c.12-.12.12-.24,0-.36-.36-.12-.36.12-.24.36-.48-.24-.83.36-1.19.24,0,.36-.36.12-.48.48,0,.24,0,.36-.24.48-.24,0-.36,0-.36.24v-.24h-.24v-.36s-.12-.24-.24-.36v-.24c-.24,0-.24-.24-.48-.36v.24c-.48,0-.36-.59-.83-.36-.24.12-.24-.24-.36-.36,0-.24-.12-.24-.12-.36.24,0,.48.59.71.36-.24-.36,0-.48-.12-.83h.36c.12-.24,0-.48,0-.59.12,0,.36.24.59,0,0-.36-.36-.59-.59-.36,0,.36-.36.48-.12.71h-.48v.24c-.12,0-.24-.24-.36-.24-.12.12-.24.12-.48.12,0,0,0-.24-.12-.24-.12-.36.24-.36.12-.71,0-.12.24-.24.36-.24-.12-.24,0-1.07-.36-1.07-.24,0,0,.36-.36.36v-.24c-.48,0,0-.48-.24-.71l-.36-.36ZM15.81,68.81q.24,0,.24-.12s-.48,0-.24.12ZM105.65,21.27s.24-.24.24-.36c-.36.24-.36-.24-.71-.12,0,.12.24.12.36.24,0,0,0,.12.12.24ZM104.58,21.63h.48c0,.12.12.24.24,0,.24-.24,0-.36,0-.48h-.48c0,.12-.36.24-.24.48ZM108.03,41.95c0,.12,0,.24.24.24.24-.24-.36-.59-.24-.24ZM21.51,44.92q.12,0,0,0ZM55.03,29.47v-.24.24ZM21.63,75.59v-.36c-.24-.24-.71,0-.48.36h-.36c0,.24.36.12.48,0,.12-.24.36-.12.48-.12l-.12.12ZM10.1,70.36h-.12.12ZM23.77,70.36l.12.12v-.12h-.12ZM24.01,74.28h.59c0-.12-.24-.24-.36,0-.12,0-.24,0-.24.24v-.24ZM24.96,76.66c-.48.24-1.07.12-1.66.24-.36.24-.59.24-.95.36,0,.12-.12.24-.24.24-.48,0-.83.24-1.19.36-.48.24-1.07.24-1.54.59s-.95,0-1.31.36v.36c-.48.36-1.19,0-1.66.36,0,.12-.12.36-.24.48-.36.12-.71,0-.95.24-.24.12-.59.24-.83.24,0,.36-.71.36-.95.36l-.24.24c-.71,0-1.31.59-1.9.59-.36.24-.71.24-1.07.36-.24,0,0,.36-.36.48h-.59c-.36,0-.59,0-.83.36-.36,0-.36.24-.59.12-.24,0-.48.24-.48,0,0,0-.12,0-.24.12-.24,0-.48.24-.71.36-.24,0-.36,0-.59.12-.24-.24-.48-.12-.83-.12,0,0-.12-.36,0-.48,0-.12.12-.24.12-.36h.83v-.24c0-.24.24,0,.36,0,.24,0,.12-.24,0-.36.24,0,.48.12.59-.12,0,0-.12-.24-.12-.36.36,0,.48,0,.71.24.36,0,.48-.24.83-.24,0,0-.24-.12-.24-.36.24,0,.59-.24.83,0,.24.24.36,0,.59,0v-.24h.48v-.24c.36,0,.48-.24.71-.36.24-.12.24-.24.24-.48.24,0,.59.12.36-.24h.12c0,.24.36.24.48.24v-.36h.59c.24-.24.48,0,.59-.36h.83c-.24,0-.36-.24-.59-.24h-.24v-.24h-.83c-.24.24-.48,0-.48.36,0,0-.12-.24-.36-.24,0,.24-.12.59-.48.59s-.48,0-.83.12c-.36.24-.59,0-.95.24v.36h-.36s0-.24-.12-.24c-.24.12-.59.12-.59.48-.12.12-.36,0-.48-.24-.24,0,0,.24,0,.36-.24.12-.36,0-.59,0,0,.12,0,.24-.12.24,0,0-.24-.12-.24-.24-.24,0-.48.48-.83.48-.12,0,0-.36-.36-.24v.36c-.24,0-.36,0-.59.24v.24c-.24,0-.48,0-.83.24-.36,0-.48.12-.83.24,0,0-.12,0-.24-.12-.24.36-.48,0-.83,0,0-.48-.24-.48,0-.71.24-.12.36,0,.71.12v.24c.36,0,.36-.12.36-.36.24-.12,0-.36.24-.48.24,0,.48-.12.71,0,.12,0,.24.12.36.24v.24-.36c.36,0,.12,0,.36-.36.48,0,.71-.48,1.07-.59,0-.24.24-.36.24-.59,0-.36.59-.12.71-.36,0-.24.36-.36.59-.48.24.36.36,0,.59-.12v-.59c.24-.24.59-.36.83-.59.24,0,.36-.24.59-.24,0-.24.48-.36.59-.24.48,0,.71-.24,1.19-.12-.36,0-.36-.24-.59,0-.24-.24-.12-.24-.36,0-.36,0-.59,0-.95.12,0,.36-.36.24-.59.48-.12,0-.24-.24-.36-.36,0,.24,0,.36-.24.48h-.36c-.24.12-.36.12-.59,0v.36c-.24.12-.36-.24-.59,0-.12.24-.48,0-.59.12h-.36s-.24.12-.36.12c-.12.12-.36.36-.59.24-.24-.12-.24,0-.24.12h-.24v.24c-.59-.24-.59.36-.95,0-.12,0-.24.24-.48.24v-.24c0,.12,0,.24-.12.48-.36-.24-.48.36-.95,0v.36l-.24-.24H.24v-.24c.36-.36,1.19-.12,1.19-.71h.12c.36-.36.71-.12.83-.71h.59c.36,0,.36-.12.59-.36.12-.12.24,0,.36,0,0,0,.24,0,.24-.12h.24c.12-.12.24-.36.36-.48.24,0,.48.12.59.36q0-.24.24-.12,0-.24.24-.24c-.12-.24,0-.48.24-.36s.24.12.48,0q.36,0,.36-.36h.24c.36-.24.59-.48,1.07-.48,0,0,.12,0,.24-.24v-.36s-.24-.12-.36-.24v-.36c.24,0,.36,0,.36-.12,0-.24.24-.24.48-.24.12-.59.59,0,.95-.48.24-.12.59-.24.59-.48h-.36c-.24.24-.36.24-.71,0,.12.12.24.24.36.24,0,.24-.36.12-.48,0,0-.12,0-.36-.12-.48,0-.24.59-.83.59-.36.24-.36.95-.24,1.19-.36v-.24h.59c0-.12.12-.24.12-.36,0,0-.24,0-.24.24h-.24l-.24.24h-.24s0,.24-.24.24c0,0-.12,0-.24-.12q0,.24-.36.24v-.24q-.24,0-.24.24c-.12,0-.48-.48-.59,0l-.12-.12v-.24c-.12-.24-.12-.71.24-.48.24-.36.48-.24.83-.36v-.36h.95c.24,0,.83,0,.83-.24.24,0,.36,0,.36-.24,0,0,.12,0,.24.12.12,0,.24-.12.24-.24h.24c.24-.24.71-.12,1.07,0,.12,0,.24-.12.24-.36.36,0,.48.24.83,0v-.24c.12-.24.36,0,.59,0q0-.24.36-.24c0,.36.24.24.48.24.48-.36,1.19,0,1.78,0-.12,0-.48,0-.48-.24,0-.12,0-.24.24-.36,0,.48.48.12.71.24s.48,0,.48-.24h1.19v-.24c.24,0,.48.12.59.24.24-.24.24,0,.48,0,0,.24,0,.36-.12.36,0,0,.12,0,.12.24,0,.36-.48.48-.83.48s-.48.12-.71,0v.24h.36c.24-.24.48-.24.83-.12l.24-.24c.24,0,.48.24.48-.12.24,0,.36.12.59.24.24,0,.36,0,.48-.24.24,0,.36,0,.48-.24.24,0,.12.12.24.36.24-.24.36-.12.71-.12v-.24h.24v-.36c.24,0,.36,0,.36.36,0,0,.12-.36.24-.48v.36c.36-.24.59.12.95.12v-.48h.36v-.24c.12,0,.24,0,.24-.12v.36c-.36,0-.36.24-.12.48v.59c-.24,0-.36.12-.59.12-.12,0-.24,0-.36.24-.24.12-.36,0-.59,0s-.36.12-.48,0c-.12,0-.36.12-.48.12,0,0,0,.12.36.12,0,0,0,.12-.12.24,0,.36.24.36.36,0,.24,0,.59.24.59-.12,0,0,0-.12-.12-.24.12,0,.36,0,.48.12v.59h-.36c0,.24-.12.36-.48.24-.12,0-.24,0-.24.24-.24,0-.24-.12-.36-.24,0,.48-.36.24-.71.36-.12.12-.24,0-.36.36h-.48.83c.24-.48.95-.24,1.31-.24.24,0,.59-.12.95-.24.12,0,.24.12.24.36l.24-.24c.24.12.48,0,.59.24.24.12,0,.48.12.71,0,0-.12.24-.36.24,0,.36-.48.36-.71.48-.24,0-.48.24-.71.24-.36.24-.83,0-1.19.36v.36c.12,0,.24,0,.36-.24h.71c-.12,0-.24,0-.24.24h.59c.24,0,.48,0,.71-.24v.24c-.24,0-.36,0-.36.24v-.12c-.24,0-.36,0-.48.24,0,0-.12,0-.24-.12-.12,0-.24.12-.24.36,0-.12,0-.24-.24-.24,0,.36-.36,0-.48.24-.36.24-.48-.24-.71,0v.24c-.24,0-.24-.12-.48.12-.24,0-.36-.12-.59-.24l-.24.48c-.24,0-.36,0-.59.12,0,.12,0,.24.12.24.24,0,.36.36.59.12v-.36h.36s.12-.24.24-.24c.36.24.71,0,1.07-.24h1.54c.12.12.24.24.48.24v-.24.24h.36c-.12.12-.24,0-.36,0-.24.24.36.36.24.59-.24,0-.24.12-.48.12-.36,0-.24.24,0,.48-.24.36-.83.12-1.07.48l.48-.36ZM53.36,30.07c.24,0,.24-.48,0-.36v.36ZM52.53,30.42c.24,0,.24-.24.24-.48.36-.12.59-.36.83-.59h.36c-.24-.36.24-.24.24-.59h.12v.36h.24c.24.24,0,.59,0,.83v-.24h-.36s0,.12.24.24c-.12.24-.48.12-.71,0v.59c-.36,0-.12.24-.36.48,0-.12,0-.48-.12-.48v.48h-.36s-.12.24-.12.36c-.24,0-.24-.12-.48,0-.12.36-.36.36-.59.59h-.48c0-.12.24-.36.36-.48,0-.12,0-.36-.12-.48.24,0,.24.36.48,0v-.24s.24,0,.24-.12c.12.12.24.24.36,0v-.24c.12,0,.24,0,.36.12l-.36-.12ZM53.48,31.02c0,.12,0,.48.24.36,0-.12,0-.48-.24-.36ZM34.7,97.33s0-.12-.24,0c0,0,0,.12.24,0ZM12,40.53c0,.12.24.36.24.12s-.12-.24-.24-.12ZM76.06,17.11v.12q0-.24-.24-.12h.24ZM66.2,27.33v-.48c-.12,0-.24,0-.36.12v.24c.12,0,.36.12.48.24v-.24l-.12.12ZM56.57,28.29v-.24q0,.24.24.24h-.24Z" style="fill: #f0bf60;"/>
    <path d="M60.73,66.08c.95.12,2.02.48,2.61,1.31.12.12.36.24.48.48,0,.12,0,.36.12.59,0,.36-.36.71-.24,1.07,0,0,.12,0,.12-.24.12.36-.12.83-.48,1.07-.36.59-.83.95-1.43,1.43-.48.48-.95.59-1.54.71-.71.59-1.66.83-2.5,1.07-.71,0-1.31.48-1.9.48-1.66.36-3.09.95-4.75.95-.59,0-1.07-.12-1.66-.48-.48,0-.95,0-1.43-.48-.36-.36-.83-.59-1.07-1.07,0-.36-.12-.71,0-1.19,0-.12-.24-.24-.12-.48.36-.71.95-1.31,1.66-1.9.71-.48,1.54-.95,2.26-1.43,1.66-.95,3.57-1.54,5.35-1.9h.24c.48,0,.95-.24,1.43-.24.95,0,1.9-.48,2.73,0l.12.24ZM91.15,62.63c.83,0,1.78-.12,2.61,0h2.26c.59.24,1.31,0,1.9.24.59,0,1.07.12,1.66.24.36.12.83.24,1.19.36.59.36,1.54.71,2.02,1.31.36.36.12.83.48,1.31.24.83-.24,1.43-.71,2.14h-.24v.24c-.48.36-1.07.71-1.66,1.07-.71.36-1.54.48-2.26.71-.59.12-1.31,0-1.9.24-2.02.12-4.04,0-6.06-.36-.83,0-1.54-.24-2.26-.48-.71-.36-1.43-.71-1.9-1.31-.12-.12-.24-.24-.48-.24-.36-.24-.24-.59-.48-.83,0-.24-.36-.71,0-.95.24-.24,0-.48.24-.83.24-.59.83-.83,1.43-1.07.95-.48,2.02-1.07,3.09-1.07.24-.24.59-.12.83-.24l.24-.48Z" style="fill: #fe9191;"/>
    <path d="M61.8,79.39s.12,0,0,.24c0,0-.12,0,0-.24ZM86.16,72.5c.36,0,.59.36.83.36s.48.36.48.59v1.43c.36,0,0-.71.36-.71.12.59,0,1.31,0,1.9,0,.48-.12,1.07-.12,1.54-.59,1.9-1.07,3.92-1.66,5.82v.24c-.24.36-.36.83-.71,1.19-.59.71-1.19,1.31-1.66,2.02-.24.24-.48.48-.83.71-.48.59-1.07.95-1.78,1.19-.48.24-.95.36-1.43.48-.59.24-1.19.36-1.78.48h-3.09c-.83,0-1.43-.48-2.26-.71-.59-.24-1.19-.48-1.78-.83-.59,0-.83-.48-1.31-.71-.36-.24-.59-.48-1.07-.71-.48-.36-.95-.59-1.43-.95-.71-.36-1.31-.95-1.9-1.54-.12-.24-.36-.36-.59-.59-.48-.83-1.19-1.43-1.66-2.26-.24-.36-.36-.71-.48-1.19,0,0,0-.12.24-.24,0-.24-.24-.48-.24-.71v-1.07s.24,0,.24.24c.24,0,.36,0,.59-.12,0-.24-.24-.24,0-.48,0-.12.24-.12.36-.36.24,0,.36,0,.36.24.12-.12.59,0,.59.24,0,0,.12,0,.24-.12.59.24.36.83.83,1.19.12.12.12.36.36.48.36.24.59.71.95,1.07.24.59.71.83,1.07,1.19.24.36.59.59.95.83.71.36,1.19.83,1.9,1.19s1.43.83,2.26,1.07c.59.12,1.07.24,1.66.24.95.24,1.9,0,2.97,0,.59,0,1.19-.24,1.66-.36.71-.36,1.19-.83,1.78-1.31.59-.36.95-1.07,1.31-1.54.12-.12.24-.36.36-.59.24-.24.36-.59.48-.83.48-.59.95-1.31,1.19-2.02.24-.36.24-.83.36-1.31,0-.59.12-1.19.24-1.78-.12-.59,0-1.19.24-1.78.24-.12,0-.71.36-.59,0,.24.36.36.36,0s0-.36.36-.48c.12-.12.24-.36.48-.24l-.59.24ZM57.76,50.39c1.07,0,2.02-.12,2.97.24.48.12.95.24,1.19.71.48.36.95.36,1.31.83s.71,1.07,1.07,1.66c.12.48.48.95.59,1.43.24.36.12.83.36,1.19.36.71.24,1.54.12,2.38-.12.48-.12,1.07-.48,1.43-.48.12-.71.36-1.19.59,0,0-.24-.12-.36,0-.24,0-.24-.24-.48-.48-.24-.12-.36.24-.59,0s-.36-.48-.48-.83c-.24-.48,0-1.07-.12-1.66-.24-.95-.48-1.9-.83-2.73-.24-.48-.59-.71-1.07-.95-.48-.12-1.07,0-1.66,0-.59.36-1.31.48-1.9.95s-.95,1.31-.95,2.02c.12.71,0,1.31,0,2.02,0,.59.12.95.24,1.43,0,0,0,.12-.12.24,0,.24-.12.36,0,.59,0,.12-.24.24-.24.36,0,0-.12,0-.24-.12-.24.12-.24.36-.48.59h-.71s-.24-.12-.36-.24c0-.12,0-.24-.12-.24-.24.12-.36.24-.48,0-.24,0-.36-.48-.48-.71-.24-1.19-.24-2.38-.12-3.45.24-.71,0-1.43.24-2.14.12-.24.24-.48.24-.83,0-.48.48-.83.59-1.19.36-.95.95-1.66,1.9-2.14.48-.36,1.07-.59,1.66-.83.24,0,.48-.24.83-.24l.12.12ZM90.68,47.66h2.5c1.07.36,2.14.71,3.09,1.43.48.59.83.95.95,1.66.36.59.48,1.19.59,1.78.36.71.48,1.31.71,2.14,0,.83,0,1.66-.24,2.5-.12.48-.48.95-.95,1.19,0,.48-.36.12-.71.24-.24-.24-.36,0-.59-.36-.48,0-.71-.24-.83-.59v-.71h-.24v-2.38c-.12-.48,0-.95-.24-1.43-.12-.71-.71-1.31-1.19-1.78-.24-.24-.36-.48-.71-.48s-.71,0-.95.24c-.48,0-.95.24-1.43.48-1.19,1.19-1.66,3.21-1.9,4.87.24.59,0,1.43-.24,2.02h-.36c0,.12-.12.24-.24.48,0,0-.24,0-.24.12,0-.36-.12-.24-.24,0-.36-.12-.36,0-.59,0s-.36-.36-.36-.59c-.24,0,0,.24-.36.24-.59-.36-.36-.95-.59-1.43v.48-1.07c0-.36-.12-.48,0-.83.24-.36.12-.71.12-1.07v-.24.83c-.12-.48,0-.95.12-1.43,0-.48,0-1.07.24-1.54.24-.95.83-1.66,1.43-2.38.36-.71,1.07-1.31,1.66-1.78.36-.24.71-.36.95-.59.48-.12.83-.36,1.43-.36l-.59.36Z" style="fill: #4a4a4a;"/>
    <path d="M272.24,90.87c-.67-3.32-2.41-6.1-5.09-8.04-.27-.2-.57-.4-.84-.6.17-.4.3-.77.44-1.21.9-2.78,1.17-5.63.84-8.48-.23-2.75-1.01-5.16-2.35-7.21.54-.64,1.01-1.34,1.44-2.11,1.64-2.88,2.25-6.17,1.81-9.52-.5-4.39-2.55-7.07-4.16-8.58-1.78-1.64-3.92-2.85-6.37-3.55-1.47-.44-3.02-.77-4.63-.97-1.04-.17-2.38-.34-4.02-.57-1.84-.27-3.82-.47-5.9-.64-2.35-.17-4.66-.13-6.87.1-2.82.3-5.4,1.04-7.64,2.18-1.58.8-2.95,1.84-4.09,3.08-2.21-1.88-4.76-3.39-7.54-4.46-3.25-1.27-6.7-2.15-10.29-2.61-3.32-.44-6.5-.57-9.45-.47-3.42.1-6.4.9-8.85,2.41-1.44-1.54-3.22-2.71-5.33-3.55-1.78-.7-3.62-1.14-5.46-1.27-2.01-.17-3.79-.07-5.43.37h-.1c-3.02.84-5.73,2.45-8.08,4.79-2.15,2.15-3.75,4.63-4.76,7.41-1.21,3.28-1.37,6.77-.47,10.06v.17c.67,2.08,1.47,3.75,2.41,5.13-.23.64-.47,1.31-.64,1.98-.07.27-.13.57-.2.84l-.27-.8c-.5-1.47-1.01-3.12-1.58-4.83-.7-2.25-1.58-4.42-2.58-6.47-1.41-2.85-3.32-5.23-5.66-7.07-2.95-2.31-6.67-3.45-10.76-3.32-7.47.2-12.03,3.28-14.51,5.8-2.98,2.98-5.23,6.8-6.67,11.33-1.27,3.85-2.48,7.78-3.65,11.66-1.17,3.96-2.28,7.98-3.25,11.97-.34,1.37-.74,2.92-1.21,4.63-.64,2.28-1.07,4.63-1.27,6.94v.07c-.3,3.42.27,6.57,1.64,9.42v.1c1.31,2.55,3.99,5.9,9.59,7.51,1.78.5,3.59.77,5.43.77.87,0,1.78-.07,2.65-.17h.07c3.79-.54,7.04-2.35,9.42-5.23,1.71-2.04,2.78-4.63,3.28-7.61h.17v.2c.6,2.04,1.44,3.89,2.45,5.43l.07.07c3.55,5.23,8.11,6.3,10.49,6.47,2.48.17,6.23-.27,10.22-3.28,1.31,1.24,2.78,2.25,4.42,2.98h.07c1.78.8,3.62,1.21,5.5,1.21,2.85,0,5.7-.9,8.28-2.71l.2-.13c.74-.54,1.37-1.11,1.98-1.74.54.57,1.14,1.11,1.78,1.61h.03c1.81,1.44,4.73,2.95,8.95,2.95s1.54-.03,2.38-.17h.07c4.66-.64,7.47-2.92,9.05-4.76,1.74-2.04,2.95-4.46,3.59-7.17.47-1.94.7-3.96.74-6,0-1.47.03-2.82.03-4.02s0-2.45.03-3.85c0-.5.03-.97.13-1.41.1-.03.23-.07.37-.1,2.55-.74,4.83-1.74,6.77-2.95.3-.17.57-.37.87-.57,0,.6-.07,1.24-.1,1.84l-.3,6.67c-.03,1.04-.13,2.25-.23,3.55v.07c-.17,2.08-.07,4.12.23,6.1v.1c.54,3.12,2.01,5.97,4.26,8.21l.2.2c2.08,1.94,4.49,3.25,7.24,3.82h.1c1.44.3,2.88.47,4.36.47s.97,0,1.44-.03c1.01-.07,1.94-.1,2.78-.1h.37c2.31-.1,4.66-.17,6.97-.2,2.48,0,5.03-.1,7.57-.23,2.88-.13,5.5-.67,7.81-1.51,2.68-1.01,6.33-3.32,8.51-8.71l.13-.34c.54-1.47.9-3.15,1.14-4.93.27-2.15.2-4.29-.23-6.4l.07.03Z" style="fill: #fff;"/>
    <path d="M119.23,101.46c-.74-1.17-1.11-2.65-1.11-4.42s.54-4.96,1.64-8.65l.64-2.35c1.58-6.57,3.79-14.21,6.7-22.96,1.14-3.42,2.71-6.1,4.76-8.01,2.04-1.91,4.76-2.92,8.18-3.02,2.15-.07,3.89.54,5.26,1.71,1.37,1.21,2.45,2.61,3.18,4.29s1.58,3.89,2.45,6.64l.94,3.05,9.12,25.67c.64,1.71.94,3.05.94,3.99,0,1.71-.8,3.22-2.41,4.52-1.41,1.11-2.71,1.64-3.99,1.64s-2.98-.87-4.12-2.58c-.4-.5-.77-1.24-1.04-2.18-.3-.94-.47-1.51-.5-1.71-.4-1.31-.8-2.38-1.17-3.18-.37-.84-.8-1.47-1.34-1.94-.1-.1-1.17-.23-3.18-.4-2.04-.17-3.89-.23-5.63-.23s-3.42.13-3.75.4c-.54.47-.9,1.11-1.17,1.94s-.54,1.94-.77,3.35c-.27,1.34-.5,2.45-.74,3.25s-.57,1.47-.97,1.98c-1.14,1.44-2.85,2.18-5.16,2.18s-2.11-.17-3.05-.47c-1.78-.54-3.02-1.37-3.75-2.55l.07.03ZM142.66,79.87c-1.11-3.22-1.78-5.3-2.04-6.23l-2.18,7.04,4.22-.77v-.03Z" style="fill: #fe9191;"/>
    <path d="M167.46,53.26c0-2.04.7-3.96,2.15-5.76,1.44-1.81,3.15-3.02,5.13-3.59.5-.1,1.01-.17,1.47-.17,1.58,0,3.08.34,4.52,1.04s2.18,1.68,2.18,2.92-.07.44-.17.87c.2.57.3,1.21.3,1.88,0,1.58-.5,3.08-1.47,4.56s-2.25,2.68-3.75,3.62-3.02,1.41-4.52,1.41-2.45-.4-3.42-1.17c-1.01-.77-1.71-2.01-2.18-3.65-.17-.64-.23-1.27-.23-1.94h0ZM174.8,104.44c-1.14,0-2.21-.37-3.15-1.14-.97-.74-1.74-1.74-2.38-2.92-1.21-2.61-1.81-6.2-1.81-10.86s.23-5.97.7-10.99c.1-.67.2-1.81.3-3.42l.17-1.64c.17-2.35.4-4.32.74-5.93.34-1.61.94-2.88,1.84-3.82,1.04-1.11,2.21-1.64,3.52-1.64s2.45.44,3.55,1.34c1.11.87,1.98,1.98,2.61,3.28,1.51,3.32,2.28,7.47,2.28,12.4s-.67,10.36-2.04,17.03c-.07.3-.2,1.04-.44,2.18-.23,1.14-.57,2.15-1.01,3.02s-1.04,1.54-1.74,2.08c-1.04.74-2.08,1.11-3.12,1.11l-.03-.07Z" style="fill: #f0bf60;"/>
    <path d="M189.99,100.05c-1.07-2.95-1.51-6.17-1.37-9.72.2-4.16.3-8.88.3-14.11.1-6.23.23-10.93.4-14.04.07-.57.07-1.41.07-2.51.1-2.92.3-5.23.64-6.97.3-1.74,1.07-3.22,2.28-4.46,1.21-1.21,3.05-1.88,5.53-1.98,6.4-.2,12.17.77,17.29,2.88,5.13,2.15,8.01,5.97,8.71,11.46.07.3.07.77.07,1.41,0,2.71-.87,5.16-2.65,7.41-1.78,2.25-4.06,4.22-6.87,5.93-.57.37-1.31.7-2.18,1.04s-1.44.57-1.71.67-.97.37-2.11.8c-1.14.44-2.08.97-2.82,1.61-1.11.94-1.81,2.21-2.15,3.79-.34,1.58-.5,3.49-.5,5.66v2.35c0,2.75-.07,4.93-.23,6.57-.17,1.61-.74,3.12-1.71,4.52-1.01,1.41-2.61,2.11-4.83,2.11s-5.06-1.47-6.13-4.42h-.03ZM211.74,63.95c0-1.34-.34-2.68-1.04-3.99s-1.64-2.28-2.78-2.88c-.74-.37-1.34-.54-1.88-.54-1.41,0-2.11,1.44-2.11,4.36l.07,2.82c.07.54.07,1.21.07,2.04-.1,1.34-.17,2.21-.17,2.58,0,.74.1,1.27.34,1.61s.64.5,1.21.5,1.11-.13,2.04-.4c2.82-.94,4.22-2.95,4.22-6.1h.03Z" style="fill: #e09d94;"/>
    <path d="M238.18,104.37l-2.04.07c-2.75,0-4.76-.64-6-1.88-1.31-1.31-1.94-3.32-1.94-6.1s.07-1.98.17-3.42c.1-.84.17-1.44.17-1.81l.64-13.34c.3-6.97.54-12.2.64-15.69.07-.64.07-1.17.03-1.68,0-.5-.03-.94-.03-1.27v-1.64c0-2.18.2-3.85.64-4.99.97-2.85,4.36-4.29,10.16-4.29s3.89.13,6.03.4c2.15.27,3.99.54,5.5.77,1.68.27,3.02.57,4.02.9s1.88.94,2.58,1.81c.7.87,1.04,2.08,1.04,3.62s-.34,2.45-1.01,3.49c-.67,1.01-1.61,1.74-2.82,2.21-.64.27-1.41.4-2.35.4s-1.58-.1-2.82-.3c-1.14-.2-2.04-.3-2.65-.3s-.87.07-1.47.17c-.67.1-1.34.54-1.94,1.34-.64.77-.94,1.61-.94,2.51s.4,1.61,1.17,2.18c.64.4,1.58.64,2.88.64s1.37-.07,2.41-.17l2.41-.07c.94,0,1.68.1,2.28.3,1.31.54,2.25,1.17,2.82,1.98s.9,1.91,1.01,3.32c.07.3.07.8.07,1.47,0,1.58-.3,2.95-.94,4.19-.64,1.21-1.61,2.04-2.95,2.45-.54.1-.97.17-1.34.17s-1.01-.07-1.61-.17-1.04-.17-1.27-.23c-1.04-.27-2.01-.4-2.88-.4s-2.15.34-2.82,1.01c-.87.84-1.34,1.64-1.34,2.41,0,1.21.87,2.18,2.58,2.95,1.71.77,3.35,1.21,4.93,1.34.57.07,1.11.07,1.58.03.47,0,.87-.03,1.17-.03.47-.07,1.17-.07,2.11-.07,2.61,0,4.56.47,5.87,1.41,1.24,1.01,1.88,2.58,1.88,4.76s-.27,3.15-.77,4.46c-.74,1.78-1.74,2.95-3.05,3.55-1.31.6-3.12.97-5.46,1.14-1.61.1-3.02.17-4.22.2-1.21,0-2.18.03-2.95.03-1.61,0-4.02.07-7.27.17-.77,0-1.37,0-1.81.07l-.07-.07Z" style="fill: #9bbdd6;"/>
</svg>