<?xml version="1.0" encoding="UTF-8"?><svg id="Calque_2" xmlns="http://www.w3.org/2000/svg" viewBox="0 0 640 300"><defs><style>.cls-1{fill:#fff;}.cls-2{fill:#1d63ff;}.cls-3{fill:#ffce32;}.cls-4{fill:#121722;}</style></defs><g id="Calque_1-2"><g><rect class="cls-1" width="640" height="300"/><g id="logo2_alpha"><g id="logo_2"><g id="logo"><path class="cls-4" d="M223.28,240.88c16.93-.74,21.72,13.99,21.72,13.99h55.59c-1.84-27.98,5.52-51.17,5.52-51.17-23.56-5.15-27.61-12.89-27.61-12.89,6.63-6.99,30.19,2.95,30.19,2.95,7.36-25.77,48.23-55.59,48.23-55.59-54.49-19.88-71.05-38.25-71.05-38.25-5.15,5.52-21.35,18.37-21.35,18.37-4.79-5.89,8.84-28.35,8.84-28.35-25.77-20.25-50.07-68.48-50.07-68.48,0,0-24.3,48.23-50.07,68.48,0,0,13.62,22.46,8.84,28.35,0,0-16.2-12.84-21.35-18.37,0,0-16.57,18.37-71.05,38.25,0,0,40.86,29.82,48.23,55.59,0,0,23.56-9.94,30.19-2.95,0,0-4.05,7.73-27.61,12.89,0,0,7.36,23.19,5.52,51.17h55.59s4.79-14.73,21.72-13.99Z"/><path class="cls-3" d="M223.28,223.43c19.36-.66,31.34,16.53,31.34,16.53l31.3-2.2c-1.76-13.45,2.2-26.67,2.2-26.67-42.32-23.59-37.25-27.77-37.25-27.77,34.83-14.77,50.92-8.38,50.92-8.38,3.75-11.46,22.92-33.73,22.92-33.73-16.75-5.07-38.13-21.6-38.13-21.6-32.18,19.18-36.15,14.11-36.15,14.11-1.1-37.47,5.95-43.64,5.95-43.64-15.87-13.23-33.1-45.85-33.1-45.85,0,0-17.23,32.62-33.1,45.85,0,0,7.05,6.17,5.95,43.64,0,0-3.97,5.07-36.15-14.11,0,0-21.38,16.53-38.13,21.6,0,0,19.18,22.26,22.92,33.73,0,0,16.09-6.39,50.92,8.38,0,0,5.07,4.19-37.25,27.77,0,0,3.97,13.23,2.2,26.67l31.3,2.2s11.98-17.19,31.34-16.53Z"/><polygon class="cls-4" points="220.82 252.97 227.65 252.97 227.65 41.58 219.33 41.58 220.82 252.97"/><path class="cls-4" d="M510.24,138.16c1.4,1.31,24.69-17.67,27.55-77.85h12.56l-.88,218.22h-16.09s-1.98-54.23-21.16-67.67c0,0-43.64,49.82-123,49.82,0,0-101.84,6.39-157.38-85.75,0,0,42.54-85.97,156.94-86.85,0,0,63.92-4.12,121.46,50.07Z"/><path class="cls-2" d="M530.96,147.28v53.89s-10.8-22.26-18.96-22.7c0,0-47.61,63.48-122.56,59.52,0,0-74.5,6.39-130.05-62.16,0,0,50.48-69.65,128.73-65.03,0,0,72.08-1.98,121.23,58.63,0,0,8.38-.22,21.6-22.15Z"/><ellipse class="cls-4" cx="350.65" cy="167.45" rx="12.34" ry="11.68"/><path class="cls-4" d="M377.54,189.27l2.87,8.82-117.27-4.41s-8.16-9.7-7.27-9.7,121.68,5.29,121.68,5.29Z"/></g></g></g></g></g></svg>