<svg xmlns="http://www.w3.org/2000/svg" viewBox="0 0 640 300"><defs><style>.cls-1{fill:#fff;}.cls-2{fill:#1d63ff;}.cls-3{fill:#ffce32;}.cls-4{fill:#121722;}.cls-5{fill:none;}</style></defs><rect class="cls-5" width="640" height="300"/><path class="cls-1" d="M282.64,94.8c-15.98-13.15-33.31-43.38-38.73-54.1l-14.34-28.4s-6.89,19.26-11.97,29.57c-31.27,63.43-83.15,86.02-109.2,96.47-15.25,5.95-28.99,9.41-28.99,9.41,48.42,15.44,80.26,60.44,66.27,119.14h174.58s10.35,.03,10.35,.03c20.93,5.11,36.6,5.2,41.13,5.17,1.87-.01,3.22-.08,4.15-.08,50.24-.11,85.69-20.79,104.42-35.33,1.07,3.26,2.16,7.4,3.16,12.66,2.29,12.06,2.7,22.8,2.71,22.91l.57,15.46h45.6l.06-15.98,.78-189.57,.07-16.11h-42.46l-.73,15.29c-1.12,23.59-5.97,38.14-10.08,46.42-43.91-34.46-88.53-37.36-102.1-37.36-1.53,0-2.64,.04-3.28,.07-27.84,.26-53.68,5.86-76.98,16.67-.63-.55-1.03-.92-1.2-1.09"/><path class="cls-4" d="M231.36,239.06c14.89-.65,19.1,12.3,19.1,12.3h48.87c-1.62-24.6,4.86-44.99,4.86-44.99-20.72-4.53-24.28-11.33-24.28-11.33,5.83-6.15,26.54,2.59,26.54,2.59,6.47-22.66,42.4-48.87,42.4-48.87-47.9-17.48-62.47-33.63-62.47-33.63-4.53,4.86-18.77,16.15-18.77,16.15-4.21-5.18,7.77-24.92,7.77-24.92-22.66-17.8-44.02-60.2-44.02-60.2,0,0-21.36,42.4-44.02,60.2,0,0,11.98,19.74,7.77,24.92,0,0-14.24-11.29-18.77-16.15,0,0-14.57,16.15-62.47,33.63,0,0,35.93,26.22,42.4,48.87,0,0,20.72-8.74,26.54-2.59,0,0-3.56,6.8-24.28,11.33,0,0,6.47,20.39,4.86,44.99h48.87s4.21-12.95,19.1-12.3Z"/><path class="cls-3" d="M231.36,223.73c17.02-.58,27.55,14.53,27.55,14.53l27.52-1.94c-1.55-11.82,1.94-23.45,1.94-23.45-37.21-20.74-32.75-24.42-32.75-24.42,30.62-12.98,44.77-7.36,44.77-7.36,3.29-10.08,20.15-29.65,20.15-29.65-14.73-4.46-33.53-18.99-33.53-18.99-28.29,16.86-31.78,12.4-31.78,12.4-.97-32.95,5.23-38.37,5.23-38.37-13.95-11.63-29.1-40.31-29.1-40.31,0,0-15.15,28.68-29.1,40.31,0,0,6.2,5.43,5.23,38.37,0,0-3.49,4.46-31.78-12.4,0,0-18.8,14.53-33.53,18.99,0,0,16.86,19.57,20.15,29.65,0,0,14.15-5.62,44.77,7.36,0,0,4.46,3.68-32.75,24.42,0,0,3.49,11.63,1.94,23.45l27.52,1.94s10.53-15.12,27.55-14.53Z"/><polygon class="cls-4" points="229.19 249.7 235.2 249.7 235.2 63.84 227.88 63.84 229.19 249.7"/><path class="cls-4" d="M483.65,148.76c1.23,1.16,21.71-15.53,24.22-68.44h11.05l-.78,191.86h-14.15s-1.74-47.67-18.6-59.5c0,0-38.37,43.8-108.14,43.8,0,0-89.53,5.62-138.37-75.39,0,0,37.4-75.58,137.98-76.36,0,0,56.2-3.62,106.78,44.02Z"/><path class="cls-2" d="M501.87,156.77v47.38s-9.5-19.57-16.67-19.96c0,0-41.86,55.81-107.75,52.33,0,0-65.5,5.62-114.34-54.65,0,0,44.38-61.24,113.18-57.17,0,0,63.37-1.74,106.59,51.55,0,0,7.36-.19,18.99-19.48Z"/><ellipse class="cls-4" cx="343.34" cy="174.5" rx="10.85" ry="10.27"/><path class="cls-4" d="M366.98,193.69l2.52,7.75-103.1-3.88s-7.17-8.53-6.4-8.53,106.98,4.65,106.98,4.65Z"/></svg>
