<svg xmlns="http://www.w3.org/2000/svg" viewBox="0 0 150 150"><defs><style>.cls-1{fill:#fc8200;}.cls-2{fill:#200000;}</style></defs><title>formz</title><g id="Calque_2" data-name="Calque 2"><g id="Calque_1-2" data-name="Calque 1"><rect class="cls-1" width="150" height="150"/><path class="cls-2" d="M128.34,22.33C117.82,60.38,97.14,79.22,97.14,79.22l17.31-61.41C112,16.59,95.87,16.33,93.4,16.18l-53,52.38s-6.44-10.78-5.82-19.07S75,16.4,75,16.4C62,17.57,46.59,18.87,24.22,31,11.27,36.66,19.5,61.88,19.5,61.88s7.82,34.53,32.24,63.66c10.05,12.71,23.22,8.4,27.39,2.8-21.65-16.07-31.8-44.07-31.8-44.07L97.42,29.14l.13.13c.14,1.64-14.92,37.91-18.92,64.28-2.44,16.06,2.7,29,7.76,26.61,12.25-13.87,28-34,37.17-54,1.84-4,8.37-17.57,9.34-32.73a15.59,15.59,0,0,0-.19-5.82,8.16,8.16,0,0,0-2.54-3.74A19.61,19.61,0,0,0,128.34,22.33Z"/></g></g></svg>