<svg xmlns="http://www.w3.org/2000/svg" viewBox="0 0 170 170"><defs><style>.cls-1{fill:#e5bad5;}.cls-2{fill:#c11018;}.cls-3{fill:#0070b7;}.cls-4{fill:#cf88b4;}.cls-5{fill:none;stroke:#5ef70d;stroke-width:3px;}.cls-6{fill:#fff;}.cls-7{fill:#660913;}</style></defs><title>kirby</title><g id="Calque_2" data-name="Calque 2"><g id="Calque_1-2" data-name="Calque 1"><rect class="cls-1" width="170" height="170"/><path class="cls-2" d="M77.92,139.88l-.11-.07Z"/><path class="cls-2" d="M74.91,137.56l-.16-.15Z"/><path class="cls-2" d="M78.79,140.38l-.09-.05Z"/><path class="cls-2" d="M77.06,139.3l-.12-.08Z"/><path class="cls-2" d="M77.46,139.58l-.14-.09Z"/><path class="cls-2" d="M75.74,138.3l-.15-.13Z"/><path class="cls-2" d="M75.37,138l-.14-.13Z"/><path class="cls-2" d="M76.59,139l-.15-.11Z"/><path class="cls-2" d="M76.2,138.67l-.13-.1Z"/><path class="cls-2" d="M78.34,140.13,78.2,140Z"/><path class="cls-2" d="M82.89,141.87l-.11,0Z"/><path class="cls-2" d="M82.4,141.77h0Z"/><path class="cls-2" d="M82,141.66l-.11,0Z"/><path class="cls-2" d="M83.83,142h0Z"/><path class="cls-2" d="M83.33,141.95h0Z"/><path class="cls-2" d="M84.26,142.05h0Z"/><path class="cls-2" d="M80.13,141,80,141Z"/><path class="cls-2" d="M80.58,141.21l-.06,0Z"/><path class="cls-2" d="M79.68,140.83l-.08,0Z"/><path class="cls-2" d="M81,141.38l-.12,0Z"/><path class="cls-2" d="M81.48,141.52l-.05,0Z"/><path class="cls-2" d="M68.45,129.11l-.16-.29Z"/><path class="cls-2" d="M68,128.39l-.16-.29Z"/><path class="cls-2" d="M68.74,129.63l-.17-.29Z"/><path class="cls-2" d="M69.46,130.81l-.17-.28Z"/><path class="cls-2" d="M69.15,130.32,69,130Z"/><path class="cls-2" d="M73.92,136.6l.17.17Z"/><path class="cls-2" d="M69.88,131.47l-.17-.27Z"/><path class="cls-2" d="M85.21,119.45A24.56,24.56,0,0,1,103,127.11a75.4,75.4,0,0,0,5.8-16.22H61.57a75.41,75.41,0,0,0,5.8,16.22A24.56,24.56,0,0,1,85.21,119.45Z"/><path class="cls-2" d="M74.54,137.22l-.15-.15Z"/><path class="cls-2" d="M67.6,127.56l.15.29Z"/><path class="cls-2" d="M102.67,127.84l.15-.28Z"/><path class="cls-2" d="M72.93,135.53l-.17-.19Z"/><path class="cls-2" d="M72.48,135l-.17-.21Z"/><path class="cls-2" d="M72.14,134.6l-.17-.21Z"/><path class="cls-2" d="M73.27,135.92l-.17-.19Z"/><path class="cls-2" d="M73.73,136.41l-.16-.17Z"/><path class="cls-2" d="M71.37,133.61l-.18-.23Z"/><path class="cls-2" d="M70.93,133l-.18-.25Z"/><path class="cls-2" d="M71.7,134l-.18-.23Z"/><path class="cls-2" d="M70.62,132.57l-.18-.25Z"/><path class="cls-2" d="M70.19,131.94l-.18-.27Z"/><path class="cls-2" d="M79.22,140.61l-.13-.07Z"/><path class="cls-2" d="M102.38,128.38l.15-.28Z"/><path class="cls-2" d="M102,129.09l.15-.27Z"/><path class="cls-2" d="M101.68,129.62l.15-.26Z"/><path class="cls-2" d="M101,130.8l.15-.24Z"/><path class="cls-2" d="M101.28,130.29l.15-.25Z"/><path class="cls-2" d="M84.78,142.08h0Z"/><path class="cls-2" d="M95.66,137.43l-.13.12Z"/><path class="cls-2" d="M95.19,137.86l-.11.1Z"/><path class="cls-2" d="M100.56,131.44l.15-.23Z"/><path class="cls-2" d="M96.35,136.76l.14-.14Z"/><path class="cls-2" d="M98.3,134.57l.14-.17Z"/><path class="cls-2" d="M98,135l.14-.17Z"/><path class="cls-2" d="M97.52,135.5l.13-.15Z"/><path class="cls-2" d="M100.24,131.93l.15-.22Z"/><path class="cls-2" d="M94.82,138.18l-.13.11Z"/><path class="cls-2" d="M96.72,136.38l.13-.13Z"/><path class="cls-2" d="M97.16,135.91l.14-.16Z"/><path class="cls-2" d="M99.5,133l.15-.21Z"/><path class="cls-2" d="M99.83,132.54l.15-.21Z"/><path class="cls-2" d="M99.07,133.58l.14-.19Z"/><path class="cls-2" d="M98.74,134l.14-.19Z"/><path class="cls-2" d="M96,137.08l-.12.12Z"/><path class="cls-2" d="M88.57,141.63l-.11,0Z"/><path class="cls-2" d="M94.34,138.57l-.11.08Z"/><path class="cls-2" d="M87.64,141.85l-.11,0Z"/><path class="cls-2" d="M89,141.51h0Z"/><path class="cls-2" d="M89.5,141.34l-.11,0Z"/><path class="cls-2" d="M85.74,142.08h0Z"/><path class="cls-2" d="M86.17,142.05h0Z"/><path class="cls-2" d="M87.12,141.94h0Z"/><path class="cls-2" d="M89.91,141.18l-.06,0Z"/><path class="cls-2" d="M86.69,142h0Z"/><path class="cls-2" d="M88.06,141.76h0Z"/><path class="cls-2" d="M93.48,139.22l-.1.07Z"/><path class="cls-2" d="M93.09,139.49l-.12.08Z"/><path class="cls-2" d="M94,138.87l-.13.1Z"/><path class="cls-2" d="M92.6,139.81l-.09.05Z"/><path class="cls-2" d="M90.82,140.79l-.07,0Z"/><path class="cls-2" d="M90.41,141l-.11,0Z"/><path class="cls-2" d="M92.21,140.05l-.12.07Z"/><path class="cls-2" d="M91.32,140.55l-.12.06Z"/><path class="cls-2" d="M91.72,140.34l-.08,0Z"/><ellipse cx="51.25" cy="63.87" rx="14.89" ry="38.29"/><path class="cls-3" d="M51.25,88.4c-3.17,0-6-1.86-8.16-4.88.89,7.6,4.2,13.24,8.16,13.24s7.27-5.65,8.16-13.24C57.3,86.54,54.43,88.4,51.25,88.4Z"/><ellipse class="cls-4" cx="29.42" cy="108.23" rx="15.42" ry="7.67"/><path class="cls-5" d="M51.25,92.34"/><ellipse class="cls-6" cx="51.25" cy="48.13" rx="7.74" ry="17.33"/><ellipse cx="118.75" cy="63.87" rx="14.89" ry="38.29"/><path class="cls-3" d="M118.75,88.4c3.17,0,6-1.86,8.16-4.88-.89,7.6-4.2,13.24-8.16,13.24s-7.27-5.65-8.16-13.24C112.7,86.54,115.57,88.4,118.75,88.4Z"/><ellipse class="cls-4" cx="140.58" cy="108.23" rx="15.42" ry="7.67"/><path class="cls-5" d="M118.75,92.34"/><ellipse class="cls-6" cx="118.75" cy="48.13" rx="7.74" ry="17.33"/><path class="cls-7" d="M107.94,108.28H62c-3.67,0-3.71,2.72-3.47,3.57C64,131.4,73.83,144.42,85,144.42s21.08-13,26.46-32.61C112.33,108.69,107.94,108.28,107.94,108.28Zm-.31,4.34c-3.82,15-14.26,28.87-22.62,28.87s-18.5-13.87-22.31-28.93c-.06-.24.69-.71.69-.71H106.9S107.69,112.37,107.63,112.62Z"/></g></g></svg>