<svg xmlns="http://www.w3.org/2000/svg" viewBox="0 0 14.36 14.36"><defs><style>.cls-1{fill:#f49a71;}.cls-2{fill:#fff;}.cls-3{fill:#26292e;}</style></defs><g id="Calque_2" data-name="Calque 2"><g id="Calque_1-2" data-name="Calque 1"><rect class="cls-1" width="14.36" height="14.36"/><path class="cls-2" d="M2.53,3.8s3.74,0,3.78,0,.88.76.87.76a10,10,0,0,1,.74-.69l3.88,0v6.5L8,10.52l-.84.55-.94-.61-3.7,0Z"/><path class="cls-3" d="M2.29,10.43a.24.24,0,0,0,.24.24H5.31a2,2,0,0,1,1.59.53l.08.09H7a.26.26,0,0,0,.41,0h0l.05,0h0l0-.07,0,0A2,2,0,0,1,9,10.67h2.88a.24.24,0,0,0,.24-.24V3.82a.22.22,0,0,0-.22-.22H8.57a1.45,1.45,0,0,0-1.2.4l0,0h0l-.06.08h0c-.09.12-.17.07-.2,0L7,4,6.9,3.92A1.18,1.18,0,0,0,6,3.6H2.52a.22.22,0,0,0-.23.22ZM11.57,10a.19.19,0,0,1-.2.19H8.68a1.67,1.67,0,0,0-1.31.44l0,.06,0,0h0c-.09.12-.22,0-.22,0L7,10.63a1.59,1.59,0,0,0-1.26-.45H3A.19.19,0,0,1,2.79,10V4.26A.19.19,0,0,1,3,4.07H5.14c1.61,0,1.76.91,1.77,1.17v3c0,.29.14.34.22.35h.11c.08,0,.21-.05.21-.28V5.19h0a1,1,0,0,1,1.1-1.12h2.82a.19.19,0,0,1,.2.19Z"/></g></g></svg>