<svg xmlns="http://www.w3.org/2000/svg" viewBox="0 0 640 300"><defs><style>.cls-1{fill:#fff;}</style></defs><title>metalfest</title><g id="Calque_2" data-name="Calque 2"><g id="Calque_1-2" data-name="Calque 1"><rect width="640" height="300"/><path class="cls-1" d="M451,92.68c2.34-1.4,4.21-2.58,6.14-3.66.66-.36,1.68-.87,2.16-.61,2.6,1.38,5.29.1,7.9.5a23.91,23.91,0,0,0,3.57,0c.62-1.95,1.67-2.6,3.87-2.43,4.38.33,8.75.83,13.14.89,3.57.06,7.14-.5,10.72-.61,2.11-.07,4.25.42,6.36.28,2.68-.18,5.33-.74,8-1.15.12,0,.23-.17.36-.18a8.87,8.87,0,0,0,4.9-1.5c.79-.58,2.8.57,4.28.83,1,.17,2.21.57,2.88.15,2.6-1.64,5.46-1,8.21-1.36s5.21.47,7.81,1.17c2.89.78,6,1.55,9.05.21a5.91,5.91,0,0,1,3.15-.49c4.7.81,9.19-.78,13.79-1.11,1.54-.11,3-1,4.55-1.52,1.08-.37,2.36-1.36,3.12.22.6,1.24,1.3,2.87,1,4S574,88.61,573,89.72a8.35,8.35,0,0,0-1.37,1.58c-.49.94-.7,2-1.22,3-1.39,2.45-3.08,3.19-5.6,2.06a4.39,4.39,0,0,0-4.81.58c-2.89,2-2.94,1.92-5.92,0a13.81,13.81,0,0,1-2.27,1.81,5.84,5.84,0,0,1-2.2.28c-.39,0-.79-.11-1.17-.06-2.95.37-5.9.72-8.84,1.17-1,.16-2,.53-2,1.95-.19,3.79-.49,7.57-.75,11.35a5,5,0,0,1-.08,1q-1.79,6.37-3.62,12.72c-.77,2.67-1.9,5.3-2.24,8-.27,2.19.5,4.49.62,6.76a14.41,14.41,0,0,1-.34,4.27c-.83,3.26-2.16,6.41-2.73,9.7-1,5.55-3.85,10-7,14.46-1.9,2.66-3.45,5.36-3.14,8.87.12,1.32-.55,2.7-.87,4.06a7.38,7.38,0,0,0-.26.76c-.46,4-.86,7.93-1.4,11.88a29.43,29.43,0,0,1-1.16,4.63c-.69,2.25-2,4.36.26,6.65.56.56.38,3-.24,3.4-1.92,1.35-2.15,3.29-2.7,5.19q-1.41,4.86-2.89,9.69c-.43,1.4-1.09,2.75-1.42,4.17a21.3,21.3,0,0,0-.62,4.54,9.74,9.74,0,0,1-2.09,6.33c-.63.77-1.37,2-1.13,2.8.94,3-.23,5.31-1.72,7.82s-2.47,5.6-3.75,8.38a7.77,7.77,0,0,1-1.38,1.62c-.41-.68-1.17-1.34-1.18-2a81.13,81.13,0,0,1,.2-11.44c.74-5.83,1.36-11.56.29-17.44-.35-1.91.53-4.07,1-6.08s1.18-4.19,1.71-6.3,1-4,1.35-6.09c.53-3.54.71-7.13,1.4-10.63.43-2.19,1.6-4.22,2.29-6.36.4-1.24,1-2.73.61-3.85a15.49,15.49,0,0,1,.09-7.94c.81-3.84,2.35-7.52,3.31-11.34a42.46,42.46,0,0,0,.66-6.41c0-.33-.12-.75,0-1,3.07-4.77.81-10,1.32-15,.49-4.71.29-9.49.55-14.23a19.37,19.37,0,0,1,1-5.51c1.54-4.22.6-8.38-.06-12.52a12.08,12.08,0,0,1,1.17-8.37,4,4,0,0,0,.17-4.35,7,7,0,0,0-4.56-3.61c-1-.33-1.91-1-2.93-1.24a10.78,10.78,0,0,0-5.86-.17c-1.65.45-3.64-.34-5.48-.57-5.74-.72-11.51-1.33-17.23-2.2a8.55,8.55,0,0,0-5.91.9,1.66,1.66,0,0,1-1.35.15c-2.51-1.35-5.23-.68-7.84-1a29.88,29.88,0,0,1-5.24-1.65c-1.33-.43-2.68-.8-4-1.28A8.59,8.59,0,0,1,451,92.68Z"/><path class="cls-1" d="M432.31,172.37c1.75-.45,2.76-.35,3.34,1.15a2.48,2.48,0,0,0,1.73,1.22c3.15.41,3.75,3.49,5.68,5.11a67.58,67.58,0,0,0,7.72,5c.32.2,1,.08,1.11.33,1,1.67,3.13,1.43,4.38,2.4,2.66,2.07,5.74,1.56,8.63,2.11,1.31.25,2.65.32,4,.49,3.06.4,5.66,0,7.71-2.83,1.29-1.79,3.77-2.76,4.92-4.6s1.19-4.2,1.73-6.34c0-.06,0-.15.07-.18,2.48-1.82,1.94-4.1,1-6.44-.88-2.13-1.7-4.28-2.69-6.36a21.39,21.39,0,0,0-1.86-2.62c-1.43-2.11-3.59-2.42-5.9-2.76a7.31,7.31,0,0,1-3.94-2c-.78-.8-1.36-1.39-2.45-1.26a4.33,4.33,0,0,1-4.16-1.92,4.72,4.72,0,0,0-1.48-1.34c-3.81-1.91-5.71-5.44-7.65-8.92-2.84-5.13-4.93-10.68-5.14-16.44-.12-3.2,1.76-6.6,3.17-9.71,2.79-6.15,8.07-10.09,13.46-13.71,3.1-2.09,6.73-2.15,10.42-1.28,2.58.61,5.26.76,7.88,1.2a38.25,38.25,0,0,1,7.05,1.43c2.13.79,3.58,2.61,4.8,4.65A22.76,22.76,0,0,1,499,116c.84,4.23,2.05,8.42,1.06,12.77a3.22,3.22,0,0,1-1.43,2,6.28,6.28,0,0,1-8.21-3.22c-.93-2.17-1.62-4.45-2.52-6.64a4,4,0,0,0-3.68-2.62,4.55,4.55,0,0,1-2.29-.38c-3.15-2.37-6.38-1.95-9.6-.37-1,.49-2.59.75-2.35,2.55,0,.18-.28.52-.49.58-1.41.41-2.57,1-2.91,2.63a11.41,11.41,0,0,0,.89,8.14,5.18,5.18,0,0,0,3.76,2.91c1.47.3,2.72,1.58,4.17,2.18a10.72,10.72,0,0,0,4,1c2.15,0,4,.16,5.1,2.36.34.66,1.46.88,2,1.48.94,1,1.65,2.24,2.59,3.25a56,56,0,0,0,6.29,6.3c3.34,2.57,4.81,6.22,6.51,9.76s2.75,7.27,2.08,11.26c-.35,2.1-.89,4.16-1.3,6.25a19.86,19.86,0,0,0-.22,2.1,3.52,3.52,0,0,1-.08,1.18c-.86,1.7-2.06,3.29-2.62,5.08-.7,2.24-2.42,3.41-3.9,4.92-2.18,2.22-4.14,4.67-6.36,6.86a12.2,12.2,0,0,1-4.11,2.89,57.22,57.22,0,0,1-10.38,3c-2.2.35-4.57-.45-6.87-.71-1.52-.17-3.07-.16-4.57-.46a26.26,26.26,0,0,1-3.72-1.27c-.68-.25-1.37-.81-2-.76-4.65.34-8.22-1.8-11.09-5.08a62.76,62.76,0,0,1-4.55-6.77c-.32-.48-.66-1.24-1.07-1.3-4.15-.57-5.84-4-7.29-7C432.58,178.3,432.74,175.19,432.31,172.37Z"/><path class="cls-1" d="M359.79,181.65c1.52-1.88.56-3-1.15-3.93-1.44-.76-1.42-1.91-.92-3.25a14.8,14.8,0,0,0-.52-11.09c-.91-2.18-1.42-4.12-.71-6.35.34-1.07.66-2-.91-2.53-.59-.2-1-1.19-1.3-1.9-.77-2-1.33-4.06-2.14-6-1.51-3.68-.59-7.24.27-10.85.37-1.53.16-3.3.84-4.65,1.63-3.24.84-5.79-1.16-8.57-1.63-2.25-1.49-4.79.06-7.38.68-1.13.34-2.93.27-4.42s-.36-3.12-.59-4.68a24.94,24.94,0,0,0-.82-4.8c-.63-1.75-.9-3.27.13-5a7.34,7.34,0,0,0,.68-2.87,4.63,4.63,0,0,1,4.36-4.2,3.86,3.86,0,0,0,1.76-.68,4.94,4.94,0,0,1,4.54-.81c1.26.37,2.7.1,4,.26a6,6,0,0,1,2.77.78,4,4,0,0,0,3.89.61,54,54,0,0,1,10-2.1c2.53-.2,5.14.71,7.73.94,3,.27,5.94.27,8.91.5,1.65.13,3.27.58,4.92.74a38.58,38.58,0,0,0,4.77.11c4.48-.14,9.06-1,13.4-.31,3,.46,5.75.12,8.61.17,1.27,0,2.55,1.12,3.73,1.88a3,3,0,0,1-.79,1.81A34,34,0,0,1,429,96.27a25.26,25.26,0,0,1-5.21,1.44c-1.42.29-2.89.26-4.33.48-2.89.44-5.76,1-8.66,1.4-3.48.48-7,.54-10.44,1.34-2.52.59-5.46.56-7.34,3a2.49,2.49,0,0,1-2,.68,18.06,18.06,0,0,0-8.13,1.1,4.71,4.71,0,0,1-1.15.14c-2.77.2-5.55.3-8.3.63-1.41.17-1.9,1-2.25,2.67-.65,3.13-1.22,6.07,0,9.15.12.3-.3.77-.28,1.15a2.85,2.85,0,0,0,.46,1.59c.16.18.92-.18,1.41-.25a23.61,23.61,0,0,1,3.56-.43c2.6,0,5.2.16,7.79.39,1.37.12,2.7.57,4.06.79,2.29.38,4.59.69,6.88,1.07.42.07,1,.28,1.14.57a1.56,1.56,0,0,1-.37,1.26c-1.41,1.64-3,3.16-4.31,4.85s-3.28,1.61-5.22,1.78a65.17,65.17,0,0,0-7.79,1.4c-.34.07-.59.68-.83,1.06a3.08,3.08,0,0,1-3,1.67c-2.17-.08-4.86,3.1-4.77,5.29,0,1.18-.18,2.36-.24,3.54a5.45,5.45,0,0,0,0,2c1.4,4.1.87,11.06-1.13,14.79-1,1.94-2.06,3.82-.21,6,1.06,1.27.71,2.86.1,4.55-.51,1.41.13,3.21.2,4.84a34.66,34.66,0,0,1,.08,6.51c-.15,1-1.39,2.05-2.4,2.63-.43.25-1.55-.62-2.31-1.06C362.72,183.53,361.39,182.65,359.79,181.65Z"/><path class="cls-1" d="M171,94.36c-1.17-4.25-2.49-8.44-3.83-12.61-1.08-3.34-2.65-4.23-4.57-3-1.64,1-3.4,1.67-5,2.7-.45.28-6.87,2.05-8.1,2.52a10.72,10.72,0,0,1-5.69.91,7.32,7.32,0,0,0-7.42,2.76c-2.59,3-4.81,7.41-9.24,4.07-.52-.39-1.16-.08-1.95-.1-1.69-7.81-7-4.26-9.94-3.63a3.4,3.4,0,0,1-2.11-.26l-.61-1.26c-1.47-3-3-3.35-4.67-1.42l-.4.45h0c-.85.19-1.67.71-2.53.51-1.9-.44-6.79,3.78-8.64,4.13-2.8.52-4.87,2.3-6.48,5.58-2,4-3.41,9.37-8,7.59-.54-.21-1.09.35-1.82.62C77.24,96.52,66.25,116,63.58,117.78c-.82.54-.31,3.37.62,4.88a30.85,30.85,0,0,1,1.71,2.59c1.81,3.74,2.18,9.12,5.52,11.16.26.16.47.93.69,1.43,2.59,6.11,3.64,13.34,7,18.86a3.84,3.84,0,0,1,.44,1.26c1.19,6.95,5,11.71,7.16,17.84,1,2.84,2,5.72,2.73,8.66.55,2.07.49,4.45,1.18,6.37,1.63,4.6,3.93,8.84,5.23,13.54,1.92,6.92,5.33,11.7,8.42,17.07a20.33,20.33,0,0,1,2.38,6c1.35,7.05,5.17,12.8,6.06,20a2.47,2.47,0,0,0,.25.61c1.48,3.38,3,6.72,4.42,10.17.74,1.83,1,4.2,1.92,5.69a6.4,6.4,0,0,0,3.32,2.6c.45.16,1.4-1.51,1.28-2.28-.62-4-.18-7.94-1.88-11.92-.89-2.1-1.17-4.73-1.88-7-.54-1.77-1.35-3.39-2-5.12-.52-1.45-1.45-3.28-1.32-4.4.58-4.94-2.72-9.6-2.09-14.45.06-.47-.41-1.25-.59-1.91a4.25,4.25,0,0,1-.28-1.63c.8-2.31-.12-4.84-.36-7.36-.58-6.1-2.85-9.68-6.14-12.46a9.68,9.68,0,0,1-3.8-7.75c-.09-1.86-1.05-3.89-1.56-5.87-.71-2.77-1.81-5.66-2-8.34a25.42,25.42,0,0,0-3.76-12.23A17.24,17.24,0,0,1,93.83,154a7.81,7.81,0,0,0-.56-3.28,22.29,22.29,0,0,1-1.77-14.82c.4-2.06.45-4.28,1.74-5.38a3,3,0,0,0,.43-2c-.21-2.8.85-3.37,2.2-3.62,2.57-.48,5.1-.93,7.25-3.14a8.47,8.47,0,0,1,4.79-2.16c2.56-.45,3.75,1.25,4.55,5.56.22,1.21.73,2.36,1,3.57.69,3,2.21,6.72,1.82,9a20.32,20.32,0,0,0,3.37,15.74c3.23,4.67,3.79,9.85,3.74,15.38,0,3.1-.08,6.12,1.74,8.62,1,4.4,2.53,8.75,3.14,13.14A55,55,0,0,0,131.21,204c.79,3.89,1.54,7.79,2.38,11.66,1,4.79,2.33,9.51,3.36,14.3.5,2.33,1,4.67,1.5,7v0a87.9,87.9,0,0,0,3.14,11.21l.08.32c.5,2,.45,4.27,1.16,6a9,9,0,0,0,3,3.64c.44.31,1.65-.88,1.63-1.64,0-.29,0-.58,0-.86s.14-.73.18-1.09a4.35,4.35,0,0,0-.07-1.17c.2-2.75.5-5.47-.35-8.61-.62-2.28-.53-4.82-.93-7.22-.3-1.83-.9-3.64-1.29-5.47-.33-1.53-1-3.58-.73-4.56,1.29-4.36-1.43-9.9-.1-14.16.13-.41-.25-1.32-.33-2a3.93,3.93,0,0,1-.05-1.61c1.14-1.84.56-4.52.68-6.94A19.55,19.55,0,0,0,140,188.94c-.32-.41-.63-.83-.92-1.26a143.72,143.72,0,0,0-3.45-22,26.12,26.12,0,0,0-2.14-12.47,20.74,20.74,0,0,1-1.15-3.67c0-.11,0-.22,0-.33a19,19,0,0,0-.2-5.55c0-.16.05-.32.09-.49a7.28,7.28,0,0,0-.11-3.24,20,20,0,0,1,.29-14.38c.7-1.76,1.06-3.8,2.54-4.34.35-.13.67-1,.71-1.65.18-2.67,1.34-2.81,2.77-2.54,2.69.51,5.34,1,7.86-.22a8.26,8.26,0,0,1,5.2-.23c2.68.53,3.66,2.55,3.87,6.84.06,1.2.41,2.46.52,3.68.28,3.06,1.31,7,.6,9-1.93,5.28-1.36,10.44,1.22,15.83s2.49,10.53,1.66,15.63c-.52,3.18-1.05,6.25,1.14,9.64.45.7.4,2.33.52,3.52.17,1.76.22,3.51.44,5.27.47,3.79,1.17,7.6,1.51,11.37.52,5.9.76,11.77,1.24,17.67.39,4.82,1,9.68,1.42,14.5.71,9,1.09,18.08,4.71,26.7.39.92,1.26,2.36,1.52,2.24.57-.27,1-1.27,1.29-2.19a14.15,14.15,0,0,0,.06-2.58c.16-2.82.38-5.62.52-8.45.11-2.12.53-4.34.12-6.39a140.44,140.44,0,0,1-2.27-16.73,76.6,76.6,0,0,1,.85-21.18c2.35-11.35,1.82-23.64.43-36.37-.42-3.81-1.86-7.8-.5-11.55.76-2.08.6-5.39.51-8.23s-1.41-6.43-.81-8.18c1.1-3.22.63-6.82.37-10.11C171.56,115.25,172.15,98.7,171,94.36Z"/><path class="cls-1" d="M231,103.22c-1.56.68-5,4.23-6.65,4.18-.4,0-.92,0-1.16-.21-1.8-1.72-3-.64-4.07.84-2.18,3.13-5.23,2.26-8.2,1.95a9.07,9.07,0,0,0-9.86,7.74,19.46,19.46,0,0,1-.81,2.23c-.14.52-.31,1.29,0,1.6,1.52,1.84.74,3.33-.5,4.85-1,1.22-1.84,2.46-1,4.19.94,2.07,2.9,2.88,5.65,2.53,2-.26,4.15.05,6.16-.31,2.8-.5,5.49-.92,8.14.54a1.06,1.06,0,0,0,1-.13c2.26-2,4.74-.68,7.12-.48a2,2,0,0,1,1.4.85,1.52,1.52,0,0,1-.45,1.41,4.76,4.76,0,0,0-2.16,4.44,4.3,4.3,0,0,1-1.58,2.91c-2.24,1.8-4.47,3.78-7.77,3.26-2.34-.37-4.57-.2-6,2.15-.16.26-.62.61-.76.54-1.74-.85-2.37.81-3.52,1.36a8.35,8.35,0,0,1-3.93.41c-1.22-.07-2.52-1-3.21,1,1.41.94,1.72,2,1,3.79-.49,1.24,0,3,.37,4.44.44,1.94,1.37,3.79,1.65,5.75.16,1.14-.52,2.41-.83,3.63,3,2.05,3.54,4.5,1.71,7.57a5.86,5.86,0,0,0-.66,2.66c-.08,1.8,0,3.6.06,5.4.1,2.51.29,5,.38,7.54a4.74,4.74,0,0,1-.34,1.75c-.57,1.54.2,4.69,1.65,5.26a3.72,3.72,0,0,0,3-.4c2.3-1.62,4.77-1.48,7.33-1.36a13.18,13.18,0,0,0,4.57-.22c3.12-1,6-.36,8.89.65.88.31,1.52,1.38,2.23,2.14s1.43,2.11,2.42,2.64a3.3,3.3,0,0,1,1.92,3.6c-.16,1.61-1.44,1.83-2.66,1.84-1.55,0-3.09-.23-4.64-.28-.56,0-1.36,0-1.64.38-2.12,2.61-4.89,3.31-8.09,3.1a2,2,0,0,0-1.55.92c-1.76,3.49-4.6,5.11-8.42,5.62-1.61.22-3.11,1.3-4.6,2.1-.17.09-.11,1,.13,1.36,1.34,2,.39,3.64-.94,5.14-1.11,1.25-2.25,2.48-3.46,3.64-.91.88-1.94,1.65-2.75.49-1.21.4-2.63,1.31-3.12,1-1.71-1.24-4.21-2.25-4.14-4.79.11-3.68-.76-7.07-1.56-10.61-.61-2.71.39-5.88,1-8.76a8.69,8.69,0,0,0-.16-4.6c-1.23-4.43-2.17-9-3-13.5a71.31,71.31,0,0,1-.83-17.58,187.49,187.49,0,0,0-.1-22,22,22,0,0,0-2.08-7.23c-1-2.44-.43-4.86-.48-7.29,0-.33.19-.68.13-1-.94-5.18-2-10.35-2.82-15.55a4,4,0,0,1,.56-2.76c1.26-1.69.94-3.29.18-4.92-1.42-3.06-1.34-5.79,1.33-8.18.53-.47.66-1.41,1.2-1.83a32.48,32.48,0,0,1,5-3.35c.32-.17,1.39,1.12,1.81,1.49,1.33,0,3-.44,3.72.19,2.28,2,4.23.91,6.32,0,.36-.16.82-.51,1.08-.39,3.16,1.37,5.87-1,8.86-1,.85,0,1.71-.33,2.57-.38a6.88,6.88,0,0,0,4.44-1.82,5.26,5.26,0,0,1,3.88-.78,37.84,37.84,0,0,1,5.57,1.85,1.85,1.85,0,0,0,1.13,0,32.25,32.25,0,0,1,3.7-1.28c1.18-1.29-.18,4.95,1.88,5.65"/><path class="cls-1" d="M419.33,119.87c.12,1.42.21,2.46.28,3.5a4,4,0,0,1,0,1.79c-1.57,3.29-.48,6.81-.89,10.19-.14,1.18.84,2,2.32,1.8,3.9-.55,7.8-1.08,11.72-1.5,3.62-.39,7.26-.72,10.9-.9a38,38,0,0,1,5.17.46,4.17,4.17,0,0,1-1.13,4.06,88.84,88.84,0,0,1-10.48,7.91c-4.23,2.7-9.12,3-14,2.82-1.39-.06-2.78,0-4.36,0,.2,1.42.36,2.6.52,3.78a4.65,4.65,0,0,1,.14,1.59c-1.2,4.93-.18,10-1.25,15a60.21,60.21,0,0,0-.83,9.71c-.08,1.59.29,3.2.25,4.79-.07,2.61-.35,5.22-.46,7.83,0,.85.22,1.71.26,2.58.08,1.77.15,3.55.12,5.33,0,.65-.38,1.29-.44,1.95-.3,3.26-.55,6.52-.82,9.78l.52.36c.81-.57,1.62-1.14,2.44-1.7,1.8-1.21,3.64-2.35,5.38-3.64,1.57-1.16,3.11-1.72,4.68-.18a3.45,3.45,0,0,0,4.15.73c3.34-1.5,6.57-.22,9.87.09,3.06.28,6.37,1.34,8.94-1.64a2.13,2.13,0,0,1,2.92-.22,29.29,29.29,0,0,0,4.11,1.69c1.54-1.13,5.11-1.12,6.61.16,1.09.93.62,1.9-.34,2.47-2.35,1.4-4.81,2.61-7.16,4a5.89,5.89,0,0,0-2,2c-1,1.62-3.69,2.6-5.62,2.19-1.27-.27-3-.4-3.93.25-1.74,1.21-3.6,1.22-5.46,1.64a16.76,16.76,0,0,0-4.6,1.68,2.35,2.35,0,0,1-2.75.1c-1.64-1-5.12-.67-6.43.64a4,4,0,0,1-3.35,1.23c-1.56,0-3.24.87-4.71,1.65-1.91,1-3.66,2.36-5.51,3.52-2.37,1.48-4.76,2.91-7.14,4.36-1.26.77-2.52,1.54-3.76,2.33-2.31,1.46-3.5,1-4.11-1.61-.51-2.17-1-4.27.12-6.45a4.11,4.11,0,0,0,.14-2.38c-.9-5.2,0-10.38.08-15.56a24.15,24.15,0,0,0-.54-4.93,3.07,3.07,0,0,1,1.06-3.4,2.43,2.43,0,0,0,.89-3.34,28.19,28.19,0,0,0-3.62-.65,3.66,3.66,0,0,0-2,.58c-1.88,1.2-3.63,2.61-5.55,3.73-1.67,1-3,.2-4.25-1.14a3.12,3.12,0,0,0-1.71-.64,11.92,11.92,0,0,1-2.16-.15c-2-.8-3.48,0-5.28,1-2.26,1.35-5,1.95-7.6,2.66-1.86.51-3.84.58-5.71,1.06-.58.15-1,1-1.46,1.53-1.37,1.57-2.43,3.31-5,3.41-2.24.09-2.33-1.57-3.23-3-2.51,1.62-5.11,3.4-7.66,0-2.72,3.2-5.75,5.18-9.86,4.76-2.62-.26-2.82-.84-2.06-3.36a14.88,14.88,0,0,0,.12-4.59,14.69,14.69,0,0,0-.38-3.19,16.17,16.17,0,0,0-1.13-2.54c-.14-.3-.38-.62-.37-.91.23-3.8-1.31-7.52-.06-11.44.7-2.2,0-4.81.37-7.17.18-1.25,1.19-2.37,1.8-3.56.35-.69,1-1.46.9-2.11-.31-2.24-1-4.44-1.33-6.68-.43-2.75-.68-5.54-1-8.31a28,28,0,0,0-.26-2.8c-.91-4.16-2-8.29-2.8-12.46a59.43,59.43,0,0,1-.61-18.55c.41-3.59.85-7.19,1.08-10.79.07-1.07-.67-2.16-.77-3.26a27,27,0,0,1-.05-4.82c.14-1.71.8-3.4.78-5.09a133.05,133.05,0,0,0-.58-13.65,12.6,12.6,0,0,1,2.53-9,11.14,11.14,0,0,0,1-3.2c.32-1.11.68-2.22.94-3.34a6.26,6.26,0,0,0,.17-1.88c-.11-1.42-.48-2.83-.44-4.24.1-4.34.15-8.69.58-13a78.11,78.11,0,0,1,1.92-10.05c.29-1.23,1.45-1.25,2.15-.32a34.67,34.67,0,0,1,4.2,6.35c.64,1.42-.14,3.43.36,5s2.59,2.15,2.27,4.19c-.09.59.06,1.21,0,1.8-.54,4.85-1.16,9.69-1.61,14.55a13.21,13.21,0,0,0,.53,3.53c.28,1.49.6,3,.93,4.46a5.15,5.15,0,0,0,.56,1.85c1.88,2.63,1.43,5.56,1.11,8.44-.37,3.32-.9,6.62-1.33,9.93a1.26,1.26,0,0,0,.15.78c2.1,3.33,1,6.43-.72,9.45-.95,1.63-1.24,2.93.87,4,1.57.79,1.67,2.17.49,3.5a3.87,3.87,0,0,0-1,3.91,1.48,1.48,0,0,1,.12.79c-1.3,4-.47,8-.35,12,.07,2.46-.7,5-.39,7.39.67,5.31,1.86,10.54,2.7,15.83.7,4.4,1.21,8.83,1.83,13.25a4.7,4.7,0,0,0,.48,2.11c2.34,3.05.48,5.76-.67,8.46-.88,2.06-2.08,4-.12,6.05.27.29.2,1,.1,1.48-.27,1.3-.64,2.59-1,4.14a20.26,20.26,0,0,1,3.89-2.11,7.18,7.18,0,0,1,4-.1c2.92,1,3.55,1,5.4-1.22,1.57-1.91,3.7-1,5.6-1.36A8.09,8.09,0,0,0,369,189a7.4,7.4,0,0,1,5.37-1c1.31.3,2.8-.17,4.21-.32,1.23-.12,2.59-.68,3.66-.33,3.13,1,6.08.37,9.1-.29.91-.2,1.87-.15,2.8-.26a10,10,0,0,0,7-4.07c-2.31-2.69-2-3-.8-6.22a34.88,34.88,0,0,0,1.73-9.44c.19-2.89-.37-5.83-.42-8.75,0-.8.45-2.08,1-2.34,1.9-.81,1.14-1.8.47-2.84-.83-1.3-1.91-2.54-.35-4.14a2.91,2.91,0,0,1-1.62-3.77,1.21,1.21,0,0,0,0-.76c-1-2-.17-3.51,1.09-5a1.89,1.89,0,0,0,.23-1.6c-.91-2.29-2-4.51-2.91-6.81a6.75,6.75,0,0,1-.51-3c.48-4.51,1.05-9,1.7-13.49.24-1.71.35-3.68,1.28-5a7,7,0,0,1,4.14-2.18c.69-.14,1.68,1.13,2.54,1.77l-.3.51,2.32-.15c1-3,1.92-3.46,5-3.26,1.44.09,2.91-.29,4.35-.18,1.69.13,3.36.6,5,.84a9.46,9.46,0,0,0,3.28.22c4.34-1,8.61-2.3,13-3.15s8.71-1.27,13.08-1.77c.31,0,1.14,1,1,1.26-1.19,2.51-1.65,5.67-5.16,6.32-.33.06-.56.53-.88.75-1.29.89-2.6,1.74-3.9,2.62-1.64,1.11-3.21,2.32-4.9,3.35-3,1.85-6.08,3.57-9.86,3.43S423.47,119.87,419.33,119.87Z"/><path class="cls-1" d="M229.76,72.75a7,7,0,0,0-5.2-2.6c-1-.12-2.07-.57-3.12-.62a10.78,10.78,0,0,0-5.77,1c-1.52.78-3.63.41-5.48.56-5.77.47-11.53,1.05-17.31,1.37a8.55,8.55,0,0,0-5.6,2.09A1.66,1.66,0,0,1,186,75c-2.73-.81-5.26.4-7.88.61a29.88,29.88,0,0,1-5.46-.54c-1.39-.15-2.78-.23-4.16-.44a8.59,8.59,0,0,1-1.63-.54c2-1.85,3.59-3.39,5.26-4.83.57-.49,1.46-1.19,2-1,2.82.82,5.2-1,7.84-1.12a23.91,23.91,0,0,0,3.5-.7c.21-2,1.11-2.89,3.29-3.17,4.35-.57,8.74-1,13-1.81,3.5-.67,6.89-2,10.37-2.79,2.06-.5,4.25-.46,6.28-1,2.58-.72,5.06-1.81,7.59-2.75.12,0,.19-.21.31-.25a8.87,8.87,0,0,0,4.49-2.47c.66-.73,2.86,0,4.35-.06,1,0,2.28.11,2.85-.44,2.21-2.13,5.14-2.13,7.76-3s5.19-.61,7.89-.45c3,.17,6.17.3,8.91-1.64a5.91,5.91,0,0,1,3-1.13c4.77-.17,8.84-2.64,13.27-3.91,1.49-.42,2.76-1.6,4.14-2.42,1-.58,2-1.81,3.1-.42.84,1.1,1.86,2.54,1.76,3.75s-1.4,2.58-2.16,3.88a8.35,8.35,0,0,0-1,1.82c-.29,1-.26,2.14-.59,3.15-.86,2.69-2.36,3.75-5.06,3.16a4.39,4.39,0,0,0-4.59,1.55c-2.42,2.54-2.49,2.48-5.8,1.2a13.81,13.81,0,0,1-1.86,2.24,5.84,5.84,0,0,1-2.09.72c-.37.1-.79.06-1.15.18-2.81,1-5.63,1.91-8.41,3-1,.37-1.83.93-1.61,2.33"/><path class="cls-1" d="M228.58,59.91c-.47,4.35-.83,8.7-1.23,13.05a6.39,6.39,0,0,0-.09,1.15q.71,7.54,1.46,15.07c.31,3.17,1,6.34.88,9.5-.11,2.54-1.3,5-1.82,7.6a18.47,18.47,0,0,0-.41,4.92c.27,3.84,1.08,7.65,1.09,11.49,0,6.48,2.16,12.06,4.61,17.59,1.48,3.33,2.58,6.66,1.65,10.6-.35,1.48.08,3.17.17,4.76,0,.31.14.61.13.91-.22,4.59-.52,9.17-.66,13.76a37.17,37.17,0,0,0,.37,5.46c.31,2.67,1.29,5.29-1.44,7.54-.67.55-.91,3.32-.35,3.92,1.72,1.84,1.62,4.08,1.85,6.34q.58,5.76,1.25,11.5c.19,1.67.63,3.3.72,5a27.22,27.22,0,0,1-.17,5.27,12.11,12.11,0,0,0,1,7.55c.51,1,1,2.55.67,3.37-1.5,3.31-.7,6.09.38,9.18s1.54,6.77,2.36,10.14a8.78,8.78,0,0,0,1.13,2.07c.54-.7,1.43-1.35,1.56-2.12a104.25,104.25,0,0,0,1.81-13.07c.27-6.76.65-13.39,2.78-19.92.69-2.12.18-4.72.06-7.09s-.47-5-.64-7.45-.35-4.77-.31-7.15c.08-4.11.53-8.24.44-12.34-.05-2.56-.9-5.06-1.22-7.61-.19-1.48-.5-3.26.05-4.48a19.84,19.84,0,0,0,1.3-9.06c-.16-4.5-1.08-8.94-1.39-13.44a54.4,54.4,0,0,1,.45-7.41c0-.38.25-.83.14-1.13-2.29-5.92.94-11.55,1.29-17.33.33-5.45,1.38-10.86,1.94-16.31a24.62,24.62,0,0,0-.08-6.45c-.83-5.05.86-9.65,2.27-14.26,1-3.32,1.38-6.48.28-9.72a5,5,0,0,1,.59-5"/><path class="cls-1" d="M324.71,222.37c-1.24,1.23,1.38,4.69-2.93,4.61-.28,3.49-.51,7-.88,10.51a21.66,21.66,0,0,1-.92,3.68c-.08.27-.45.69-.57.66a2,2,0,0,1-.87-.63c-.55-.65-1-1.41-1.57-2a4.09,4.09,0,0,1-1.45-3.71,5.62,5.62,0,0,0-.72-2.83,9,9,0,0,1-.72-6.2,10.11,10.11,0,0,0,.05-3.95c-.6-3.86-2-7.71-1.91-11.55.13-7.69-2.27-15-2.47-22.62-.12-4.53.07-9.07,0-13.59a67.05,67.05,0,0,0-.76-6.74,34.08,34.08,0,0,0-.61-3.75,35.92,35.92,0,0,0-1.65-5.67,4.72,4.72,0,0,1-.09-4,14.17,14.17,0,0,0,1.05-3.77,33.47,33.47,0,0,0,0-10.31,12.36,12.36,0,0,0-1.31-3.56,12.61,12.61,0,0,1-1-9.17,24.15,24.15,0,0,0,.71-9.09,19,19,0,0,1,.13-3.19c0-.49.09-1.15-.18-1.45-1.27-1.4-1.11-3-.63-4.52.41-1.34-.12-2.25-.69-3.47A57.08,57.08,0,0,1,302,97.77a1.42,1.42,0,0,1,.38-1.09,4.26,4.26,0,0,0,.89-5c-2.08,0,15.52.49,16.87,2.25,3,4,2.72,8.51,2.06,13.09,0,.13,0,.32-.13.37-2.73,1.59-1.49,3.45-.88,5.75.77,2.91.49,6.11.68,9.18a9.5,9.5,0,0,0,.33,2.76c1.11,2.88.37,5.66-.22,8.47,0,.19-.24.45-.18.56,1.42,2.49,0,5,.16,7.51.13,1.81.57,3.6.76,5.42a2.94,2.94,0,0,1-.4,1.93c-1.91,2.48-1.44,5.47-2.13,8.2,3.41,1,4.17,3.41,2.2,6.21a2.93,2.93,0,0,0-.22,1.7,27.79,27.79,0,0,0,.38,4.24c.73,3.45-.24,6.66-1,9.95a12.67,12.67,0,0,0,.16,4,1.94,1.94,0,0,0,.52,1.24c2.88,2.28,2.53,5.74,3.24,8.79a6.92,6.92,0,0,1,.07,2.79,34.83,34.83,0,0,1-1.13,3.64c-.42,1.34-.88,2.68-1.18,4-.18.83,0,1.75-.15,2.59-.42,2.35.32,4,.8,6.28"/><path class="cls-1" d="M308.54,139.13c-.73-3.45.24-6.66,1-9.95a12.67,12.67,0,0,0-.16-4,1.94,1.94,0,0,0-.52-1.24c-2.88-2.28-2.53-5.74-3.24-8.79a6.92,6.92,0,0,1-.07-2.79,34.83,34.83,0,0,1,1.13-3.64c.42-1.34.88-2.68,1.18-4,.18-.83,0-1.75.15-2.59.42-2.35-.35-3.44-2.66-3.59-1.69-.11-3.39-.22-5.08-.36-.39,0-.92,0-1.15-.26-1.71-1.8-3-.79-4.11.64-2.33,3-5.34,2-8.28,1.55a9.07,9.07,0,0,0-10.23,7.25,19.46,19.46,0,0,1-.91,2.19c-.16.51-.37,1.27-.13,1.6,1.43,1.91.58,3.37-.73,4.82-1.05,1.17-2,2.37-1.25,4.13.84,2.11,2.76,3,5.52,2.8,2-.16,8.19.25,10.21,0,2.82-.36,1.49-.65,4.06.94a1.06,1.06,0,0,0,1-.08c2.35-1.88,12.84-.45,15.22-.13a2,2,0,0,1,1.35.91,1.52,1.52,0,0,1-.52,1.38c-1.64,1,1.73,2.36,1.66,4.33a4.3,4.3,0,0,1-1.72,2.83c-2.32,1.69-4.65,3.56-7.92,2.88-2.32-.49-8.6-.42-10.13,1.86a24.79,24.79,0,0,1-4.83.5c-1.7-.93-6.45.7-7.62,1.19a8.35,8.35,0,0,1-3.95.21c-1.21-.13-2.48-1.08-3.26.81,1.36,1,1.62,2.07.82,3.83-.55,1.22-.11,3,.15,4.45.35,2,1.18,3.86,1.36,5.82.11,1.15-.64,2.38-1,3.58,2.92,2.2,3.32,4.67,1.34,7.65a5.86,5.86,0,0,0-.79,2.63c-.16,1.79-.18,3.59-.2,5.39,0,2.52,0,5,0,7.55a4.74,4.74,0,0,1-.42,1.73c-.64,1.51-1.58,6.61-.91,7.4s-.65,7.61-1,7.95c-2.25,2.5,1.23,4.19,1,4.64-1.93,3.4.33,11-1.07,12.45-1.17,1.2-2.37,2.37-3.63,3.47-1,.84-2,1.55-2.77.36-1.23.34-2.69,1.18-3.16.8-1.65-1.33-4.1-2.45-3.9-5,.29-3.67-.42-7.1-1-10.68-.48-2.74.67-5.85,1.46-8.7a8.69,8.69,0,0,0,.07-4.6c-1-4.49-1.73-9.06-2.29-13.63a71.31,71.31,0,0,1,0-17.6,187.49,187.49,0,0,0,1-22,22,22,0,0,0-1.73-7.32c-.9-2.49-.2-4.87-.12-7.3,0-.33.22-.67.18-1-.69-5.22-1.45-10.43-2.06-15.67a4,4,0,0,1,.69-2.73c1.34-1.62,1.1-3.24.42-4.91C253.74,96,254,93.25,256.74,91c.55-.45.72-1.38,1.29-1.77a32.48,32.48,0,0,1,5.19-3.11c.33-.15,1.33,1.19,1.74,1.57,1.33.1,3-.29,3.71.37,2.17,2.13,4.18,1.12,6.32.29.36-.14.85-.46,1.1-.34,3.09,1.52,5.91-.76,8.9-.58.85.05,1.72-.25,2.58-.25a6.88,6.88,0,0,0,4.52-1.6A5.26,5.26,0,0,1,296,85a37.84,37.84,0,0,1,5.47,2.12,1.85,1.85,0,0,0,1.13.1,32.25,32.25,0,0,1,3.75-1.1c1.24-1.23,3.06-3.88,7.37-3.81.28-3.49.51-7,.88-10.51a21.66,21.66,0,0,1,.92-3.68c.08-.27.45-.69.57-.66a2,2,0,0,1,.87.63c.55.65,1,1.41,1.57,2A4.09,4.09,0,0,1,320,73.81a5.62,5.62,0,0,0,.72,2.83,9,9,0,0,1,.72,6.2,10.11,10.11,0,0,0-.05,3.95,58.43,58.43,0,0,1,.7,10.74c-.13,7.69-1,15-.76,22.62.12,4.53-.07,9.07,0,13.59a67.05,67.05,0,0,0,.76,6.74"/></g></g></svg>