<svg xmlns="http://www.w3.org/2000/svg" viewBox="0 0 300 300"><defs><style>.cls-1{fill:#1761a0;}.cls-2{fill:#fff;}.cls-3{fill:#cf1717;}</style></defs><title>norbers-meat</title><g id="Calque_2" data-name="Calque 2"><g id="Calque_2-2" data-name="Calque 2"><rect class="cls-1" width="300" height="300"/><circle class="cls-1" cx="150" cy="150" r="131.56"/><circle class="cls-2" cx="150" cy="150" r="123.28"/><circle class="cls-3" cx="150" cy="150" r="116.37"/><path class="cls-2" d="M65.17,110.06c13.12-17.27,29.7-33.84,41.44-41.44C128,52.74,148,75.53,148,75.53s7.6-6.22,2.76-15.19,10.36-20,20-13.12S177,60.33,177,60.33,190.17,55.5,193.62,70s-4.83,20-12.43,18c-10.36-6.22-19.34,2.76-19.34,2.76s29.7,17.27,5.53,49.73-22.79,28.32-37.29,37.29c-32.46,11.74-44.2-12.43-44.2-12.43s-7.6,3.45-2.76,12.43-2.76,16.58-2.76,16.58-7.6,9-19.34,0c-7.6-4.83-5.53-11.05-5.53-11.05s-15.88-.69-16.58-13.81,15.88-17.27,21.41-13.12,9.67,0,12.43-1.38C72.76,145.28,50.66,135.61,65.17,110.06Z"/><path class="cls-3" d="M108.68,90s-4.14,15.19-5.53,16.58S88,112.13,88,112.13s15.19-1.38,16.58,0,2.76,19.34,2.76,19.34,1.38-19.34,2.76-20.72,19.34-5.53,19.34-5.53-15.19,0-18-1.38S108.68,90,108.68,90Z"/><path class="cls-2" d="M184.65,164.62c4.14,8.29,16.58,6.91,9.67-6.91a39,39,0,0,1-5.53-24.86,23.27,23.27,0,0,1,5.53-11.05s1.38,18,12.43,20.72,22.1,15.19,15.19,38.68c6.91-6.91,19.34-4.14,19.34-4.14s-13.81,12.43-13.81,22.1c0,31.77-19.34,34.53-24.86,37.29-8.29,4.14-31.77,4.14-42.82-23.48-2.76-5.53-1.38-20.72,0-22.1,4.14,6.91,15,15.88,15,.69-.8-13.81-6.68-7.6-8.06-22.79,1.38-16.58,16.58-18,16.58-18S181.88,159.09,184.65,164.62Z"/><path class="cls-3" d="M190.17,190.86c13.81,0,16.58,15.19,16.58,15.19s4.14,19.34-9.67,19.34-13.81-5.53-13.81-12.43a11,11,0,0,1,5.53-9.67C192.93,201.91,194.32,192.24,190.17,190.86Z"/></g></g></svg>