<svg xmlns="http://www.w3.org/2000/svg" viewBox="0 0 150 150"><defs><style>.cls-1{fill:none;}.cls-2{fill:#ed5565;}.cls-3{fill:#97c671;}.cls-4{fill:#ffce54;}.cls-5{fill:#4fc1e9;}.cls-6{fill:#a4e9e9;}.cls-7{fill:#fff;}.cls-8{fill:#212121;}</style></defs><title>logo-ptl8</title><g id="Calque_2" data-name="Calque 2"><g id="Calque_1-2" data-name="Calque 1"><rect class="cls-1" width="150" height="150"/><polygon class="cls-2" points="74.78 40.17 109.38 52.4 142.41 37 74.78 19.28 7.52 37.18 39.8 52.22 74.78 40.17"/><polygon class="cls-3" points="62.11 65.31 36.56 53.34 11.22 62.06 36.35 76.31 62.11 65.31"/><polyline class="cls-3" points="137.18 62.29 112.48 53.52 87.28 65.31 112.76 76.31"/><polygon class="cls-4" points="39.8 52.22 65.1 64.04 74.78 59.94 84.43 64.08 109.38 52.4 74.78 40.17 39.8 52.22"/><polygon class="cls-5" points="33.71 77.44 13.82 85.9 74.78 130.44 135.9 86.28 115.39 77.44 74.82 100.71 33.71 77.44"/><polygon class="cls-6" points="62.11 65.31 36.35 76.31 74.78 98.1 112.76 76.31 87.28 65.31 74.68 71.2 62.11 65.31"/><polygon class="cls-7" points="65.1 64.04 74.78 68.59 84.43 64.08 74.78 59.94 65.1 64.04"/><path class="cls-8" d="M7.17,39.84q34.9-8.79,69.5-18.7c2.78-.8,1.6-5.14-1.2-4.34Q40.88,26.71,6,35.5c-2.81.71-1.62,5,1.2,4.34Z"/><path class="cls-8" d="M75.16,20.67C86.53,24,97.94,27.23,109.4,30.25c10.69,2.82,22.2,3.73,32.22,8.64,2.59,1.27,4.87-2.61,2.27-3.89-10-4.88-21-5.92-31.65-8.66-12-3.1-24-6.53-35.88-10-2.78-.82-4,3.53-1.2,4.34Z"/><path class="cls-8" d="M142.83,34.72c-12.37,3.93-23.41,11.67-35.43,16.62S83.44,60.61,72.24,67c-2.52,1.43-.25,5.32,2.27,3.89C85.89,64.39,98.2,60,110.26,55c11.43-4.75,22-12.19,33.76-15.93,2.75-.87,1.57-5.22-1.2-4.34Z"/><path class="cls-8" d="M75.26,68.31c-.6-3.91-9.1-6.15-12.16-7.53-5.93-2.67-12-5.06-18-7.53C32.42,48.07,20.84,40.78,8.25,35.55c-2.67-1.11-3.84,3.24-1.2,4.34,10.83,4.5,20.74,10.94,31.58,15.52,5.08,2.14,10.2,4.16,15.29,6.28,3.15,1.31,6.28,2.66,9.37,4.1,1.13.53,7.5,2.81,7.64,3.72.44,2.85,4.77,1.64,4.34-1.2Z"/><path class="cls-8" d="M11.34,64.19c8.1-3.91,16.19-7.67,24.94-9.89,2.81-.71,1.62-5.05-1.2-4.34-9.12,2.31-17.58,6.27-26,10.34-2.61,1.26-.33,5.14,2.27,3.89Z"/><path class="cls-8" d="M8.46,64,74.21,100.8c2.53,1.42,4.8-2.47,2.27-3.89L10.73,60.13C8.2,58.71,5.93,62.6,8.46,64Z"/><path class="cls-8" d="M76.91,101.05c10.9-6.14,20.75-13.77,31.44-20.23S130,69,141.15,63.6c2.6-1.27.32-5.15-2.27-3.89-11.1,5.41-22.23,10.83-32.8,17.22S85.53,91,74.63,97.17c-2.52,1.42-.26,5.31,2.27,3.89Z"/><path class="cls-8" d="M140.33,59.2a98.91,98.91,0,0,1-28.86-7.7c-2.63-1.15-4.92,2.73-2.27,3.89a106.21,106.21,0,0,0,31.13,8.32c2.87.32,2.85-4.19,0-4.5Z"/><path class="cls-8" d="M13.7,88.35A204.31,204.31,0,0,0,35,78.41c2.55-1.38.28-5.26-2.27-3.89A194.16,194.16,0,0,1,12.5,84c-2.66,1.06-1.5,5.41,1.2,4.34Z"/><path class="cls-8" d="M11.78,88.49c11.25,4.83,20.37,12.44,29.87,20l30.85,24.59c2.24,1.79,5.45-1.38,3.18-3.18L43.28,104.09C34,96.69,25,89.33,14,84.61c-2.63-1.13-4.93,2.75-2.27,3.89Z"/><path class="cls-8" d="M76.06,132.85c4.2-5.05,10.46-7.87,16-11.27s10.72-6.86,15.93-10.52A343.11,343.11,0,0,0,137.63,87.6c2.18-1.92-1-5.09-3.18-3.18a332.33,332.33,0,0,1-31.75,24.83q-7.87,5.4-16,10.34c-4.92,3-10,5.59-13.77,10.08-1.84,2.21,1.33,5.41,3.18,3.18Z"/><path class="cls-8" d="M136.88,83.53q-11.31-3.92-22.27-8.71c-2.63-1.15-4.92,2.73-2.27,3.89q11.5,5,23.35,9.16c2.74,1,3.92-3.39,1.2-4.34Z"/></g></g></svg>