<?xml version="1.0" encoding="UTF-8"?><svg id="b" xmlns="http://www.w3.org/2000/svg" viewBox="0 0 150 150"><g id="c"><rect width="150" height="150" style="fill:none;"/><g id="d"><path d="M132.6,85.09l-28.31-3.77,4.32-31.37,28.18,3.95-4.18,31.19ZM119.05,56.9l.06-2.12-.13-.09c-3.11-.06-6.23-.34-9.26-1.01l-.29,1.78,2.6.79c.1,1.24.13,2.35.01,3.59-.73,7.95-4.83,20.39,6.96,21.91,6.04.78,9.53-3.04,10.56-8.62.66-3.59.83-7.42,1.38-11.05.18-1.14.44-2.27.66-3.4l2.88.11.11-2.11c-2.87-.17-5.77-.27-8.55-1l-.32,1.98,2.6.68c.1.15.08,2.86.05,3.28-.24,3.75-1.14,7.73-1.49,11.5-.82,4.21-3.98,7.53-8.56,6.11-4.09-1.27-4.36-5.79-4.04-9.37.26-2.89.69-6.11,1.11-8.99.2-1.37.46-2.72.77-4.06l2.88.1h0Z" style="fill:#57b0e3;"/><path d="M66.84,84.21l-21.84,2.67-3.94-31.31,21.72-2.67,4.05,31.31h0ZM58.95,56.46c-4.07-.19-9.02-1.04-12.38,1.78-2.34,1.96-2.81,4.78-1.7,7.58,1.53,3.85,7.03,4.61,10.41,6.14,1.89.85,3.47,1.83,3.67,4.11.44,5.07-5.43,5.74-9.11,4.55-.64-1.26-.81-2.66-1.01-4.04l-2.43.1.24,5.59c1.24.67,3.05.98,4.48,1.07,5.36.33,12.49-1.66,11.6-8.37-.78-5.9-6.77-6.39-11.2-8.34-1.52-.67-3.31-1.73-3.55-3.56-.63-4.77,4.52-5.41,8.03-4.5.61,1.02.9,2.17,1.01,3.35.22.33,1.76-.1,2.17,0l-.22-5.44h0Z" style="fill:#ffde5d;"/><path d="M85.61,59.23c0,.05.12.22.09.46-.05.39-.28.56-.31.65-.69.09-3.21.48-3.21,1.39.08.54.72.77,1.19.91,1.63.48,4.13.28,5.8-.02,1.01-.18,2.08-.62,3.07-.71,5.98-.56,7.33,6.33,6.45,10.89-1.98,10.27-15.37,14.45-22.41,6.36-4.53-5.2-4.76-14.77,1.67-18.54,2.35-1.38,4.99-1.6,7.67-1.39h0ZM79.17,63.12c-.11-.11-1.15.86-1.28,1-2.9,3.14-3.19,8.56-.88,12.09l1.27,1.56c.22.02.06-.2.02-.3-.2-.55-.49-1.12-.66-1.67-1.26-4.19-.83-8.96,1.52-12.68h0ZM97.05,68.33c.07-3.56-3.28-5.77-6.55-4.44l2.28.44c1.99.69,3.1,1.94,4,3.78.08.16-.02.28.27.22Z" style="fill:#e22528;"/><path d="M85.61,59.23c.15-2.21.11-4.01-.28-6.22-.89-5.15-3.96-13.92-8.87-16.45-.43-.22-1.81-.65-2.03-.86-.49-.48.4-2.22.79-2.67.65-.73,1.17-.32,1.9.09.28.15.95.72,1.12.77.59.17,2-.03,2.74.04,3.36.29,6.97,2.43,9.71,4.29l7.36,5.69c.08-.08-.41-.67-.5-.78-.55-.64-1.51-1.47-2.17-2.05-3.24-2.89-6.9-5.38-10.89-7.11-.06-.23.8-.57,1-.66,3.55-1.62,7.57-1.42,10.87.67,4.11,2.6,6.59,8.37,8.2,12.78.11.31.81,2.13.69,2.25-3.28-.05-6.68-.15-9.91-.7-4.6-.78-9.26-2.66-10.98-7.35-.62-1.69-.81-3.48-.78-5.27-1.29-.23-2.56-.57-3.88-.56-.05.19.08.22.17.33.54.7,1.18,1.32,1.7,2.07,4.26,6.12,6.24,14.85,6.35,22.24,0,.52.05.35.11.67.08.39.3,1.49.17,1.78-.31.65-2.87.55-3.2-.14-.21-.45.14-.79.29-1.22.07-.19.04-.41.08-.53.03-.09.26-.26.31-.65.03-.24-.09-.41-.09-.46h0ZM74.61,35.36c.19.2.77-.76.83-.89.24-.45.42-.92.39-1.44-.74.5-1.03,1.5-1.22,2.33ZM98.72,44.69v-.33h-.11v.33h.11Z" style="fill:#478834;"/><path d="M87.94,59.79l1.89.94c-.58.06-1.19-.21-1.78-.28-.06-.31-.1-.15-.11-.67h0Z" style="fill:#e4342f;"/><path d="M119.05,56.9l-2.88-.1c-.32,1.34-.57,2.69-.77,4.06-.43,2.88-.85,6.1-1.11,8.99-.33,3.58-.05,8.1,4.04,9.37,4.58,1.42,7.74-1.89,8.56-6.11.35-3.77,1.26-7.75,1.49-11.5.03-.42.05-3.13-.05-3.28l-2.6-.68.32-1.98c2.78.73,5.69.83,8.55,1l-.11,2.11-2.88-.11c-.22,1.13-.48,2.25-.66,3.4-.56,3.63-.72,7.46-1.38,11.05-1.03,5.59-4.52,9.4-10.56,8.62-11.79-1.52-7.69-13.96-6.96-21.91.11-1.24.09-2.35-.01-3.59l-2.6-.79.29-1.78c3.04.68,6.15.96,9.26,1.01l.13.09-.06,2.12h0Z" style="fill:#fdfeff;"/><path d="M58.95,56.46l.22,5.44c-.41-.1-1.95.33-2.17,0-.11-1.18-.4-2.32-1.01-3.35-3.51-.92-8.65-.27-8.03,4.5.24,1.83,2.03,2.89,3.55,3.56,4.44,1.96,10.42,2.44,11.2,8.34.89,6.71-6.24,8.71-11.6,8.37-1.43-.09-3.24-.41-4.48-1.07l-.24-5.59,2.43-.1c.2,1.37.38,2.78,1.01,4.04,3.67,1.19,9.55.52,9.11-4.55-.2-2.28-1.78-3.25-3.67-4.11-3.38-1.53-8.89-2.28-10.41-6.14-1.11-2.8-.65-5.62,1.7-7.58,3.37-2.82,8.32-1.97,12.38-1.78h0Z" style="fill:#fffffd;"/></g><path d="M76.13,94.83l1.73,21.65-15.18,1.28-1.84-21.61,15.28-1.32h0ZM74.58,110.15v1.61c0,.06-.22.68-.3.73-.45.31-2.73.76-3.32.77-6.31.13-7.19-12.83-1.11-13.43.6-.06,2.71-.03,3.19.22.46.24.37,1.99.54,2.09l1.21-.03c.11-.08.1-.22.11-.33.06-.53.07-2.03,0-2.57-.02-.14,0-.22-.12-.33-.13-.12-1.86-.36-2.17-.39-6.78-.46-10.36,3.18-9.02,10.01,1.02,5.19,4.74,6.69,9.63,5.7.59-.12,2.52-.57,2.93-.85.09-.06.18-.1.15-.24l-.42-3.08-1.33.11h0Z" style="fill:#a574b0;"/><path d="M107.24,115.26l-13.22-.67,1.11-20.43,13.18.77-1.06,20.32h0ZM100.85,98.16h1.61l-.18-1.34-5.44-.11-.11,1.01,1.61.34.12,2.15c-.49,3.05-.13,6.64-.7,9.63-.04.19-.21.97-.3,1.04l-1.62.15.07,1.11c3.17.02,6.34.34,9.5.57.27.01.48-.04.58-.31.09-.25.47-2.68.48-2.98,0-.1,0-.2-.05-.28l-1.17-.21c-.12.49-.47,2.04-.97,2.19-1.46.16-2.9-.03-4.37-.09.03-.94-.04-1.89,0-2.84.09-2.26.27-4.73.45-6.99.08-.96.17-1.92.36-2.86l.14-.19h0Z" style="fill:#8ac05b;"/><path d="M60.14,96.83l-.22,20.21-13.56-.22.33-20.21,13.44.22h0ZM58.03,102.38v-3.16l-10.33-.39-.1,1.1,1.55.28c.09.06.18.74.2.91.26,2.67-.06,6.47-.21,9.2-.05.92.08,1.82-.27,2.73l-1.61.22c0,.21-.06,1.17.18,1.22l3.99-.12,6.34.24c.32-.28.46-3.09.49-3.68l-1.12.05c-.22.48-.37,1.97-.96,2.15-.23.07-.92.12-1.19.14-1.23.07-2.44-.15-3.66-.11-.45-2.01.09-4.07-.06-6.11.49-.01,3.82-.02,3.89.3l.11,1.37,1-.17.04-4.06-.92-.08c-.27,1.29.02,1.45-1.4,1.54-.87.06-1.75-.05-2.62-.12.02-1.85-.1-3.71.23-5.54l4.57.23c.41.17.6,1.42.64,1.86h1.22s0,0,0,0Z" style="fill:#43af67;"/><path d="M125.2,94.4l12.99.98-1.39,19.94-13.07-.94,1.47-19.97h0ZM133.91,101.04l1.27.12.56-3.12c-2.5-.83-5.81-1.97-8.12-.1-1.1.89-1.45,2.31-1.25,3.69.51,3.48,6.97,4.28,6.85,7.45-.11,3.1-3.82,2.95-5.78,1.69-.33-.84-.11-1.64-.11-2.5l-1.36-.23-.16.18-.55,3c0,.31,1.21.84,1.53.97,1.17.47,3.03.89,4.28.84,4.47-.19,6.14-4.84,2.66-7.77-1.69-1.43-5.9-2.81-4.99-5.55.57-1.74,2.47-1.69,3.94-1.28,1.65.46,1.15,1.13,1.23,2.6h0Z" style="fill:#516ab0;"/><path d="M109.69,114.48l-.84-19.44,13.4-.61.94,19.27c-.18.38-1.67.2-2.12.22-1.88.1-3.78.26-5.66.34-1.91.08-3.82.09-5.73.22h0ZM121.12,99.93l-.23-3.14-.16-.17-3.42.32-6.71.12-.12,1.1,1.64.25c.09.09.31,1.18.33,1.39.28,2.77.34,6.38.37,9.18,0,.75-.06,1.49-.21,2.22l-1.52.28.07,1.22,10.5-.55c.28-1.14.23-2.48.28-3.67h-1.21c-.2.65-.17,2.02-.87,2.3-.28.11-1.29.23-1.64.25-1.05.07-2.12-.11-3.16.11-.29-2.02-.29-4.06-.33-6.1l3.59-.1.41,1.42c.25.06,1.01.02,1.08-.28l-.27-3.94c-1.75-.63-.58,1.11-1.35,1.43-.5.07-3.35.41-3.53.15.05-.74-.37-5.15-.04-5.43l4.46-.1c.66.37.57,1.21.85,1.81l1.22-.07h0Z" style="fill:#f29255;"/><path d="M85.69,101.71c7.63-1.35,9.15,9.44,2.74,12.12-4.84,2.02-10.37-2.19-9.41-7.4.69-3.76,3.02-2.61,5.78-2.72.15,0,.3.01.44,0,.67-.06,1.37-.12,1.88-.62.15-.49-.88-.67-1.21-.6-.06-.25-.15-.39-.22-.78ZM89.13,103.6h-.22v.11h.22v-.11ZM90.13,110.7c1.29-1.45,1.24-3.85.35-5.52-.12-.21-.96-1.52-1.24-1.26.28.71.73,1.38.92,2.13.39,1.51.39,3.14-.03,4.64h0ZM82.8,104.49c-1.6-.38-3.09.88-2.89,2.55l.99-1.61.79-.54,1.1-.4Z" style="fill:#e32728;"/><path d="M37.12,103.28l.24,10.09-7.67.11-.17-10,7.6-.2ZM33.12,104.18c-.92.08-1.95.72-2.08,1.7-.37,2.78,3.52,2.61,3.85,4.23.25,1.23-.68,1.78-1.79,1.68s-1.21-.48-1.23-1.55l-.66-.09-.17.17c.04,1.37-.62,1.64.96,2.01,1.99.46,4.65,0,4.08-2.64-.36-1.68-3.54-2.08-3.82-3.29-.31-1.37,1.02-1.8,2.12-1.45.92.29.15,1.62,1.12,1.29.25-.08.27-1.37.24-1.66-.15-.21-2.27-.44-2.64-.41h0Z" style="fill:#eb5c5e;"/><path d="M20.92,112.7l.82-10.55,7.29.5-.72,10.51-.23.1-7.16-.56h0ZM27.92,104.15l-5.44-.33c-.16,1.1.87.24.89,1.39s-.23,2.62-.34,3.77c-.06.71.08,1.45-.25,2.14-.51.16-1.1-.08-.82.69l5.4.38c.16-.09.43-1.48.42-1.69-.01-.33-.43-.3-.65-.2l-.52,1.06c-.85-.03-1.73.11-2.54-.22l.17-3.01,1.83.21.11.68c.25.21.56.16.62-.17.04-.23.14-1.84.06-1.95l-.44-.11-.36.77-1.7-.1c-.04-.38.02-2.71.29-2.77,1.11.15,2.46-.3,2.59,1.18.15.12.67.05.67-.12v-1.61h0Z" style="fill:#5e3081;"/><path d="M11.81,103.04l8.73-.12.06,9.73-8.62.06-.16-9.67ZM12.47,111.92h3.83c.95,0,2.25-1.05,2.7-1.85.85-1.52.66-4.36-.77-5.52-1.62-1.32-3.24-.69-5.05-.62-.55.02-1.02-.48-.94.55.84-.09.92.05,1,.83.08.83-.02,1.81,0,2.67.01.56.36,2.92-.1,3.22l-.67.05v.67h0Z" style="fill:#fbbd5f;"/><path d="M85.69,101.71c.07.38.16.53.22.78.06.23.17.7.06.89l-.73.33c-.15.01-.3,0-.44,0-.76-.34-.45-.54-.33-1.11.09-.42,0-.33,0-.55-.11-3.31-2.49-9.44-5.62-10.98-.69-.34-2.1-.27-1.6-1.23,0,.02.2.23,0,.44.32.31,1.02-1.15.44-1.33.55-.33,1.7.54,2.16.89,3.34,2.55,5.07,7.9,5.84,11.88h0Z" style="fill:#498937;"/><path d="M77.69,88.94c.57.18-.12,1.64-.44,1.33.2-.21,0-.42,0-.44.03-.33.14-.7.44-.89h0Z" style="fill:#7ea35f;"/><path d="M84.47,102.6l-1.22.22c.29-.39.81-.55,1.22-.78,0,.22.09.13,0,.55h0Z" style="fill:#e4342f;"/><path d="M74.58,110.15l1.33-.11.42,3.08c.03.13-.06.18-.15.24-.42.28-2.35.73-2.93.85-4.89,1-8.62-.5-9.63-5.7-1.34-6.84,2.24-10.48,9.02-10.01.31.02,2.04.27,2.17.39.12.1.1.19.12.33.06.53.06,2.03,0,2.57-.01.12,0,.26-.11.33l-1.21.03c-.17-.11-.08-1.85-.54-2.09-.48-.25-2.59-.28-3.19-.22-6.08.6-5.2,13.56,1.11,13.43.59-.01,2.87-.46,3.32-.77.08-.05.3-.67.3-.73v-1.61h0Z" style="fill:#fcfbfd;"/><path d="M100.85,98.16l-.14.19c-.18.94-.28,1.9-.36,2.86-.18,2.26-.36,4.73-.45,6.99-.04.94.04,1.9,0,2.84,1.46.06,2.91.25,4.37.09.5-.15.85-1.7.97-2.19l1.17.21c.06.08.05.18.05.28,0,.3-.38,2.73-.48,2.98-.1.27-.31.32-.58.31-3.16-.22-6.33-.55-9.5-.57l-.07-1.11,1.62-.15c.09-.06.26-.85.3-1.04.57-2.99.2-6.58.7-9.63l-.12-2.15-1.61-.34.11-1.01,5.44.11.18,1.34h-1.61Z" style="fill:#fcfdfb;"/><path d="M58.03,102.38h-1.22c-.04-.44-.23-1.69-.64-1.86l-4.57-.23c-.34,1.82-.21,3.69-.23,5.54.86.07,1.74.18,2.62.12,1.42-.1,1.13-.26,1.4-1.54l.92.08-.04,4.06-1,.17-.11-1.37c-.07-.32-3.4-.31-3.89-.3.16,2.04-.39,4.1.06,6.11,1.22-.04,2.44.18,3.66.11.28-.02.97-.07,1.19-.14.59-.18.74-1.67.96-2.15l1.12-.05c-.03.59-.17,3.4-.49,3.68l-6.34-.24-3.99.12c-.24-.06-.19-1.01-.18-1.22l1.61-.22c.35-.91.22-1.8.27-2.73.16-2.73.47-6.52.21-9.2-.02-.17-.11-.85-.2-.91l-1.55-.28.1-1.1,10.33.39v3.16h0Z" style="fill:#fbfdfc;"/><path d="M133.91,101.04c-.08-1.47.42-2.14-1.23-2.6-1.47-.41-3.37-.46-3.94,1.28-.9,2.74,3.3,4.13,4.99,5.55,3.48,2.93,1.81,7.58-2.66,7.77-1.25.05-3.11-.37-4.28-.84-.32-.13-1.53-.66-1.53-.97l.55-3,.16-.18,1.36.23c0,.85-.21,1.66.11,2.5,1.96,1.26,5.67,1.41,5.78-1.69.11-3.17-6.34-3.97-6.85-7.45-.2-1.38.15-2.79,1.25-3.69,2.3-1.87,5.62-.73,8.12.1l-.56,3.12-1.27-.12h0Z" style="fill:#fafafd;"/><path d="M121.12,99.93l-1.22.07c-.28-.6-.18-1.44-.85-1.81l-4.46.1c-.34.29.09,4.7.04,5.43.18.26,3.04-.07,3.53-.15.77-.32-.39-2.06,1.35-1.43l.27,3.94c-.07.3-.83.34-1.08.28l-.41-1.42-3.59.1c.04,2.03.05,4.08.33,6.1,1.04-.21,2.11-.04,3.16-.11.35-.02,1.36-.14,1.64-.25.7-.28.68-1.66.87-2.29h1.21c-.04,1.18,0,2.52-.28,3.65l-10.5.55-.07-1.22,1.52-.28c.15-.73.22-1.47.21-2.22-.03-2.8-.09-6.41-.37-9.18-.02-.21-.24-1.3-.33-1.39l-1.64-.25.12-1.1,6.71-.12,3.42-.32.16.17.23,3.14h0Z" style="fill:#fefcfb;"/><path d="M33.12,104.18c.37-.03,2.49.2,2.64.41.02.29,0,1.58-.24,1.66-.98.32-.2-1-1.12-1.29-1.09-.35-2.43.08-2.12,1.45.28,1.21,3.46,1.61,3.82,3.29.56,2.64-2.09,3.09-4.08,2.64-1.58-.36-.92-.63-.96-2.01l.17-.17.66.09c.02,1.07.07,1.45,1.23,1.55s2.05-.45,1.79-1.68c-.33-1.62-4.22-1.45-3.85-4.23.13-.98,1.16-1.62,2.08-1.7h0Z" style="fill:#fef7f6;"/><path d="M27.92,104.15v1.61c0,.16-.52.24-.67.12-.13-1.48-1.48-1.03-2.59-1.18-.27.06-.33,2.4-.29,2.77l1.7.1.36-.77.44.11c.07.11-.02,1.72-.06,1.95-.06.34-.37.38-.62.17l-.11-.68-1.83-.21-.17,3.01c.81.33,1.69.19,2.54.22l.52-1.06c.22-.1.64-.13.65.2,0,.22-.27,1.6-.42,1.69l-5.4-.38c-.28-.78.3-.54.82-.69.33-.69.18-1.43.25-2.14.1-1.15.36-2.66.34-3.77s-1.05-.3-.89-1.39l5.44.33h0Z" style="fill:#f2eef5;"/><path d="M12.47,111.92v-.67l.67-.05c.46-.3.12-2.66.1-3.22-.02-.85.09-1.84,0-2.67-.08-.78-.16-.92-1-.83-.08-1.03.39-.53.94-.55,1.81-.07,3.43-.71,5.05.62,1.42,1.16,1.61,4,.77,5.52-.45.81-1.75,1.85-2.7,1.85h-3.83,0ZM14.36,104.49l.13,6.59c.13.4,1.78.1,2.16-.03,1.96-.7,2.16-4.04,1.1-5.55-.87-1.24-2.03-1.1-3.38-1.01Z" style="fill:#fefcf7;"/><path d="M14.36,104.49c1.35-.09,2.51-.24,3.38,1.01,1.06,1.51.86,4.85-1.1,5.55-.37.13-2.03.44-2.16.03l-.13-6.59Z" style="fill:#fbbd5f;"/><path d="M13.65,84.79l-1.12-15.63,10.78-.73,1.05,15.61-10.72.76h0ZM19.08,70.48c-.11-.12-1.83.21-2.16.23-.63.04-1.54-.11-2.12,0-.13.02-.22.04-.26.18l-.02.82,1.34.18c.41,2,.36,4.06.43,6.1,0,.26.11.51.12.77.02.75.11,2.35,0,3-.09.5-.95.36-1.32.51-.02.25-.11.77.17.86l7.82-.37c.43-.21.1-2.12.34-2.66l-.05-.18-1.06-.1c-.02.44-.13,1.62-.56,1.83-.29.14-3.31.39-3.44.27-.38-3.21-.4-6.47-.56-9.71l.14-.47,1.26-.25-.06-1h0Z" style="fill:#e63824;"/><path d="M25.93,69.06l10.55.64-.83,15.17-10.62-.61.91-15.2ZM34.84,71.05l-8.2-.46v.88s1.21.24,1.21.24c.12.64.14,1.27.12,1.93-.04,2.03-.22,4.75-.44,6.77-.03.28-.2,1.53-.4,1.6l-1.25.14.09.83,8.4.39.38-2.78-.88-.11-.62,1.66c-1.26.48-2.82,0-4.16,0l.22-4.88c1.01-.03,2.02.02,3,.27.27.21-.08,1.05.29,1.16,1.01.29.69-1.57.7-2.16,0-.26.26-1.02.05-1.17l-.7-.09-.31,1.1c-.37.14-2.8.03-2.9-.13-.07-.54.12-4.27.33-4.41.7.08,1.45.03,2.15.1.32.03,1.31.13,1.53.22.26.12.47,1.25.42,1.55h1c-.12-.42.2-2.51-.02-2.65h0Z" style="fill:#39bcdb;"/><path d="M19.08,70.48l.06,1-1.26.25-.14.47c.16,3.24.18,6.5.56,9.71.12.12,3.14-.13,3.44-.27.43-.21.53-1.39.56-1.83l1.06.1.05.18c-.24.54.09,2.45-.34,2.66l-7.82.37c-.28-.09-.19-.61-.17-.86.37-.15,1.23-.01,1.32-.51.12-.65.03-2.25,0-3,0-.26-.11-.51-.12-.77-.07-2.03-.02-4.1-.43-6.1l-1.34-.18.02-.82c.04-.14.14-.16.26-.18.57-.11,1.48.04,2.12,0,.33-.02,2.05-.34,2.16-.23h0Z" style="fill:#fef7f6;"/><path d="M34.84,71.05c.22.14-.1,2.23.02,2.65h-1c.05-.31-.15-1.43-.42-1.55-.21-.1-1.21-.19-1.53-.22-.7-.07-1.45-.02-2.15-.1-.22.14-.4,3.87-.33,4.41.1.16,2.53.26,2.9.13l.31-1.1.7.09c.21.15-.04.92-.05,1.17-.02.6.3,2.45-.7,2.16-.37-.11-.02-.95-.29-1.16-.98-.25-2-.3-3-.27l-.22,4.88c1.34-.01,2.91.48,4.16,0l.62-1.66.88.11-.38,2.78-8.4-.39-.09-.83,1.25-.14c.21-.07.37-1.31.4-1.6.23-2.02.4-4.74.44-6.77.01-.65,0-1.28-.12-1.93l-1.2-.24v-.88s8.2.46,8.2.46h0Z" style="fill:#fbfdfe;"/></g></svg>