<svg xmlns="http://www.w3.org/2000/svg" viewBox="0 0 150 150"><defs><style>.cls-1{fill:#fff;}.cls-2{fill:#57312f;}.cls-3{fill:#9d632e;}.cls-4{fill:#cd9b5b;}</style></defs><title>team-cuyz</title><g id="Calque_2" data-name="Calque 2"><g id="Calque_1-2" data-name="Calque 1"><rect class="cls-1" width="150" height="150"/><path class="cls-2" d="M114.36,109.88l-13.16-2.83a1.31,1.31,0,1,1,.55-2.57l13.73,3A1.86,1.86,0,0,1,114.36,109.88Z"/><path class="cls-2" d="M70.95,109.41A1.31,1.31,0,0,1,70,109c-1.26-1.26-3.82-3.4-3.85-3.42a1.31,1.31,0,0,1,1.68-2c.11.09,2.69,2.24,4,3.58a1.31,1.31,0,0,1-.93,2.24Z"/><path class="cls-2" d="M92.9,72.94a6.38,6.38,0,0,1-2.58-5.56c0-3.42,2.14-6.08,4.77-6s4.66,2.74,4.62,6.17-2.14,6.08-4.77,6.05A3.87,3.87,0,0,1,92.9,72.94Zm2.81-8.77a1.25,1.25,0,0,0-.65-.21c-1,0-2.09,1.41-2.11,3.46h0c0,2.05,1,3.5,2,3.51s2.09-1.41,2.11-3.46A3.86,3.86,0,0,0,95.71,64.17Z"/><path class="cls-2" d="M78.75,109.41a1.31,1.31,0,0,1-.93-2.24c1.34-1.34,3.92-3.49,4-3.58a1.31,1.31,0,0,1,1.68,2s-2.6,2.17-3.85,3.42A1.31,1.31,0,0,1,78.75,109.41Z"/><path class="cls-3" d="M125.79,83.71c-.88-5.6-6.47-14.75-6.47-14.75-1.67-2.56-10.19-15.8-13.74-25.07C99.86,29,90.06,22.2,74.78,22.62c-.72,0-1.63.52-1.63,2.27a1.84,1.84,0,0,0,1.75,1.74c14.23-.39,21.81,4.79,27.15,18.72,3.56,9.28,11.15,22.16,13.51,25.78,0,0,5.35,8.19,6.13,13.47C121.79,85.22,125.87,84.22,125.79,83.71Z"/><path class="cls-4" d="M122.38,92.77c-1,16.84-13.22,28-29.86,28-4,.1-11.08-.71-15.45-4.53v-3.5c0-.73-1.46-1.53-2.19-1.53a1.31,1.31,0,0,0-1.31,1.31s0,4.27.06,4.39c2.32,7.62,18.92,8,19,8a33.69,33.69,0,0,0,33.82-32.47C126.45,92,122.42,92.17,122.38,92.77Z"/><path class="cls-2" d="M140.51,82.54a1.31,1.31,0,0,0-1.7-.75L126.58,86.5h0L96.8,98a1.31,1.31,0,1,0,.94,2.45l28.76-11.08h0l13.25-5.11A1.31,1.31,0,0,0,140.51,82.54Z"/><path class="cls-4" d="M27.57,92.2c2.93,17.18,13.1,27.78,29.34,28.48,6,.26,10.56.65,15.35-3.91v-4.35c0-.73,1.94-1.19,2.67-1.19s1.72.52,1.72,1.24c0,0-.23,4.4-.27,4.52-2.46,8.69-19.12,8-19.18,8-18.17,0-33-14.74-33.88-33.19C23.3,91.25,27.34,90.55,27.57,92.2Z"/><path class="cls-2" d="M144.25,116.27a1.32,1.32,0,0,1-.28,0l-21.58-4.64c-.48-1.72,1.66-2.33,1.66-2.33l20.47,4.4a1.31,1.31,0,0,1-.27,2.6Z"/><path class="cls-3" d="M123.62,30.71c-9-11.83-15.19,6.24-24.14,2.24l2,4.45c7.36,1.78,13.11-12.26,19.52-3.63,6.16,8.29-8,17.68-12.14,21.15l2.74,4.41S132.57,42.55,123.62,30.71Z"/><path class="cls-2" d="M54.87,73.55c-2.63,0-4.73-2.62-4.77-6.05s2-6.14,4.62-6.17,4.73,2.63,4.77,6a6.38,6.38,0,0,1-2.58,5.56A3.87,3.87,0,0,1,54.87,73.55Zm-2.15-6.08c0,2.05,1.14,3.47,2.11,3.46s2.05-1.46,2-3.51h0c0-2.05-1.14-3.47-2.11-3.46a1.25,1.25,0,0,0-.65.21A3.86,3.86,0,0,0,52.72,67.46Z"/><path class="cls-3" d="M26.19,30.71c8.18-10.81,14.09,3.34,21.88,2.81a1.3,1.3,0,0,1,1.25,1.81l-.49,1.15a1.32,1.32,0,0,1-1.08.8c-7,.66-12.29-11.95-18.47-3.64-5.81,7.82,5.38,17,10.16,20.93a1.3,1.3,0,0,1,.34,1.57L39,57.81a1.3,1.3,0,0,1-2,.41C32.51,54.29,18.61,40.73,26.19,30.71Z"/></g></g></svg>