<svg xmlns="http://www.w3.org/2000/svg" viewBox="0 0 163.44 78.62">
  <path d="M163.11,56.15c-.67-3.32-2.41-6.1-5.09-8.04-.27-.2-.57-.4-.84-.6.17-.4.3-.77.44-1.21.9-2.78,1.17-5.63.84-8.48-.23-2.75-1.01-5.16-2.35-7.21.54-.64,1.01-1.34,1.44-2.11,1.64-2.88,2.25-6.17,1.81-9.52-.5-4.39-2.55-7.07-4.16-8.58-1.78-1.64-3.92-2.85-6.37-3.55-1.47-.44-3.02-.77-4.63-.97-1.04-.17-2.38-.34-4.02-.57-1.84-.27-3.82-.47-5.9-.64-2.35-.17-4.66-.13-6.87.1-2.82.3-5.4,1.04-7.64,2.18-1.58.8-2.95,1.84-4.09,3.08-2.21-1.88-4.76-3.39-7.54-4.46-3.25-1.27-6.7-2.15-10.29-2.61-3.32-.44-6.5-.57-9.45-.47-3.42.1-6.4.9-8.85,2.41-1.44-1.54-3.22-2.71-5.33-3.55-1.78-.7-3.62-1.14-5.46-1.27-2.01-.17-3.79-.07-5.43.37h-.1c-3.02.84-5.73,2.45-8.08,4.79-2.15,2.15-3.75,4.63-4.76,7.41-1.21,3.28-1.37,6.77-.47,10.06v.17c.67,2.08,1.47,3.75,2.41,5.13-.23.64-.47,1.31-.64,1.98-.07.27-.13.57-.2.84l-.27-.8c-.5-1.47-1.01-3.12-1.58-4.83-.7-2.25-1.58-4.42-2.58-6.47-1.41-2.85-3.32-5.23-5.66-7.07-2.95-2.31-6.67-3.45-10.76-3.32-7.47.2-12.03,3.28-14.51,5.8-2.98,2.98-5.23,6.8-6.67,11.33-1.27,3.85-2.48,7.78-3.65,11.66-1.17,3.96-2.28,7.98-3.25,11.97-.34,1.37-.74,2.92-1.21,4.63-.64,2.28-1.07,4.63-1.27,6.94v.07c-.3,3.42.27,6.57,1.64,9.42v.1c1.31,2.55,3.99,5.9,9.59,7.51,1.78.5,3.59.77,5.43.77.87,0,1.78-.07,2.65-.17h.07c3.79-.54,7.04-2.35,9.42-5.23,1.71-2.04,2.78-4.63,3.28-7.61h.17v.2c.6,2.04,1.44,3.89,2.45,5.43l.07.07c3.55,5.23,8.11,6.3,10.49,6.47,2.48.17,6.23-.27,10.22-3.28,1.31,1.24,2.78,2.25,4.42,2.98h.07c1.78.8,3.62,1.21,5.5,1.21,2.85,0,5.7-.9,8.28-2.71l.2-.13c.74-.54,1.37-1.11,1.98-1.74.54.57,1.14,1.11,1.78,1.61h.03c1.81,1.44,4.73,2.95,8.95,2.95s1.54-.03,2.38-.17h.07c4.66-.64,7.47-2.92,9.05-4.76,1.74-2.04,2.95-4.46,3.59-7.17.47-1.94.7-3.96.74-6,0-1.47.03-2.82.03-4.02s0-2.45.03-3.85c0-.5.03-.97.13-1.41.1-.03.23-.07.37-.1,2.55-.74,4.83-1.74,6.77-2.95.3-.17.57-.37.87-.57,0,.6-.07,1.24-.1,1.84l-.3,6.67c-.03,1.04-.13,2.25-.23,3.55v.07c-.17,2.08-.07,4.12.23,6.1v.1c.54,3.12,2.01,5.97,4.26,8.21l.2.2c2.08,1.94,4.49,3.25,7.24,3.82h.1c1.44.3,2.88.47,4.36.47s.97,0,1.44-.03c1.01-.07,1.94-.1,2.78-.1h.37c2.31-.1,4.66-.17,6.97-.2,2.48,0,5.03-.1,7.57-.23,2.88-.13,5.5-.67,7.81-1.51,2.68-1.01,6.33-3.32,8.51-8.71l.13-.34c.54-1.47.9-3.15,1.14-4.93.27-2.15.2-4.29-.23-6.4l.07.03v-.05Z" style="fill: #fff;"/>
  <path d="M10.1,66.74c-.74-1.17-1.11-2.65-1.11-4.42s.54-4.96,1.64-8.65l.64-2.35c1.58-6.57,3.79-14.21,6.7-22.96,1.14-3.42,2.71-6.1,4.76-8.01,2.04-1.91,4.76-2.92,8.18-3.02,2.15-.07,3.89.54,5.26,1.71,1.37,1.21,2.45,2.61,3.18,4.29s1.58,3.89,2.45,6.64l.94,3.05,9.12,25.67c.64,1.71.94,3.05.94,3.99,0,1.71-.8,3.22-2.41,4.52-1.41,1.11-2.71,1.64-3.99,1.64s-2.98-.87-4.12-2.58c-.4-.5-.77-1.24-1.04-2.18-.3-.94-.47-1.51-.5-1.71-.4-1.31-.8-2.38-1.17-3.18-.37-.84-.8-1.47-1.34-1.94-.1-.1-1.17-.23-3.18-.4-2.04-.17-3.89-.23-5.63-.23s-3.42.13-3.75.4c-.54.47-.9,1.11-1.17,1.94s-.54,1.94-.77,3.35c-.27,1.34-.5,2.45-.74,3.25s-.57,1.47-.97,1.98c-1.14,1.44-2.85,2.18-5.16,2.18s-2.11-.17-3.05-.47c-1.78-.54-3.02-1.37-3.75-2.55l.07.03h-.03ZM33.53,45.15c-1.11-3.22-1.78-5.3-2.04-6.23l-2.18,7.04,4.22-.77v-.03h0Z" style="fill: #fe9191;"/>
  <path d="M58.33,18.54c0-2.04.7-3.96,2.15-5.76,1.44-1.81,3.15-3.02,5.13-3.59.5-.1,1.01-.17,1.47-.17,1.58,0,3.08.34,4.52,1.04s2.18,1.68,2.18,2.92-.07.44-.17.87c.2.57.3,1.21.3,1.88,0,1.58-.5,3.08-1.47,4.56s-2.25,2.68-3.75,3.62-3.02,1.41-4.52,1.41-2.45-.4-3.42-1.17c-1.01-.77-1.71-2.01-2.18-3.65-.17-.64-.23-1.27-.23-1.94h0v-.02ZM65.67,69.72c-1.14,0-2.21-.37-3.15-1.14-.97-.74-1.74-1.74-2.38-2.92-1.21-2.61-1.81-6.2-1.81-10.86s.23-5.97.7-10.99c.1-.67.2-1.81.3-3.42l.17-1.64c.17-2.35.4-4.32.74-5.93.34-1.61.94-2.88,1.84-3.82,1.04-1.11,2.21-1.64,3.52-1.64s2.45.44,3.55,1.34c1.11.87,1.98,1.98,2.61,3.28,1.51,3.32,2.28,7.47,2.28,12.4s-.67,10.36-2.04,17.03c-.07.3-.2,1.04-.44,2.18-.23,1.14-.57,2.15-1.01,3.02s-1.04,1.54-1.74,2.08c-1.04.74-2.08,1.11-3.12,1.11l-.03-.07h0Z" style="fill: #f0bf60;"/>
  <path d="M80.86,65.33c-1.07-2.95-1.51-6.17-1.37-9.72.2-4.16.3-8.88.3-14.11.1-6.23.23-10.93.4-14.04.07-.57.07-1.41.07-2.51.1-2.92.3-5.23.64-6.97.3-1.74,1.07-3.22,2.28-4.46,1.21-1.21,3.05-1.88,5.53-1.98,6.4-.2,12.17.77,17.29,2.88,5.13,2.15,8.01,5.97,8.71,11.46.07.3.07.77.07,1.41,0,2.71-.87,5.16-2.65,7.41s-4.06,4.22-6.87,5.93c-.57.37-1.31.7-2.18,1.04s-1.44.57-1.71.67-.97.37-2.11.8c-1.14.44-2.08.97-2.82,1.61-1.11.94-1.81,2.21-2.15,3.79s-.5,3.49-.5,5.66v2.35c0,2.75-.07,4.93-.23,6.57-.17,1.61-.74,3.12-1.71,4.52-1.01,1.41-2.61,2.11-4.83,2.11s-5.06-1.47-6.13-4.42h-.03ZM102.61,29.23c0-1.34-.34-2.68-1.04-3.99s-1.64-2.28-2.78-2.88c-.74-.37-1.34-.54-1.88-.54-1.41,0-2.11,1.44-2.11,4.36l.07,2.82c.07.54.07,1.21.07,2.04-.1,1.34-.17,2.21-.17,2.58,0,.74.1,1.27.34,1.61s.64.5,1.21.5,1.11-.13,2.04-.4c2.82-.94,4.22-2.95,4.22-6.1h.03,0Z" style="fill: #e09d94;"/>
  <path d="M129.05,69.65l-2.04.07c-2.75,0-4.76-.64-6-1.88-1.31-1.31-1.94-3.32-1.94-6.1s.07-1.98.17-3.42c.1-.84.17-1.44.17-1.81l.64-13.34c.3-6.97.54-12.2.64-15.69.07-.64.07-1.17.03-1.68,0-.5-.03-.94-.03-1.27v-1.64c0-2.18.2-3.85.64-4.99.97-2.85,4.36-4.29,10.16-4.29s3.89.13,6.03.4c2.15.27,3.99.54,5.5.77,1.68.27,3.02.57,4.02.9,1,.33,1.88.94,2.58,1.81.7.87,1.04,2.08,1.04,3.62s-.34,2.45-1.01,3.49c-.67,1.01-1.61,1.74-2.82,2.21-.64.27-1.41.4-2.35.4s-1.58-.1-2.82-.3c-1.14-.2-2.04-.3-2.65-.3s-.87.07-1.47.17c-.67.1-1.34.54-1.94,1.34-.64.77-.94,1.61-.94,2.51s.4,1.61,1.17,2.18c.64.4,1.58.64,2.88.64s1.37-.07,2.41-.17l2.41-.07c.94,0,1.68.1,2.28.3,1.31.54,2.25,1.17,2.82,1.98s.9,1.91,1.01,3.32c.07.3.07.8.07,1.47,0,1.58-.3,2.95-.94,4.19-.64,1.21-1.61,2.04-2.95,2.45-.54.1-.97.17-1.34.17s-1.01-.07-1.61-.17-1.04-.17-1.27-.23c-1.04-.27-2.01-.4-2.88-.4s-2.15.34-2.82,1.01c-.87.84-1.34,1.64-1.34,2.41,0,1.21.87,2.18,2.58,2.95s3.35,1.21,4.93,1.34c.57.07,1.11.07,1.58.03.47,0,.87-.03,1.17-.03.47-.07,1.17-.07,2.11-.07,2.61,0,4.56.47,5.87,1.41,1.24,1.01,1.88,2.58,1.88,4.76s-.27,3.15-.77,4.46c-.74,1.78-1.74,2.95-3.05,3.55-1.31.6-3.12.97-5.46,1.14-1.61.1-3.02.17-4.22.2-1.21,0-2.18.03-2.95.03-1.61,0-4.02.07-7.27.17-.77,0-1.37,0-1.81.07l-.07-.07h-.03Z" style="fill: #9bbdd6;"/>
</svg>