<svg xmlns="http://www.w3.org/2000/svg" viewBox="0 0 120 120"><path d="M43.1 34.9Zm68-2.8s.3-.1.3-.2c-.2-.1-.3 0-.5.1 0 .1.1.2.2 0ZM92.4 44.3c0-.1 0-.2-.1-.3-.2 0 0 .5.1.3Zm-3.3 14.2s0-.2-.1-.2c0-.2 0-.5-.2-.6 0-.2 0-.3-.1-.5 0-.3-.1-.4-.4-.5h.3c.1-.1 0-.4-.2-.4 0 0 .2-.2.2-.3-.1-.4-.6-.2-.6-.5.1.1.3 0 .4 0 0 0 0-.2-.1-.2H88l.3-.3c0-.2-.2-.3-.2-.4.2 0 .2 0 .1-.3-.1-.2-.3-.4-.5-.5 0 0-.2.1-.2.3v-.2c0 .2 0 .3-.1.4.1.1.3.2.3.3-.2.3 0 .5.1.7 0 .2-.3.5 0 .7.2 0 .3 0 .4.1 0 .2-.2.2 0 .4 0 0 0 .1-.1.2v.7s.1.2.2.2c0 .1 0 .2-.3.2v.2c.1.2-.1.3-.1.6h.2c0 .3.2.5.2.8h-.2s.1.1.1.2l-.2.2c.2.1.3.3.5.4.1 0 .2-.2.2-.4-.1 0-.2 0-.2-.1.4 0 .3-.3.2-.6 0 0 0-.2.1-.2v-.3Zm-.4 2c.2-.2-.2-.3-.3-.2 0 .1.2.2.3.2Zm-.3.2v.3h-.3c0 .1.2.3.3.3.2 0 .3-.3.4-.4 0-.3-.3-.2-.5-.2Zm.3.9c0-.1-.2-.2-.4-.1v.4c.1 0 .3-.1.4-.3Zm-1.2-8.4s-.1 0-.2.2h.2l-.2.2c0 .2.4.2.5 0 .2 0 0-.3.2-.5-.1-.2-.3-.3-.4-.4v-.5c0-.1-.2-.2-.2-.3 0-.3-.4-.3-.3-.6-.2-.2-.4-.3-.6-.5.2 0 .5 0 .5-.3-.2-.2-.4-.5-.5-.8-.2 0-.4-.1-.5-.3V49c-.1-.2-.3-.3-.4-.6 0-.4-.5-.6-.7-.8.2-.3-.2-.3 0-.6-.3-.3-.7-.6-1-.9 0 0 0-.1.1-.2-.1-.2-.3-.1-.4-.2-.2-.2-.4-.4-.3-.7 0-.1-.1-.2-.2-.4-.3-.2-.5-.5-.8-.7-.3-.1-.5-.2-.7-.4v-.3c-.4 0-.8-.5-.9-.8-.2 0-.5-.2-.5-.5-.1-.1-.3-.1-.4-.2-.4-.2-.6-.5-.9-.8-.2 0-.3-.2-.6-.4-.3 0-.6 0-.8-.2 0-.1 0-.2-.1-.3-.5 0-.8-.4-1.3-.4-.1 0-.2-.1-.3-.2v-.2c-.2-.3-.5-.4-.8-.3h-.6c-.3-.1-.3-.3-.5-.5-.3 0-.6 0-.9-.2-.5 0-.9-.2-1.4-.3-.2 0-.4-.4-.6-.4-.3 0-.4-.3-.7-.3h-.5c-.2 0-.5-.2-.7-.3-.4 0-.7 0-1.1-.1-.5-.2-1 0-1.6-.1-.6 0-1.2.1-1.7.1-.4.3-1.1-.1-1.5.2h-.5s-.1 0-.2.1h-1.1c-.2.1.2.5.3.3h.5c-.1.2-.1.2.1.3.2-.2.2-.1.4 0 .2 0 .3 0 .5.2h.5c.2-.1.4 0 .7 0h1.4c.1 0 .2.1.3.1 0 0 .1.2.2.2 0 0 .1 0 .2-.1.2.3.2 0 .4.1h.2c.3.3.7 0 1.1.2h.2l.2.2h.2c.2.1.5 0 .6.3h.2c.2.2 0 .2.3 0 .2.2.4.4.7.3l.2.2h.2c.1 0 .2.1.4.1 0 .2.2.2.4.3v-.2c.2-.1.5.4.6.5l.2-.2s0-.1-.1-.2c.2 0 .3 0 .3-.2l.1.1c-.3.3 0 .5.3.7.2 0 .4.2.6.2.3-.2.5 0 .6.3.3 0 .1.2.2.4.4 0 .9.3 1.2.6h.5c0-.2.2-.3.4-.3 0 .1-.2.1-.3.2 0 .1 0 .2-.1.3h.3c.2 0 .2.1.3.2.2.1.3.3.5.4.2 0 .3.1.6.1 0 0 0 .2.1.2v.2c.2.1.2.4.5.2 0 .4.4 0 .6.3.1.2.3.2.5.3v-.2c.1.1.2.2.3.2 0 .1 0 .3.2.4.2 0 .3 0 .5.2v.1c.1.1.3 0 .5 0v.4h.4v.5h-.2c.2.1.4 0 .5.1v.4c.3 0 0-.3.3-.3 0 .2 0 .3.1.4.1 0 .2-.1.3 0 0 .1 0 .2-.2.3.1 0 .2 0 .3-.2.1 0 .2.2.3.3 0 .3-.2 0-.4 0 .1 0 .2.2.2.3 0 0 0-.2.2-.2s.5.4.2.6c.2 0 .3 0 .4-.1.3 0 .2.4.5.4v.2c.4 0 .5.1.4.5.2.2.3.3.4.6h.4c0 .2.1.4.3.4 0 0-.2.1-.3.2 0 .3.2.6.4.9h.2v.4c.1 0 .2.2.3.2-.3.3 0 .4 0 .7h.2v.5c0 .2.3.3.4.3 0 0 0 .2.1.2-.1 0-.2 0-.3.2.2.2.4.2.4.6l.2.2Zm-.4-.4c0-.2-.3-.1-.4 0 .2.1.3.1.4 0Zm-.4 26.6h.2c0-.1 0-.1-.2 0Zm-.3-28.1c.1 0 .1 0 0 0Zm-1.3-2.6Zm.4 31.9c-.1 0-.2 0-.2.2H85c0 .2 0 .2-.2.1 0 .2 0 .3-.2.4v.3c-.2.2-.4 0-.5.1v.6h-.2s0 .1-.2.2h-.2c0 .1 0 .2.2.2 0 .3-.2 0-.4 0 0 .2-.2.2-.4.3-.3.2 0 .7.3.5V83c.1 0 0 .3.3.2 0 0 0-.2.1-.3.1 0 .3 0 .4-.2 0-.2.3-.3.4-.5l.2-.2v-.3c.1 0 .2-.2.2-.3.2.1.5 0 .6-.2h.2v-.5Zm-3.1-32.5c.2 0 .6.4.7.1-.3 0-.4-.3-.7-.2Zm.4 35.3c-.1 0-.1-.4-.3-.3v.2c-.4 0-.4.4-.8.3v.3c-.3 0-.1-.3-.4-.2 0 0 0 .1.1.2 0 .1-.1.5 0 .4V84v.3c.4 0 .3-.2.6-.3.1-.3.3-.4.5-.6Zm-1.1 1c-.2-.2-.3.1-.3.3.1 0 .4-.1.3-.3Zm-.4-.5c-.2 0-.3.1-.4.2-.2 0-.5 0-.5.3h-.3v.2c-.2.2-.6.3-.9.2-.2 0-.3.3-.6.3-.3.2-.4.3-.5.6h-.2c-.1 0-.2 0-.3.1 0 0-.1 0-.2-.1-.2.2-.4.1-.4.5-.4-.1-.4 0-.6.2-.3 0-.4 0-.6.3 0 0-.1 0-.2-.2-.1.2-.2.5-.5.3v.3c.2 0 .2-.2.4 0 .2 0 .2-.2.4-.2 0 0 0 .2-.2.2 0 .1.2.3.3.2 0-.1.2-.2.2-.4 0 .2.2.4.4.2 0-.2 0-.6.3-.7 0 .1 0 .2-.1.3.2.4.5.2.7 0h.3c.1-.2.2-.4.4-.5 0 0 .1 0 .2.1 0-.2 0-.4.2-.3 0 .1.1.3.2.4.2-.2 0-.2 0-.4.3-.3.9-.2 1.2-.6.1-.2.3-.3.5-.3-.2 0-.7.2-.6-.1h.3s0-.1.1-.2c0 0 .2 0 .2-.1 0 .2-.2.2-.2.4h.5c0-.2.1-.3.2-.4v-.3c.3 0 .3-.4 0-.4Zm-4.8 3.6v.2-.2Zm-.5.2c-.2-.2-.4-.2-.6-.3-.1 0-.2 0-.2.2h-.1v-.3c-.2 0-.3 0-.3.2s-.1 0-.1 0c-.1.1 0 .2 0 .4h-.3c0 .2-.1.3-.2.2 0-.1.1-.3.2-.4 0-.2-.2 0-.2.1-.3 0-.6.2-.9.4-.1 0-.2 0-.2.2 0 0-.3 0-.3.2.2 0 .3 0 .3.1s-.4.2-.3.4c.2 0 .4-.3.7 0 .1.1.2.1.3 0 .2 0 0-.3 0-.5 0 0-.2-.1-.3-.1v.3h-.4s.1-.1.3-.1v-.3h.5v.3c.2 0 .4-.3.6 0 0 .1 0 .2-.2.2 0 .2.2.1.3 0 0-.2.1-.3 0-.4.1-.3.5-.2.7-.3.2 0 .3-.2.5-.2Zm-3.2-2h-.3c-.2.3.4.2.3 0Zm-.1.4c0-.1-.4 0-.5-.2-.2 0-.3.2-.5 0-.2.2-.4 0-.6.2-.3 0-.4.2-.6.3-.2.2-.4.1-.6.2 0 .2.6.1.7 0 .2-.2.3 0 .5 0 0 0 0-.1-.2-.2h.3s.1-.3.3-.2c.2.1.1-.1.3 0h.3v.2h.2c0-.2.2-.2.4-.3Zm-.1 2.9c0-.2-.3-.1-.4-.4.1 0 .4 0 .3-.3-.2 0-.7.1-.8.3.1.2 0 .1 0 .3.1.2.2.3.4.1v-.2c.2-.1.3 0 .4 0Zm-1-2.5h-.1c0 .2.3.3.2 0Zm-2.4-11.1v.3c.1-.1.2-.3.3-.5-.1-.1-.3 0-.4.1Zm3.9 7.8c0 .2.2.2 0 0Zm.2 2.5v.3h.3v-.5h-.5c0 .1-.2.3-.1.5.3 0 0-.5.4-.3Zm.1-3.2c-.2 0-.2 0-.4.1-.1.2-.1.3-.2.5-.1 0-.2 0-.2-.2h-.4c-.1.1-.3.1-.5.2s-.4.2-.7.2c-.2.1-.2 0-.4.1 0 .4-.3 0-.4.4 0 .1 0 .2-.2.2 0 .3.3.2.3 0 .2 0 .2 0 .2.2 0 0 .1-.2.2-.2 0-.2 0-.5.3-.3v.3c.2 0 .3-.2.6-.2 0-.2 0-.3.2-.3 0 0 .1.1.2.1.1-.1.3-.4.4-.5.1.1.3 0 .4.2.1-.2.3-.4.4-.6 0 0 .1 0 .2.2.1 0 .2-.1.4 0 .1-.1.4-.4.3-.6-.2.1-.4.1-.6.2Zm3-39.5c-.4 0-.3-.3-.6-.4-.4 0-.6-.2-1-.2-.3-.2-.5-.5-.9-.3.3.2.6.2.9.4.2 0 .3.3.5.3v.2c.3 0 .5 0 .8.2 0 .1 0 .2.1.3.2 0 .5-.2.3-.5Zm.8 40.4v-.2.2Zm-3.1-1.2c0 .1.2.3.2.1 0-.2 0-.2-.2-.1Zm.6-2.9h-.3c-.1.2-.4.2-.2.5.1-.1.2-.2.4-.2v-.1Zm.1 2.7v-.3s-.2.2-.2.3h.3Zm-.2.2c0 .2.1.2.2.1.2-.2-.1-.2-.2-.1Zm1.2-.5c0-.3.3-.1.2-.3-.1 0-.2-.1-.3-.2h-.6c.2 0 .3-.2.4 0l-.2.2c0 .1.3.3.5.2Zm-.5.2c.2-.2-.1-.2-.2-.4H75v.5c.3 0 .3 0 .3.3.2-.1 0-.2 0-.4Zm-.4-6.7c-.2.2.4.2.3 0 0-.3.2 0 .3-.3h.2v-.2h-.3l-.2.2H75v.3Zm-1.1 10.1h.3c0-.2-.4-.2-.3 0Zm3.2-1.1c0-.3.5 0 .4-.3-.2 0-.4-.1-.6 0 0 .1 0 .3-.2.3s-.2.2-.4.1c-.1-.1-.1-.5 0-.5.3-.1.2 0 .3.2v-.2c0-.2.3 0 .2-.3-.3.2-.4.2-.7.2 0 .3-.1.4-.2.7h-.6v.3c-.2 0-.3 0-.3.2h-.3v.3h-.3c0-.2.2-.3.3-.5-.2 0-.3.1-.5.1-.1 0-.2 0-.1.2.3 0 0 .2.3.4-.3.2-.5 0-.7 0v.4-.2c.3-.2.6 0 .8 0 .2-.2.2-.4.6-.4 0-.2.2-.2.3-.2.1-.3.3-.2.6-.2 0-.3.5 0 .6-.3.1-.1.3-.1.4-.3 0 0 0-.1-.1-.2Zm1.3-1.1h.3c.1-.1.4-.4.3-.6-.1 0-.3.2-.2.3 0 .2-.3.1-.4.3h-.1v-.3c-.1 0-.3 0-.4.1.1 0 .2 0 .3.1 0 .2-.2.4-.3.6-.2.1-.3 0-.3-.3h-.1v.2c-.1.1-.4 0-.5 0 .3 0 .3.1.6.3.2 0 .3-.2.5-.3 0 0 .3-.1.3-.3V83Zm-.4-38.7Zm-.6 36h-.5c0 .3-.2.1-.3.4-.5 0-.3.4-.3.7 0 0 .1 0 .2-.1 0-.2-.1-.4.2-.4 0-.3.3-.3.5-.1 0-.2-.2-.2-.2-.4.2-.2.2.2.4.1.2 0 .2-.2.3-.4.2-.1.3.1.4-.2 0-.1 0-.4.2-.3l.2.2c0-.2 0-.3.2-.2-.1 0-.3-.2-.1-.3.2-.2.2.1.4 0 0-.3-.3 0-.4 0v.3c-.2 0-.3.2-.5.3h-.3c.1 0 .2 0 .2.2 0 .1-.2.2-.4.2 0 0-.1 0-.2-.1v.3Zm-3.9-.4c.3 0 .3-.2.6-.2v-.4c-.1 0-.2.2-.4 0-.1-.1-.1-.2 0-.3h.2c0-.2-.3 0-.4-.1v.5c.2.2 0 .2 0 .4Zm-.7-3v.2c.1 0 .2 0 0-.2Zm0 3c0 .3-.3.2-.5.2.3 0 .2.4.4.4.3 0 .6-.5.5-.8 0 0-.2-.3-.3-.3v.2c-.2 0-.4-.1-.4.2.1 0 .3-.2.3 0Zm-.7.2Zm-.3.1c-.3 0 0 .2-.4.2 0 .2.3.3.3.4-.4-.1-.4 0-.4.3.3 0 .4-.2.7-.1 0-.1.2-.4.3-.4v.3c0-.2.4-.4 0-.6-.2 0-.2.3-.4.3 0-.2.1-.3 0-.4Zm-2.2-40.9v-.2s-.2 0-.2.1c.1.3.4 0 .4.4h.5c-.2.3 0 .3.2.2.2.2.4 0 .4.3 0 0 0-.1.1-.1l.2.2c.2 0 .2 0 .4.1 0-.2-.2-.3-.1-.5H71c-.1-.1-.2 0-.3 0-.2 0-.3-.3-.4-.4-.3 0-.4-.1-.7 0h-.1Zm.1 47.4c-.4.2-.7.4-1.2.4.3.2.6-.1.8 0 .2-.2.4 0 .6 0 0-.1 0-.2-.2-.3Zm-.3 2.9h-.1s0 .1.1 0Zm-.2-13.9s0-.1-.2 0c0-.1 0-.2-.1-.2 0 .1 0 .3-.1.4h.5Zm-1.1.4s-.5 0-.4.1c.2 0 .6.1.5-.2 0 0 .2 0 .2.2h.4c-.2 0-.3-.2-.5-.3H68s-.1 0-.2-.2c-.1.1-.3 0-.2.2h.2s.1.1.1.2Zm.7 14c-.1 0-.2 0-.3-.2 0-.1-.2 0-.3 0h-.6c.2.3.6.4.9.1h.2s.2 0 .2-.1ZM66.5 56H66v-.2c-.2 0-.2-.1-.3-.2-.4 0-.5-.2-.8 0 0 0-.1 0-.2-.2 0 .3-.2.1-.4 0l-.2.2h-.2c-.1.1-.2.2-.4.2H64.1c0 .1 0 .2.1.3.3 0 .6 0 .7-.2.2 0 .4 0 .4.2 0-.2 0-.2.2-.2.3 0 .1.2.3.4.2 0 .4 0 .6-.1Zm-1.8 7.1Zm-2.8 26.8s-.4-.2-.4 0c0 .3.3.1.4 0ZM63.8 35h.3c.1.1.2 0 .4 0h.5c.2.1.5 0 .7 0 0-.2-.2-.2-.3-.2-.3.1-.6 0-.9.2-.3 0-.4-.2-.6 0Zm2.2.1c.2 0 .3-.1.4-.1h.4v-.2c.2 0 .2.2.4.3v-.3c.2-.1.4 0 .4.2.1 0 .5.1.5-.1h-.3c-.2 0-.2-.2-.4-.3 0 0-.1 0-.2.1-.2-.2-.2-.2-.4 0H66v.3Zm2.1.2v.2c.1-.2.5-.2.3.1H69.7v-.3c-.1-.2-.3 0-.5 0s-.3 0-.5.1h-.3c-.2-.1-.2-.1-.4-.1Zm1.9.4h.7v-.2c-.3 0-.4-.2-.7-.2 0 .1-.2.2-.2.4Zm1-.1c.3.3.7.2 1.1.3 0-.1-.3-.2-.4-.3-.2 0-.4.1-.6 0Zm1.5.3c0 .1 0 .2-.1.3h.3c0 .2.2.2.3.1h.5c-.3 0-.3-.1-.4-.4 0 0-.2 0-.3.1-.2-.1-.2-.3-.5-.4 0 0 0 .2.1.3Zm2.1-3.6c.3 0 .2-.3.5 0 0 0 0 .1-.1.2.2 0 .3.1.5.2h.6v-.2c-.3 0-.5 0-.7-.2-.1-.2-.8-.1-.8.1Zm.6-1v-.2.2Zm1.9 1.7c.2.2.3.2.4.3v.2h.7c0 .1 0 .2.1.2.2 0 .2-.1.4 0-.1 0-.2.1-.2.2.1 0 .3 0 .4.1h.3c-.3-.2-.4-.3-.6-.6-.3-.1-.6 0-.9-.2-.2 0-.5-.2-.7 0Zm3.1 6.7c-.2 0-.4-.2-.6-.2h-.5c.1.2.4.1.6.3.1.1.3.4.5.3v-.4Zm-.8-5.5c.2 0 .3.1.5.1 0 0 .2.2.3.2.2-.2.5 0 .5-.3 0-.2-.4-.3-.6-.4h-.7v.3Zm1.1.3s-.1 0-.2.1c0 .2.2.4.4.4.2.1.3.2.5.2 0 .1 0 .2.1.2.2-.2.3-.2.4 0v.2c.2 0 .3.3.4.3 0 0 0-.1.1-.2 0-.1-.1-.2-.2-.3v-.2c-.3-.1-.4-.2-.7-.2-.2-.2-.5-.2-.6-.5 0 .2 0 .2-.2.3 0 0-.2-.2-.2-.3ZM85 45.1c.2.3.5 0 .6.4h.2v-.2c-.2-.1-.5-.3-.7-.4 0-.2.1-.6 0-.8-.4 0-.3-.6-.7-.5-.2-.2-.1-.3-.2-.6-.2 0-.3-.1-.5-.2 0-.2-.1-.2-.2-.3v-.3c-.2-.2-.2-.4-.4-.5-.1 0-.2-.2-.3-.3-.1-.1-.3-.1-.5-.2-.1 0-.1-.2-.2-.3v.2c-.3 0-.3-.4-.5-.4-.1 0-.3 0-.5-.1-.2-.2-.4 0-.6-.1l.1.2c.4 0 .4.4.8.6.3.1.4.2.5.5.3 0 .5.2.7.4v.2c.2.2.5.2.7.3v.3c.2 0 .5 0 .5.3 0 .1-.2.2-.2.3.2 0 .4 0 .5.2 0 .3.1.3.3.5v.3c.1.1.3.1.3.2v.3Zm-2.7-9.2c.1.1.3.1.4.3.1 0 .3-.2.4-.2 0 0 .1.1.1.2-.2 0-.4 0-.3.2 0 0 .2 0 .3.1.2 0 .2-.2.4-.1 0 .2-.2 0-.2.3.1.1.4 0 .6.1v.2h.4c0 .1.1.2.2.3 0 0-.1.2-.1.3h.2c.2-.2.3 0 .4.2h.1c0 .2.1.2.2.3v.2c.2 0 .3-.1.4 0 0 .3.3.4.4.5.2.1.3 0 .5.1v.3c.2.2.6 0 .6.3 0 0-.1.2-.1.3.2.1.4.1.6.2 0-.2-.2-.1-.2-.3 0-.4-.6-.4-.6-.9h-.3c-.2-.2-.4-.2-.6-.4v-.2c0-.1-.3 0-.4-.1-.1-.1-.3-.3-.4-.5v-.3c-.3 0-.5 0-.5-.4-.1-.1-.2-.2-.4-.3-.2.2-.3.1-.4 0-.2-.2-.5-.4-.6-.7-.2 0-.4 0-.5-.3h-.5c-.1 0-.1.3-.3.4Zm6.4 5.1h-.2s0 .1.2 0ZM60.5 30.9s0-.2-.1-.2c-.2.2-.6-.1-.7.3-.4-.1-.7 0-1.2 0 0 .4-.4 0-.5.3.1.2.2.2.4.1.2.1.3 0 .5 0 .2.1.3.2.3 0 0 0 .1 0 .2.2 0-.3.4-.2.6-.4.2-.1.3 0 .5 0ZM60 83.2Zm-.3-46.8c-.3 0-.2 0-.4.2-.2 0-.7-.2-.7.2.3-.1.4 0 .7 0 .1-.2.4-.2.5-.3Zm-.3 46.7H59c-.1 0-.3.3 0 .3 0-.1.5 0 .4-.2Zm-.1 1.5c-.1-.1-.2-.2-.4-.2 0 .1 0 .2.1.4.1 0 .3 0 .3-.1Zm-.5 5.5v-.2h-.2c-.1.2-.6.4-.6 0h-.2c-.4 0-.8-.1-1.2 0-.2 0-.2-.2-.3-.4-.1-.1-.2 0-.2.1-.2 0-.3-.1-.5 0-.2 0-.4-.2-.5-.3h-.5c.1.2.3.2.4.2.1 0 .2.2.3.3.4 0 .7 0 1.1.2.3 0 .6 0 .9.2h.6c.3-.1.5 0 .7-.2 0 0 .1 0 .2.2Zm-4.2-42.6c.1 0 .3 0 .4-.1.2-.2-.3-.2-.4-.2v.3Zm-.5-5.9c-.1.2-.2.3-.4.3.3 0 .5.2.6-.2h.3c0-.2-.4-.3-.5-.2Zm-.1 6.5h-.3v-.2c-.2 0-.1.2-.3.3-.1.1-.2.2-.2.4h-.3c-.1.1-.2.2-.3.2l.1.1h.3v-.3h.3c0-.4.6-.2.6-.6Zm-1.5-5.4c.1 0 .1-.1.3 0 0-.2.3-.3.5-.2 0-.2-.1-.3-.1-.5H53c0 .4-.3.2-.5.5-.2 0-.3 0-.4.2-.2 0-.2.1-.4.1v.2c-.2.1-.3 0-.5 0v.3h-.3c.2.3-.2.3-.4.1v.3c.4 0 .6 0 .9-.3v-.2h.5v-.3c.3 0 .4-.2.6-.2Zm-2.3-2.6c.3 0 .3-.2.7-.1 0 0 .1-.1.2-.1v-.2c.2 0 .4-.2.6-.2.2-.2.3-.3.6-.3-.2-.1-.6 0-.6.3h-.4s-.1 0-.2-.1c-.1.1 0 .3-.3.3v-.2c-.2.1-.3.2-.3.4-.1 0-.2 0-.2-.2-.3 0-.2.1-.1.3-.2 0-.3.2-.5.2-.3 0-.5.3-.7.2v.2c-.1.1-.2 0-.4 0 0 .2.2 0 .2.3 0 .2-.5.1-.6.2-.3 0-.2.2-.4.3v.4h-.2c0 .2.1.3.2.2.2-.1.3-.1.5-.1-.3-.2-.2-.4-.3-.7.4-.2.2.2.4.3v-.3c.3 0 .4-.1.6-.3v-.3c.3 0 .1-.1.2-.4.2 0 .3.1.3.3h.3c0-.3.2-.3.3-.5Zm-1.3 45.1c0-.1-.2-.2-.2-.4-.1.2-.4-.2-.6-.2H48c-.3-.2-.3-.3-.7-.3 0-.1-.1-.2-.2-.2l-.3-.3c-.3 0-.4-.4-.7-.2 0 0 .2 0 .3.1 0 0 0 .1.1.2.2 0 .4.1.6.1 0 0 .1 0 .2.2.3 0 .4.2.6.3 0 .3.7.3.9.4h.2Zm-.3 3.1c-.1-.2-.4-.2-.5-.4-.1-.2-.3-.1-.5-.3-.1-.1-.3 0-.4 0 .4.4.8.4 1.2.6h.2Zm-1.5-.8c0-.2-.2-.3-.3-.5-.3-.1-.6-.1-.9-.3-.1-.2-.3-.2-.3-.5 0 0-.2 0-.2-.1h-.1c0-.3-.4-.1-.5-.4-.2 0-.2-.2-.3-.3-.2 0-.3-.2-.5-.2-.1-.1-.1-.2-.2-.4-.2 0-.3-.2-.4-.3h-.2v-.3c-.2 0-.2-.2-.3-.4-.2-.1-.4 0-.4-.3h-.2v-.2c0-.3-.3-.1-.5-.2v-.2h-.3v-.3c-.2-.1-.5-.3-.7-.3 0-.4-.2-.2-.3-.5-.3 0-.1-.3-.4-.4-.1 0-.2-.1-.2-.3-.3 0-.3-.3-.6-.3v-.2H39V80h-.2c0-.2-.3-.3-.5-.4-.2 0-.1-.3-.1-.5-.3-.1-.5-.3-.8-.4-.3 0-.1-.3-.2-.5-.2 0-.3-.1-.5-.2v-.5c-.2 0-.3.2-.3-.1-.3 0-.1-.1-.2-.4-.4 0-.3-.1-.5-.3 0 0-.2 0-.2.1.4.3.4.8.9.9 0 0 0 .2-.2.3.2.3.5 0 .7.4 0 0 0 .2-.1.2 0 0 .1.1.3.1 0 .1-.1.2 0 .3.2.3.7.4.8.7 0 0-.1.1-.1.2 0 0 .2.1.3.2-.1.5.5.2.4.7.2 0 .2 0 .3.2.2 0 .3 0 .4.3.1.2.4.1.5.4-.4 0 0 .3.1.5.4.1.6.2.9.4.2 0 0 .2 0 .3.1.1.3.3.5.4.1 0 .5 0 .4.2h-.2c.1.2.2.2.2.4.3 0 .7.1.7.5h.3c.3 0 .3.3.5.4.4 0 .8.2 1.1.5 0 0-.2.2-.2.3.3.2.7.2 1 .3.2 0 .3 0 .4.2v.2c.2 0 .4 0 .4.3.2 0 .4.1.6.2.2 0 .4.3.6.2Zm-1.8.5h.2s0-.1-.2 0Zm-9.6-10.9c.2 0 0-.3 0-.2v.2Zm1.7-36c0-.2.1-.3 0-.4-.3 0-.2.4 0 .4Zm.2-.6c.2.3.2-.2.5-.2 0-.2 0-.5.3-.5.1-.1 0-.3 0-.5v-.2c-.1 0-.3 0-.4.2-.2.2-.4.4-.4.7h.3v.3c-.1 0-.3.1-.4.3Zm1.2-1.5c0-.1.1-.4 0-.4v.4Zm6 44.1c.3 0 .6.2.8.3 0 0 .2 0 .2-.1 0-.2-.1-.1-.3-.1-.1-.2-.3-.2-.5-.2-.1 0-.3 0-.3.1Zm.2-3.3h.2c0-.1 0-.1-.2 0Zm.7-36.2c.1-.2.2-.1.4 0 .1-.3-.4-.2-.4 0Zm1.9 18.7c-.2 0 0 .3 0 .4h.2c0-.1-.2-.2-.3-.3Zm-.6-2c0 .1 0 .3.1.4.2.2.2.4.3.6 0 .3-.4.4-.1.6.3 0 0 .3.3.3.2-.1 0-.3.1-.5-.1-.2 0-.4 0-.6 0 0 0-.1-.1-.2h.3v-.3c-.1-.2-.1-.3 0-.5v-.5c-.1-.1-.1-.4 0-.5 0-.2 0-.3.1-.5-.1 0-.1-.2-.1-.3h-.2v.2h-.2c0 .2.2.3.2.5 0 .1-.3.2-.2.3.2.1.2.3 0 .3v.6s-.1.1-.3 0Zm1.1 14.9H48c0 .2.4.2.5.4 0 .1 0 .2.3.2 0-.1-.1-.2-.1-.3 0-.2-.3-.2-.4-.4Zm-.3-17.7h-.2c0 .2.2.3.4.4 0 0 .1-.2.2-.2 0 0 0-.1-.1-.2v-.4h-.3v.3Zm-.6-21.9h.7c-.2-.2-.4 0-.5-.2.2-.4.5-.1.6-.4 0-.4-.4-.1-.6 0 0 0 0 .2-.1.2v.2c-.2 0-.2 0-.2.3Zm.9-.2c.2 0 .5 0 .7-.3.1-.1.3 0 .4-.2-.3 0-.5.1-.8 0v-.3c-.4 0 0 .4 0 .6-.1 0-.2 0-.2.2Zm1.3-.8s-.3-.2-.3 0c.1.2.3.3.5.1 0 0 0-.1-.2-.1Zm-1-.1c0 .2.4.3.5 0 .1-.2.4-.2.7-.4 0-.1 0-.2.1-.3-.3-.3 0 .2-.4.1 0 .2 0 .2-.1.2 0 0-.2 0-.2-.1-.1 0-.2 0-.3.2v.2h-.3Zm1.6-.3c-.2 0-.2.3 0 .2v-.2Zm1.6 1.9c-.1 0-.6 0-.4.2.1 0 .5 0 .4-.2Zm.3-.1Zm1.3-.7Zm.3 6.5Zm-.1-6.6v.2c.2 0 .1-.3 0-.2Zm-3.1-1v-.4s.1 0 .2.2c.2 0 .6-.3.7-.2 0 .3-.3.2-.3.3.2 0 .4 0 .5-.2.3 0 .3 0 .4-.3h.2v-.4c-.1.2 0 .2-.4.2-.2.4-.5 0-.5-.3.1 0 .2.1.3.2-.1-.3.4-.5.6-.3.2.1.3 0 .5 0 0 0 0-.1-.1-.2 0-.1.5-.2.6-.3.4.2 0 .3-.2.3 0 .1.2.1.2.1l.2-.2h.3s0-.2.1-.2h-.3c-.2 0-.3-.4-.4-.5 0 0-.1 0-.1.2-.3 0-.5.1-.9.1-.1 0-.2.1-.3.1-.2 0-.2.3-.5.3 0 0-.1 0-.2-.1 0 .1-.2.1-.3.1v.3c-.3 0-.4.1-.8.1-.2.3.3.6.5.6Zm3.2-1.7c.3 0 .6.1.5.4l.1-.1c-.2-.3 0-.4 0-.7-.1 0-.2 0-.4-.1-.2.1-.2.4-.6.3 0 .2.2.5.3.2Zm.4 5.3c.3 0 .6 0 .9-.2 0-.2.1-.3.3-.2.2 0 0 .3.3.2.1-.1.2-.3.4-.4h.3-.2c0-.3.3-.1.4 0h.3V37c.2 0 .5-.2.8-.2.2.2-.2.2-.3.4.2 0 .2 0 .4-.1.1 0 .4 0 .3-.2-.2 0-.3 0-.4-.1-.2-.1-.3.1-.6 0-.3 0-.5.1-.8.3-.2 0-.4 0-.6.1-.4-.1-.9.2-1.2.4-.2 0-.3 0-.3.2Zm.7-2.5c.2 0 .1-.2.2-.4 0-.2-.3 0-.4 0 .3 0 .3.1.2.4Zm3.8 47.9h-.3c.2.1.3 0 .3 0Zm-.6-.3v-.2c-.2 0-.2.3 0 .2Zm-1.2-36.3Zm-.8 37.3c0 .2.4.2.5.4.1.1.3 0 .5 0s.4.2.6.2h1.4c0-.2-.4-.2-.5 0H58c-.2 0-.4-.2-.5-.3 0 .1-.2.2-.3.2 0 0-.1-.1-.1-.3-.3 0-.5 0-.8-.2h-.4ZM55.6 47c.1 0 .7 0 .5-.3h-.5c0 .2-.3.3-.5.2v.4c.2 0 .4 0 .5-.1V47Zm2.6-10.2c.2 0 .2-.3 0-.3v.3Zm-.3 1.5h.7c.2 0 .3-.1.5 0 .1 0 .4 0 .3-.2h-.6c-.2.1-.7.2-.9.3Zm-3.6-5.8v.3c.2 0 .3 0 .5-.1v-.5c.2-.1.6.2.5.4l.1-.1c-.1-.2-.1-.2 0-.3.1 0 .2.1.3.2 0-.2 0-.3.3-.2.2 0 .1-.3.3-.3v.3c0-.2 0-.4.3-.5.2 0 .3.3.5.1v-.3c.2 0 .3 0 .3.2h.3v-.3c.2 0 .2.3.3 0-.2-.6-.4.2-.7-.1-.1 0-.4 0-.5.1-.1.1-.2 0-.3 0-.1.1-.3.3-.3 0-.1.1-.2.1-.3.1-.1 0-.3.2-.4.2h-.4c0-.2-.2-.2-.2 0-.2 0-.3.2-.5.3h.3c.1.2-.2.2-.3.3ZM35.4 76.4c-.2 0-.3-.1-.4-.3 0-.2-.4 0-.3.1 0 .1.2.2.3.3-.1.2 0 .4.3.4 0-.1 0-.3.1-.5Zm-2-29.5c-.1 0 0 .5.2.4 0 0 0-.4-.2-.4Zm61 20c-.2.3.2.5-.2.5 0 0 0 .2.2.2v.5c-.1.2-.2 0-.3 0v.4c-.1.2 0 .4-.3.5 0 .1 0 .2.1.3-.2.4-.4.6-.3 1 .1 0 .1.1.1.2-.2.2 0 .3 0 .4-.2 0-.5.2-.4.5 0 .1.1.3 0 .4h-.6c.1.1.3 0 .4.3 0 .3-.3.4-.2.7-.2 0-.2.2-.4 0 0 .2.2.2.2.4-.3 0-.2.3-.5.4 0 .2.4.2.3.4-.4 0-.3.3-.6.4v.3c-.1 0-.3 0-.4.2 0 .2.3.2.3.4-.2.1-.4 0-.5.1 0 .2-.1.5-.4.5v.7c-.2 0-.3.1-.4.1-.2 0 0 .3-.1.5h-.2c0 .2.2.1.1.3-.2 0-.5.1-.5.4-.2 0-.3.2-.3.4 0 .1.2.1.2.3-.2 0-.3.1-.5.2 0 .3-.2.3-.4.5 0 .2-.3.1-.4.1v.2h-.2c0 .3.2.2.2.4H88c0 .2 0 .3-.2.3s0 .2 0 .3c-.2.1-.3.3-.5.4 0 .3 0 .2-.3.3v.3h-.2c0 .1.1.2 0 .4-.2.1-.4 0-.5.2v.3c-.3 0-.2.3-.6.4-.3.2-.2.2-.2.5h-.2v.3c-.1 0-.2 0-.2-.2-.1.1-.1.2-.3.2 0 .3-.6.2-.7.5 0 0 .2.2.2.3-.2.2-.6.3-.8.4v.3c-.2 0-.4.2-.5.3-.3 0-.4.2-.7.3v.3h-.5c0 .2-.3.2-.5.3v.3c-.2 0-.4.1-.6.2-.4 0-.8.3-1.2.4v.3c-.2 0-.3 0-.5.2h-.6c0 .2-.1.2-.3.2-.2.2-.5.3-.7.4-.1.1-.3.1-.4.2-.1.2-.4.2-.6.2-.2.2-.3.1-.6.1 0 .2 0 .2-.2.2-.4 0-.5.3-.9.2-.3.1-.5 0-.5.3-.3.1-.5.2-.8.3-.6 0-1.2.4-1.9.6h-.9c0 .2-.3.2-.4.2-.3.2-.7 0-1 .3-.4 0-.8-.1-1.1.1-.4 0-.8 0-1.3.1-.2.1-.3.1-.6.1-.1.2-.5 0-.7.2-.3.1-.8-.2-1.1 0-.6 0-1.1-.3-1.6 0-.5-.2-.9 0-1.4 0-.2 0-.4-.1-.6-.1-.2-.1-.6-.3-.7 0 0 .1.2.2.4.2-.1.1-.2.1-.4.1v-.3c-.2 0-.7-.3-.8 0 0 .1.1.2.3.2h-.2c0-.5-.6 0-.8-.3-.2-.2-.2.1-.5 0-.2 0-.6 0-.6-.3h-.3c-.1-.1-.3-.2-.5-.3h-.4c-.4.1-.8 0-1.1 0-.7 0-1.2 0-1.9-.2-.2-.2-.5-.2-.7-.3-.2-.2-.4 0-.6 0-.4 0-.6-.2-.9-.4h-.8c-.2 0-.3-.2-.5-.2h-.6c-.2-.1-.3-.2-.5-.3-.3 0-.4-.3-.7-.3-.3 0-.6 0-.9-.2-.2 0-.4-.1-.4-.4-.4 0-.7-.1-1-.5-.2 0-.4.1-.5 0-.3 0-.3 0-.4-.3-.3-.2-.7-.3-1-.5-.2-.2-.5-.5-.8-.5-.2-.1-.5-.3-.6-.6-.4-.1-.8-.2-1.1-.5-.1-.2-.3-.2-.5-.3-.2-.2-.6-.3-.8-.7-.3-.2-.7-.3-.9-.7-.2 0-.5-.1-.6-.3.1 0 .1-.2 0-.3-.2-.3-.5-.4-.7-.7v-.3c-.3-.3-.9-.2-1-.7-.2-.1-.3-.3-.5-.5v-.2c-.2-.2-.4-.3-.5-.5-.2-.1-.4-.3-.5-.5-.2 0-.4-.2-.5-.3v-.3s-.2-.2-.3-.2v-.2c-.2-.2-.4-.3-.6-.4.1-.2.1-.3.1-.5-.2-.3-.5-.2-.7-.5v-.2c-.2-.3-.8-.7-.7-1.1 0-.2.3 0 .2-.3-.3-.1-.6-.3-.8-.6.3-.3 0-.5 0-.9-.2-.1-.4-.2-.5-.4.1-.4 0-.6-.3-.8.1-.2 0-.3-.2-.3 0 0 0-.2-.1-.2.1 0 .2-.1.4-.2 0-.2-.5-.3-.5-.5 0-.1.2-.2.2-.3 0-.2-.4-.4-.2-.6 0-.2-.2-.3-.3-.5 0-.2.1-.5 0-.7 0-.2-.2-.3-.2-.5 0-.1-.1-.2-.2-.3.2 0 .3-.2 0-.3-.3-.1-.3.1-.3.3-.1-.3.3-.9.2-1.2-.1-.2-.2-.3 0-.5.1-.3 0-.5-.3-.6 0-.3 0-.4-.2-.6 0-.1.1-.2.2-.3.2 0 .2 0 .3.2 0-.2-.2-.3-.1-.6 0-.2.2-.3.1-.4-.2-.2 0-.4-.1-.7-.1-.1-.3-.2-.2-.4v-.5c0-.4 0-.7.1-1 .1-.4-.3-.5 0-.8-.1-.2 0-.3-.2-.5v-.7h.1c0-.3-.2-.4-.1-.6 0-.2.2-.3.2-.5 0 0-.1-.2-.2-.2V57.8c.3-.1.1-.3 0-.5 0-.1.1-.3.2-.4-.1-.2-.2-.5 0-.7.1-.1 0-.3 0-.4.1-.2.2-.5.3-.7 0-.1-.1-.3-.3-.3l.2-.2c-.2-.3.3-.3.4-.5-.2 0-.2-.2-.3-.4.1-.2.4-.4.4-.6 0-.2-.1-.2 0-.4 0-.2.1-.3.2-.5 0 0 0-.1-.1-.2.2-.3-.1-.4.2-.6 0-.1-.1-.3 0-.4h.3c0-.2-.1-.2 0-.4 0-.2.4-.1.3-.3h-.1V49.7c0-.2.2-.3.3-.5V49s.2-.1.3-.2c0-.2-.2-.2-.2-.4.1 0 .3-.1.4-.2 0-.2 0-.7.2-.8 0 0 .1 0 .2.1 0-.3 0-.4.3-.3 0-.2-.2 0-.2-.3-.1-.2 0-.4.1-.6 0-.3.2-.4.2-.7.1 0 .2 0 .2-.2s0-.4.1-.6c.3 0 .5-.2.5-.6.1-.2.5-.4.2-.7.1-.2.3-.2.5-.3v-.5c.3-.1.4-.2.3-.6.3-.1.3-.3.3-.6.3 0 .2-.2.2-.4.3 0 .2-.4.4-.6.3 0 .4-.1.6 0-.1-.2-.3-.1-.4-.3v-.3c.3.1.2-.1.4-.2h.2c0-.2.2-.6.5-.6 0-.2-.1-.3-.2-.5.2-.2.5-.2.7-.3V38c.3-.2.3-.2.3-.5.3-.2.6-.4.8-.7v-.2c.2-.2.3-.3.6-.4.2 0 .1-.3.4-.3 0-.2 0-.4.3-.3v-.3c.3-.2.5 0 .5-.5h.2v-.3h.2c.2 0 .3-.2.4-.2 0-.2.2-.3.3-.5.4 0 .5-.4.9-.2-.1 0-.2-.1-.2-.2h.2v-.2h.2v-.3c.3-.1.7.1.8.4-.2 0-.2.2-.4.2s-.2.2-.3.3h-.2c0 .3-.2.3-.4.3.1 0 .3.1.2.3-.1 0-.5 0-.2.2.2 0 .3 0 .5.2.1.1.3 0 .3.2-.3-.1-.6-.2-.8-.3 0 .3-.2.1-.4.2 0 .2-.2.3-.2.4h-.5c.1 0 .2.1.2.2h-.3v.3h-.3c0 .2-.3.4-.2.6 0 .2.2 0 .3 0 0 .1.2.3.2.4-.4.2-.4-.6-.9-.3.1 0 .2.1.2.2-.2 0-.4 0-.5.1 0 .2.1.5-.1.6-.2 0-.3-.2-.5-.2 0 .2-.1.4-.3.6.1.2 0 .5.3.6 0-.1.1-.4.3-.4.2.2-.2.5-.2.8-.2 0-.1-.4-.3-.2v.2c-.1 0-.2.2-.2.3.3 0 .6-.1.8-.5h.2v-.3h.3c-.1 0-.2 0-.2-.2.1-.2.5-.1.7-.4v-.3c-.2 0-.2.1-.3.3h-.2c0-.2.2 0 .2-.3 0 0 0-.2.2-.2v-.3c.2 0 .5.3.7.2v-.2c.3 0 .5-.3.4-.5 0 0-.2-.1-.3-.2v.3c-.3 0-.2-.2-.2-.3 0-.1-.1-.3-.2-.4.2 0 .2.2.3.2v-.3c0 .2.2.3 0 .5 0 .2.2.3.3.2v-.3h.3s.1-.2.1-.4c0 .2.1.2.3.1 0-.2 0-.2.2-.2v-.2h.2c0-.4.4-.3.5-.5 0-.3-.1-.3-.4-.2v-.2c.1-.1 0-.4 0-.5.2 0 .4 0 .6.1-.1 0-.4 0-.3.3 0 .2.1.3.2.4.4 0 .1-.5.6-.3.2-.2.5-.1.5-.5h.3c0 .3 0 .1.3.2 0 0 0-.1-.1-.2 0-.2.3-.3.5-.3 0 0 .1-.1.2-.1v-.3h.4c0-.2 0-.3.3-.3.2 0 .1-.2.2-.4h.3c.1 0 .3-.1.4-.2 0-.2.2-.3.3-.5h.2c0-.2 0-.2.2-.1.2.2.3 0 .3-.3.3 0 .5 0 .8-.2.1.2.2.1.3.1v-.3c.3 0 .5.1.5-.2h.4c0-.4.5 0 .5-.4.2.1.3 0 .5-.1.1-.2.4-.2.6-.3.1-.2.3-.2.5-.3.2 0 .2.2.4.1v-.2h.3c.1 0 .2 0 .3.1 0-.3.3-.4.4-.1l.2-.1s-.2-.1-.2-.3c.2-.2.4 0 .6.1 0 0 .2 0 .2-.1.2 0 .4.2.6.2.1 0 .3.2.2.3h-.4c0 .2 0 .5-.2.3v-.3c.2.3-.2.4-.4.5 0-.2.2-.2 0-.4h-.4c-.1.2 0 .4-.4.5h1c.3 0 .3 0 .5-.2.3-.1.6-.3.9-.2.2-.2.5-.2.7-.2.3 0 .7-.2 1 0 .2 0 .4-.3.6-.3.2.2.4.2.6 0h.9c.2.3.3.1.5 0 0-.1.3-.2.4-.2.2.3.7 0 1 0h.5c.1 0 .2.1.3.2 0 0 .2-.2.3-.2h.2v.1c0-.3.4 0 .6 0h.3c.4 0 .7.4 1.1.1.3-.1.3 0 .5 0 0-.2.5-.2.6 0 .2 0 .4.2.6.1.2.1.4 0 .6 0 .3 0 .4.3.7.2.2-.1.3 0 .5 0s.3.1.6 0h.7l.2.2c0-.1.3-.1.4-.2.1 0 .2.1.3.2.1-.1.3-.2.5 0 .1.1.4.1.5 0 .3 0 .4.4.7.4v-.3c.3 0 0 .2.3.3H73.6c.2 0 .3 0 .4.1.2-.2.4 0 .6.1v.2c.2.2.4 0 .7.1.2.1.4 0 .5.2.2.2.4 0 .7.1 0 0 0 .2.1.2.3.2.6 0 .8.3.2 0 .4 0 .5.1.1.1.2 0 .3 0 .1.2.3.2.4.4h.3c.2 0 .3.1.3-.1 0 0 .1 0 .2.1v.2c.1.1.3.2.4.3 0-.3.3-.1.4 0h.3v.5h.3v-.3c.2 0 .2.4.3.5.2 0 .4 0 .6.2.2 0 .3 0 .4.1v.2c.1.2.4.2.5 0 .2 0 0 .2.3.2s.4.1.6.3c0 0 0 .1-.1.2 0 .1.2.2.4.2v-.2c0 .3.1.4.5.3v.4h.2c.1.1.2.3.3.4.2 0 .3.1.4.3.3 0 .4.3.3.6.1 0 .3-.2.5-.1.2.2.1.5.4.6.2.2.4 0 .6.2 0 .2 0 .5.2.4.2-.2.2 0 .4 0v.2c-.1 0-.2 0-.2.2.2.1.4 0 .4.2s.2.3.4.4v.4h.3c0 .2 0 .6.4.6.2 0 .3.2.4.3.2 0 .3-.1.4 0 0 .3-.2.6.2.7v.1c.1.1.4.2.2.4h-.2s0 .2.1.2h.2c.2.2.3.5.5.7 0 0 0 .1-.1.2 0 0 .2.2.3.2h.2c.1-.2.2 0 .2.1-.1 0-.2 0-.2.2.1.2.1.1 0 .3.2 0 .4.2.6.3v.3c.1 0 0 .3 0 .4.1.1.1.3.3.4 0 .3.3.5 0 .8.2.2.4.2.4.6.2.4.4.8.3 1.2h.2s.1.2.2.2h-.2c0 .3 0 .5.1.7.3.2.2.5.4.7 0 .1-.2.2-.2.4h.3s0 .2.1.2h-.4c0 .2.2.3.1.6.1 0 .3 0 .4.1v.2c-.1 0-.3 0-.3.3 0 0 0 .1.2.2 0 .1 0 .2.1.3v.3c-.2 0-.2 0 0 .2s.1.5.2.7c.2 0 .2.2.3.3 0 .3 0 .5.1.8-.3 0-.1.2 0 .3v.2H94c0 .2.1.4.2.6 0 .2.1.3.3.5v.2c0 .2.2.4.2.6-.2 0-.2 0-.2.2.1.1.2.3.2.4h-.3v.4c.1 0 .2 0 .4.1 0 0 0 .2-.1.3l.2.2h-.4c.1 0 .2 0 .3.2-.1.2-.2.1 0 .3-.3.2-.1.7-.2 1h-.2c0 .2.3.2.4.3 0 .2-.2.2-.2.4v.5c0 .2.3.2.3.3h-.3c0 .2 0 .3-.2.4 0 0 0 .1.1.2 0 .2-.1.3-.3.3.2.2.5 0 .6.4h-.6c.2 0 .3.1.4.3 0 0 0 .1-.1.2.1 0 .2 0 .1.1-.3 0-.3.2-.2.5.1 0 .2.1.2.2h-.3v.3c0 .2-.3.4-.3.6 0 0 .1.1.2.1v.4h-.3c0 .2.2.4-.1.5v.4c0 .1-.2.3-.2.4l.2.2c0 .2-.1.2-.3.2ZM42.8 35.5c.2.1.1-.2.1-.3-.1 0-.3.2-.1.3Zm67.8-3.3ZM95.7 87.4ZM42.2 35.8c.1 0 .3-.2.4-.2 0 0 0-.2-.1-.3-.1 0-.2.4-.3.5Zm-.1.3c-.1-.1 0-.4-.2-.5-.1 0 0 .2 0 .3 0 .2.2.3.2.1Zm41.4 62.1v.1c.1.1.1 0 0-.1Zm12.8-10.6v.2-.2Zm-11.1 17.5Zm-.2-.1c-.2-.2-.3-.3-.3-.6h-.2v.6c.3.2.2.5.5.6.2-.1-.1-.4 0-.6Zm-.3-4.2v-.4c-.2 0-.3 0-.2-.2h-.2c-.1 0 0-.2 0-.3-.4 0 0-.3-.4-.4-.2 0-.2-.5-.4-.3v.3c.1.1.2.2.4.3 0 .2.2.3.3.5h.2c0 .3 0 .4.1.7 0-.1.1-.2.2-.2Zm-.5 2.5Zm.9-2c.2 0 0-.3-.1-.2 0 0 0 .1.1.2Zm-2.3-.1v.1c.1.1.1 0 0-.1Zm-.2-.6Zm-.2.2v.2c.2 0 0-.3 0-.2Zm-.4-2h-.3v-.3c-.2 0 0 .3 0 .4 0 .2.3 0 .4 0Zm-1.9 4.4s0 .4.2.3c0 0 0-.3-.2-.3Zm.1 3Zm.7.7Zm-1.7-8.8c0 .1 0 0 0 0Zm0 .5Zm-1-.2H78s-.3-.4-.2-.1c.2.1.1.4.4.3v-.3Zm10.3 9.6c.2.2 0 .3.1.5-.2-.1-.4-.5-.6-.5-.2 0-.3-.2-.5 0 0 0 0-.1.1-.2 0-.3-.3 0-.5-.3 0 0 .3-.2 0-.3-.2 0-.2-.2-.2-.4-.2 0-.3-.1-.5-.2v-.3c0-.2-.3-.2-.5-.3-.2 0-.3-.2-.4-.1v-.4h-.4c0 .3-.3.2-.2.6.2.1.5.4.3.7.3 0 0 .1.1.3 0 0 .2 0 .2.1v.1s.2.1.2.3v.2c.1 0 .4 0 .5.2l-.2.2c.1.2.2.5.4.5-.2.1-.2.3-.3.3v-.3s-.1 0-.2.1c-.2 0-.2-.4-.3-.5-.2-.1-.3 0-.4-.3-.3.1-.3-.1-.4-.3 0 0-.3 0-.4.1v.3c-.3 0-.4-.1-.5-.4-.1 0-.2-.2-.4-.2s-.2-.2-.2-.4c-.3 0-.3-.2-.3-.4-.2 0-.3-.1-.3-.3 0-.3-.3-.2-.4-.5h-.2c0-.2 0-.2-.2-.2 0 .1 0 .2-.1.2 0-.2-.2-.4-.3-.6-.1 0-.1-.3-.2-.3 0 .3-.6.2-.3-.1h.2c-.3-.3 0-.6-.4-.6 0 0-.1 0-.2.1 0-.2-.3-.3-.4-.5 0 0-.3-.3-.4-.2v.6h.3v.5c-.2 0-.2 0-.3-.2-.2 0-.3-.3-.4 0 0 .1.2.2.3.2 0 .3 0 .4.3.4 0 .2-.1.3 0 .4.1 0 .1.3.2.3v-.2c0 .3-.1.4 0 .6 0 0 .1 0 .1-.2 0 .1.1.3.2.4l.2-.2v.3s.1.2.2.3v.5c0 .2.1.2.1.4h-.4c.1-.2-.1-.5 0-.7-.1 0-.2 0-.3-.2-.2.1-.2 0-.5-.1 0-.1-.1-.3-.3-.3-.2-.2-.2-.3-.1-.5-.1 0-.2 0-.3-.1v-.2c0-.1-.2-.2-.4-.2v-.1s-.2-.1-.3-.2v-.2c-.3 0 0-.1-.1-.3-.3 0-.2-.3-.4-.4l.2-.2v-.4c-.1-.2-.3-.2-.3-.4 0-.4-.4-.2-.2-.7-.3-.1-.4-.3-.7-.4-.1-.2-.1-.3-.1-.6 0 .1.1.3.2 0 0-.3-.4-.4-.2-.7-.1 0-.2 0-.3-.2 0-.2.2-.3.2-.5v.5h.2c.1.2 0 .6.3.6v.2c0 .1.3.1.4.3 0 0 0 .1-.1.2.3.2.1.4.5.4v.3c.1.2 0 .4.1.5h.3c0 .2 0 .4.2.6.2 0 .2.3.2.5.2 0 .1-.4.3-.5.1-.1.1-.2 0-.2.3-.3 0-.5 0-.9h-.2c-.2 0-.2-.2-.3-.3-.1-.2 0-.5-.4-.5 0-.2 0-.3-.3-.3v-.3s.2-.2.3-.2c-.1-.1-.2-.3-.2-.5-.2-.2-.3-.5-.3-.8l-.3-.6c-.1 0 0-.4-.3-.3 0 .2.2.3.3.5 0 .2-.3 0-.4 0-.1-.2.1-.4 0-.6v-.2c0-.1-.2-.2-.4-.3v-.4c-.2 0-.3-.1-.3-.3.1 0 .2.2.3.2v-.3c.1 0 .2-.1.1-.3-.1-.1-.2 0-.4 0v-.4c0-.2-.3-.1-.3-.3 0-.2.2-.4.2-.6.1 0 .2 0 .3.1v.2h.3c0 .4.4.3.5.6 0 .2.2.3.3.4 0 .4.2.3.3.6.1.1.4.2.5.2v-.3h-.2c-.1-.1-.2-.3-.3-.4h.2c0-.3-.1-.1 0-.4-.2-.2-.2-.4-.5-.4-.2-.1.2-.3.3-.2v-.2h-.2v-.3c-.1 0-.2-.2-.3-.2v-.2s-.2 0-.3-.2c.3 0 .1-.4 0-.4 0 0-.1 0 0-.2h.3c0 .3.3.4.6.7h.3c.1-.2 0-.4-.2-.5.2 0 .3.4.2.6-.2.3 0 .6 0 .9.3.1.7.3.5.7.1.1.2.2.2.3 0 .2.4.3.5 0 0-.1-.1-.1-.2 0 0-.2 0-.3.1-.5 0 .3.3.4.6.5-.1 0-.3.2-.4.2 0 .2 0 .5.3.4v-.3h.4v.6h-.2c0 .2 0 .4.3.4v-.4c.2 0 .1.2.4 0V98s0-.1.1-.2c0-.1-.1-.2-.2-.3-.2 0-.3 0-.3-.1.1 0 .2 0 .2-.1 0-.2-.3-.2-.4-.4 0-.1.2-.2.2-.3-.1-.1-.2-.2-.4-.2v-.2h.5c.2.1.5.4.8.4l-.2.2c0 .2.4 0 .4.3s.2.4.3.6l-.2.2c.1.1.2.2.4.3 0 .3.4.4.4.7.1.2.4 0 .4.2h-.2c0 .5.3.2.5 0v-.4c-.3-.1-.2-.2-.2-.5-.2 0-.3-.3-.3-.5 0-.3-.2-.3-.3-.5 0 0-.1 0-.2.1-.1 0-.5-.4-.2-.5 0 0 .1 0 .2.1 0-.4-.4-.4-.4-.8 0-.2-.2-.3-.2-.5s-.1-.3-.2-.4v-.3c.1 0 .2.2.3.3h.2c.2.1.3.4.6.5v.2c.2.2.3.4.4.7.1 0 .2 0 .1.2h-.3c.3 0 .5 0 .6.3 0 0-.1.2-.3.2.3.1.5.1.7.4v.3c.1 0 .2.2.2.3.2 0 .3 0 .4.2v.3s.2 0 .2.1c0 .2.2.2 0 .4.1.1.1.3 0 .4 0 .3.3.1.4.4 0 .2.2.3.3.3v.3c.2 0 .3.2.3.4h-.3c0 .3.4.2.5.4.2.2 0 .5.3.7 0 .1 0 .4.2.4s.2.1.1.3H86v.3h-.3c-.1 0-.2-.1-.3-.1v-.3s.1-.1.2-.1c-.1-.2-.2-.4-.4-.6v.2c-.3 0-.2-.3-.2-.4h-.2v-.2c-.1 0-.2 0-.3.1 0 .2.2.4.2.7h-.2c.1.2.3.3.3.4 0 .2.3.2.2.5.1 0 .2.1.2.2.3 0 .2.2.2.5.1.2.3 0 .4.3 0 .3.2.3.4.5 0 .3 0 .4.2.6.2 0 .2.3.4.4-.1.3.3.7.6.7.2.2 0 .6.4.6v.2c-.1.3.2.4.1.6Zm-3-2.3Zm-5.3-8.8c0-.2.1-.5 0-.5-.1.1-.2.5 0 .5Zm36.7-65.3v-.2.2Zm-35.2 63c0 .1 0 .2.1.3h.4c0-.3-.4-.2-.5-.2Zm35.5-59.5c.1 0 .4 0 .2-.2-.1-.2-.3.1-.2.2Zm-.3-.2Zm-1.5.9c.1 0 .2 0 .2-.2-.2 0-.2 0-.2.2Zm-.6.6v-.1.1Zm.4-.6v-.3c-.1-.2-.4-.1-.5 0 0 .1 0 .2-.1.2h.4v-.2c.2 0 .2.1.3.2ZM95 83h-.5v.4c.3 0 .2 0 .4.2.2 0 0-.4 0-.6Zm9.7-18s-.4.1-.3.2c.1 0 .3 0 .3-.2Zm-19.1 43.4Zm18.3-43.7c-.1 0-.2.2-.3.3-.1 0-.2-.2-.3-.3-.1 0-.3.2-.2.3.1.1.4.1.5.1.1 0 .3.4.4.1-.2-.2 0-.3 0-.5Zm.3.4c.1 0 .2-.2.2-.3-.1 0-.2-.2-.3-.2 0 .2-.2.4 0 .6Zm-6.3 23.2c.1-.1-.1-.2-.2-.3-.1-.1-.2 0-.3 0 0-.1 0-.2-.2-.1 0-.2-.1-.2-.3 0h-.3c0 .2 0 .2-.1.4.3 0 .3 0 .4.2 0-.2 0-.2.2-.1 0 0 .2-.1.3-.1 0 0 0 .2.1.2 0 0 .1 0 .2-.1 0 0 .2.3.2 0Zm15.6-28H112c-.1 0-.2.1-.2.2 0 0 .1 0 .2-.1h.2c.4.1.8.1 1.2.1.2-.2.3-.1.5 0 0-.2-.2-.3-.4-.2Zm-6.4 4.7s0 .1.2 0c0 0 0-.1-.2 0Zm4.6-4.8h-.7c-.2 0-.5-.2-.5 0h.2c.2.2.2.1.5 0 .1 0 .2.1.3.1.1 0 .2-.2.2-.3Zm-1 2.9s-.1 0 0 .3v-.3Zm-3.9-1.9c.1.1.1 0 0 0Zm13.3 1.5c0 .1-.3.3-.4.3 0 0-.1-.1-.2-.1 0 .2.2.4-.1.4 0-.2-.1-.3-.1-.5-.1 0 0 .4-.1.5-.2.1-.3 0-.4.3 0-.2 0-.3-.3-.2v.2c-.2 0-.3-.2-.5-.2 0 0-.1.1-.1.2v.2s0 .2-.1.2h-.1c-.2.2-.2.4-.5.4l-.6.3s-.1-.1-.2-.1c-.3.1-.8 0-1 .2.1.1.3.2.3.4h.6l.2.2c.2 0 .3 0 .5-.1.5.2.9-.2 1.4 0 .2 0 .3.1.4 0 0 0 .1.2 0 .4.2.1.5 0 .5.4 0 .2-.4.2-.5.3l-.2.2h-.4c0 .3-.4.3-.6.1h-.8c-.3 0-.6-.2-.9 0h-1.4c-.3-.1-.5 0-.9-.1 0 .1 0 .2-.2.2 0-.2 0-.3-.3-.3-.4.1-.7.2-1 0-.3.2-.8.1-1.1 0-.2.2-.6 0-.8 0-.3 0-.2-.3-.5-.3h-.6s0 .3-.2.3c0 0-.1-.2-.2-.3-.3-.1-.4-.3-.7 0-.2-.1-.2-.1-.4-.1s-.2-.1-.4 0c0-.1-.3-.3-.5-.4 0 .4-.3.2-.5.1-.3-.1 0-.3-.3-.4l-.2.2h-.6c-.3 0-.2-.2-.3-.3h-.4s.1-.1.1-.2c-.1 0-.2 0-.2-.2 0-.1.2 0 .3 0 0 .2.2.1.3.3 0 0 0 .1.2 0V65c.2 0 .4-.2.7-.2.1 0 .2.2.3.2.3 0 .4-.3.7-.2.2 0 .4 0 .6-.1 0 0 .3.2.3 0s.4 0 .4 0c.2 0 .3-.1.5-.3.3.4.9 0 1.1.3h.4v-.2h.4c.2 0 .3.2.4.2 0-.3.4-.3.5 0h.8c.2-.2.5-.2.7 0l.1-.1c-.3 0-.3-.2-.6 0-.2 0-.4 0-.6-.1h-.6c-.2-.1-.5 0-.7-.2-.2 0-.3.2-.4.2-.2-.2-.5 0-.5-.3-.2.1-.3.2-.5.2 0 0-.2-.1-.2-.2h-.2c-.1-.1-.5-.4-.3-.6h.5c.1 0 .2-.2.3-.1 0 .1.1.3.2.4 0 0 .1 0 .2-.1.2 0 .6 0 .7-.2 0 0 .1.2.2.2v-.5c-.3 0-.2-.2-.5 0-.2 0-.4-.2-.6-.2-.3 0-.5 0-.8-.1-.4.2-.6-.1-.9.2-.3-.1-.4.1-.7-.1-.3.3-.5 0-.9 0-.1-.1-.2-.3-.4-.2-.4 0-.6-.1-.8.2 0-.1-.1-.3-.3-.3-.2 0-.3 0-.5-.1-.1 0-.2 0-.2.2-.2-.1 0-.2-.2-.4-.2 0-.3-.2-.5-.2 0-.3-.3-.3-.3 0 0-.3-.3-.1-.2-.4 0 0 .1 0 .2.1.2 0 .5-.5.6 0 0-.4.3 0 .5 0 .1-.1.3-.2.3-.4s0-.2.1-.2v.3s.2.1.3.2h.3c0-.1 0-.2.1-.2s.2.2.3.2c0-.3 0-.6.3-.5v-.3c.4 0 .2.4.5.5 0-.2-.1-.3 0-.5.1 0 .2.2.3.3 0 0 .1 0 .2-.1 0-.1-.2 0-.1-.2s.3.1.4.2h.2V61c.3 0 .4-.1.7-.1 0 0 .2.1.3.2.2-.1.3 0 .5-.2.1 0 .2.1.4.1v-.3s.1 0 .2.1c.1 0 .3-.1.4-.2.2 0 .3.2.5.1.1 0 .2 0 .2-.2-.1-.1-.8 0-.8-.4 0 0 0 .1-.2.1h-1c0-.2.5-.3.7-.5l.2.2c.1 0 .2-.2.3-.3 0 0 .1 0 .2.1 0-.2.1-.2.2-.1.2.3.6 0 .9.1 0 0 .1 0 .2-.1.3 0 .8 0 1-.1s0 .2 0 .2c.3-.2.6 0 .9-.2.2.1.3.2.5 0 .2.1.3.3.4 0 .2 0 .2.2.3 0 .1 0 .2.1.3.3.3 0 .4.2.7.4h.3c.2-.2.3-.2.5-.2 0 .2.1.3.3.2V60c.2 0 .3 0 .4.1.3 0 .6-.1.9-.2.2.2.4.1.5-.1.1 0 .4.2.5 0v-.2c.1 0 .2.3.3.4h.3c.1.5.6 0 .8.4l-.1.2c-.2-.3-.3 0-.4-.3-.1 0-.2.2-.2.3 0 0-.2 0-.2.1h-.4l-.2.2c-.1 0-.3-.2-.4-.2h-.3c-.1 0-.3.1-.3.3l.4.4h.2c.3 0 .5.1.8.1l.1.1s-.2 0-.2.1c-.2-.2-.4-.2-.6-.3-.2 0-.2.1-.2.3-.2 0-.3-.1-.5 0v.3h-.3v.4s.1 0 .2-.1c.3 0 .6.1.8 0 .2 0 .6 0 .4.3 0 0 .2 0 .3-.1.2 0 .3 0 .5.1.2 0 .3-.2.5-.1 0 .1 0 .5.3.3v-.2h.1c0 .3.2.3.2.5Zm-114 6.2c.2.2.3-.1 0 0Zm-4.7 6.6c0 .2-.1.3-.2 0h-.1c-.3-.1-.2.2 0 .4-.1 0-.2 0-.3.1H.6l-.2.2c0 .2.2 0 .3.3.2-.1.3-.1.5-.2v-.2c0-.1.3-.1.4-.2.1.1.4.2.5 0-.1-.2-.3-.4-.6-.4Zm3.5-6.4c0-.1 0-.1-.2 0l.1.1h.1Zm-.2.2c0-.1 0-.1-.2 0 0 .1 0 .1.2 0ZM96 83.1s-.2-.1-.3-.2c-.1 0-.2.2-.2.4.1 0 .3.1.4.1v-.3ZM6.2 68.2s0-.1-.2 0h.2Zm93.7 22.9Zm13.2-61.7h-.1Zm-2.7 5.9Zm.3 2.4c.1 0 .2 0 .2-.1 0-.2-.3 0-.2.1Zm.2.5Zm.1-1v.2c.1 0 .4-.1.5-.1h.5c.1.1.2.1.4.1-.1-.2-.2-.1-.4-.2-.1 0-.2-.3-.3-.2 0 0 0 .1-.1.2h-.5Zm1.6-3.4Zm0 3s0 .4.2.3c.2-.2 0-.5-.3-.5l.1.1Zm.5 0c.2 0 .2 0 .3.2.1 0 .3-.2.2-.3v-.3c-.2 0-.3 0-.2.2-.1 0-.2 0-.2.2Zm3-1.1Zm-11.7 2.7Zm-6.3-1.7c.4 0 0-.3.2-.4.3 0 .4.4.5.1 0-.2-.1-.5.2-.6.2 0 .4.2.6.2 0 0 0-.1-.1-.2 0-.2.5-.2.6-.4.1 0 .2.2.4.1-.1-.2-.2-.2 0-.4.1 0 .3.1.4.2h.4s0-.1-.1-.2v-.5h.2c.2-.2.4 0 .7 0v-.2c.2-.2.2.1.3-.2.2-.2.6 0 .9-.2 0-.1.1-.2.2-.2 0-.3.2-.4.4-.3.2.1.5-.2.7-.2 0 0 0-.2.1-.2.2-.2.6 0 .6-.5h.5c0-.3.2-.3.5-.3.2-.2.4-.2.6-.2 0-.3.4-.4.6-.4.1-.2.4-.2.6 0 .1 0 .2 0 .2-.2.3.1.6.2.9 0v-.4c.1-.1.4 0 .6 0v-.3c.3 0 .4-.2.6-.3.3.2.5-.1.7-.3.2-.2.5-.1.7-.3 0-.1.1-.3.2-.4h.9v-.4c0 .2.3.3.5.5.3 0 .5.1.7.2 0 0 0 .2.1.2-.3 0-.3.3-.6.2-.2 0-.3 0-.5.1-.1 0-.2.2-.3.3-.2 0 0 .3-.3.4-.2-.1-.4 0-.6-.1v.3c-.2 0-.7.2-.7.5h-.3v.2h-.3c0 .1 0 .2-.3.2v.2c-.2 0-.3 0-.3.3 0 .2-.3.3-.4.2-.1 0-.4 0-.4.2-.3 0-.5.2-.1.3.3 0 .5-.2.8-.2.2.1.4 0 .5-.2 0 0 .1.2.3.1v-.3c.2 0 .3-.2.6-.2.2-.1.3-.2.5-.2.3-.3.7-.2 1-.4.1-.1.3-.2.5-.2.3 0 .3-.4.5-.5.3 0 .5-.2.7-.1.3 0 .6 0 .5-.4.2 0 .3.2.5.2.1 0 .3 0 .4-.1-.1-.1 0-.5.3-.4.3 0 .6-.2.9 0h.9c.2.3-.1.5-.3.6-.3 0-.5.2-.7.3-.1 0-.2 0-.2.2-.2.2-.5.1-.7.3-.2.2-.5.2-.7.3v.3c-.2 0-.5 0-.7.1-.2 0-.2.3-.1.4h.2c0 .2-.2.3-.3.3v-.3h-.1c0 .4-.2.2-.5.4-.2 0-.3 0-.5.2 0 0 0 .2.1.2 0 .2-.3.3-.3.5-.1-.2 0-.5-.4-.4.1.1.1.2 0 .3h-.2c0 .2 0 .3-.2.3 0 .2-.2.2-.4 0-.1 0-.2.2-.1.3.2 0 .4.2.6 0 .2-.2.5-.2.7-.3 0-.1.1-.3.2-.4.4-.1.8-.1 1.2-.3v-.2h.2c.1 0 .2 0 .4-.2 0 0 .1 0 .2.1 0-.1 0-.2.2-.2s.4-.2.6-.2h.4c0-.3.1-.3.2-.5.2 0 .3 0 .5.1v.2-.3c.2 0 .4 0 .6.1 0 .2.2.2.3.3-.1 0-.3 0-.4.2v.4c-.3.2-1 .3-1.1.7-.2.1-.4.2-.6.2-.2.2-.4.2-.6.3-.2 0-.2.3-.2.4 0 .2.3.2.3.4 0 0-.2.1-.3.2-.2 0-.4-.1-.5-.3 0 0 .2 0 .3.1.2 0 .2-.3.1-.5-.3-.1-.6.2-.9.3-.3.2-.4.6-.8.4-.1.1-.2.2-.4.2-.3.2 0 .3.2.5.2 0 .2-.3.3-.3 0 0 0 .2.1.3-.1 0-.2 0-.3.2-.1 0-.2 0-.2.2.1.2.5.2.6 0-.1-.3.1-.2.1-.5 0 0 0-.1-.1-.2.1 0 .4 0 .4.1s-.3.5 0 .5c0-.1 0-.3.1-.3 0 .1 0 .2.2.3.1-.1.2-.2.4-.2v-.2c0-.2-.4 0-.2-.3 0 0 .2.1.2.2.2 0 .3-.2.6-.1 0-.3.4-.6.7-.7h.2c0-.2 0-.2.2-.2 0 .1 0 .3.2.4.2-.1.2.1.4 0 .3 0 .2.3.2.5-.2 0-.3.1-.5.2-.2 0-.3 0-.4.2-.2.1-.4.2-.5.4h-.3c0 .1 0 .2-.2.3h-.2c-.2.2-.4.2-.4.5-.2 0-.2-.2-.3.1h-.2c0 .1-.2.2-.2.2v-.2c0 .2-.3.3-.3.6-.2.2-.5.2-.7.4h-.5c0 .1.2.3 0 .3 0 0-.1 0-.2.2-.1 0-.2-.2-.3-.2 0 .3 0 .3-.3.3v.2c-.3 0-.4-.1-.4.2-.3.1-.4 0-.6.3h-.5v.3c-.2 0-.4-.1-.4.2 0 .2-.4.2-.6.3-.2.2-.4.4-.7.5h-.4c0 .3-.2.1-.4.1 0 0-.1 0-.2.1 0-.1 0-.4-.2-.2v.2c-.1-.4-.4-.3-.7-.4v-.3h-.3.2c-.3.1-.3.1-.3.4-.2 0-.2-.3-.4-.3v.2c-.2 0-.5.2-.5 0 .1-.2.1-.1 0-.3.1-.2.3 0 .4-.3.1 0 .2 0 .2-.2 0 .2 0 .2.2.2v-.5s.2 0 .2.1v.1c.2 0 .3 0 .3-.2.1-.2.3 0 .5-.1v-.3l.2-.2h.2s.1 0 .2-.2c.1 0 .2.2.3.2.2-.1 0-.3.3-.3.2 0 0-.3 0-.4.4-.2.3.2.5.2v-.2c.1 0 .2-.1.3-.2.1 0 .2.1.2.3v-.4c.1 0 .3 0 .4-.1l.2.2c0-.2 0-.2.1-.4l-.2-.2c-.2 0-.3.2-.4.3-.1 0-.2 0-.2.2-.2 0-.3-.1-.6 0-.1.1-.3.3-.5.3 0 .2.1.2.1.4-.1.2 0-.2-.3-.2-.1.2-.3.2-.5.2s-.3 0-.3.2c0 0-.1 0-.2-.1-.2 0-.3.3-.6.3-.4.2-.8.5-1.2.6-.2.2-.4.4-.7.5h-1c-.1-.2-.3-.2-.5-.4 0 0-.2.1-.4 0v.2c-.2 0-.4 0-.5.2-.2 0-.4 0-.6.1 0 .2-.3.1-.3.4 0 0-.1 0-.2-.1-.2.1-.2.1-.5.1-.1 0-.3.1-.4.3-.1 0-.3-.1-.4-.1-.2-.1 0-.5 0-.6h-.2c.2 0 .3-.2.5-.4v.5c0-.3.2-.2.4-.2-.1-.1-.3 0-.2-.3 0 0 .1-.4.3-.3.1.3.1.3.4.3v-.2h.2c0-.2 0-.4.2-.5.2 0 .3 0 .3-.3 0 0 .1 0 .2.1.1 0 .2 0 .2-.2.2.1.2.1.4 0v-.5c.2.1.3 0 .5-.1.2.2.4 0 .7.1v-.4c.2-.2.5 0 .7-.3.2.2.4 0 .4-.2h.3c-.2 0-.4-.2-.6 0-.2.1-.4-.1-.6 0-.2-.1-.2 0-.3.1 0-.2 0-.3-.1-.5v.2c-.2 0-.4 0-.4-.2l.2-.2c-.2.1-.3 0-.5.1 0 0 .1.1.1.2-.1.3-.4.4-.7.3-.2 0-.2.3-.3.4-.2.1-.4 0-.4-.2h-.2c-.1.1 0 .4-.3.3-.2 0-.2.2-.3.2 0-.3-.4 0-.6-.2-.1-.2.2-.2.3-.2V38v.2h-.1c-.3-.3.5-.8.5-.3h.2v-.6h.3c.2-.3.3 0 .4-.3.2 0 .1.1.3 0 .1-.1.4-.3.6-.2 0 0 .2-.2.3-.2h.3c0-.4.3 0 .3-.4.3 0 .6 0 .7-.4.1-.1.2-.1.4 0 .2-.1.5 0 .6-.2-.2-.2-.2 0-.4 0-.3.1-.5 0-.8 0-.3.2-.6-.2-.8-.2-.2 0-.2-.1-.4-.1 0 .1.2.3 0 .4 0 0-.2 0-.3-.1h-.5c0 .1.2.3 0 .4h-.2v.2c-.2.3-.5-.2-.8.2v.2c-.2 0-.2-.2-.4 0v.2h-.2c-.1 0-.2.2-.4.1-.2 0-.4 0-.4.3h-.5c-.1-.1-.2 0-.3 0v.2h-.3v.2H98c0 .2 0 .5-.2.3v-.2c-.1 0-.2 0-.2-.2ZM6.6 68.6c.2 0 .1-.3 0-.2v.2Zm-1.5.2h.2c0-.4.4-.2.6-.2.2-.1.1-.2.3 0 .1 0 .2-.2.3-.3h.3c.1 0 .5-.2.4 0h-.3c0 .2.3.1.4 0v-.4c.3.3-.2.8-.5.6 0 .3-.2.2-.4.3-.3-.2-.6 0-.8-.2h-.1v.3c-.1.2-.3.5-.5.3l.2-.1c0-.1-.2-.2-.3-.3Zm45.6 29.3h-.2s0 .1.2 0ZM82 108.3v.2-.2Zm25.6-14.9c0 .3.2 0 0 0ZM96.8 84c0 .3-.3.2-.4.4 0 0 0 .2.1.2h.3v.2-.7Zm-1.1-.1c-.1 0 0 .3 0 .4.2 0 .1-.3 0-.4Zm16.6 6.6c-.1-.1-.2-.1-.3-.1-.1 0-.3-.2-.5 0 0-.3-.2-.2-.4-.4-.4 0-.2-.3-.6-.4 0-.3-.2-.4-.5-.4-.1-.1-.2-.2-.4-.3l-.4-.4c-.1 0-.4 0-.4-.2s-.2 0-.3 0c-.4 0-.6-.5-1-.3-.2-.2-.4-.3-.5-.6-.2 0-.2.2-.4 0v-.2h-.2c-.3.1-.3 0-.3-.3-.2 0-.4 0-.4-.2h-.3l-.6-.3c-.1.3-.2 0-.3.2 0 0 .3.4.4.3 0-.2 0-.3.2-.2 0 .3.2.4.1.7 0-.2.3-.3.5-.2v.4h.1v-.2c0-.1.3-.2.3 0v.4c.2.2.5.2.7.4.2 0 .4 0 .4.4.2-.1.1 0 .3 0 0 .2 0 .4.3.5 0 .2.1.3.1.4h-.2c-.2.3.5.5.4.1 0 .2.1.2 0 .4.4 0 .3.4.2.6.1 0 .2-.2.3-.3.2.1.2.3.2.5 0 0 0 .1.1.1 0-.2 0-.3.2-.4.2.1 0 .3.2.4 0 0 .1-.1.2-.1 0 .2.2.3.3.4 0 .3-.2.2-.2.6-.2.1-.4 0-.6-.1 0-.2-.2-.4-.4-.4s-.4-.1-.4-.3h-.5c-.1 0-.2-.4-.4-.5 0 0 0 .2-.1.2-.3-.3-.3.1-.6 0 .1-.3 0-.3-.2-.5h-.2c-.2-.1-.2-.2-.2-.4l-.2.2c-.3 0 0-.3-.4-.3 0-.1-.1-.2-.3-.2.3.2.2.4.4.5.2.4 0 .4 0 .6.1 0 .2 0 .3-.1.2 0 .2.2.3.4.2.1.3.4.5.5h.5c0 .1 0 .2.2.2.3.3.5.6.9.8.4.1.5.4.8.6.1 0 .2.2.3.3.2.4.8.5 1.1.8 0 .2 0 .2.1.3-.3 0-.3 0-.4-.3-.2 0-.3 0-.4.2 0 0-.1-.2-.1-.3h-.3c0-.3-.4-.5-.6-.5-.2-.2-.4-.5-.5-.8-.2 0-.3-.2-.5-.1v.2c.2 0 .5.2.5.5.1 0 .4 0 .2.2h-.3c0 .3.5 0 .5.3 0 .1 0 .2-.2 0 0 0-.1.1-.1.2-.2 0-.3-.1-.4-.3h-.4c0-.4-.5-.3-.7-.2 0-.3-.3-.1-.4-.5-.1 0-.3.1-.4 0-.2-.2-.4 0-.4-.5-.3 0-.3-.3-.6-.3-.2 0-.3-.2-.6-.3-.3 0-.4-.4-.7-.6v-.2h-.2c-.4-.2-.6-.8-1-.9-.2 0-.4-.3-.7-.4-.1 0-.2-.1-.3-.3 0-.2-.3-.2-.4-.4-.2-.1-.2-.3-.4-.3s-.1-.3-.3-.4c-.2-.1-.3-.3-.5-.4v-.3h-.2c0-.2 0-.2-.2-.2 0-.3-.3-.2-.5-.2v-.2c0-.1-.2-.2-.3-.2-.2 0 0-.3-.3-.3v-.3c-.2 0-.3-.2-.6-.2 0-.2-.1-.2-.2-.3 0-.2 0-.3-.1-.4-.1.1-.3 0-.4 0-.2-.1-.1-.3-.4-.4-.2 0-.4 0-.5-.1-.1-.3-.6-.5-.6-.8 0 0 0-.1.1-.2h-.1c-.2.1-.6-.1-.8-.3v-.2c0-.2-.4 0-.3-.4l.2-.2s0-.1.1-.1c0 .3.3.1.5.1 0 .1.1.3.2.4h.2s0-.1-.1-.2c0-.2 0-.4.2-.5.1 0 .2 0 .3-.2 0 0 .3.2.3.3-.2 0-.2.1-.4 0v.2c.2 0 .2.3.4.5v-.4c.3 0 0 .2.3.2 0 0-.1-.2 0-.3.2 0 .4.2.4.4s0 .3.2.3l.2-.2c.2 0 .3.2.4.4.1.2.4.4.5.6.2.1.3 0 .3-.2l-.2-.2c0-.1-.1-.2-.2-.2v-.4c-.2 0-.3-.3-.5-.2v-.2c-.2-.2-.5-.3-.7-.4v-.2c-.1 0-.2 0-.2-.2-.1 0-.3-.2-.4 0 0-.2-.3-.3-.4-.6-.2-.2-.3-.3-.6-.4v-.2c-.3-.2-.6-.2-.9-.2v-.2c-.3 0-.3-.5-.6-.5v-.2h.4v.2h.3c.1.1.2.3.3.4.2 0 .2-.2.3.1.3 0 .4-.1.6.1 0 0-.1.2-.1.3 0 0 .2 0 .2.1.4 0 .3.2.6.3.2-.2.4-.1.6-.1 0 .2.2.2.4.2l.9.6-.2.2h.3v.2-.2c.4 0 .6.2.8.4.2-.1.3 0 .3.1.4 0 .5.2.7.5 0 0 .1-.2.3-.1.2.1.5.1.5.4 0 .3.2.3.3.5.2 0 .3-.2.3.1h.2c.1.1.2.2.4.1 0 0 .2.2.2.3.2 0 .5 0 .2.2h-.2c.2 0 .5 0 .5.1.2.3.5 0 .6.3 0 .2.2.4.3.1 0 0 0-.1-.1-.2h.3c0-.2-.3-.3-.4-.4-.2-.3-.7-.1-.6-.5-.2 0-.2 0-.3-.3-.1 0-.3-.1-.4-.2v-.4c-.1-.2 0-.4-.2-.5-.2 0-.4-.1-.5-.2 0-.1 0-.3.2-.3s.2.1.4.1c0-.1-.2-.2-.3-.4h-.4c0-.2-.3-.3-.4-.2-.1 0-.2-.2-.3-.3.1 0 .2-.1.2-.2-.1 0-.3-.1-.5-.2-.1-.1-.2-.3-.3-.4-.2 0-.4.1-.4-.1h-.2v-.2c-.2 0-.2-.3-.3-.3v.2-.2c-.2 0-.3.1-.3.3 0 0 0-.2-.1-.2.2 0 .2 0 .1-.2v-.4c-.1-.2 0-.3.2-.2 0 .1.1.3.2.4.1.1.3.2.4.3 0 .3.4.6.7.5.2 0 .4 0 .5.2 0 0 0 .1-.1.2.2.2.3.3.6.4.3.3.7.4 1.1.4 0 .2 0 .2-.3.2.4.2.8.5 1.1.7.2.4.6.3.9.6.2.2.4 0 .6.2.2.2.4 0 .5.3 0 0 0 .1-.1.2.2.3.4.3.6.5.3 0 .6.3.9.4.2 0 0 .2 0 .3.1 0 .3.1.4.3v.5h.4v.3c.2.1.4.1.3.4.1 0 .3 0 .4.1h.4l.3.3c.1 0 .2 0 .2.2.2.1.3 0 .4.2.3 0 .1.1.2.4.3 0 .5.1.6.5.2 0 .3.2.5.3 0 .3.3.2.3.5h.3c.1.1.4 0 .4.3Zm-61.1 22.2s0 .1.1.2c.1 0 0-.3-.1-.2Zm-.7-5.4Zm-.1.6c-.1-.2-.2-.1-.3 0h-.2v.4h-.2c-.1.3.3.2.5.2.3-.2 0-.4.2-.6Zm-.2 1.4Zm-.4-.6Zm.4-.9c.2 0 .1-.3 0-.2-.2.1-.2.3 0 .2Zm.3-8.2h-.2c0 .2 0 .2.2 0Zm-3.3 10.2H47c0 .1 0 .1.2 0Zm-.5 1.3c0 .2.2.2 0 0Zm8.3-12c.1.3.3.3.3.7-.1.2 0 .4 0 .6-.3 0 0 .4-.1.6v.2l-.2.2c.1.3 0 .5.2.7 0 0 0 .1-.1.2.1.1.1.2 0 .2-.2.1.1.2 0 .4-.2.2 0 .3-.2.5 0 .2-.1.3-.1.5-.2.2-.2.5-.3.8v1.2c0 .2-.3.3-.3.5 0 .3 0 .5-.2.7 0 .2 0 .3-.2.5 0 .4-.2.7 0 1.1 0 .3-.2.2-.4.2 0 .2.2.4-.1.5-.3 0-.3.3-.5.5-.3 0 0-.2-.3-.2 0 0 0 .2.1.3 0 .2-.2.3-.2.5v.5c-.1 0-.2 0-.4.1 0 0 0 .1.1.2 0 .2-.2.3-.1.6-.1.2-.2.2-.2.4 0 0-.2 0-.2.2.2.2 0 .6-.2.7-.2 0-.2.2-.3.3-.2 0-.2 0-.4-.1-.1 0-.2 0-.2.2-.2 0-.2-.2-.4-.1-.1 0-.2-.2-.3-.2-.1-.1-.2-.2-.2-.3h.2c0 .1.2.2.3.2 0-.2 0-.4-.2-.5.1-.1.4-.5.6-.3 0-.2 0-.4-.3-.4 0-.1.1-.2.1-.4.1 0 .3-.2.4-.4v-.2h.2c.2-.1-.1-.4-.3-.3h-.5v.2c-.1.1-.3 0-.5 0l.1.1c0 .2-.2.2-.3.3 0 .1 0 .2-.1.1 0-.2 0-.5-.2-.6-.2-.3.4-.4.4-.7v-.6c.2 0 0 .2.2.3v-.6c-.2-.1-.4 0-.7-.1 0 0-.2.1-.3.1 0 .2.2.1.3.2.1-.1.2-.2.3-.1 0 0 0 .2-.1.2-.2 0-.2.2-.3.3-.1 0-.3-.2-.4 0 0 .3.3 0 .4.2h-.6c-.2.2 0 .4 0 .6-.3.2-.5 0-.8.2.1 0 .2.1.4.2 0 .2-.6.2-.5.4h.4c0 .2-.3 0-.3.2v.2c-.1 0-.2 0-.2.2.1.3 0 .5 0 .7H47c0 .3-.3.2-.5.2 0 0 0-.2-.1-.2-.2-.1-.2 0-.3.1 0 0-.1 0-.2-.1 0-.1.2-.2.2-.4-.2-.2-.2-.2 0-.5.2-.1.3-.3.1-.5 0-.2 0-.4.2-.6-.1-.3.2-.4 0-.6-.2 0-.1.2-.4 0-.3 0-.4-.5-.1-.6.2 0 0-.2 0-.3 0-.2 0-.3.2-.4 0-.1 0-.2.2-.2 0-.2 0-.2-.1-.4 0-.3 0-.4.3-.6 0 0 0-.1-.1-.2 0-.2.3-.3.4-.5-.1-.3-.1-.4-.1-.7.2.1.2.2.4 0-.2-.2-.1-.3.1-.3 0-.2 0-.6.1-.8v-.6h.2v-.4c.1-.2.2 0 .2-.3.1-.2.2-.2 0-.3.1-.1.2-.2.1-.3 0-.1-.3 0-.2-.2.2 0 .2 0 .3-.3h.3c-.3-.1-.3-.3-.2-.6h.3c-.1-.2.1-.4.1-.6v-.3h.5c0-.2 0-.5.2-.3.1-.3 0-.5.1-.8l.3-.6c0-.1.2-.2.3 0 0 0 0 .1-.1.2.3 0 .3 0 .6-.1 0-.2-.4 0-.4-.3.2-.1.3 0 .3-.2.3 0 .3-.2.5-.2v.2c.2 0 .2.2.4.3 0 0-.2 0-.2.1 0-.1 0-.2-.2-.2-.1.1.1.5.3.5.1.3-.2.5-.4.7.2.2 0 .3.2.5-.1.3-.4.2-.4.6h.4c0 .1.1.4 0 .5.2.2.4 0 .3-.2 0-.1.2-.2.3-.3-.2 0-.3 0-.3-.1h.3c.1-.3-.5-.5 0-.5v-.2h.2c0-.2-.1-.3-.3-.3.2 0 .3-.2.4-.3-.1-.2 0-.2 0-.4.1-.1.2-.1.4-.2 0-.1-.2-.1-.2-.3h.5c-.2.2-.3.3 0 .5-.2.2-.2.2-.2.5h-.3l.1.1h.2c.1.2 0 .6 0 .8 0 0 .1 0 .2.1 0 .3.6.2.8.1v-.5l.2-.2c0-.3-.1-.5.1-.7v-.4c.3.1.3.5.6.5 0-.1.2-.3.3-.4v-.3c.1 0 .2 0 .2.2h.1Zm50.2-5.4h-.1v.2h.1v-.1Zm-.3-.1v-.2h-.1c0 .1.1.1.1.1Zm-4-3.4Zm4.6 3.7c-.3 0-.3 0-.5.1-.2-.1-.4-.1-.4-.4-.2 0-.3-.2-.5-.1s0 .2.1.3v.2h.2-.3s-.1-.2-.1-.3c-.2 0-.4-.3-.2-.5-.3-.2-.2.3-.4.2 0-.2 0-.4-.2-.5-.2 0-.3.3-.4.4 0-.2-.1-.4.1-.4v-.4c-.2 0-.2.3-.4.4 0-.2 0-.3-.3-.4-.1 0-.2.2-.3.3 0-.3 0-.5-.3-.2 0-.2 0-.4-.1-.6 0 0-.1.2-.2.3 0-.2 0-.4-.3-.4 0 0-.1 0-.1.2 0 0-.2-.1-.3-.1v-.3c-.2-.2-.2-.2-.3 0 0 0-.2-.2-.3-.2v-.3h.2-.7c0-.2-.4-.5-.4-.2 0 0-.1-.2-.2-.2v-.2c-.2 0-.2-.3-.2-.5 0 .1 0 .2-.1.2v-.7s0-.1.1-.2v-.2c0-.2-.2 0-.3 0v.2c-.2.2-.3-.2-.3-.3-.1 0-.3 0-.4.2 0 0 0-.2-.1-.2v-.3c.1-.1.2-.1.3 0 0 .2-.2.2 0 .3l.2-.2c.1.1.2.2.4.2.1.1.3.3.4.5.3 0 .4 0 .6.2h.2v.3c0-.2.2-.3.4-.2 0 0 .2.2.3.2.1 0 .2.2.3.3h.4-.3c-.2.2 0 .4.2.5h.2c0 .2 0 .1.2.1 0 0 0 .1.1.2.2-.1.2 0 .4 0 0 .4.3.1.4.4h-.1c0 .2.2.2.3.3v.1c.4 0 0 .3-.1.4 0 0 0 .2.2.3.2-.3.4 0 .4.2.2.2.4.2.6.4h.4v.2l.2.2c.3-.3.1 0 .5 0 0 .1.1.2.2.2 0 .2.1.3.4.3Zm-7.3-5.7c0-.1 0-.1-.2 0 0 .1 0 .2.2 0ZM47.3 31v-.3c-.2 0-.3-.2-.4-.1.1.2.3.3.5.5Zm1.4 78.9h-.1ZM31.5 94.8h.2s0-.1-.2 0Zm17.8 16.1c-.2 0-.2.2 0 .2v-.2ZM34.2 22.2Zm9.6 12.4v.2c.1-.1.1-.2 0-.2Zm-9.9-12.4v.2h-.2.2c0-.1 0-.2.2-.2h-.3Zm1.3-10.9h.3c0-.2.2-.4 0-.6-.1-.1-.3-.3-.5-.1 0 .1.1.2.1.4.2.2 0 .2-.2.3 0 0 0 .2-.1.3.1.1.3 0 .3-.1Zm7.9 10.3c0 .2.1.2 0 0Zm-8.6-10.7h.2s0-.1-.2 0Zm.1-.3c.3-.1 0-.2-.2 0h.2ZM4.2 74.2s0-.2-.1-.3c-.2 0-.3.2-.2.4v-.2h.3Zm38.3-45.5c.2 0 .3-.1 0-.2-.2-.3-.2.1 0 .2ZM31.7 17.6v-.2c0-.1.3 0 .3-.2h-.3c-.1-.2 0-.4-.1-.6h-.4v-.3c-.4.1-.4-.2-.6-.2.1.1.2.2.2.4 0 .1 0 .2.1.2v.2c.2.2.6.1.6.5-.1.2.3.4.4.2Zm6.4 9.1c-.2.1 0 .3.1.3.2 0 0-.3-.1-.3ZM36.6 14Zm1 10.1c.2 0 0-.3-.1-.2 0 .1 0 .2.1.2Zm.1-.4v.1-.1Zm.4-9.9Zm.3-.3s0-.1-.2 0c0 0 0 .1.2 0Zm3.5 6.2h.1Zm.2.6c0 .3.2.2 0 0Zm-.4 6.8Zm-9.1-8.3s-.1 0-.1.2c-.1.1-.2.2-.2.3h.3v-.4Zm-.2 0s0-.1-.2 0h.2Zm-2.3-8.6.2-.2c.2 0 .3.3.5.4 0 .2 0 .3.3.4v.1c.3 0 .3.2.4.4.1 0 .3 0 .4.2 0 0 .2-.2.3-.2.2.2.3 0 .4.2 0 .2-.2 0-.3.3H32c-.2.3.2.4 0 .7.1 0 .2 0 .3-.1 0-.3 0-.4.1-.7.2 0 .2.3.3.4h.6c.2 0 .3 0 .4.2h.4v.2c.1.1.4.3 0 .4v.2c.1.2.2 0 .4.2.3.2.6-.2.7.2h.2c0 .1 0 .2.2.2 0-.1.1-.2.1-.3-.1 0-.3 0-.3-.2s0-.5-.2-.5c.2-.1.2-.3.3-.5-.1.1-.5.2-.3-.1-.1 0-.2 0-.2-.2 0-.1.3 0 .3-.2 0-.3.2 0 .3 0 .1-.1 0-.4.1-.4.1.1.2.3.3.5 0 0 .2 0 .2.1h.2c0 .3.3.6.3.9 0 0 0 .1.1.2.2 0 .2-.1.4 0 .3.1.6-.2.9-.2.2.1.2.2.5 0 0 .2 0 .4.2.5 0 .2-.1.3 0 .5s.4.1.5.3c0 .2.3 0 .2.2-.2-.1-.3 0-.2.2.2 0 .3.1.4.2 0 .3.1.6.5.7v.5h.1s0 .2.1.2v.2c.2.2.2.2.2.4h.2s.1.1.2.1v.8c.1 0 .3 0 .4.2v.5c.2.2.3.3.2.6.3 0 .3.2.2.4-.2.2-.3-.2-.5 0v.5c.1 0 .2 0 .3.1v.2s.2 0 .3-.2h.2v.4c-.2.1-.2.2-.1.4h.2v.6c0 .1.2.3.1.4 0 .2-.1.4 0 .5.4.2 0 .6.5.9 0 .2 0 .4.2.6.1.1.3.1.3.3 0 .1 0 .3.2.4.2 0 .4.2.6.3 0 .3.1.5.3.7v.5c.1.2.3.4.4.7 0 .1 0 .2-.1.3h-.3c0-.3-.1-.4-.4-.5 0-.3-.4-.6-.3-.8l-.2-.2H43s.2 0 .2.1h.2c.1.3-.3.4 0 .8-.2 0-.1.3-.2.5-.1-.3-.3-.4-.2-.7-.2-.2-.2-.4-.4-.6v.3s-.1 0-.1-.1c0-.2-.2-.3-.3-.5v-.5c-.3 0-.6-.4-.6-.6h.3c-.1 0-.3-.1-.4-.1v-.4h-.3c0-.3-.1-.4-.4-.3 0 .2.2.3.3.4.1.1.2.2.3.2 0 .1 0 .2-.2.2v.2c.1.2.4.2.4.5.1.1.2.2.2.4s-.3.3-.3.5c.2.2.2.2.5.3.2.2 0 .3-.2.4.1.1.2.3.4.2.3 0 .2.3.2.5.2.2.3.4.4.6-.1.1-.1.2 0 .3h.2c.2.1 0 .3.2.5h-.1c0 .2.2.2.1.3-.1.1-.3.1-.3.4-.1 0-.2-.2-.3-.2-.1-.2-.3-.2-.6-.4-.2-.2-.1-.5-.1-.7-.1-.3-.3-.2-.5-.5h-.2c-.2-.1 0-.6-.3-.6v.2c-.3 0-.3-.2-.3-.3h-.3c-.1-.1-.2-.3-.2-.5h-.4c0 .2.2.2 0 .4-.2 0-.4-.2-.5-.4 0-.2 0-.3-.1-.4.1-.3-.1-.2 0-.5h-.5V25c-.2 0-.2 0-.3.1-.1 0-.3-.1-.4-.2-.3.2.2.3.3.5 0 .3.2.5.1.7.1.4.5.4.3.8-.3 0-.4-.4-.4-.6 0 .1.1.5-.2.4 0-.2-.1-.2 0-.4-.1-.2-.2 0-.4 0 0 0-.2-.3 0-.3 0 0 .1 0 0-.2h-.2c-.2-.1-.2-.2-.3-.4h-.3s-.1-.1-.1-.2h.3c0-.1-.1-.4-.2-.5-.2.1-.4 0-.5-.2H36v-.3c0-.2-.1-.2-.2-.3 0-.1-.2-.3-.3-.2 0-.2-.2-.4-.3-.5V23c-.2 0 0 .3-.3.3.1-.2.2-.3 0-.3h.2v-.4c-.2-.2-.2-.3-.5-.3 0-.1 0-.1-.1-.1 0-.2-.1-.2-.1-.4s-.1-.1 0-.3c-.3 0-.2-.2-.4-.3 0-.1 0-.2-.2-.3 0-.1.2-.2 0-.3-.2-.1-.5 0-.6 0 0-.2 0-.4-.2-.4 0-.3-.1-.6-.3-.8V19h-.3c-.1-.1 0-.3.2-.3s0 .2.3.2v-.2h.7c0-.2 0-.3.2-.3v-.2c-.2 0-.2 0-.3-.2h-.4c-.1-.4.4-.2.6-.2 0-.2-.2 0-.2-.3V17l-.2-.2c-.3 0 0 .3-.3.4-.1 0-.3-.1-.3-.3 0-.2-.3-.4 0-.5.2 0 .4 0 .3-.2h-.3c.1 0 .2 0 .3-.1v-.6c-.2 0-.3-.1-.5-.3V15c-.1-.2 0-.3 0-.4-.1-.2 0-.2 0-.4-.2 0-.2-.3-.4-.3-.2-.1.1 0 0-.2-.3 0-.1-.2 0-.4-.2-.2-.3-.2-.3-.5h-.2c0-.2 0-.4-.2-.4.1-.3 0-.3 0-.6-.3 0 0-.2-.3-.3Zm18.1 100.3c.1 0 .4.1.4 0h-.4ZM21.6 96.2Zm9.2-1.2c.2 0 .1-.3 0-.2v.2Zm1.2-3.4c.1 0 .3-.2.2-.3 0-.1 0-.4-.2-.3v.6Zm-.7 2.5c0 .1.3 0 .3-.2-.1 0-.4 0-.3.2Zm-.8-5.5c0-.1-.1-.2-.2 0 0 .1.2.3.2 0Zm-.3 5.7Zm-.2-2.6ZM28.4 96c0-.1 0-.2-.2-.2s-.4.2-.6.3v.5c.1-.2 0-.2.4-.2 0-.1.1-.3.2-.4h.3Zm-1.1.6c0 .1-.2.1-.3.1 0 .2.3.1.3.4.2-.1.2-.3 0-.5Zm-.4.5c-.2 0-.4 0-.5.2v.3h-.5c0-.2.4 0 .2-.4-.2 0-.4 0-.6.1-.2.2.1.6.4.5 0 0-.1.2-.1.3-.2.1-.3.4 0 .3.3 0 0-.4.3-.4v.2c.1 0 .2-.2.3-.2.2 0 .3-.3.3-.5.2 0 .2-.1.1-.3Zm-1.3.8v.2h.1V98Zm-1.8.6-.2.2h-.2c0 .3.2.1.4.3.2 0 .4-.3 0-.4Zm-1.9-2.7h-.2v.1-.2Zm1.2-3Zm11.3-5.1c-.2 0-.2-.2-.4-.3 0 0-.2.1-.2.2v.2c-.1 0-.2.2-.2.4h-.3c0 .1.2.4 0 .4 0 0-.2 0-.2-.2l-.2.1c0 .2.2.2.2.4s-.3 0-.4.1v.3h-.6c0 .2 0 .2.1.4h-.4c-.1 0-.5.3-.4.5v.2c-.2 0-.4 0-.5.2 0 .2-.2.4-.4.5l.1.1h.6l.5-.5h.2c.1 0 .3-.4.3-.5 0 0 .3.2.2.3h-.2c-.1.2.1.3.1.5h.1c.2.2.4.1.5-.1l.1.1c-.1.2-.3 0-.5.2-.1.1 0 .3 0 .5 0-.2 0-.5-.2-.3.2.2 0 .2 0 .5-.2 0-.3.2-.4.4-.2 0-.3.2-.4.4 0 .2.2.3.4.3v.2c0 .2.3 0 .2.2h-.5c-.2 0-.2.2-.4.3.3.3.5-.2.7.1 0 .2-.2.5-.2.7h-.2s-.2.1-.2.2v.2H31v.3h-.3c.1.2.2.3 0 .4 0 0-.1 0-.2-.1v.3c-.1 0-.2 0-.3.1 0 .1 0 .5-.2.3-.2.2-.2.3-.5.2l.2.2c0 .1-.1.2-.2.2 0 .2 0 .2-.2.2v.2c-.1 0-.2.2-.4.2v.3s-.2 0-.2.1v.3c-.2 0-.4.2-.4.4 0 0-.1 0-.2-.1-.2 0-.3.3-.5.3v.2c-.1 0-.2.2-.1.3-.2 0-.3-.2-.5-.1 0 0-.2.1-.3.1-.2-.1-.1-.1-.3 0V99c0 .2.1.4-.2.5 0 0-.1-.1-.2-.1 0 .1 0 .2.1.3 0 .2-.2.3-.2.4-.1 0 0-.5-.3-.4 0 0 .2.2 0 .3-.1 0-.3-.2-.3-.3 0-.2 0-.2-.1-.4.2 0 .2 0 .2-.2-.3-.3 0-.3.1-.6-.1-.2-.2 0-.4 0 0-.1 0-.2-.2-.2 0 0-.1.1-.1.3-.1.1-.2 0-.4 0 0 .1 0 .2.1.3-.1.2-.2.2-.2.4 0-.1-.1-.2-.2-.2v.2s-.1 0-.1-.2c0 0-.1 0-.1.2-.2 0-.2-.1-.3 0 0 0 0 .1.1.2h-.2c0-.2 0-.4-.3-.4-.2 0-.1-.4-.3-.3-.1.1-.2 0-.4 0h-.3c-.1 0-.2.2-.3.3 0 .2 0 .4-.1.5-.3 0-.5.3-.8.3v.5c-.1 0-.3 0-.4-.2v-.3c.2 0 .1-.1.1-.3.1-.1.3-.2.4-.4 0-.2 0-.3.1-.5 0-.1-.1-.3 0-.4.1-.2.3-.3.5-.3s.2-.2.2-.3c.2-.2.4-.1.6-.2 0-.2.2-.2.4-.3 0-.2-.1-.3 0-.5-.1-.1-.1-.3-.2-.4 0-.1-.3 0-.4 0 .1.3 0 .3-.2.4-.2-.1-.2 0-.4 0 .2-.3 0-.2 0-.4h-.3c-.2 0-.1-.2-.2-.4v-.2c.2-.2 0-.3.1-.5s.4-.2.6-.1c0-.3 0-.3.3-.3.3-.4.8-.4.8-.9.1 0 .2 0 .3-.2.1-.1.4-.2.5-.3 0-.1-.1-.2-.2-.2-.2 0-.4-.1-.5 0v.1c-.2 0-.4-.2-.6 0-.2 0-.1.2-.3.3 0-.3-.1-.3-.3-.4 0 .1 0 .2-.1.4-.2 0-.2.2-.3 0 0 0 .2-.2.2-.3 0 0 0-.1-.2-.2 0-.3.5-.3.6-.5 0-.3.3 0 .3-.4v.2c.3 0 .4-.3.6-.4.1-.2.4-.1.4-.4h.3v-.3c.3-.2.5-.4.8-.7v-.2h.4v-.2c.2 0 .3-.2.4-.3 0 0 0-.1-.1-.2.2-.2 0 0 .3 0 0-.3.3-.5.5-.6h.4c.1 0 .3-.2.4-.2 0 .1 0 .2.2.2v-.4c0 .1 0 .6.3.6 0-.2 0-.5.2-.6 0 .3-.3.6 0 .9 0 .1.3 0 .3.1-.3 0-.4 0-.6.2v.2c-.1 0-.3.1-.3.2v.2c-.2 0-.3-.1-.5 0 0 0-.2-.1-.2-.2v.3h.5c0 .3-.2.1-.3.2v.2c-.3 0-.1.3 0 .3.3 0 .3-.3.6-.3.2-.3.5-.3.4-.7l.2.1c.2 0 .3-.1.3-.3 0 0 .1 0 .2.1.1 0 .3 0 .4-.1.1-.4.5-.4.8-.7.2-.1.4-.1.5-.3.2 0 .3.1.4.2 0-.2-.1-.2-.3-.3v-.3c.2 0 .2-.1.2-.3.2 0 .3-.1.5-.1 0 .2-.4.1-.4.4.4.2.3-.2.6 0 0-.2 0-.3.2-.4.2.2.4.3.4.6 0 0 .4.3.5.2 0-.1-.2-.1-.3-.2 0-.1 0-.2.1-.3-.2-.2-.1-.3 0-.5 0 .2 0 .2.2.3v.4c.3 0 .4 0 .6.1v-.3c.2 0 .2.1.4 0 0-.2-.2-.3.1-.5.1.1.2.2.3.2v-.2c-.2-.2 0-.3.2-.2v-.2c.1-.1.3-.1.3-.3.2 0 .2.2.3 0 0-.1-.2-.3 0-.3 0 .1 0 .2.3.2v.3c0 .1.2.2.2.3Zm-8.9-44c-.1 0-.2 0-.3.1 0 .3.5.1.3-.1Zm-1.5-.2-.2-.1c-.3.2.2.3.3.5 0-.2 0-.2.2-.1.1 0 .2-.2.4-.1.1.2.3.4.4 0-.2-.1-.4-.3-.6-.4-.2 0-.5 0-.5.2Zm.7-2.9c.3.2.5.2.7.4.2 0 .3 0 .5.2.2 0 .4 0 .5.2.2 0 .3.4.2.5.2 0 .2 0 .3.1 0-.2 0-.2-.2-.2-.1-.2 0-.3 0-.5 0 0-.2 0-.2-.1-.3 0-.4 0-.3-.4-.2 0-.2 0-.4-.1h-.4c-.1-.4-.5-.5-.9-.5v-.3s-.2 0-.2-.1c-.1 0 .1.4.1.5.1.1.2.2.4.2Zm22.9-9.8c.2 0 0-.3 0-.2v.2Zm37.6-7.5s-.1 0-.2.1c.1.1 0 .3.2.4.1 0 .2 0 .3-.1h-.3c0-.1.2-.2 0-.3ZM45.1 33.7Zm20.8-13.8c0-.1 0-.1-.2 0Zm.2-.3c.2 0 0-.3 0-.2v.2Zm.2-.5s0 .1.2 0c0 0 0-.1-.2 0Zm-5.6-4.9c0-.2-.3-.5 0-.7v-.6c.1-.2.3-.5 0-.7-.1-.3 0-.4.2-.7.2-.3-.3-.5-.1-.8.2-.3-.2-.6.1-.9 0-.5.3-.6.6-.9h-.2c0-.1-.2-.2-.1-.3.2 0 .2-.3 0-.4v-.3h.3c0-.2-.1-.2-.2-.3 0-.3.1-.4.3-.5.2-.2.3-.3.6-.3v.3c.1 0 .2.2.3.3 0 .1-.1.2-.3.3 0 0 0 .2.1.2h.2c.2.2-.2.3-.2.6h-.2v.1c.3 0 .2.3.2.4.2.1.2.6 0 .7.1 0 .2.3.1.5.3.2.2.4.2.7h.1c0-.3-.1-.5-.2-.8.2 0 .2 0 .2-.3-.2-.3-.2-.4 0-.6-.1-.4.3-.7.5-.9.1-.1.4 0 .6.1.1 0 .3-.2.4-.2.3 0 .3.2.5.3 0 .4.3.4 0 .7 0 .1 0 .2.2.3 0 .2-.2.4-.2.6 0 .2 0 .4.1.6v.4c.1.2.3.2.4.5h.1c-.1-.2 0-.2-.1-.4 0-.1 0-.2.2-.2-.1-.2-.1-.4-.2-.6H65c.1 0 .2 0 .3-.1-.3-.4 0-.5 0-.8-.3 0 0-.3-.4-.3h.2c.2-.4-.1-.4 0-.8h.3c0-.2-.2-.2-.2-.3.2 0 .1-.2.3-.3.1 0 .2-.2.3-.2.1 0 .2.2.3.2.2-.1.5-.2.7-.3.1.1.1.4.3.5 0 .2-.3.2-.3.5h.3c0 .3-.3.5-.1.9 0 .2 0 .5.2.6v.2s0 .1.1.2c0 0 0 .1-.1.2 0 .3-.1.5.2.5h-.1c0 .3-.2.3 0 .7 0 0 0 .1-.1.2.4.3-.2.8.2 1.1v.2l.2.2c-.2.2.1.2-.1.4 0 .3-.1.7.1.9 0 0 0 .1-.1.2 0 .2-.2.7 0 .8 0 .2 0 .4-.1.6-.1.2 0 .3.2.4-.1.2 0 .4-.1.6.3.4-.3 1 0 1.5h-.2c0 .3 0 .4-.3.6v.2h-.2v.3h-.4s0 .2.2.2c0 0 0 .2-.2.3v.6h-.2c0 .1 0 .3-.1.4 0 .1.2.2 0 .4h-.2v.4c-.2 0-.3.1-.4.2v.2h.2c.1.3.2.4-.2.5 0 .3-.3.3 0 .5.1.1.4.3 0 .4.3.3 0 .4-.3.3 0-.1.2-.3.1-.5 0-.2-.3 0-.3-.4.3-.4-.4-.6 0-1h.3-.1c-.2-.2 0-.7-.4-.7 0-.2.3 0 .1-.2-.1-.1-.5 0-.7.1 0 .2.1.2.2.3-.2 0-.2-.2-.4-.2s-.2.3-.2.4v.2s-.1.2-.2.2c0 0-.3-.2-.3-.3h.2c.2-.3-.1-.3-.3-.3 0-.1.1-.2.2-.2l-.2-.2h.2c-.2 0-.4-.5-.3-.7.1 0 .2 0 .3.2v-.5c-.2-.2-.5-.2-.6-.5.2-.2.1-.3.1-.5-.1-.1-.3-.2-.2-.4 0-.2 0-.3-.2-.3v.6h.2c0 .2-.1.3-.1.4.1.2 0 .5-.2.5 0 .2.3 0 .4.3-.2.3-.4.8-.1 1.1 0 .2-.4 0-.6.1v.3c.1.2.1.3 0 .4-.1.1-.2.4-.4.5 0 0-.1 0-.2-.1 0 .2.1.2.3.3.2.3.2.7-.1.9v.3c-.2 0-.2-.2-.4-.1 0-.2 0-.2.1-.4 0-.2.1-.4 0-.6-.3-.1-.3-.4-.2-.7 0-.2-.3-.5-.2-.6.1 0 .2 0 .2-.1-.3-.2-.2-.7-.2-1 0-.4-.2-.7 0-1 0-.2-.1-.5 0-.8v-2.1c0-.2-.2-.4 0-.7 0-.2 0-.3-.1-.4-.1-.3.2-.5.2-.8Zm-38.2 31c0 .2.1.3.1.5.1-.2.3-.5-.1-.5Zm-7-5.9c0 .1 0 .5.3.4 0-.1-.1-.6-.3-.4Zm.5.5c0 .2.2 0 .4 0 0-.1-.5-.4-.4 0Zm1.4.7Zm2.8 1.7c0-.1 0-.1-.2 0 0 .1 0 .1.2 0Zm.5.4Zm.5.3c.2 0 .1-.3 0-.3v.3Zm.3-.1Zm.8.5c0-.1 0 0 0 0Zm.5.4c.1.1.6-.3.3-.4-.1 0-.3.2-.3.4Zm.1 1.2c0 .2.2.2 0 0Zm1.6.4c.2 0 0-.3 0-.2v.2Zm-13.5-7Zm-.7-2.5c0-.1 0-.2-.1-.2 0 0 .2-.1.3-.1.2-.1.3-.2.6-.1 0 0 .1-.1.2-.1 0 .2.4.3.6.2 0 0 .1.2.2.3.1 0 .3-.1.1-.2 0-.2.2-.2.3-.1v.3c.2.1.2-.2.4 0 0 .4.4.5.8.5.2.2.2.3.5.2.2 0 .3 0 .3.3.2.2.4.3.6.4 0 0 .1 0 .2-.1.1.1.2.3.4.4.2-.2.3-.1.5-.1v.3l.3.3H17.1c0 .2.1.3.3.3 0-.1 0-.2.2-.2-.3-.2-.8-.4-1.1-.5 0-.2-.1-.4-.3-.4-.3 0-.7-.3-.7-.6.2-.1.4 0 .4-.3h-.1c-.1.2-.3 0-.2-.2.2 0 .4-.1.6-.2 0 0 .2.1.3.2.2-.1.4-.2.6 0 0 .1.2.2.3.2.1.2.2.3.4.4.3 0 .4 0 .6.2.4 0 .6 0 .7.4.1 0 .3 0 .4.1h.4c.1.1.2.3.4.4.2 0 .2 0 .3.3.3 0 .5.2.8.2.2 0 .2.2.3.3v.1c.2 0 .2 0 .3.2.2 0 .4 0 .6.2.1.2.5 0 .7.1 0 .2 0 .4.2.5.3.1.5 0 .8.2.3.1.1.4.1.7.1.2.3.3.4.5h-.4c-.2 0 0-.3-.3-.3-.2.2-.3 0-.5.2 0 0-.1 0-.2-.1h-.9c-.1-.2-.2-.3-.4-.2 0-.2-.1-.3-.3-.4-.2-.1-.3-.3-.6-.2-.2-.3-.4-.1-.6-.4h-.2c-.2-.3-.4-.7-.8-.6-.2-.2-.5-.3-.7-.5h-.2s-.2 0-.2-.1c.2 0 .2 0 .2-.2-.2 0-.3-.1-.5-.2h-.4c0-.1-.2-.2-.3-.2v.5c.2.1.3 0 .5 0v.3c0 .2.3 0 .4 0 .2 0 .2.2.4.1 0 .2.2.2.3.2 0 .4.2.2.4.4 0 0 .1 0 .1-.1v.4c.3 0 .5.1.8.3v.3h.2c.2.2.5 0 .7.2.1 0 .1.2.3 0 0 .2.2.3.2.5.2-.1.1 0 .3 0v-.2s.3 0 .3.1c-.2 0-.4.2 0 .3h.2c0 .2.3.3.4.2 0 .1.2.2.3.4h.2c0 .5.7.4.8.9 0 .2.3.3.4.5-.1.3-.5-.2-.5.2-.3 0-.2.2-.5.4 0 .1 0 .2-.2.2 0 .2.2.2.3.3 0 .2.3.4.3 0 .1.2.3.2.4.4.4 0 .2.5.6.5.3 0 .6.4.9.3l.3.3h.2v.3c.3-.2.4.5 0 .4v-.2c-.1 0-.2 0-.2.2 0-.3-.2-.4-.4-.6-.3 0 0 .1-.3 0v.3c-.2 0-.2-.5-.4-.4 0 0-.2 0-.2.2-.1 0-.1-.3-.2-.5-.1 0-.2-.1-.3-.2h-.2s-.1-.2-.2-.3c-.2.1 0 .2-.2.4-.1 0-.2.1-.2.2-.2 0-.3 0-.4-.2V45h-.1v.3c-.2 0-.3 0-.3.2-.1 0-.2-.3-.4-.3v.2c.2.2.5.3.6.5 0 .3.2.4 0 .6-.2.1-.4-.1-.6 0-.2 0-.5-.2-.5-.4-.2-.2-.4-.2-.6-.3v-.2H21c-.2 0-.4 0-.5-.3v-.2c-.2-.2-.4-.3-.6-.1-.2-.2-.5-.3-.6-.5-.1 0-.2 0-.3.1 0 0-.1 0-.2-.1 0 0-.4 0-.3.2.3 0 .3.3.5.3s0 .3.3.3c.2-.1.4-.3.3 0h-.3c0 .1.2.1.3.2v.1c-.3 0-.4.2-.7.1-.3.2-.4 0-.7 0 0 0-.1 0-.2.1 0-.2 0-.4-.3-.4-.1 0-.2-.2-.4-.3H17v-.3h-.3c0-.1-.2-.2-.3-.4-.3 0-.3-.1-.5-.3h-.3v.2c-.2 0-.2-.3-.5-.3 0-.2-.1-.3-.4-.2 0-.1-.2-.2-.4 0 0 0-.2-.4-.2-.5h-.2c0-.4-.4 0-.4-.4-.2 0-.5-.1-.7-.4-.1 0-.2.1-.3 0-.2.2-.3-.2-.4-.4-.1 0-.2 0-.2.2-.2 0-.2-.5-.4-.6-.1 0-.2 0-.2.2-.3-.2 0-.8-.1-1.1.1-.2.3 0 .2.2h.2v-.4c.1.2.3.3.6.2v.2s0 .2.1.2c.2 0 .2-.2.3-.3v.3h.2c.1.3.4.2.7.3.2.2.4.2.4.6h.4v.3c.3.2.5 0 .6.3.2 0 .4 0 .4.2.2-.1.2 0 .4 0l.2.2h.2v.2h.3v.3c.2 0 .2.1.4.3h.3c0 .3.3.3.4.1 0 .2.3.4.5.3V44c-.2-.2-.5-.3-.7-.4-.2-.2-.4-.3-.6-.2-.3-.2-.6-.3-.9-.5 0 0 .2 0 .1-.2h-.4c-.2 0-.3-.2-.5-.2.2 0 .2 0 .2-.2-.2 0-.4 0-.4-.3-.2-.1-.1-.3-.3-.4-.3 0-.6-.2-.8-.4-.4 0-.3-.2-.5-.4h-.4v-.3c-.2 0-.5 0-.4-.4-.1-.1-.2-.1-.4 0 0-.4-.6-.3-.8-.6h.2c.2 0 0-.3 0-.3h-.2v-.3c-.1 0-.2 0-.3-.2 0-.2 0-.4.2-.6h.2c0 .2.3 0 .4 0 0-.1-.4-.1-.4-.3.1 0 .2-.1.4-.1 0 .1 0 .2.2.3h.2c0 .3.3.3.5.4v-.3c.2 0 .1.1.2.3h.3c0 .2.2.3.4.3.1 0 .2.1.4.1 0 .3.3.3.5.5l.2-.2c0 .3.3.3.5.5.1 0 .2.2.4.1 0-.2 0-.3-.2-.4h-.4v-.1c-.1-.2-.4-.3-.7-.4v-.2s-.1 0-.2.1c-.2 0-.1-.5-.4-.5v.3c-.2 0-.3-.4-.4-.5-.2 0 0 .2-.3.2 0-.2 0-.3-.1-.4v-.2c-.2 0-.1.2-.3.2 0-.2 0-.3-.2-.4-.2-.1-.4-.3-.7-.3-.1-.3.2 0 .2-.3h-.6c-.2 0-.1-.1 0-.3-.2-.2-.4-.2-.6-.3Zm74.7-15c.3 0 .2.3.4.5h-.3c0 .1 0 .2.2.3.1-.1.4-.1.4-.3-.2-.2-.2-.3 0-.4-.2 0-.3 0-.3-.2-.1.2-.6-.3-.5 0Zm1.2.5c.2-.2-.1-.2-.2-.1 0 .1 0 .1.2.1Zm.4 0s0-.4-.2-.4c-.1.1 0 .4.2.4Zm2.8 1.7c.3.2.3 0 .3-.2.2-.1.5 0 .4.2 0 0 .1-.2.2-.2v-.2h-.2c-.1 0-.2-.3-.3-.3v.2c-.4-.1-.7.3-.5.6Zm.9-9.8c.2.2.4-.4.2-.4 0 0-.2.3-.2.4Zm2.5 7.6ZM85.5 23Zm-1.4-3.5s.2-.1.3-.1c0-.2 0-.3.1-.5.1-.1.3-.2.4-.3.2-.1 0-.3 0-.5h.2v-.4c.4 0 .2-.3.2-.6.2 0 .2-.1.4 0 0-.3 0-.3.3-.4 0-.1-.1-.2-.2-.3l.5-.5v-.3h.3c.1-.2 0-.4.3-.5 0-.2-.1-.2-.3-.1 0-.2.2-.3.4-.3s.3-.3.5-.3c0-.3 0-.5.2-.7.2 0 .2-.2.4-.3v-.5c.1-.1.3-.2.3-.4 0 0 .2 0 .2-.1.3-.2.6 0 1 0 .3 0 .6 0 .9.2 0 .2-.2.3.2.4.2.2 0 .4-.2.3v.6h.3c.2.2.4.1.6.1.1-.1.2-.2.2-.4h.3c.1 0 .3.2.5.2v-.5c.2 0 .3 0 .5-.2v-.2c.7-.1 1.2-.4 1.9 0 0 0 .1.2.1.3-.1.3-.4.2-.1.6v.3c0 .3 0 .5-.3.6 0 .3-.2.2-.2.4h-.2s-.1.2-.2.2c.2 0 .4.1.6.2h.5v.2c.1 0 .2.2.2.3h.2v.2c-.2.1-.3.4-.3.6h-.2c.1.3 0 .4 0 .7-.2 0-.4.3-.1.3l-.2.2s-.2 0-.3-.1v.5c0 .3-.3 0-.3.3h.2c.1.2 0 .4-.2.4 0 .2 0 .6-.2.8v.3c.1.1.2.2.2.3h-.2c0 .3-.3 0-.3.4 0 .2.3.2.2.4 0 0-.1.2-.2.2-.2-.2-.3.2-.2.3-.2 0-.2.2-.4.2s-.2.4 0 .3c-.1 0-.2.2-.2.3 0 0 0-.1-.2-.1h-.2v.4c0 .1-.1.2-.2.3v.4l-.2-.2c-.2 0-.2.4-.1.5.1.1 0 .2 0 .3 0 0-.1-.1-.2-.1 0 0-.1 0-.2.2 0 0-.1-.3-.3-.3v.3h-.3s-.1 0-.2.1c-.2-.2-.3-.1-.5 0-.2 0-.2-.3-.4-.3 0 .2.2.3 0 .5-.2 0-.3 0-.5-.1 0-.2 0-.2-.1-.4.2-.2.3 0 .4-.4l-.2-.2c.1-.1.1-.2 0-.3-.3-.1-.3.1-.2.3-.4-.2-.7.3-1 .2 0 .3-.3.1-.4.4 0 .2 0 .3-.2.4-.2 0-.3 0-.3.2v-.2H87v-.3s-.1-.2-.2-.3v-.2c-.2 0-.2-.2-.4-.3v.2c-.4 0-.3-.5-.7-.3-.2.1-.2-.2-.3-.3 0-.2-.1-.2-.1-.3.2 0 .4.5.6.3-.2-.3 0-.4-.1-.7h.3c.1-.2 0-.4 0-.5.1 0 .3.2.5 0 0-.3-.3-.5-.5-.3 0 .3-.3.4-.1.6h-.4v.2c-.1 0-.2-.2-.3-.2-.1.1-.2.1-.4.1 0 0 0-.2-.1-.2-.1-.3.2-.3.1-.6 0-.1.2-.2.3-.2-.1-.2 0-.9-.3-.9-.2 0 0 .3-.3.3v-.2c-.4 0 0-.4-.2-.6ZM13.7 64.7c.2 0 .2 0 .2-.1 0 0-.4 0-.2.1Zm75.6-40s.2-.2.2-.3c-.3.2-.3-.2-.6-.1 0 .1.2.1.3.2 0 0 0 .1.1.2Zm-.9.3h.4c0 .1.1.2.2 0 .2-.2 0-.3 0-.4h-.4c0 .1-.3.2-.2.4Zm2.9 17.1c0 .1 0 .2.2.2.2-.2-.3-.5-.2-.2Zm-72.8 2.5c.1 0 .1 0 0 0Zm28.2-13v-.2.2ZM18.6 70.4v-.3c-.2-.2-.6 0-.4.3h-.3c0 .2.3.1.4 0 .1-.2.3-.1.4-.1ZM8.9 66h-.1.1Zm11.5 0 .1.1V66Zm.2 3.3h.5c0-.1-.2-.2-.3 0-.1 0-.2 0-.2.2Zm.8 2c-.4.2-.9.1-1.4.2-.3.2-.5.2-.8.3 0 .1-.1.2-.2.2-.4 0-.7.2-1 .3-.4.2-.9.2-1.3.5s-.8 0-1.1.3v.3c-.4.3-1 0-1.4.3 0 .1-.1.3-.2.4-.3.1-.6 0-.8.2-.2.1-.5.2-.7.2 0 .3-.6.3-.8.3l-.2.2c-.6 0-1.1.5-1.6.5-.3.2-.6.2-.9.3-.2 0 0 .3-.3.4h-.5c-.3 0-.5 0-.7.3-.3 0-.3.2-.5.1-.2 0-.4.2-.4 0 0 0-.1 0-.2.1-.2 0-.4.2-.6.3-.2 0-.3 0-.5.1-.2-.2-.4-.1-.7-.1 0 0-.1-.3 0-.4 0-.1.1-.2.1-.3h.7v-.2c0-.2.2 0 .3 0 .2 0 .1-.2 0-.3.2 0 .4.1.5-.1 0 0-.1-.2-.1-.3.3 0 .4 0 .6.2.3 0 .4-.2.7-.2 0 0-.2-.1-.2-.3.2 0 .5-.2.7 0 .2.2.3 0 .5 0v-.2h.4v-.2c.3 0 .4-.2.6-.3.2-.1.2-.2.2-.4.2 0 .5.1.3-.2h.1c0 .2.3.2.4.2v-.3h.5c.2-.2.4 0 .5-.3h.7c-.2 0-.3-.2-.5-.2h-.2V73h-.7c-.2.2-.4 0-.4.3 0 0-.1-.2-.3-.2 0 .2-.1.5-.4.5-.3 0-.4 0-.7.1-.3.2-.5 0-.8.2v.3h-.3s0-.2-.1-.2c-.2.1-.5.1-.5.4-.1.1-.3 0-.4-.2-.2 0 0 .2 0 .3-.2.1-.3 0-.5 0 0 .1 0 .2-.1.2 0 0-.2-.1-.2-.2-.2 0-.4.4-.7.4-.1 0 0-.3-.3-.2v.3c-.2 0-.3 0-.5.2v.2c-.2 0-.4 0-.7.2-.3 0-.4.1-.7.2 0 0-.1 0-.2-.1-.2.3-.4 0-.7 0 0-.4-.2-.4 0-.6.2-.1.3 0 .6.1v.2c.3 0 .3-.1.3-.3.2-.1 0-.3.2-.4.2 0 .4-.1.6 0 .1 0 .2.1.3.2v.2-.3c.3 0 .1 0 .3-.3.4 0 .6-.4.9-.5 0-.2.2-.3.2-.5 0-.3.5-.1.6-.3 0-.2.3-.3.5-.4.2.3.3 0 .5-.1v-.5c.2-.2.5-.3.7-.5.2 0 .3-.2.5-.2 0-.2.4-.3.5-.2.4 0 .6-.2 1-.1-.3 0-.3-.2-.5 0-.2-.2-.1-.2-.3 0-.3 0-.5 0-.8.1 0 .3-.3.2-.5.4-.1 0-.2-.2-.3-.3 0 .2 0 .3-.2.4H7c-.2.1-.3.1-.5 0v.3c-.2.1-.3-.2-.5 0-.1.2-.4 0-.5.1h-.3s-.2.1-.3.1c-.1.1-.3.3-.5.2-.2-.1-.2 0-.2.1H4v.2c-.5-.2-.5.3-.8 0-.1 0-.2.2-.4.2v-.2c0 .1 0 .2-.1.4-.3-.2-.4.3-.8 0v.3l-.2-.2H.6v-.2c.3-.3 1-.1 1-.6h.1c.3-.3.6-.1.7-.6h.5c.3 0 .3-.1.5-.3.1-.1.2 0 .3 0 0 0 .2 0 .2-.1h.2c.1-.1.2-.3.3-.4.2 0 .4.1.5.3 0-.2 0-.2.2-.1 0-.2 0-.2.2-.2-.1-.2 0-.4.2-.3.2.1.2.1.4 0 .3 0 .3 0 .3-.3h.2c.3-.2.5-.4.9-.4 0 0 .1 0 .2-.2v-.3s-.2-.1-.3-.2v-.3c.2 0 .3 0 .3-.1 0-.2.2-.2.4-.2.1-.5.5 0 .8-.4.2-.1.5-.2.5-.4h-.3c-.2.2-.3.2-.6 0 .1.1.2.2.3.2 0 .2-.3.1-.4 0 0-.1 0-.3-.1-.4 0-.2.5-.7.5-.3.2-.3.8-.2 1-.3V67h.5c0-.1.1-.2.1-.3 0 0-.2 0-.2.2h-.2l-.2.2h-.2s0 .2-.2.2c0 0-.1 0-.2-.1 0 .2 0 .2-.3.2v-.2c-.2 0-.2 0-.2.2-.1 0-.4-.4-.5 0l-.1-.1v-.2c-.1-.2-.1-.6.2-.4.2-.3.4-.2.7-.3v-.3h.8c.2 0 .7 0 .7-.2.2 0 .3 0 .3-.2 0 0 .1 0 .2.1.1 0 .2-.1.2-.2h.2c.2-.2.6-.1.9 0 .1 0 .2-.1.2-.3.3 0 .4.2.7 0v-.2c.1-.2.3 0 .5 0 0-.2 0-.2.3-.2 0 .3.2.2.4.2.4-.3 1 0 1.5 0-.1 0-.4 0-.4-.2 0-.1 0-.2.2-.3 0 .4.4.1.6.2.2.1.4 0 .4-.2h1v-.2c.2 0 .4.1.5.2.2-.2.2 0 .4 0 0 .2 0 .3-.1.3 0 0 .1 0 .1.2 0 .3-.4.4-.7.4-.3 0-.4.1-.6 0v.2h.3c.2-.2.4-.2.7-.1l.2-.2c.2 0 .4.2.4-.1.2 0 .3.1.5.2.2 0 .3 0 .4-.2.2 0 .3 0 .4-.2.2 0 .1.1.2.3.2-.2.3-.1.6-.1v-.2h.2v-.3c.2 0 .3 0 .3.3 0 0 .1-.3.2-.4v.3c.3-.2.5.1.8.1v-.4h.3v-.2c.1 0 .2 0 .2-.1v.3c-.3 0-.3.2-.1.4v.5c-.2 0-.3.1-.5.1-.1 0-.2 0-.3.2-.2.1-.3 0-.5 0s-.3.1-.4 0c-.1 0-.3.1-.4.1 0 0 0 .1.3.1 0 0 0 .1-.1.2 0 .3.2.3.3 0 .2 0 .5.2.5-.1 0 0 0-.1-.1-.2.1 0 .3 0 .4.1v.5h-.3c0 .2-.1.3-.4.2-.1 0-.2 0-.2.2-.2 0-.2-.1-.3-.2 0 .4-.3.2-.6.3-.1.1-.2 0-.3.3h-.4.7c.2-.4.8-.2 1.1-.2.2 0 .5-.1.8-.2.1 0 .2.1.2.3l.2-.2c.2.1.4 0 .5.2.2.1 0 .4.1.6 0 0-.1.2-.3.2 0 .3-.4.3-.6.4-.2 0-.4.2-.6.2-.3.2-.7 0-1 .3v.3c.1 0 .2 0 .3-.2h.6c-.1 0-.2 0-.2.2h.5c.2 0 .4 0 .6-.2v.2c-.2 0-.3 0-.3.2v-.1c-.2 0-.3 0-.4.2 0 0-.1 0-.2-.1-.1 0-.2.1-.2.3 0-.1 0-.2-.2-.2 0 .3-.3 0-.4.2-.3.2-.4-.2-.6 0v.2c-.2 0-.2-.1-.4.1-.2 0-.3-.1-.5-.2l-.2.4c-.2 0-.3 0-.5.1 0 .1 0 .2.1.2.2 0 .3.3.5.1v-.3h.3s.1-.2.2-.2c.3.2.6 0 .9-.2h1.3c.1.1.2.2.4.2V70v.2h.3c-.1.1-.2 0-.3 0-.2.2.3.3.2.5-.2 0-.2.1-.4.1-.3 0-.2.2 0 .4-.2.3-.7.1-.9.4Zm23.9-39.2c.2 0 .2-.4 0-.3v.3Zm-.7.3c.2 0 .2-.2.2-.4.3-.1.5-.3.7-.5h.3c-.2-.3.2-.2.2-.5h.1v.3h.2c.2.2 0 .5 0 .7v-.2H46s0 .1.2.2c-.1.2-.4.1-.6 0v.5c-.3 0-.1.2-.3.4 0-.1 0-.4-.1-.4v.4h-.3s-.1.2-.1.3c-.2 0-.2-.1-.4 0-.1.3-.3.3-.5.5h-.4c0-.1.2-.3.3-.4 0-.1 0-.3-.1-.4.2 0 .2.3.4 0v-.2s.2 0 .2-.1c.1.1.2.2.3 0v-.2c.1 0 .2 0 .3.1Zm.8.5c0 .1 0 .4.2.3 0-.1 0-.4-.2-.3ZM29.6 88.7s0-.1-.2 0c0 0 0 .1.2 0ZM10.5 40.9c0 .1.2.3.2.1 0-.2-.1-.2-.2-.1Zm53.9-19.7v.1c0-.2 0-.2-.2-.1Zm-8.3 8.6v-.4c-.1 0-.2 0-.3.1v.2c.1 0 .3.1.4.2v-.2Zm-8.1.8v-.2c0 .2 0 .2.2.2Zm.7.7Z" style="fill:#f0bf60"/><path d="M51.5 62.4c.8.1 1.7.4 2.2 1.1.1.1.3.2.4.4 0 .1 0 .3.1.5 0 .3-.3.6-.2.9 0 0 .1 0 .1-.2.1.3-.1.7-.4.9-.3.5-.7.8-1.2 1.2-.4.4-.8.5-1.3.6-.6.5-1.4.7-2.1.9-.6 0-1.1.4-1.6.4-1.4.3-2.6.8-4 .8-.5 0-.9-.1-1.4-.4-.4 0-.8 0-1.2-.4-.3-.3-.7-.5-.9-.9 0-.3-.1-.6 0-1 0-.1-.2-.2-.1-.4.3-.6.8-1.1 1.4-1.6.6-.4 1.3-.8 1.9-1.2 1.4-.8 3-1.3 4.5-1.6h.2c.4 0 .8-.2 1.2-.2.8 0 1.6-.4 2.3 0Zm25.6-2.9c.7 0 1.5-.1 2.2 0h1.9c.5.2 1.1 0 1.6.2.5 0 .9.1 1.4.2.3.1.7.2 1 .3.5.3 1.3.6 1.7 1.1.3.3.1.7.4 1.1.2.7-.2 1.2-.6 1.8h-.2v.2c-.4.3-.9.6-1.4.9-.6.3-1.3.4-1.9.6-.5.1-1.1 0-1.6.2-1.7.1-3.4 0-5.1-.3-.7 0-1.3-.2-1.9-.4-.6-.3-1.2-.6-1.6-1.1-.1-.1-.2-.2-.4-.2-.3-.2-.2-.5-.4-.7 0-.2-.3-.6 0-.8.2-.2 0-.4.2-.7.2-.5.7-.7 1.2-.9.8-.4 1.7-.9 2.6-.9.2-.2.5-.1.7-.2Z" style="fill:#fe9191"/><path d="M52.4 73.6s.1 0 0 .2c0 0-.1 0 0-.2Zm20.5-5.8c.3 0 .5.3.7.3.2 0 .4.3.4.5v1.2c.3 0 0-.6.3-.6.1.5 0 1.1 0 1.6 0 .4-.1.9-.1 1.3-.5 1.6-.9 3.3-1.4 4.9v.2c-.2.3-.3.7-.6 1-.5.6-1 1.1-1.4 1.7-.2.2-.4.4-.7.6-.4.5-.9.8-1.5 1-.4.2-.8.3-1.2.4-.5.2-1 .3-1.5.4h-2.6c-.7 0-1.2-.4-1.9-.6-.5-.2-1-.4-1.5-.7-.5 0-.7-.4-1.1-.6-.3-.2-.5-.4-.9-.6-.4-.3-.8-.5-1.2-.8-.6-.3-1.1-.8-1.6-1.3-.1-.2-.3-.3-.5-.5-.4-.7-1-1.2-1.4-1.9-.2-.3-.3-.6-.4-1 0 0 0-.1.2-.2 0-.2-.2-.4-.2-.6v-.9s.2 0 .2.2c.2 0 .3 0 .5-.1 0-.2-.2-.2 0-.4 0-.1.2-.1.3-.3.2 0 .3 0 .3.2.1-.1.5 0 .5.2 0 0 .1 0 .2-.1.5.2.3.7.7 1 .1.1.1.3.3.4.3.2.5.6.8.9.2.5.6.7.9 1 .2.3.5.5.8.7.6.3 1 .7 1.6 1 .6.3 1.2.7 1.9.9.5.1.9.2 1.4.2.8.2 1.6 0 2.5 0 .5 0 1-.2 1.4-.3.6-.3 1-.7 1.5-1.1.5-.3.8-.9 1.1-1.3.1-.1.2-.3.3-.5.2-.2.3-.5.4-.7.4-.5.8-1.1 1-1.7.2-.3.2-.7.3-1.1 0-.5.1-1 .2-1.5-.1-.5 0-1 .2-1.5.2-.1 0-.6.3-.5 0 .2.3.3.3 0s0-.3.3-.4c.1-.1.2-.3.4-.2ZM49 49.2c.9 0 1.7-.1 2.5.2.4.1.8.2 1 .6.4.3.8.3 1.1.7.3.4.6.9.9 1.4.1.4.4.8.5 1.2.2.3.1.7.3 1 .3.6.2 1.3.1 2-.1.4-.1.9-.4 1.2-.4.1-.6.3-1 .5 0 0-.2-.1-.3 0-.2 0-.2-.2-.4-.4-.2-.1-.3.2-.5 0s-.3-.4-.4-.7c-.2-.4 0-.9-.1-1.4-.2-.8-.4-1.6-.7-2.3-.2-.4-.5-.6-.9-.8-.4-.1-.9 0-1.4 0-.5.3-1.1.4-1.6.8s-.8 1.1-.8 1.7c.1.6 0 1.1 0 1.7 0 .5.1.8.2 1.2 0 0 0 .1-.1.2 0 .2-.1.3 0 .5 0 .1-.2.2-.2.3 0 0-.1 0-.2-.1-.2.1-.2.3-.4.5h-.6s-.2-.1-.3-.2c0-.1 0-.2-.1-.2-.2.1-.3.2-.4 0-.2 0-.3-.4-.4-.6-.2-1-.2-2-.1-2.9.2-.6 0-1.2.2-1.8.1-.2.2-.4.2-.7 0-.4.4-.7.5-1 .3-.8.8-1.4 1.6-1.8.4-.3.9-.5 1.4-.7.2 0 .4-.2.7-.2Zm27.7-2.3h2.1c.9.3 1.8.6 2.6 1.2.4.5.7.8.8 1.4.3.5.4 1 .5 1.5.3.6.4 1.1.6 1.8 0 .7 0 1.4-.2 2.1-.1.4-.4.8-.8 1 0 .4-.3.1-.6.2-.2-.2-.3 0-.5-.3-.4 0-.6-.2-.7-.5v-.6h-.2v-2c-.1-.4 0-.8-.2-1.2-.1-.6-.6-1.1-1-1.5-.2-.2-.3-.4-.6-.4s-.6 0-.8.2c-.4 0-.8.2-1.2.4-1 1-1.4 2.7-1.6 4.1.2.5 0 1.2-.2 1.7h-.3c0 .1-.1.2-.2.4 0 0-.2 0-.2.1 0-.3-.1-.2-.2 0-.3-.1-.3 0-.5 0s-.3-.3-.3-.5c-.2 0 0 .2-.3.2-.5-.3-.3-.8-.5-1.2v.4-.9c0-.3-.1-.4 0-.7.2-.3.1-.6.1-.9v-.2.7c-.1-.4 0-.8.1-1.2 0-.4 0-.9.2-1.3.2-.8.7-1.4 1.2-2 .3-.6.9-1.1 1.4-1.5.3-.2.6-.3.8-.5.4-.1.7-.3 1.2-.3Z" style="fill:#4a4a4a"/></svg>