<svg version="1.1" id="small" xmlns="http://www.w3.org/2000/svg" xmlns:xlink="http://www.w3.org/1999/xlink" x="0px" y="0px"
	 viewBox="0 0 967 802.7" style="enable-background:new 0 0 967 802.7;" xml:space="preserve">
<style type="text/css">
	.st0{fill:#ED5565;}
	.st1{fill:#97C671;}
	.st2{fill:#FFCE54;}
	.st3{fill:#4FC1E9;}
	.st4{fill:#A4E9E9;}
	.st5{fill:#FFFFFF;}
	.st6{fill:#212121;}
</style>
<symbol  id="logo" viewBox="-57.3 -47.6 114.6 95.1">
	<polygon class="st0" points="-0.2,-28.6 28.3,-18.6 55.4,-31.2 -0.2,-45.8 -55.6,-31.1 -29,-18.7 	"/>
	<polygon class="st1" points="-10.7,-7.9 -31.7,-17.8 -52.5,-10.6 -31.9,1.1 	"/>
	<polyline class="st1" points="51.1,-10.4 30.8,-17.6 10.1,-7.9 31,1.1 	"/>
	<polygon class="st2" points="-29,-18.7 -8.2,-9 -0.2,-12.4 7.7,-8.9 28.3,-18.6 -0.2,-28.6 	"/>
	<polygon class="st3" points="-34,2 -50.4,9 -0.2,45.7 50.1,9.3 33.2,2 -0.2,21.2 	"/>
	<polygon class="st4" points="-10.7,-7.9 -31.9,1.1 -0.2,19.1 31,1.1 10.1,-7.9 -0.3,-3.1 	"/>
	<polygon class="st5" points="-8.2,-9 -0.2,-5.2 7.7,-8.9 -0.2,-12.4 	"/>
	<path class="st6" d="M56-32.4L56-32.4c-8-3.9-17.1-4.7-25.7-7c-9.8-2.6-19.6-5.3-29.4-8.2c-0.5-0.2-1.1,0.1-1.2,0.7
		C-19-41.5-37.8-36.5-56.6-31.7c-0.6,0.2-0.8,0.8-0.6,1.4c0.2,0.5,0.7,0.7,1.2,0.7h0.2l0.2,0.1c4.3,1.9,8.5,4,12.5,6.4
		c2.7,1.5,5.4,2.8,8.1,4c-6.3,2-12.5,4.6-18.4,7.6c-0.5-0.2-1.2,0-1.4,0.6c-0.2,0.5,0,1.1,0.5,1.4l18.9,10.6
		c-5.1,2.7-10.4,5.2-15.8,7.3c-0.3,0.1-0.6,0.4-0.7,0.7c-0.4,0.3-0.4,0.9-0.1,1.3c0.1,0.1,0.2,0.2,0.3,0.2c9.4,4,17.1,10.5,25,16.8
		l25.1,20c0.3,0.3,0.7,0.3,1.1,0.2c0.3,0,0.6-0.1,0.7-0.4c3.2-4,8-6.2,12.3-8.8c4.6-2.8,9.1-5.8,13.5-8.8c8.7-6.1,17-12.6,24.9-19.6
		c0.1-0.1,0.2-0.2,0.2-0.3C51.6,9.1,51.5,8.4,51,8c-0.1-0.1-0.2-0.1-0.3-0.2c-6.1-2.1-12-4.4-17.9-7C39.7-3.1,46.9-6.6,54-10h0.1
		c1-0.2,0.9-2-0.4-2.1C45.9-13,38.2-15,30.9-18.1c3.7-1.6,7.4-3.3,11-5.2c4.8-2.6,9.4-5.4,14.6-7C57.9-30.7,57.3-32.8,56-32.4z
		 M31.1,2.4c5.7,2.5,11.4,4.8,17.3,6.8c-7.9,6.9-16.2,13.4-24.8,19.3c-4.3,3-8.7,5.8-13.2,8.5c-3.9,2.4-8.2,4.5-11.2,8l-25-19.9
		c-7.3-5.8-14.4-11.8-22.9-15.7c5.2-2.2,10.4-4.6,15.4-7.3l0,0l33,18.5c0.1,0,0.2,0.1,0.2,0.1c0.3,0.3,0.8,0.3,1.2,0.1
		C10,15.9,18,9.6,26.7,4.3c1.3-0.8,2.6-1.5,3.8-2.3C30.7,2.2,30.9,2.4,31.1,2.4z M25.7,2.4C17.2,7.6,9.3,13.7,0.6,18.6l-51.8-28.9
		c6.2-3,12.4-5.8,19.1-7.4h0.1l2.2,0.9c4.2,1.8,8.5,3.5,12.8,5.2c2.5,1,4.9,2.1,7.3,3.2c1.2,0.5,2.4,1.1,3.5,1.7
		c0.6,0.3,3.4,1.3,3.5,2c0,0.5,0.5,0.8,0.9,0.8c0,0,0,0,0.1,0c0.3,0.1,0.6,0,0.8-0.1c9.2-5.3,19.3-8.9,29.1-12.9
		c0.1,0.1,0.2,0.1,0.3,0.2c6.9,3.1,14.2,5.2,21.6,6.3C41.8-6.5,33.6-2.3,25.7,2.4L25.7,2.4z M42.3-26c-4.9,2.6-10,5-15.1,7.1
		C17.6-14.9,7.9-11.4-1.1-6.4C-2.1-7.4-4-8-5.1-8.6c-2.3-1.2-4.7-2.3-7.1-3.3C-17.1-14-22-15.9-27-18c-5.2-2.1-10.2-4.4-15.1-7
		c-3.5-1.9-6.9-3.8-10.5-5.5c18-4.6,35.9-9.4,53.7-14.5l0.2-0.1c9.1,2.7,18.3,5.2,27.5,7.7c8,2.1,16.6,2.9,24.2,6.1
		C49.4-29.7,45.8-27.9,42.3-26L42.3-26z"/>
</symbol>
<use xlink:href="#logo"  width="114.6" height="95.1" x="-57.3" y="-47.6" transform="matrix(8.4375 0 0 8.4375 483.812 401.4221)" style="overflow:visible;"/>
</svg>
