<?xml version="1.0" encoding="UTF-8"?><svg id="b" xmlns="http://www.w3.org/2000/svg" viewBox="0 0 2100.76 559.93"><g id="c"><path d="M828.53,498.91l-254.75-33.93,38.88-282.22,253.51,35.56-37.64,280.59ZM706.67,245.29l.55-19.05-1.2-.79c-28-.51-56.01-3.05-83.32-9.13l-2.57,16.02,23.43,7.08c.92,11.19,1.15,21.13.12,32.32-6.59,71.5-43.47,183.43,62.63,197.14,54.32,7.02,85.7-27.33,95-77.58,5.98-32.33,7.44-66.79,12.45-99.43,1.58-10.28,3.94-20.38,5.9-30.56l25.95.96,1-18.99c-25.78-1.56-51.92-2.39-76.96-8.99l-2.87,17.85,23.39,6.09c.89,1.36.69,25.71.45,29.49-2.13,33.73-10.29,69.54-13.45,103.43-7.38,37.92-35.84,67.73-77.04,54.94-36.77-11.42-39.25-52.12-36.33-84.31,2.37-26.02,6.19-54.97,10.01-80.89,1.81-12.29,4.11-24.43,6.95-36.5l25.9.9Z" style="fill:#56b0e4;"/><path d="M236.86,491l-196.48,24.03L4.94,233.29l195.46-24.02,36.46,281.72ZM165.88,241.28c-36.59-1.73-81.12-9.32-111.43,16.02-21.09,17.63-25.26,42.99-15.29,68.16,13.73,34.66,63.29,41.48,93.69,55.21,16.97,7.66,31.23,16.46,33,36.94,3.96,45.6-48.89,51.6-81.93,40.92-5.74-11.32-7.3-23.97-9.12-36.33l-21.89.89,2.14,50.31c11.19,5.99,27.42,8.86,40.31,9.66,48.21,2.99,112.38-14.96,104.38-75.33-7.04-53.09-60.87-57.48-100.81-75.07-13.68-6.02-29.78-15.57-31.94-32.02-5.63-42.92,40.64-48.69,72.22-40.45,5.52,9.2,8.07,19.51,9.1,30.11,1.99,2.95,15.88-.94,19.56-.06l-2-48.96Z" style="fill:#ffde5c;"/><path d="M405.78,266.26c-.03.47,1.09,2,.79,4.17-.47,3.5-2.54,5.01-2.79,5.81-6.23.78-28.91,4.33-28.91,12.49.76,4.89,6.47,6.95,10.7,8.2,14.65,4.35,37.13,2.5,52.21-.19,9.05-1.62,18.75-5.55,27.6-6.39,53.76-5.07,65.96,56.94,58.05,97.96-17.8,92.41-138.25,130.01-201.65,57.26-40.78-46.8-42.79-132.88,15-166.85,21.18-12.45,44.92-14.4,68.99-12.47ZM347.8,301.23c-1.01-1.02-10.39,7.75-11.51,8.97-26.08,28.21-28.74,76.98-7.9,108.8l11.42,14.06c2.02.17.52-1.78.19-2.69-1.76-4.94-4.41-10.04-5.92-15.07-11.35-37.72-7.44-80.59,13.71-114.08ZM508.73,348.16c.62-31.99-29.52-51.87-58.96-39.94l20.52,3.95c17.9,6.24,27.87,17.42,36,33.99.7,1.43-.21,2.5,2.44,2Z" style="fill:#e32227;"/><path d="M405.78,266.26c1.35-19.92.96-36.07-2.48-55.96-8.01-46.37-35.64-125.2-79.81-147.99-3.87-2-16.29-5.84-18.24-7.74-4.41-4.32,3.6-20.01,7.12-23.98,5.84-6.58,10.55-2.89,17.1.77,2.48,1.38,8.56,6.52,10.04,6.95,5.3,1.53,17.96-.24,24.65.34,30.22,2.65,62.71,21.89,87.32,38.61l66.25,51.16c.72-.75-3.65-6.03-4.48-7-4.92-5.77-13.62-13.24-19.49-18.48-29.13-25.98-62.07-48.38-97.97-63.93-.52-2.11,7.21-5.12,9.02-5.95,31.93-14.59,68.13-12.77,97.84,6.04,36.96,23.4,59.31,75.27,73.8,115.03,1.03,2.82,7.32,19.13,6.25,20.22-29.51-.42-60.08-1.34-89.18-6.28-41.39-7.02-83.31-23.91-98.77-66.12-5.56-15.19-7.32-31.3-7.03-47.42-11.59-2.06-23.04-5.12-34.93-5.03-.45,1.73.71,2,1.49,3,4.84,6.28,10.59,11.87,15.32,18.66,38.29,55.06,56.1,133.65,57.16,200.09.07,4.65.45,3.18,1,5.99.68,3.52,2.74,13.41,1.5,15.99-2.83,5.87-25.79,4.96-28.76-1.25-1.93-4.03,1.27-7.13,2.59-10.96.6-1.75.33-3.67.69-4.78.26-.8,2.32-2.31,2.79-5.81.29-2.17-.83-3.7-.79-4.17ZM306.83,51.5c1.75,1.8,6.91-6.82,7.51-7.97,2.12-4.09,3.75-8.27,3.47-13-6.69,4.54-9.28,13.48-10.98,20.97ZM523.72,135.4v-2.99h-.98v2.99h.98Z" style="fill:#468834;"/><path d="M1527.32,242.3l15.57,194.83-136.55,11.51-16.53-194.44,137.51-11.9ZM1513.34,380.13v14.48c0,.55-1.97,6.09-2.67,6.57-4.03,2.75-24.57,6.83-29.85,6.93-56.75,1.16-64.69-115.46-9.95-120.87,5.43-.54,24.37-.3,28.73,1.99,4.15,2.17,3.33,17.87,4.89,18.84l10.92-.3c1.02-.71.86-1.94.98-3.01.58-4.81.59-18.28,0-23.08-.15-1.23.05-2.01-1.05-2.95-1.21-1.04-16.76-3.28-19.51-3.47-61-4.18-93.21,28.58-81.16,90.09,9.16,46.74,42.67,60.23,86.68,51.25,5.28-1.08,22.66-5.13,26.39-7.61.84-.56,1.63-.93,1.37-2.14l-3.81-27.69-11.97.98Z" style="fill:#a574b0;"/><path d="M1807.22,426.08l-118.96-5.99,10-183.8,118.54,6.93-9.57,182.86ZM1749.74,272.25h14.49l-1.61-12.05-48.92-.99-1.03,9.09,14.48,3.04,1.09,19.37c-4.45,27.46-1.13,59.72-6.26,86.64-.32,1.67-1.87,8.76-2.67,9.32l-14.62,1.37.61,10c28.54.16,57.02,3.09,85.48,5.1,2.45.12,4.31-.34,5.2-2.78.82-2.24,4.27-24.11,4.28-26.79,0-.86.08-1.78-.47-2.52l-10.5-1.85c-1.07,4.38-4.21,18.34-8.75,19.72-13.13,1.48-26.13-.28-39.3-.81.3-8.47-.37-17.04-.04-25.52.79-20.3,2.39-42.57,4.05-62.88.71-8.64,1.57-17.26,3.2-25.77l1.29-1.71Z" style="fill:#89c05a;"/><path d="M1383.39,260.26l-2,181.8-121.96-2,3.01-181.79,120.95,1.98ZM1364.4,310.21v-28.47l-92.96-3.5-.91,9.9,13.96,2.52c.81.57,1.65,6.63,1.81,8.18,2.34,24.04-.5,58.17-1.91,82.74-.48,8.3.73,16.38-2.44,24.54l-14.5,1.99c-.04,1.92-.52,10.51,1.65,11.01l35.86-1.08,57.02,2.15c2.91-2.51,4.14-27.79,4.42-33.08l-10.06.45c-1.96,4.35-3.37,17.73-8.64,19.34-2.03.62-8.24,1.1-10.75,1.24-11.05.65-21.95-1.34-32.97-1.01-4.06-18.06.82-36.62-.57-54.98,4.42-.12,34.41-.22,35.04,2.66l.96,12.33,9.03-1.57.38-36.5-8.27-.74c-2.45,11.58.15,13.01-12.59,13.89-7.85.54-15.76-.45-23.54-1.04.19-16.64-.91-33.42,2.11-49.84l41.16,2.1c3.67,1.55,5.37,12.82,5.76,16.72l10.95.05Z" style="fill:#41af66;"/><path d="M1968.79,238.43l116.9,8.79-12.53,179.44-117.57-8.5,13.21-179.72ZM2047.17,298.18l11.43,1.07,5.08-28.04c-22.48-7.51-52.31-17.72-73.02-.93-9.93,8.05-13.06,20.77-11.26,33.18,4.56,31.33,62.67,38.5,61.64,67.03-1,27.86-34.35,26.55-51.99,15.21-2.94-7.55-.95-14.76-1.03-22.45l-12.24-2.03-1.46,1.61-4.94,27.02c.04,2.82,10.92,7.6,13.78,8.74,10.49,4.2,27.24,8.02,38.51,7.54,40.23-1.7,55.25-43.52,23.92-69.92-15.24-12.84-53.08-25.28-44.94-49.96,5.16-15.66,22.26-15.22,35.48-11.5,14.83,4.17,10.35,10.16,11.04,23.43Z" style="fill:#5169b0;"/><path d="M1829.2,419.09l-7.55-174.87,120.58-5.49,8.48,173.36c-1.64,3.45-15.04,1.76-19.08,1.97-16.91.86-33.98,2.33-50.9,3.08-17.16.76-34.34.79-51.53,1.96ZM1932.12,288.18l-2.11-28.25-1.47-1.53-30.81,2.9-60.41,1.07-1.09,9.87,14.75,2.24c.8.83,2.76,10.62,2.95,12.53,2.54,24.88,3.02,57.39,3.31,82.59.08,6.71-.55,13.37-1.92,19.94l-13.67,2.51.6,11.01,94.45-4.92c2.52-10.23,2.11-22.28,2.48-32.99l-10.9.11c-1.76,5.71-1.56,18.05-7.86,20.61-2.51,1.02-11.6,2.04-14.74,2.25-9.46.64-19.09-.95-28.44.97-2.58-18.13-2.64-36.57-2.98-54.85l32.3-.92,3.73,12.75c2.29.54,9.12.21,9.72-2.48l-2.41-35.48c-15.71-5.68-5.2,9.99-12.17,12.84-4.47.67-30.14,3.69-31.79,1.32.49-6.64-3.35-46.33-.33-48.9l40.17-.9c5.98,3.33,5.1,10.91,7.64,16.33l11-.6Z" style="fill:#f29155;"/><path d="M10.05,147.28L0,6.61,96.97,0l9.49,140.47-96.42,6.82ZM58.93,18.54c-1-1.04-16.5,1.86-19.46,2.05-5.7.36-13.9-.99-19.04-.04-1.14.21-2.02.34-2.36,1.64l-.14,7.36,12.09,1.63c3.72,17.96,3.24,36.55,3.86,54.84.08,2.36,1.01,4.55,1.08,6.91.19,6.73,1.03,21.15-.04,27.01-.82,4.51-8.55,3.23-11.88,4.6-.17,2.29-.96,6.93,1.53,7.74l70.34-3.35c3.87-1.88.92-19.05,3.04-23.95l-.48-1.6-9.55-.92c-.2,3.98-1.15,14.59-5.01,16.47-2.65,1.29-29.82,3.53-30.94,2.44-3.42-28.88-3.62-58.24-5.05-87.36l1.25-4.24,11.32-2.21-.57-9.03Z" style="fill:#e63721;"/><path d="M1613.3,304.22c68.66-12.18,82.36,84.95,24.67,109.06-43.53,18.19-93.32-19.7-84.68-66.57,6.24-33.86,27.18-23.47,52.01-24.51,1.32-.06,2.69.12,4,0,6.03-.57,12.35-1.09,16.93-5.62,1.34-4.45-7.89-6-10.93-5.37-.57-2.22-1.34-3.55-2-6.99ZM1644.28,321.21h-1.99v.98h1.99v-.98ZM1653.29,385.12c11.61-13.09,11.2-34.67,3.17-49.63-1.04-1.93-8.64-13.69-11.17-11.3,2.55,6.35,6.58,12.46,8.31,19.15,3.51,13.62,3.47,28.25-.31,41.77ZM1587.3,329.2c-14.36-3.45-27.84,7.88-25.97,22.96l8.95-14.52,7.15-4.84,9.87-3.6Z" style="fill:#e32327;"/><path d="M120.53,5.7l94.89,5.79-7.49,136.49-95.59-5.51L120.53,5.7ZM200.71,23.68l-73.81-4.14.04,7.95,10.82,2.17c1.1,5.78,1.24,11.45,1.12,17.34-.37,18.29-1.95,42.74-4,60.93-.29,2.55-1.76,13.76-3.61,14.37l-11.25,1.23.82,7.45,75.59,3.49,3.44-25.03-7.94-.97-5.59,14.92c-11.32,4.36-25.4-.05-37.46.04l2.01-43.94c9.05-.27,18.19.2,27,2.47,2.47,1.86-.74,9.47,2.6,10.44,9.07,2.61,6.19-14.09,6.33-19.45.06-2.32,2.35-9.22.46-10.56l-6.34-.81-2.8,9.91c-3.37,1.23-25.22.31-26.12-1.14-.6-4.84,1.04-38.45,3-39.67,6.32.71,13.05.23,19.34.87,2.87.29,11.82,1.14,13.74,2.01,2.37,1.07,4.22,11.21,3.76,13.97h9.01c-1.06-3.77,1.78-22.6-.16-23.84Z" style="fill:#36bcdb;"/><path d="M1176.33,318.34l2.15,90.76-68.98,1-1.56-89.97,68.39-1.79ZM1140.29,326.44c-8.29.7-17.54,6.5-18.71,15.31-3.3,25.02,31.67,23.49,34.66,38.1,2.27,11.09-6.09,16.04-16.14,15.16s-10.87-4.31-11.05-13.95l-5.92-.8-1.5,1.5c.4,12.37-5.57,14.78,8.66,18.04,17.93,4.11,41.8.04,36.74-23.73-3.22-15.11-31.81-18.69-34.33-29.62-2.83-12.29,9.19-16.16,19.03-13.03,8.32,2.65,1.32,14.54,10.11,11.62,2.22-.74,2.39-12.31,2.2-14.93-1.37-1.92-20.46-3.96-23.75-3.68Z" style="fill:#eb5b5d;"/><path d="M1030.58,403.06l7.39-94.91,65.6,4.49-6.49,94.52-2.06.93-64.43-5.03ZM1093.51,326.19l-48.98-3c-1.44,9.88,7.81,2.19,8.03,12.54s-2.09,23.6-3.02,33.92c-.57,6.36.76,13.08-2.22,19.27-4.62,1.4-9.9-.74-7.35,6.25l48.55,3.46c1.4-.84,3.86-13.29,3.79-15.25-.12-2.94-3.85-2.7-5.85-1.8l-4.66,9.55c-7.62-.27-15.6,1.01-22.85-1.94l1.56-27.05,16.42,1.89,1.02,6.16c2.23,1.85,5.02,1.47,5.55-1.55.37-2.07,1.22-16.59.56-17.54l-3.97-1-3.21,6.92-15.31-.92c-.39-3.41.19-24.4,2.61-24.96,9.96,1.32,22.11-2.72,23.26,10.59,1.34,1.09,6.06.41,6.06-1.06v-14.48Z" style="fill:#5e3080;"/><path d="M948.56,316.2l78.54-1.06.5,87.53-77.6.5-1.44-86.97ZM954.56,396.11h34.49c8.57,0,20.24-9.41,24.3-16.68,7.64-13.69,5.93-39.22-6.89-49.66-14.61-11.89-29.16-6.21-45.44-5.54-4.92.2-9.2-4.35-8.45,4.95,7.55-.82,8.27.46,8.99,7.51.76,7.43-.21,16.32-.03,24,.12,5.04,3.23,26.27-.92,28.96l-6.05.46v6Z" style="fill:#fbbd5f;"/><path d="M1805.72,543.94c-1.11-.32-1.83-2.27-1.49-3.49.84-2.98,6.32,1.86,7.72-7.27,1.42-9.3,1.93-23.01,2.32-32.66.11-2.7.05-5.37-.94-7.92l-6.02-1.69.35-3.98c1.02-1.46,15.88-1.56,17.08.05,3.14,15.08,10.22,28.85,15.96,42.97l17.48-43.46c4.72-.41,18.68-3.1,14.05,5.05l-5.61,1.39,3.52,45.38,6.05.64v5h-22l-.56-4.03,5.62-1.41c3.04-2.04-1.5-27.68-.06-32.51l-2.25,1.27-14.83,35.09-3.4,1.67-2.32-1.77-15.68-37.27c-1.73.06-2.01,30.11-1.5,33.98h6.01s0,4.99,0,4.99h-19.49Z" style="fill:#010102;"/><path d="M1613.3,304.22c.66,3.44,1.42,4.77,2,6.99.54,2.1,1.57,6.3.53,8.01l-6.53,2.98c-1.31.12-2.68-.06-4,0-6.81-3.03-4.07-4.83-3-9.99.79-3.8.06-2.98,0-4.99-.95-29.82-22.44-84.9-50.6-98.76-6.19-3.05-18.92-2.46-14.37-11.11-.02.22,1.76,2.09,0,3.99,2.92,2.75,9.15-10.38,4-11.98,4.95-2.97,15.31,4.84,19.46,8.02,30.07,22.97,45.62,71.09,52.51,106.85Z" style="fill:#488836;"/><path d="M1257.44,482.01v55.44l6,1.5v5s-11.39.06-11.39.06l-2.11-4.04c-11.33,10.54-24.79,3.29-27.04-10.95-2.85-18.1,7.87-30.45,26.54-25.02v-14.48l-7.56-3.44-.43-2.55,1.49-1.51h14.49ZM1237.15,509.19c-10.69,3.16-6.6,40.34,8.83,27.79,4.21-3.43,4.45-19.49,3.48-24.52-.72-3.74-9.15-4.2-12.3-3.27Z" style="fill:#010102;"/><path d="M1738.25,482.01v55.44l6,1.5v5s-11.39.06-11.39.06l-2.11-4.04c-11.33,10.54-24.79,3.29-27.04-10.95-2.85-18.1,7.87-30.45,26.54-25.02v-14.48l-7.56-3.44-.43-2.55,1.49-1.51h14.49ZM1717.96,509.19c-10.69,3.16-6.6,40.34,8.83,27.79,4.21-3.43,4.45-19.49,3.48-24.52-.72-3.74-9.15-4.2-12.3-3.27Z" style="fill:#010102;"/><path d="M1360.29,488.12l-.88,11.88h-5.99s-1.25-7.75-1.25-7.75c-9.91-5.58-24.49,3.18-14.68,13.16,7.25,7.38,27.02,8.82,25.87,24.93-.97,13.54-15.48,15.77-26.34,14.49-12.11-1.42-13.58-4.98-10.51-16.77l4.97.33,2.16,9.32c7.41,2.14,19.86,3.49,19.85-7.26-.01-13.89-27.79-11.82-28.16-29.97-.36-17.51,23.22-17.26,34.96-12.38Z" style="fill:#010102;"/><path d="M1433.37,543.94l.43-4.06,5.44-2.55c-.18-7.45.68-15.52.17-22.89-.55-7.87-.67-5.25-5.35-6.62-1.68-.49-1.93-1.81-1.68-3.32.86-2.72,9.96-1.05,12.42-1.57l2.06,5.03c2.57-3.15,4.89-4.53,8.99-4.97,21.36-2.26,15.55,20.4,16.63,34.32l.81,1.19c4.61-.93,9.35,4.39,3.55,5.43-2.58.46-17.81.59-18.48-1.5-1.35-4.25,5.01-2.67,5.86-5.11-1.01-8.3,4.97-30.4-9.3-28.3-10.97,1.62-6.97,20.58-7.44,28.29l6.43,2.6-.56,4.03h-19.99Z" style="fill:#010102;"/><path d="M2023.13,543.94l.43-4.07c.97-1.31,3.43-.51,4.36-1.12,2.33-1.51,1.23-26.38.15-30.71l-5-.5-.94-4.56,12.56.93.45,4.05c2.86-1.48,5.16-4.37,8.54-4.94,22.65-3.84,17.73,19.48,18.57,34.27l6.43,2.61-.57,4.02h-19.99l.43-4.07c.97-1.31,3.43-.51,4.36-1.12,2.01-1.3,1.57-22.15.28-25.36-3.49-8.67-16.07-2.64-16.07,2.08v23.47h6s0,4.99,0,4.99h-19.99Z" style="fill:#010102;"/><path d="M1636.29,543.94l-.58-4.04,4.61-1.42c1.73-1.21,1.39-26.23.04-30.06l-5.07-.43v-5s12.11.58,12.11.58l.9,4.41c3.07-2.36,5.36-4.52,9.46-5.01,22.99-2.78,14.25,21.42,17.47,35.34l6.05.64v5h-20v-5s5,.01,5,.01c.33-7.72,4.85-30.64-7.48-30.04s-10.05,21.3-8.36,29.89l5.41,1.08.43,4.06h-19.99Z" style="fill:#010102;"/><path d="M1632.29,538.95v5s-11.39.06-11.39.06l-2.1-4.04c-7.33,7.41-23.92,7.08-24.43-5.6-.55-13.6,23.45-12.2,23.99-13.98.66-10.03-3.81-15.13-13.87-11.22l-1.28,6.7-4.97-.34-.49-10.61c29.75-9.5,29.44,9.01,28.69,32.38l1.52,1.5,4.35.14ZM1618.29,525.97c-4.61,1.35-14.46.6-15.07,6.46-1.33,12.68,18.82,4.82,15.07-6.46Z" style="fill:#010102;"/><path d="M1400.38,538.95c13.76,1.33,1.82,7.31-5.86,4.86l-1.15-4.86c-7.01,9.03-25.68,8.28-25.04-5.48.62-13.5,23.7-10.84,24.11-13.07.3-9.43-4.01-15.25-13.81-11.18l-1.25,6.75h-6c.45-2.74-1.08-9.95.98-11.5,2.95-2.23,17.72-1.98,21.28-.25,8.52,4.14,6.24,26.5,6.72,34.73ZM1392.38,525.97c-5.06.63-20.19,2.35-14.88,10.36,5.02,7.58,17.26-2.6,14.88-10.36Z" style="fill:#010102;"/><path d="M1894.92,503.23c2.78-.47,6.88-.54,9.67-.15,19.45,2.69,20.04,38.18-.15,41.62-29.19,4.97-29.79-38.02-9.52-41.47ZM1898.95,508.17c-11.98,1.45-14.04,33.47,3.67,30.73,11.35-1.76,11.02-32.51-3.67-30.73Z" style="fill:#010102;"/><path d="M2014.25,538.83l5.45,1.09-1.18,4.07-10.45-.49-.94-4.56c-8.1,8.85-26.4,8.35-25.02-6.5,1.17-12.57,22.89-9.01,23.91-13.05-.42-9.36-4.34-14.47-13.89-9.95l-.97,6.53h-6.01s-.58-11.06-.58-11.06c1.43-1.92,15.27-2.3,18.1-1.95,16.3,1.97,7.85,25.28,11.59,35.87ZM2006.13,525.97c-6.05,1.33-18.35.51-15.5,9.99,7.49,7.64,16.05-1.34,15.5-9.99Z" style="fill:#010102;"/><path d="M1565.32,524.96c.79,14.94,10.3,15.97,22.33,11.06l2.22,3.95c-16.32,11.98-35.15,2.1-33.54-18.5.91-11.66,7.51-19.02,19.52-18.54s17.74,12.1,12.96,22.03h-23.49ZM1565.32,519.96c4.22-1.64,17.43,1.25,16.82-4.23-1.5-13.42-17.72-8.07-16.82,4.23Z" style="fill:#010102;"/><path d="M1276.43,524.96c.2,6.4,4.05,14.23,11.34,13.92,5.04-.22,11.84-5.96,13.6.45-20.79,17.25-42.42-6.12-30.48-28.4,5.46-10.18,22.58-11.38,28.39-1.3,1.44,2.51,4.73,15.33.65,15.33h-23.49ZM1293.43,518.97c.56-15.16-14.86-14.28-16.82-.46.82,1.57,1.65,1.45,3.18,1.4,4.06-.12,9.13-1.84,13.64-.94Z" style="fill:#010102;"/><path d="M1757.24,524.96c.2,6.4,4.05,14.23,11.34,13.92,5.04-.22,11.84-5.96,13.6.45-20.79,17.25-42.42-6.12-30.48-28.4,5.46-10.18,22.58-11.38,28.39-1.3,1.44,2.51,4.73,15.33.65,15.33h-23.49ZM1774.24,518.97c.56-15.16-14.86-14.28-16.82-.46.82,1.57,1.65,1.45,3.18,1.4,4.06-.12,9.13-1.84,13.64-.94Z" style="fill:#010102;"/><path d="M2092.22,515.84c2.35-11.17-14.53-9.89-11.95-1.56,1.83,5.9,20.04,5.91,20.48,18.33.51,14.47-19.34,14.49-28.47,9.17l.83-11.82,5.06.43,1.84,7.92c3.99,2.85,13.01,2.25,13.01-3.86,0-7.68-21.34-8.72-20.85-20.89.49-12.23,17.47-12.31,25.98-9.05.24,5.15,1.51,14.45-5.92,11.34Z" style="fill:#010102;"/><path d="M1549.82,486.01l1.41,1.61-.33,3.47-5.63,1.36-1.16,52.78c-.55,2.45-10.22,15.11-12.27,14.69-3.77-3.34.96-8.08,2.24-11.72,3.5-9.92,3.17-37.4,2.28-48.74-.19-2.48-.86-4.87-1.17-7.32l-5.78-1.22,1.41-4.91h18.99Z" style="fill:#010102;"/><path d="M1948.16,543.94l.43-4.06,5.44-2.55c-.18-7.45.68-15.52.17-22.89-.55-7.87-.67-5.25-5.35-6.62-1.68-.49-1.93-1.81-1.68-3.32.86-2.72,9.94-1.05,12.41-1.57l2.08,6.06c3.73-6.7,10.58-6.36,17.5-6.01l-.93,14.56-4.62-.52-1.46-8.04c-14.58,1.55-9.08,17.97-9.85,28.33l1.5,1.5,6.37.13v5h-22Z" style="fill:#010102;"/><path d="M1495.34,502.99l9.35.15c7.09,8.53-8.48,4.96-9.35,5.84,1.22,7.3-1.72,20.8.21,27.27.36,1.2,1.33,2.11,2.5,2.56,13.54-5.59,10.85,5.5.79,6.2-17.79,1.25-9.71-25.29-11.47-36.03-15.99-1.18-2.88-4.44.02-7.46,1.41-1.47,2.77-6.4,3.58-6.58,6.7-1.5,3.63,7.28,4.39,8.06Z" style="fill:#010102;"/><path d="M1938.17,538.95h6s0,4.99,0,4.99h-20.99l.94-4.56,4.91-.58c1.69-1.02,1.93-27.87-.09-29.58l-5.71-1.29.9-4.51c1.32-.92,12.55-1.21,14.05,1.06v34.46Z" style="fill:#010102;"/><path d="M1429.21,543.79c-1.18.75-19.94.68-20.82-1.36-1.71-3.98,5.28-2.64,6.55-4.43l.5-28.42-6.64-2.56.7-3.93,13.44.82c1.9,2.73-.7,26.78.43,32.53.8,4.06,5.03,1.47,6.57,3.46l-.73,3.88Z" style="fill:#010102;"/><path d="M1418.1,485.17c7.33-1.13,8.47,11.4.59,11.56-6.7.13-7.55-10.49-.59-11.56Z" style="fill:#010102;"/><path d="M1936.93,486.25c4.65,4.66-2.07,14.54-7.31,8.79-5.15-5.64,2.83-13.3,7.31-8.79Z" style="fill:#010102;"/><path d="M426.77,271.25l16.99,8.5c-5.26.58-10.73-1.89-15.99-2.5-.55-2.82-.93-1.35-1-5.99Z" style="fill:#e3332e;"/><path d="M1541.33,189.35c5.16,1.59-1.07,14.73-4,11.98,1.76-1.9-.02-3.77,0-3.99.29-2.99,1.22-6.33,4-7.99Z" style="fill:#7da25f;"/><path d="M1602.3,312.21l-11,1.99c2.6-3.49,7.32-4.97,11-6.98.06,2.02.79,1.19,0,4.99Z" style="fill:#e3332e;"/><path d="M706.67,245.29l-25.9-.9c-2.84,12.07-5.14,24.21-6.95,36.5-3.83,25.92-7.65,54.87-10.01,80.89-2.93,32.19-.45,72.9,36.33,84.31,41.2,12.79,69.65-17.02,77.04-54.94,3.16-33.89,11.32-69.7,13.45-103.43.24-3.78.44-28.14-.45-29.49l-23.39-6.09,2.87-17.85c25.04,6.6,51.18,7.43,76.96,8.99l-1,18.99-25.95-.96c-1.96,10.18-4.32,20.28-5.9,30.56-5.01,32.63-6.47,67.09-12.45,99.43-9.3,50.26-40.69,84.6-95,77.58-106.1-13.71-69.21-125.64-62.63-197.14,1.03-11.19.8-21.13-.12-32.32l-23.43-7.08,2.57-16.02c27.31,6.09,55.32,8.62,83.32,9.13l1.2.79-.55,19.05Z" style="fill:#fcfdfe;"/><path d="M165.88,241.28l2,48.96c-3.68-.89-17.56,3-19.56.06-1.03-10.6-3.58-20.91-9.1-30.11-31.58-8.24-77.85-2.47-72.22,40.45,2.16,16.45,18.25,25.99,31.94,32.02,39.93,17.59,93.77,21.98,100.81,75.07,8,60.37-56.17,78.33-104.38,75.33-12.89-.8-29.13-3.67-40.31-9.66l-2.14-50.31,21.89-.89c1.82,12.35,3.38,25.01,9.12,36.33,33.04,10.68,85.89,4.68,81.93-40.92-1.78-20.48-16.04-29.28-33-36.94-30.4-13.73-79.96-20.55-93.69-55.21-9.97-25.16-5.81-50.52,15.29-68.16,30.31-25.34,74.84-17.75,111.43-16.02Z" style="fill:#fefefc;"/><path d="M1513.34,380.13l11.97-.98,3.81,27.69c.26,1.21-.53,1.59-1.37,2.14-3.74,2.48-21.11,6.53-26.39,7.61-44.01,8.99-77.52-4.51-86.68-51.25-12.05-61.51,20.16-94.27,81.16-90.09,2.76.19,18.31,2.44,19.51,3.47,1.1.94.9,1.72,1.05,2.95.58,4.8.57,18.27,0,23.08-.13,1.07.04,2.3-.98,3.01l-10.92.3c-1.56-.97-.74-16.67-4.89-18.84-4.36-2.29-23.31-2.52-28.73-1.99-54.74,5.41-46.81,122.04,9.95,120.87,5.28-.11,25.82-4.18,29.85-6.93.7-.48,2.67-6.02,2.67-6.57v-14.48Z" style="fill:#fcfafc;"/><path d="M1749.74,272.25l-1.29,1.71c-1.63,8.5-2.5,17.13-3.2,25.77-1.66,20.31-3.26,42.58-4.05,62.88-.33,8.47.33,17.05.04,25.52,13.17.53,26.17,2.29,39.3.81,4.54-1.38,7.68-15.34,8.75-19.72l10.5,1.85c.54.73.47,1.66.47,2.52,0,2.68-3.46,24.55-4.28,26.79-.89,2.44-2.75,2.9-5.2,2.78-28.46-2.01-56.94-4.94-85.48-5.1l-.61-10,14.62-1.37c.8-.56,2.35-7.65,2.67-9.32,5.13-26.93,1.81-59.18,6.26-86.64l-1.09-19.37-14.48-3.04,1.03-9.09,48.92.99,1.61,12.05h-14.49Z" style="fill:#fbfcfa;"/><path d="M1364.4,310.21l-10.95-.05c-.39-3.9-2.09-15.16-5.76-16.72l-41.16-2.1c-3.02,16.42-1.92,33.2-2.11,49.84,7.78.6,15.7,1.58,23.54,1.04,12.74-.88,10.14-2.3,12.59-13.89l8.27.74-.38,36.5-9.03,1.57-.96-12.33c-.63-2.88-30.61-2.78-35.04-2.66,1.4,18.36-3.49,36.93.57,54.98,11.02-.33,21.92,1.66,32.97,1.01,2.51-.15,8.72-.62,10.75-1.24,5.27-1.61,6.68-14.99,8.64-19.34l10.06-.45c-.28,5.29-1.52,30.57-4.42,33.08l-57.02-2.15-35.86,1.08c-2.17-.51-1.69-9.09-1.65-11.01l14.5-1.99c3.16-8.15,1.96-16.23,2.44-24.54,1.41-24.56,4.25-58.7,1.91-82.74-.15-1.55-1-7.62-1.81-8.18l-13.96-2.52.91-9.9,92.96,3.5v28.47Z" style="fill:#f9fcfb;"/><path d="M2047.17,298.18c-.69-13.27,3.79-19.26-11.04-23.43-13.22-3.71-30.32-4.16-35.48,11.5-8.14,24.68,29.71,37.12,44.94,49.96,31.34,26.4,16.31,68.23-23.92,69.92-11.27.48-28.02-3.34-38.51-7.54-2.86-1.14-13.74-5.93-13.78-8.74l4.94-27.02,1.46-1.61,12.24,2.03c.08,7.69-1.91,14.9,1.03,22.45,17.63,11.34,50.99,12.65,51.99-15.21,1.02-28.54-57.08-35.7-61.64-67.03-1.81-12.41,1.33-25.12,11.26-33.18,20.71-16.79,50.54-6.58,73.02.93l-5.08,28.04-11.43-1.07Z" style="fill:#f9f9fc;"/><path d="M1932.12,288.18l-11,.6c-2.54-5.41-1.66-13-7.64-16.33l-40.17.9c-3.02,2.57.82,42.26.33,48.9,1.65,2.37,27.32-.65,31.79-1.32,6.97-2.85-3.54-18.52,12.17-12.84l2.41,35.48c-.6,2.69-7.43,3.02-9.72,2.48l-3.73-12.75-32.3.92c.34,18.28.41,36.73,2.98,54.85,9.35-1.92,18.98-.34,28.44-.97,3.14-.21,12.23-1.23,14.74-2.25,6.3-2.56,6.1-14.9,7.86-20.61l10.9-.11c-.37,10.72.05,22.76-2.48,32.99l-94.45,4.92-.6-11.01,13.67-2.51c1.37-6.57,2-13.23,1.92-19.94-.29-25.2-.77-57.71-3.31-82.59-.19-1.91-2.15-11.7-2.95-12.53l-14.75-2.24,1.09-9.87,60.41-1.07,30.81-2.9,1.47,1.53,2.11,28.25Z" style="fill:#fefbf9;"/><path d="M58.93,18.54l.57,9.03-11.32,2.21-1.25,4.24c1.43,29.12,1.63,58.47,5.05,87.36,1.11,1.08,28.28-1.16,30.94-2.44,3.86-1.88,4.81-12.49,5.01-16.47l9.55.92.48,1.6c-2.12,4.9.84,22.07-3.04,23.95l-70.34,3.35c-2.49-.81-1.69-5.46-1.53-7.74,3.34-1.37,11.06-.09,11.88-4.6,1.07-5.86.24-20.28.04-27.01-.07-2.36-1-4.55-1.08-6.91-.62-18.29-.15-36.88-3.86-54.84l-12.09-1.63.14-7.36c.34-1.29,1.22-1.43,2.36-1.64,5.14-.95,13.33.4,19.04.04,2.95-.18,18.45-3.08,19.46-2.05Z" style="fill:#fef6f5;"/><path d="M200.71,23.68c1.94,1.23-.91,20.07.16,23.84h-9.01c.46-2.76-1.39-12.9-3.76-13.97-1.92-.87-10.87-1.72-13.74-2.01-6.29-.64-13.02-.16-19.34-.87-1.96,1.22-3.6,34.83-3,39.67.9,1.45,22.76,2.37,26.12,1.14l2.8-9.91,6.34.81c1.89,1.34-.39,8.24-.46,10.56-.14,5.36,2.73,22.05-6.33,19.45-3.34-.96-.14-8.58-2.6-10.44-8.81-2.27-17.95-2.74-27-2.47l-2.01,43.94c12.06-.09,26.14,4.32,37.46-.04l5.59-14.92,7.94.97-3.44,25.03-75.59-3.49-.82-7.45,11.25-1.23c1.85-.61,3.32-11.82,3.61-14.37,2.06-18.18,3.63-42.63,4-60.93.12-5.89-.02-11.56-1.12-17.34l-10.82-2.17-.04-7.95,73.81,4.14Z" style="fill:#f9fcfd;"/><path d="M1140.29,326.44c3.3-.28,22.38,1.76,23.75,3.68.19,2.62.02,14.19-2.2,14.93-8.79,2.92-1.79-8.97-10.11-11.62-9.83-3.13-21.86.74-19.03,13.03,2.52,10.93,31.11,14.5,34.33,29.62,5.06,23.77-18.82,27.84-36.74,23.73-14.23-3.26-8.25-5.68-8.66-18.04l1.5-1.5,5.92.8c.18,9.64.66,13.04,11.05,13.95s18.41-4.07,16.14-15.16c-2.99-14.61-37.96-13.08-34.66-38.1,1.16-8.81,10.41-14.62,18.71-15.31Z" style="fill:#fef6f5;"/><path d="M1093.51,326.19v14.48c0,1.47-4.72,2.15-6.06,1.06-1.14-13.31-13.3-9.27-23.26-10.59-2.42.56-3,21.55-2.61,24.96l15.31.92,3.21-6.92,3.97,1c.66.95-.19,15.48-.56,17.54-.54,3.02-3.32,3.4-5.55,1.55l-1.02-6.16-16.42-1.89-1.56,27.05c7.25,2.96,15.23,1.67,22.85,1.94l4.66-9.55c2-.91,5.73-1.14,5.85,1.8.08,1.96-2.39,14.41-3.79,15.25l-48.55-3.46c-2.56-6.99,2.73-4.85,7.35-6.25,2.98-6.19,1.64-12.91,2.22-19.27.93-10.32,3.24-23.91,3.02-33.92s-9.48-2.66-8.03-12.54l48.98,3Z" style="fill:#f2eef5;"/><path d="M954.56,396.11v-6s6.04-.46,6.04-.46c4.15-2.7,1.04-23.92.92-28.96-.18-7.68.78-16.57.03-24-.72-7.05-1.44-8.32-8.99-7.51-.75-9.3,3.53-4.75,8.45-4.95,16.27-.67,30.83-6.35,45.44,5.54,12.82,10.44,14.53,35.97,6.89,49.66-4.05,7.27-15.73,16.68-24.3,16.68h-34.49ZM971.55,329.18l1.14,59.3c1.18,3.64,16.04.9,19.42-.3,17.63-6.29,19.4-36.39,9.87-49.94-7.86-11.18-18.25-9.88-30.43-9.06Z" style="fill:#fefbf6;"/><path d="M971.55,329.18c12.18-.82,22.56-2.12,30.43,9.06,9.53,13.55,7.76,43.65-9.87,49.94-3.37,1.2-18.24,3.94-19.42.3l-1.14-59.3Z" style="fill:#fbbd5f;"/></g></svg>