<?xml version="1.0" standalone="no"?>
<!DOCTYPE svg PUBLIC "-//W3C//DTD SVG 20010904//EN"
 "http://www.w3.org/TR/2001/REC-SVG-20010904/DTD/svg10.dtd">
<svg version="1.0" xmlns="http://www.w3.org/2000/svg"
 width="700.000000pt" height="700.000000pt" viewBox="0 0 700.000000 700.000000"
 preserveAspectRatio="xMidYMid meet">
<metadata>
Created by potrace 1.14, written by Peter Selinger 2001-2017
</metadata>
<g transform="translate(0.000000,700.000000) scale(0.100000,-0.100000)"
fill="#000000" stroke="none">
<path d="M2888 5825 c-2 -2 -30 -5 -63 -8 -54 -5 -138 -18 -220 -32 -53 -10
-218 -53 -280 -74 -75 -24 -260 -101 -295 -122 -8 -4 -31 -16 -50 -26 -54 -26
-208 -122 -270 -167 -232 -170 -430 -375 -581 -601 -32 -49 -63 -95 -67 -101
-21 -31 -107 -198 -145 -284 -49 -108 -111 -293 -132 -390 -9 -39 -44 -219
-49 -250 -19 -116 -25 -366 -13 -521 l7 -87 -72 -53 c-40 -30 -82 -61 -93 -71
-322 -266 -445 -396 -527 -559 -41 -83 -45 -182 -10 -240 44 -71 135 -114 292
-137 90 -14 416 -6 531 13 13 2 42 6 65 9 77 10 280 46 374 67 52 11 104 23
115 25 11 2 90 22 175 44 85 22 162 42 171 44 116 28 608 188 839 273 192 70
286 105 315 118 17 7 84 34 150 60 66 26 140 56 165 67 52 24 72 32 200 86 52
22 136 59 185 81 50 23 112 52 140 64 123 55 726 363 875 447 300 169 606 361
803 505 129 94 412 308 468 354 31 25 76 62 99 81 24 19 47 37 51 40 19 13 47
94 42 124 -14 91 -111 155 -191 125 -12 -5 -109 -73 -215 -153 -213 -159 -425
-306 -441 -306 -6 0 -22 30 -35 68 -33 90 -144 307 -211 412 -311 482 -781
834 -1320 989 -99 28 -225 55 -315 66 -22 3 -58 8 -80 11 -38 6 -382 13 -387
9z m-2079 -3055 c17 -58 38 -127 47 -153 9 -26 14 -50 11 -53 -12 -12 -223 -8
-260 5 -44 15 -77 47 -77 74 0 52 85 164 195 257 l40 33 7 -29 c4 -16 21 -76
37 -134z"/>
<path d="M6715 5513 c-49 -4 -181 -21 -215 -28 -14 -3 -36 -7 -50 -10 -313
-59 -781 -279 -838 -395 -24 -49 -16 -93 20 -124 19 -15 34 -17 88 -12 36 3
81 9 100 13 46 9 157 10 195 1 46 -11 153 -67 180 -94 80 -80 117 -173 118
-294 1 -71 -4 -101 -32 -181 -39 -116 -39 -162 2 -192 57 -43 114 -21 211 80
195 207 391 578 471 893 25 97 25 97 32 208 5 83 3 106 -8 113 -25 15 -183 28
-274 22z"/>
<path d="M5270 3599 c-36 -17 -81 -38 -100 -46 -69 -31 -857 -423 -958 -477
-806 -427 -1365 -796 -1693 -1117 -189 -184 -264 -302 -262 -414 2 -137 99
-255 260 -315 29 -11 65 -22 80 -25 16 -3 39 -7 53 -10 76 -17 189 -23 390
-20 124 2 236 5 250 8 14 3 61 11 105 17 97 14 336 75 376 96 16 8 31 14 34
14 23 1 174 65 274 117 216 113 394 244 571 422 131 132 147 150 229 261 295
398 460 875 476 1374 3 110 1 146 -8 145 -7 0 -41 -14 -77 -30z"/>
</g>
</svg>
