<?xml version="1.0" standalone="no"?>
<!DOCTYPE svg PUBLIC "-//W3C//DTD SVG 20010904//EN"
 "http://www.w3.org/TR/2001/REC-SVG-20010904/DTD/svg10.dtd">
<svg version="1.0" xmlns="http://www.w3.org/2000/svg"
 width="242.000000pt" height="242.000000pt" viewBox="0 0 242.000000 242.000000"
 preserveAspectRatio="xMidYMid meet">
<metadata>
Created by potrace 1.11, written by Peter Selinger 2001-2013
</metadata>
<g transform="translate(0.000000,242.000000) scale(0.100000,-0.100000)"
fill="#000000" stroke="none">
<path d="M1205 2201 c-10 -9 -293 -90 -685 -195 -336 -89 -452 -117 -478 -114
-32 4 -52 -24 -36 -49 6 -10 22 -18 36 -18 13 -1 89 -37 169 -82 79 -45 167
-92 194 -106 43 -22 47 -26 30 -33 -78 -28 -183 -71 -255 -104 -47 -21 -93
-41 -103 -44 -12 -4 -17 -14 -15 -27 2 -16 50 -47 195 -128 106 -58 193 -109
193 -112 0 -6 -190 -98 -262 -125 -49 -19 -78 -41 -78 -60 0 -6 30 -26 67 -44
115 -53 274 -168 646 -464 197 -157 365 -286 373 -286 9 0 36 19 60 43 24 24
96 74 159 112 243 143 511 333 753 535 78 65 122 109 122 121 0 22 9 17 -202
99 -87 34 -160 65 -163 70 -3 5 94 59 215 120 196 98 221 113 218 133 -2 18
-12 23 -58 30 -101 14 -204 39 -313 74 -60 19 -107 36 -105 38 9 8 477 242
506 252 55 19 38 42 -58 79 -47 18 -161 49 -255 69 -172 37 -510 125 -729 190
-134 39 -129 38 -141 26z m484 -695 c-16 -16 -475 -226 -487 -224 -21 4 154
92 333 167 127 54 166 69 154 57z m-423 -62 l59 -26 -66 -33 -65 -33 -57 26
c-31 14 -57 29 -57 32 0 5 37 22 126 59 1 1 28 -11 60 -25z m-231 -78 c63 -30
115 -57 115 -60 0 -5 -157 66 -215 97 -64 35 -10 15 100 -37z m825 -215 c0 -8
-40 -31 -230 -138 l-25 -15 24 19 c35 27 215 142 224 143 4 0 7 -4 7 -9z"/>
</g>
</svg>
